#define bullet_small_width 13
#define bullet_small_height 13
static unsigned char bullet_small_bits[] = {
   0x00, 0x00, 0x00, 0x00, 0x00, 0x00, 0x20, 0x00, 0x60, 0x00, 0xa0, 0x00,
   0x20, 0x01, 0xa0, 0x00, 0x60, 0x00, 0x20, 0x00, 0x00, 0x00, 0x00, 0x00,
   0x00, 0x00 };
