#define max_width 10
#define max_height 10
static unsigned char max_bits[] = {
   0x00, 0x00, 0x00, 0x00, 0xf8, 0x00, 0x88, 0x00, 0xbc, 0x00, 0xa4, 0x00,
   0xe4, 0x00, 0x3c, 0x00, 0x00, 0x00, 0x00, 0x00 };
