<?xml version="1.0" encoding="iso-8859-1"?>
<!-- Generator: Adobe Illustrator 9.0, SVG Export Plug-In  -->
<!DOCTYPE svg PUBLIC "-//W3C//DTD SVG 20000303 Stylable//EN"   "http://www.w3.org/TR/2000/03/WD-SVG-20000303/DTD/svg-20000303-stylable.dtd" [
	<!ENTITY st0 "fill:url(#aigrd7);">
	<!ENTITY st1 "fill:url(#aigrd9);">
	<!ENTITY st2 "fill:url(#aigrd1);stroke:none;">
	<!ENTITY st3 "fill:#000000;stroke:none;">
	<!ENTITY st4 "fill:#848484;stroke:none;">
	<!ENTITY st5 "opacity:0.45;">
	<!ENTITY st6 "fill:url(#aigrd10);">
	<!ENTITY st7 "fill:url(#aigrd11);">
	<!ENTITY st8 "fill:url(#aigrd12);">
	<!ENTITY st9 "fill:url(#aigrd13);">
	<!ENTITY st10 "fill:url(#aigrd14);">
	<!ENTITY st11 "fill:url(#aigrd15);">
	<!ENTITY st12 "fill:url(#aigrd16);">
	<!ENTITY st13 "fill:url(#aigrd17);">
	<!ENTITY st14 "fill:url(#aigrd18);">
	<!ENTITY st15 "fill:url(#aigrd19);">
	<!ENTITY st16 "fill:url(#aigrd20);">
	<!ENTITY st17 "fill:url(#aigrd3);stroke:none;">
	<!ENTITY st18 "fill:#545454;stroke:none;">
	<!ENTITY st19 "opacity:0.58;fill:url(#aigrd8);">
	<!ENTITY st20 "fill:#FFFFFF;stroke:none;">
	<!ENTITY st21 "fill:url(#aigrd5);stroke:none;">
	<!ENTITY st22 "fill:url(#aigrd6);stroke:#000000;stroke-width:0.885;">
	<!ENTITY st23 "fill-rule:nonzero;clip-rule:nonzero;fill:#DEDEDE;stroke:#000000;stroke-miterlimit:4;">
	<!ENTITY st24 "stroke:none;">
	<!ENTITY st25 "fill:#B3B3B3;stroke:none;">
	<!ENTITY st26 "fill:url(#aigrd4);stroke:none;">
	<!ENTITY st27 "fill:url(#aigrd1);stroke-width:4.2856;stroke-linecap:round;stroke-linejoin:round;">
	<!ENTITY st28 "fill:none;stroke-width:4.2856;stroke-linecap:round;stroke-linejoin:round;">
]>
<svg  width="57.6pt" height="63.3pt" viewBox="0 0 57.6 63.3" xml:space="preserve">
	<g id="Layer_x0020_1" style="&st23;">
		<g style="&st5;">
			<path style="&st3;" d="M27.1,43.6c-3.8-0.9-9.5,0.2-12.6,2.4L11,48.5c-3.2,2.3-2.7,5.1,1,6.2l28,8.5c3.7,1.1,9.1-0.1,12-2.8l3.9-3.6c2.9-2.6,2.1-5.6-1.7-6.5l-27.2-6.7z"/>
		</g>
		<radialGradient id="aigrd1" cx="30.1807" cy="40.522" r="18.3228" fx="30.1807" fy="40.522" gradientUnits="userSpaceOnUse">
			<stop  offset="0" style="stop-color:#B6B6B6"/>
			<stop  offset="1" style="stop-color:#878787"/>
		</radialGradient>
		<path style="&st27;" d="M34.2,40.8c-8.5,0-15.3,3-15.3,6.7v1.8c0,3.7,6.9,6.7,15.3,6.7c8.5,0,15.3-3,15.3-6.7v-1.8c0-3.7-6.9-6.7-15.3-6.7z"/>
		<path style="&st2;" d="M34.2,40.8c-8.5,0-15.3,3-15.3,6.7v1.8c0,3.7,6.9,6.7,15.3,6.7c8.5,0,15.3-3,15.3-6.7v-1.8c0-3.7-6.9-6.7-15.3-6.7z"/>
		<path style="&st25;" d="M19.1,46.5c0.4,2.9,3.8,7.1,17.8,7.3c-10.7,1-19.1-2-17.8-7.3z"/>
		<g>
			<path style="&st3;" d="M53.3,10.9c0.1-0.8-0.1-1.5-0.4-1.5s-0.7-0.1-0.7-0.1s0,0,0,0S51.5,9.1,50.7,9L12.2,2.3c-0.8-0.1-1.8-0.2-2.3-0.2c-0.5,0-0.9,0-0.9,0s-0.3,0-0.7,0c-0.4,0-0.8,0.7-0.9,1.4l-5.2,36c-0.1,0.8,0.4,1.6,1.2,1.8l36.8,10.8
				c0.8,0.2,1.4,0.4,1.4,0.4s0,0,0,0c0,0,0.3,0.1,0.7,0.2s0.8,0.2,1,0.1c0.2-0.1,0.5-0.1,0.7-0.1c0.2,0,0.7-0.2,0.7-0.2c0,0,0.4-0.1,0.8-0.2s0.9-0.8,1.1-1.6l6.7-40z"/>
			<path style="&st28;" d="M53.3,10.9c0.1-0.8-0.1-1.5-0.4-1.5s-0.7-0.1-0.7-0.1s0,0,0,0S51.5,9.1,50.7,9L12.2,2.3c-0.8-0.1-1.8-0.2-2.3-0.2c-0.5,0-0.9,0-0.9,0s-0.3,0-0.7,0c-0.4,0-0.8,0.7-0.9,1.4l-5.2,36c-0.1,0.8,0.4,1.6,1.2,1.8l36.8,10.8
				c0.8,0.2,1.4,0.4,1.4,0.4s0,0,0,0c0,0,0.3,0.1,0.7,0.2s0.8,0.2,1,0.1c0.2-0.1,0.5-0.1,0.7-0.1c0.2,0,0.7-0.2,0.7-0.2c0,0,0.4-0.1,0.8-0.2s0.9-0.8,1.1-1.6l6.7-40z"/>
		</g>
		<g>
			<linearGradient id="aigrd3" gradientUnits="userSpaceOnUse" x1="7.5586" y1="26.3179" x2="44.7001" y2="28.993">
				<stop  offset="0" style="stop-color:#F8F8F8"/>
				<stop  offset="1" style="stop-color:#C9C9C9"/>
			</linearGradient>
			<path style="&st17;" d="M9.4,2.6c-1-0.2-2,0.5-2.1,1.5L2.2,39.3c-0.1,1,0.5,2.1,1.5,2.4l37.3,10.9c1,0.3,1.9-0.3,2.1-1.3l7.1-40c0.2-1-0.5-2-1.5-2.1L9.4,2.6z"/>
		</g>
		<g>
			<linearGradient id="aigrd4" gradientUnits="userSpaceOnUse" x1="39.1641" y1="41.772" x2="59.2957" y2="18.0717">
				<stop  offset="0" style="stop-color:#9F9F9F"/>
				<stop  offset="1" style="stop-color:#828282"/>
			</linearGradient>
			<path style="&st26;" d="M46.6,50.4c-0.2,1-1.1,2-2,2.3s-1.6-0.4-1.4-1.4l7.1-40c0.2-1,1-1.8,1.8-1.8c0.8,0,1.3,0.8,1.1,1.8l-6.6,39.1z"/>
		</g>
		<g>
			<linearGradient id="aigrd5" gradientUnits="userSpaceOnUse" x1="9.1724" y1="5.8223" x2="52.0303" y2="5.8223">
				<stop  offset="0" style="stop-color:#EBEBEB"/>
				<stop  offset="1" style="stop-color:#EAEAEA"/>
			</linearGradient>
			<path style="&st21;" d="M12.6,2.4c-1-0.2-2.6-0.3-3.4-0.2S8.4,2.4,9.4,2.6l39.3,6.6c1,0.2,2.5,0.3,3.3,0.3c0.8,0,0.6-0.1-0.4-0.3l-39-6.7z"/>
		</g>
		<path style="&st4;" d="M44.7,52.7c-0.9,0.4-1.9,0.4-3.1,0c1.1-0.3,1.6-1.2,1.6-1.2s0.2,1.4,1.5,1.2z"/>
		<path style="&st20;" d="M48.8,9.5c0.9,0.2,1.6,0.3,1.1,2.6l-3.2,19.3l3.8-20.2c0.2-1.2,0.9-1.6,1.5-1.7L9.3,2.4C9,2.4,8.9,2.2,8.9,2.2C8,2.3,7.4,3.2,7.3,4.1c0.5-0.8,0.8-1.4,1.7-1.2l39.8,6.7z"/>
		<path style="&st18;" d="M53.2,11.3c0-1.5-1.1-1.8-1.1-1.8s0.3-0.2,0-0.2c0.7,0.1,1.3,1,1,2.1z"/>
		<g style="&st20;">
			<linearGradient id="aigrd6" gradientUnits="userSpaceOnUse" x1="24.019" y1="10.8887" x2="24.019" y2="38.4185" gradientTransform="matrix(1 -2.300000e-003 2.300000e-003 1 -0.2674 0.2879)">
				<stop  offset="0" style="stop-color:#000000"/>
				<stop  offset="1" style="stop-color:#3A4A70"/>
			</linearGradient>
			<path style="&st22;" d="M36,44L6.1,35.4l4.1-29.1l31.3,5.4L36,44z"/>
			<linearGradient id="aigrd7" gradientUnits="userSpaceOnUse" x1="24.4155" y1="10.9878" x2="24.4155" y2="38.5162" gradientTransform="matrix(1 -2.300000e-003 2.300000e-003 1 -0.2674 0.2879)">
				<stop  offset="0" style="stop-color:#120751"/>
				<stop  offset="1" style="stop-color:#7473B5"/>
			</linearGradient>
			<path style="&st0;" d="M36.4,44.1L6.5,35.5l4.1-29.1l31.3,5.4l-5.5,32.3z"/>
			<g>
				<linearGradient id="aigrd8" gradientUnits="userSpaceOnUse" x1="25.1958" y1="9.7319" x2="25.1958" y2="20.739" gradientTransform="matrix(1 -2.300000e-003 2.300000e-003 1 -0.2674 0.2879)">
					<stop  offset="0" style="stop-color:#E7EBEF"/>
					<stop  offset="1" style="stop-color:#52699F"/>
				</linearGradient>
				<path style="&st19;" d="M12.3,8c-0.2,0-0.4,0.2-0.4,0.6l-2,13.9c0,0.3,0.1,0.6,0.2,0.6c8.1,0.1,21.6-3.7,29.2-7.2c0.3-0.1,0.5-0.5,0.5-0.9l0.2-1.3c0.1-0.4-0.1-0.7-0.3-0.8L12.3,8z"/>
			</g>
			<g>
				<path d="M10.2,28l4.5-1.3l-3.8-3.4l0.5-3.2l6.3,5.9l-0.4,2.7l-7.4,2.4l0.4-3.1z"/>
				<path d="M16.8,35.5l6.5,1.8l-0.1,0.9l-6.5-1.8l0.1-0.9z"/>
			</g>
		</g>
		<g style="&st24;">
			<g>
				<g>
					<g>
						<linearGradient id="aigrd9" gradientUnits="userSpaceOnUse" x1="41.7393" y1="37.2319" x2="43.2607" y2="35.4408">
							<stop  offset="0" style="stop-color:#9F9F9F"/>
							<stop  offset="1" style="stop-color:#828282"/>
						</linearGradient>
						<path style="&st1;" d="M44.7,36.5l-4-0.9l-0.2,1l4.2-0.2z"/>
						<path d="M44.4,37.5l0.3-1l-4.2,0.2l3.9,0.8z"/>
					</g>
					<g>
						<linearGradient id="aigrd10" gradientUnits="userSpaceOnUse" x1="42.5156" y1="32.6387" x2="44.0361" y2="30.8486">
							<stop  offset="0" style="stop-color:#9F9F9F"/>
							<stop  offset="1" style="stop-color:#828282"/>
						</linearGradient>
						<path style="&st6;" d="M45.5,31.9l-4-0.9l-0.2,1l4.2-0.2z"/>
						<path d="M45.2,32.9l0.3-1l-4.2,0.2l3.9,0.8z"/>
					</g>
					<g>
						<linearGradient id="aigrd11" gradientUnits="userSpaceOnUse" x1="43.292" y1="28.0459" x2="44.8123" y2="26.2561">
							<stop  offset="0" style="stop-color:#9F9F9F"/>
							<stop  offset="1" style="stop-color:#828282"/>
						</linearGradient>
						<path style="&st7;" d="M46.3,27.3l-4-0.9l-0.2,1l4.2-0.2z"/>
						<path d="M46,28.3l0.3-1l-4.2,0.2l3.9,0.8z"/>
					</g>
					<g>
						<linearGradient id="aigrd12" gradientUnits="userSpaceOnUse" x1="44.0684" y1="23.4526" x2="45.588" y2="21.6636">
							<stop  offset="0" style="stop-color:#9F9F9F"/>
							<stop  offset="1" style="stop-color:#828282"/>
						</linearGradient>
						<path style="&st8;" d="M47.1,22.7l-4-0.9l-0.2,1l4.2-0.2z"/>
						<path d="M46.8,23.7l0.3-1l-4.2,0.2l3.9,0.8z"/>
					</g>
					<g>
						<linearGradient id="aigrd13" gradientUnits="userSpaceOnUse" x1="44.8447" y1="18.8599" x2="46.3642" y2="17.0711">
							<stop  offset="0" style="stop-color:#9F9F9F"/>
							<stop  offset="1" style="stop-color:#828282"/>
						</linearGradient>
						<path style="&st9;" d="M47.8,18.1l-4-0.9l-0.2,1l4.2-0.2z"/>
						<path d="M47.5,19.1l0.3-1l-4.2,0.2l3.9,0.8z"/>
					</g>
					<g>
						<linearGradient id="aigrd14" gradientUnits="userSpaceOnUse" x1="45.6201" y1="14.2656" x2="47.1387" y2="12.4779">
							<stop  offset="0" style="stop-color:#9F9F9F"/>
							<stop  offset="1" style="stop-color:#828282"/>
						</linearGradient>
						<path style="&st10;" d="M48.6,13.6l-4-0.9l-0.2,1l4.2-0.2z"/>
						<path d="M48.3,14.5l0.3-1l-4.2,0.2l3.9,0.8z"/>
					</g>
				</g>
			</g>
			<g>
				<g>
					<g>
						<linearGradient id="aigrd15" gradientUnits="userSpaceOnUse" x1="46.3398" y1="14.2085" x2="47.4326" y2="12.922">
							<stop  offset="0" style="stop-color:#9F9F9F"/>
							<stop  offset="1" style="stop-color:#828282"/>
						</linearGradient>
						<path style="&st11;" d="M45.2,13.6l2.9,0.6l0.1-0.7l-3,0.1z"/>
						<path d="M45.4,12.8l-0.2,0.7l3-0.1l-2.8-0.6z"/>
					</g>
					<g>
						<linearGradient id="aigrd16" gradientUnits="userSpaceOnUse" x1="45.5869" y1="18.8027" x2="46.6794" y2="17.5166">
							<stop  offset="0" style="stop-color:#9F9F9F"/>
							<stop  offset="1" style="stop-color:#828282"/>
						</linearGradient>
						<path style="&st12;" d="M44.4,18.2l2.9,0.6l0.1-0.7l-3,0.1z"/>
						<path d="M44.6,17.4l-0.2,0.7l3-0.1l-2.8-0.6z"/>
					</g>
					<g>
						<linearGradient id="aigrd17" gradientUnits="userSpaceOnUse" x1="44.833" y1="23.3955" x2="45.925" y2="22.1099">
							<stop  offset="0" style="stop-color:#9F9F9F"/>
							<stop  offset="1" style="stop-color:#828282"/>
						</linearGradient>
						<path style="&st13;" d="M43.7,22.7l2.9,0.6l0.1-0.7l-3,0.1z"/>
						<path d="M43.9,22l-0.2,0.7l3-0.1L43.9,22z"/>
					</g>
					<g>
						<linearGradient id="aigrd18" gradientUnits="userSpaceOnUse" x1="44.0791" y1="27.9893" x2="45.1708" y2="26.7041">
							<stop  offset="0" style="stop-color:#9F9F9F"/>
							<stop  offset="1" style="stop-color:#828282"/>
						</linearGradient>
						<path style="&st14;" d="M42.9,27.3l2.9,0.6l0.1-0.7l-3,0.1z"/>
						<path d="M43.1,26.6l-0.2,0.7l3-0.1l-2.8-0.6z"/>
					</g>
					<g>
						<linearGradient id="aigrd19" gradientUnits="userSpaceOnUse" x1="43.3252" y1="32.583" x2="44.4164" y2="31.2983">
							<stop  offset="0" style="stop-color:#9F9F9F"/>
							<stop  offset="1" style="stop-color:#828282"/>
						</linearGradient>
						<path style="&st15;" d="M42.2,31.9l2.9,0.6l0.1-0.7l-3,0.1z"/>
						<path d="M42.4,31.2l-0.2,0.7l3-0.1l-2.8-0.6z"/>
					</g>
					<g>
						<linearGradient id="aigrd20" gradientUnits="userSpaceOnUse" x1="42.5703" y1="37.1763" x2="43.6611" y2="35.8921">
							<stop  offset="0" style="stop-color:#9F9F9F"/>
							<stop  offset="1" style="stop-color:#828282"/>
						</linearGradient>
						<path style="&st16;" d="M41.4,36.5l2.9,0.6l0.1-0.7l-3,0.1z"/>
						<path d="M41.6,35.8l-0.2,0.7l3-0.1l-2.8-0.6z"/>
					</g>
				</g>
			</g>
		</g>
	</g>
</svg>
