<?xml version="1.0" encoding="iso-8859-1"?>
<!-- Generator: Adobe Illustrator 9.0, SVG Export Plug-In  -->
<!DOCTYPE svg PUBLIC "-//W3C//DTD SVG 20000303 Stylable//EN"   "http://www.w3.org/TR/2000/03/WD-SVG-20000303/DTD/svg-20000303-stylable.dtd" [
	<!ENTITY st0 "fill:none;stroke-width:3.273;stroke-linecap:round;stroke-linejoin:round;">
	<!ENTITY st1 "fill:#000000;stroke-width:3.273;stroke-linecap:round;stroke-linejoin:round;">
	<!ENTITY st2 "fill:url(#aigrd1);stroke:none;">
	<!ENTITY st3 "fill:url(#aigrd24);stroke:none;">
	<!ENTITY st4 "opacity:0.13;fill:url(#aigrd13);stroke:none;">
	<!ENTITY st5 "fill:#000000;stroke:none;">
	<!ENTITY st6 "fill:url(#aigrd11);stroke:none;">
	<!ENTITY st7 "fill:#C9C9C9;stroke:none;">
	<!ENTITY st8 "fill:#848484;stroke:none;">
	<!ENTITY st9 "fill:url(#aigrd9);stroke:none;">
	<!ENTITY st10 "fill:url(#aigrd21);stroke:none;">
	<!ENTITY st11 "opacity:0.35;">
	<!ENTITY st12 "opacity:0.45;">
	<!ENTITY st13 "opacity:0.72;stroke:none;">
	<!ENTITY st14 "fill:url(#aigrd31);stroke:none;">
	<!ENTITY st15 "fill:url(#aigrd19);stroke:none;">
	<!ENTITY st16 "fill:url(#aigrd6);stroke:none;">
	<!ENTITY st17 "fill:url(#aigrd33);">
	<!ENTITY st18 "fill:url(#aigrd34);">
	<!ENTITY st19 "fill:url(#aigrd35);">
	<!ENTITY st20 "fill:url(#aigrd36);">
	<!ENTITY st21 "fill:url(#aigrd37);">
	<!ENTITY st22 "fill:url(#aigrd38);">
	<!ENTITY st23 "fill:url(#aigrd39);">
	<!ENTITY st24 "fill:url(#aigrd40);">
	<!ENTITY st25 "fill:url(#aigrd41);">
	<!ENTITY st26 "fill:url(#aigrd42);">
	<!ENTITY st27 "fill:url(#aigrd43);">
	<!ENTITY st28 "fill:url(#aigrd44);">
	<!ENTITY st29 "fill:url(#aigrd29);stroke:none;">
	<!ENTITY st30 "fill:#C2C2C2;stroke-width:1.0588;stroke-linecap:round;stroke-linejoin:round;">
	<!ENTITY st31 "fill:url(#aigrd3);stroke:none;">
	<!ENTITY st32 "opacity:0.35;stroke:none;">
	<!ENTITY st33 "opacity:0.13;fill:url(#aigrd15);stroke:none;">
	<!ENTITY st34 "opacity:0.22;fill:#000000;stroke:none;">
	<!ENTITY st35 "fill-rule:nonzero;clip-rule:nonzero;fill:#BABABA;stroke:#000000;stroke-miterlimit:4;">
	<!ENTITY st36 "fill:url(#aigrd23);stroke:none;">
	<!ENTITY st37 "fill:#545454;stroke:none;">
	<!ENTITY st38 "fill-rule:nonzero;clip-rule:nonzero;fill:#FFFFFF;stroke:#000000;stroke-miterlimit:4;">
	<!ENTITY st39 "opacity:0.13;fill:url(#aigrd12);stroke:none;">
	<!ENTITY st40 "fill:url(#aigrd10);stroke:none;">
	<!ENTITY st41 "fill:#A6A6A6;stroke-width:0.6392;">
	<!ENTITY st42 "fill:url(#aigrd8);stroke:none;">
	<!ENTITY st43 "fill:url(#aigrd20);stroke:none;">
	<!ENTITY st44 "fill:#FFFFFF;stroke:none;">
	<!ENTITY st45 "fill:url(#aigrd16);stroke-width:3.273;stroke-linecap:round;stroke-linejoin:round;">
	<!ENTITY st46 "fill:url(#aigrd25);stroke-width:2.0486;stroke-linecap:round;stroke-linejoin:round;">
	<!ENTITY st47 "fill:url(#aigrd18);stroke:none;">
	<!ENTITY st48 "fill:url(#aigrd5);stroke:none;">
	<!ENTITY st49 "fill:#F8F8F8;stroke:none;">
	<!ENTITY st50 "fill:url(#aigrd28);stroke:none;">
	<!ENTITY st51 "fill:#A6A6A6;stroke:none;">
	<!ENTITY st52 "fill-rule:nonzero;clip-rule:nonzero;fill:#DEDEDE;stroke:#000000;stroke-miterlimit:4;">
	<!ENTITY st53 "fill:url(#aigrd25);stroke:none;">
	<!ENTITY st54 "opacity:0.13;fill:url(#aigrd14);stroke:none;">
	<!ENTITY st55 "fill:none;stroke:none;">
	<!ENTITY st56 "opacity:0.58;fill:url(#aigrd32);stroke:none;">
	<!ENTITY st57 "opacity:0.3;fill:#000000;stroke:none;">
	<!ENTITY st58 "fill:url(#aigrd22);stroke:none;">
	<!ENTITY st59 "fill-rule:nonzero;clip-rule:nonzero;stroke:#000000;stroke-miterlimit:4;">
	<!ENTITY st60 "fill:url(#aigrd7);stroke:none;">
	<!ENTITY st61 "stroke:none;">
	<!ENTITY st62 "fill:#F0F0F0;stroke:none;">
	<!ENTITY st63 "fill:url(#aigrd17);stroke:none;">
	<!ENTITY st64 "fill:url(#aigrd2);stroke-width:3.273;stroke-linecap:round;stroke-linejoin:round;">
	<!ENTITY st65 "fill:#B3B3B3;stroke:none;">
	<!ENTITY st66 "fill:url(#aigrd4);stroke:none;">
	<!ENTITY st67 "fill:url(#aigrd30);stroke-width:0.4231;">
	<!ENTITY st68 "fill:url(#aigrd27);stroke:none;">
]>
<svg  width="64pt" height="52pt" viewBox="0 0 64 52" xml:space="preserve">
	<g id="cables" style="&st59;">
		<path style="&st30;" d="M8.4,30.6c-0.4,1.1,0.1,2,1.3,2.5l0.3-0.6c-0.6-0.3-1.3-0.8-1-1.7c0.4-1.2,2.5-2.5,4.5-1.9l0.2-0.7C11.5,27.6,9,29,8.4,30.6z"/>
		<linearGradient id="aigrd1" gradientUnits="userSpaceOnUse" x1="8.3594" y1="30.7383" x2="13.7524" y2="30.7383">
			<stop  offset="0" style="stop-color:#D6D6D6"/>
			<stop  offset="1" style="stop-color:#848484"/>
		</linearGradient>
		<path style="&st2;" d="M8.4,30.6c-0.4,1.1,0.1,2,1.3,2.5l0.3-0.6c-0.6-0.3-1.3-0.8-1-1.7c0.4-1.2,2.5-2.5,4.5-1.9l0.2-0.7C11.5,27.6,9,29,8.4,30.6z"/>
		<path style="&st41;" d="M38.7,23.9l0.1,0.3c0,0,5-2,9.7-0.7l2.2,0.6c4,1,10.1,2.6,10.5,4.3c0.1,0.3-0.1,0.7-0.5,1c-3.3,2.7-5.7,2-8.1,1.3c-2-0.6-3.8-1.1-5.8,0.5c-0.8,0.6-1.1,1.1-1,1.6c0.2,0.8,1.6,1.3,3.1,1.7c1.4,0.4,2.8,0.8,3,1.5c0.1,0.3-0.1,0.7-0.5,1.1
			c-1.8,1.8-4.1,0.8-6.1,0c-1.7-0.7-3.2-1.4-4.2-0.4c-1,1-1.2,1.8-1.3,2.5c-0.1,0.8-0.3,1.6-1.6,2.9l0.2,0.2c1.4-1.4,1.6-2.3,1.7-3.1c0.1-0.7,0.3-1.3,1.2-2.3c0.9-0.9,2.3-0.3,3.9,0.4c2.1,0.9,4.5,1.9,6.4,0c0.5-0.5,0.7-1,0.6-1.4c-0.2-0.9-1.7-1.3-3.2-1.7
			c-1.4-0.4-2.8-0.8-2.9-1.5c-0.1-0.3,0.2-0.8,0.9-1.3c1.9-1.5,3.6-1,5.5-0.4c2.3,0.7,5,1.5,8.4-1.4c0.5-0.4,0.7-0.9,0.6-1.4c-0.4-1.9-6.1-3.4-10.7-4.5l-2.2-0.6c-4.9-1.3-9.9,0.7-9.9,0.7z"/>
		<path style="&st32;" d="M38.9,24.6l0.1,0.3c0,0,5-2,9.7-0.7l2.2,0.6c4,1,10.1,2.6,10.5,4.3c0.1,0.3-0.1,0.7-0.5,1c-3.3,2.7-5.7,2-8.1,1.3c-2-0.6-3.8-1.1-5.8,0.5c-0.8,0.6-1.1,1.1-1,1.6c0.2,0.8,1.6,1.3,3.1,1.7c1.4,0.4,2.8,0.8,3,1.5c0.1,0.3-0.1,0.7-0.5,1.1
			c-1.8,1.8-4.1,0.8-6.1,0c-1.7-0.7-3.2-1.4-4.2-0.4c-1,1-1.2,1.8-1.3,2.5c-0.1,0.8-0.3,1.6-1.6,2.9l0.2,0.2c1.4-1.4,1.6-2.3,1.7-3.1c0.1-0.7,0.3-1.3,1.2-2.3c0.9-0.9,2.3-0.3,3.9,0.4c2.1,0.9,4.5,1.9,6.4,0c0.5-0.5,0.7-1,0.6-1.4c-0.2-0.9-1.7-1.3-3.2-1.7
			c-1.4-0.4-2.8-0.8-2.9-1.5c-0.1-0.3,0.2-0.8,0.9-1.3c1.9-1.5,3.6-1,5.5-0.4c2.3,0.7,5,1.5,8.4-1.4c0.5-0.4,0.7-0.9,0.6-1.4c-0.4-1.9-6.1-3.4-10.7-4.5l-2.2-0.6c-4.9-1.3-9.9,0.7-9.9,0.7z"/>
	</g>
	<g id="mouse" style="&st35;">
		<g style="&st11;">
			<path style="&st5;" d="M30.2,48.1c-0.5,0.5-0.5,3,1.8,3.3c0,0,4,1.2,6.4-1.1l3.9-3.7c0.5-0.5,0.3-1.8-0.3-2.1l-4.4-2.1c-0.7-0.3-1.6-0.1-2.1,0.4l-5.1,5.4z"/>
		</g>
		<radialGradient id="aigrd2" cx="31.8833" cy="40.9248" r="9.6183" fx="31.8833" fy="40.9248" gradientUnits="userSpaceOnUse">
			<stop  offset="0" style="stop-color:#EFEFEF"/>
			<stop  offset="1" style="stop-color:#6D6D6D"/>
		</radialGradient>
		<path style="&st64;" d="M40.3,43.6c0-0.1,0-0.2-0.1-0.3c-0.4-0.7-1.7-1.1-2.9-1.4c-0.2-0.1-0.4-0.2-0.7-0.3c-0.2,0-0.4,0-0.6,0.1c-0.3,0-0.6-0.1-0.8-0.1c-1.2,0-4.6,0-5.1,5c0,0.2,0,0.3,0,0.5c-0.5,2.1,4.1,3.3,6.1,1.5l3.8-3.8c0.3-0.3,0.2-0.9,0.1-1.2z"/>
		<path style="&st51;" d="M42.8,23.7l0.7,0.2c0,0,0.3-1.7,5.1-0.4l2.2,0.6c4,1,10.1,2.6,10.5,4.3c0.1,0.3-0.1,0.7-0.5,1c-3.3,2.7-5.7,2-8.1,1.3c-2-0.6-3.8-1.1-5.8,0.5c-0.8,0.6-1.1,1.1-1,1.6c0.2,0.8,1.6,1.3,3.1,1.7c1.4,0.4,2.8,0.8,3,1.5c0.1,0.3-0.1,0.7-0.5,1.1
			c-1.8,1.8-4.1,0.8-6.1,0c-1.7-0.7-3.2-1.4-4.2-0.4c-1,1-1.2,1.8-1.3,2.5c-0.1,0.8-0.3,1.6-1.6,2.9l0.2,0.2c1.4-1.4,1.6-2.3,1.7-3.1c0.1-0.7,0.3-1.3,1.2-2.3c0.9-0.9,2.3-0.3,3.9,0.4c2.1,0.9,4.5,1.9,6.4,0c0.5-0.5,0.7-1,0.6-1.4c-0.2-0.9-1.7-1.3-3.2-1.7
			c-1.4-0.4-2.8-0.8-2.9-1.5c-0.1-0.3,0.2-0.8,0.9-1.3c1.9-1.5,3.6-1,5.5-0.4c2.3,0.7,5,1.5,8.4-1.4c0.5-0.4,0.7-0.9,0.6-1.4c-0.4-1.9-6.1-3.4-10.7-4.5l-2.2-0.6c-4.9-1.3-5.8,0.5-5.9,0.5z"/>
		<linearGradient id="aigrd3" gradientUnits="userSpaceOnUse" x1="33.2998" y1="47.6934" x2="38.9612" y2="42.1449">
			<stop  offset="0" style="stop-color:#686868"/>
			<stop  offset="1" style="stop-color:#6D6D6D"/>
		</linearGradient>
		<path style="&st31;" d="M40.2,43.3l-9.7,3.2c-1.8,2.4,3.6,4.2,5.8,2.1l3.8-3.8c0.5-0.5,0-1.5,0-1.5z"/>
		<path style="&st62;" d="M40.2,43.4c-0.6-1.1-3.8-1.6-5-1.6s-4.6,0-5.1,5c-0.2,1.7,2.1,2.9,3.8,2.3c1.7-0.6,1.8-3.2,3.2-4.3c1.4-1.1,3.7-0.3,3.1-1.4z"/>
		<linearGradient id="aigrd4" gradientUnits="userSpaceOnUse" x1="30.3882" y1="46.6807" x2="40.6147" y2="42.9692">
			<stop  offset="0" style="stop-color:#FCFCFC"/>
			<stop  offset="1" style="stop-color:#BBBBBB"/>
		</linearGradient>
		<path style="&st66;" d="M40.2,43.3c-0.6-1.1-3.8-1.6-5-1.6c-1.2,0-4.6,0-5.1,5C30,48.4,32.3,49.5,34,49c1.7-0.6,1.8-3.2,3.2-4.3c1.4-1.1,3.7-0.3,3.1-1.4z"/>
		<linearGradient id="aigrd5" gradientUnits="userSpaceOnUse" x1="32.8628" y1="44.2939" x2="39.975" y2="41.7127">
			<stop  offset="0" style="stop-color:#EBEBEB"/>
			<stop  offset="1" style="stop-color:#818181"/>
		</linearGradient>
		<path style="&st48;" d="M40.3,43.6c0.1,0.5-2,0.2-2.5,0.7c-0.4-0.7-2-1.4-3.1-1.7c-1.2-0.3-2.6-0.1-2.6-0.1c1.9-1.8,8.1-0.6,8.2,1z"/>
		<path style="&st57;" d="M37.8,44.3l0.1,0.6c0.5-0.6,1.8,0.1,2.4-1c-0.6,0.8-2,0.4-2.3,0.7l-0.2-0.3z"/>
		<path style="&st57;" d="M34.7,42.6l0.2,0c0.9-0.8,3.4-0.5,3.4-0.5s-2.7-0.5-3.6,0.4z"/>
		<g>
			<radialGradient id="aigrd6" cx="37.0361" cy="43.1084" r="1.4451" fx="37.0361" fy="43.1084" gradientTransform="matrix(0.907 0.4211 -0.4211 0.907 20.8759 -13.3968)" gradientUnits="userSpaceOnUse">
				<stop  offset="0" style="stop-color:#EFEFEF"/>
				<stop  offset="1" style="stop-color:#6D6D6D"/>
			</radialGradient>
			<path style="&st16;" d="M36.6,41.6c-0.6-0.1-0.9,0.3-1,0.6c0.2,0.2,0.3,0.2,0.7,0.2c0.6,0,0.8-0.1,1.2-0.3c-0.2-0.2-0.5-0.5-0.9-0.5z"/>
			<radialGradient id="aigrd7" cx="36.3701" cy="43.0918" r="1.9756" fx="36.3701" fy="43.0918" gradientTransform="matrix(0.907 0.4211 -0.4211 0.907 20.8759 -13.3968)" gradientUnits="userSpaceOnUse">
				<stop  offset="0" style="stop-color:#9E9E9E"/>
				<stop  offset="1" style="stop-color:#535353"/>
			</radialGradient>
			<path style="&st60;" d="M36.9,41.8c-0.4-0.1-0.6,0.4-0.6,0.6c0.4,0,0.9-0.1,1.2-0.4c-0.1-0.1-0.3-0.2-0.5-0.3z"/>
		</g>
		<g style="&st61;">
			<path d="M31.6,47.7c0,0,0,0,0,0c0,0,0,0,0-0.1l0.1-0.2l0,0l-0.1,0.2c0,0,0,0.1,0,0.1c0,0,0,0-0.1,0l0,0z M31.7,47.4c0,0,0,0,0,0c0,0,0,0,0,0c0,0,0,0,0,0c0,0,0,0,0,0z"/>
			<path d="M31.8,47.5c0,0,0,0,0,0c0,0,0,0,0,0c0,0,0,0,0,0c0,0,0,0,0,0z M31.7,47.7l0.1-0.2l0,0l-0.1,0.2l0,0z"/>
			<path d="M31.8,47.6c0,0,0,0,0,0l0,0l0,0l0,0c0,0,0,0,0.1,0c0,0,0,0,0,0.1l0,0c0,0,0,0,0,0c0,0,0,0,0,0c0,0,0.1,0,0,0.1l0,0.1l0,0l0-0.1c0,0,0-0.1,0-0.1c0,0,0,0,0,0c0,0,0,0,0,0l0,0.1l0,0l0-0.1c0,0,0-0.1,0-0.1c0,0,0,0-0.1,0c0,0,0,0,0,0l0,0.1l0,0l0.1-0.1z"/>
			<path d="M32.1,47.7c0,0,0,0,0-0.1l0,0l0,0l0,0c0,0,0,0,0.1,0c0,0,0,0,0,0.1l0,0c0,0,0,0,0,0c0,0,0,0,0,0c0,0,0.1,0,0,0.1l0,0.1l0,0l0-0.1c0,0,0-0.1,0-0.1c0,0,0,0-0.1,0c0,0,0,0,0,0l0,0.1l0,0l0-0.1c0,0,0-0.1,0-0.1c0,0,0,0-0.1,0c0,0,0,0,0,0l0,0.1l0,0l0.1-0.1z
				"/>
			<path d="M32.5,47.9c0,0,0,0,0,0l0,0l0,0l0,0c0,0,0,0-0.1,0c0,0,0,0,0-0.1c0,0,0.1-0.1,0.1,0l0,0c0,0,0,0,0-0.1c0,0,0,0-0.1,0l0,0c0,0,0,0,0.1,0c0.1,0,0.1,0.1,0,0.1l0,0.1z M32.4,47.8c0,0-0.1,0-0.1,0c0,0,0,0,0,0c0,0,0,0,0.1,0c0,0,0,0,0,0l0,0z"/>
			<path d="M32.6,48c0,0,0,0-0.1,0c-0.1,0-0.1-0.1,0-0.1c0-0.1,0.1-0.1,0.2-0.1c0,0,0,0,0,0l0,0c0,0,0,0,0,0c0,0-0.1,0-0.1,0c0,0,0,0.1,0,0.1c0,0,0,0,0,0l0,0z"/>
		</g>
	</g>
	<g id="computercase" style="&st38;">
		<g style="&st11;">
			<path style="&st5;" d="M26.2,45.3c-1.7,1.7-5,3.3-6.9,2.4S4.5,41.1,4.5,41.1c-0.7-0.3-0.7-0.9-0.2-1.3l6.5-5c0.6-0.4,1.5-1.1,2.1-1.6l15.6-11.4c0.6-0.4,1.6-0.6,2.3-0.4l20.7,5.8c0.7,0.2,0.8,0.7,0.2,1.2l-3.9,3.1c-1.1,1.1,2.9,0.2,1.5,1.6l-6.8,5.9
				c-1.2,1.2-2.8-0.9-4,0l-1.2,0.9c-0.6,0.5-1.6,0.9-2.3,1l-3.1,0.4c-0.7,0.1-1.7,0.6-2.2,1.1c0,0-1.8,1.2-3.5,2.9z"/>
		</g>
		<path style="&st1;" d="M43.8,23.9c0,0,0,0,0,0c0,0-0.1,0-0.2-0.1c-0.5-0.2-14.1-3.9-14.7-4.1c-0.7-0.2-1.5-0.3-1.9-0.1c-0.4,0.1-11.6,6.6-12.2,7c-0.1,0.1-0.2,0.1-0.2,0.2c-0.8,0.7-0.8,1.7-0.8,1.7s0,0,0-0.1c0,0.1,0,0.1,0,0.2l0.2,2.9c0,0.6,0.1,0.8,0.6,1
			c0,0,14.5,5.8,16.3,6.2c0.1,0,0.1,0,0.2,0c0,0,0,0,0,0c0.8,0.2,1,0.1,1.3-0.2c0,0,0.1,0,0.1-0.1c0.3-0.2,11.4-8.7,11.8-9c0.3-0.3,0.4-0.5,0.4-0.8c0-0.3,0.2-2.6,0.2-3c0,0,0-0.1,0-0.1c0,0,0,0,0,0c0-0.5,0-1.3-1.2-1.6z M31.8,38.2c0,0,0,0,0,0l0,0l0,0
			c0,0,0,0.1,0,0.1c0,0,0-0.1,0-0.1s0,0,0,0z M43.4,25.6c0.4-0.3,0.7-0.5,0.7-0.5s-0.3,0.2-0.8,0.6c-0.7,0.5-1.8,1.3-3,2.1c1.9-1.3,3.6-2.5,4-2.8c-0.1,0.1-0.4,0.3-1,0.7z"/>
		<linearGradient id="aigrd8" gradientUnits="userSpaceOnUse" x1="15.3286" y1="27.8213" x2="45.1699" y2="27.8213" gradientTransform="matrix(0.997 7.730000e-002 -7.730000e-002 0.997 1.382 -3.616)">
			<stop  offset="0" style="stop-color:#EBEBEB"/>
			<stop  offset="1" style="stop-color:#EAEAEA"/>
		</linearGradient>
		<path style="&st42;" d="M28.9,19.8c-0.7-0.2-1.5-0.3-1.9-0.1c-0.4,0.1-11.6,6.6-12.2,7c-0.6,0.4-0.7,1.1,0.1,1.3c0.8,0.3,15.4,5,16,5.2s1.6,0.2,2-0.1c0.3-0.3,11.2-7.9,11.6-8.2c0.3-0.3-0.3-0.8-0.8-1c-0.5-0.2-14.1-3.9-14.7-4.1z"/>
		<linearGradient id="aigrd9" gradientUnits="userSpaceOnUse" x1="16.5273" y1="34.5977" x2="32.0841" y2="35.7181" gradientTransform="matrix(0.997 7.730000e-002 -7.730000e-002 0.997 1.382 -3.616)">
			<stop  offset="0" style="stop-color:#F8F8F8"/>
			<stop  offset="1" style="stop-color:#C9C9C9"/>
		</linearGradient>
		<path style="&st9;" d="M13.9,28.6c0-0.5,0.4-0.8,0.8-0.7c0.4,0.1,16.1,5.3,16.7,5.7s0.9,0.6,0.9,1c0,0.5-0.2,3.1-0.3,3.5c0,0.4-0.4,0.9-1,0.7c-1.7-0.4-16.3-6.2-16.3-6.2c-0.5-0.2-0.6-0.4-0.6-1l-0.2-2.9z"/>
		<linearGradient id="aigrd10" gradientUnits="userSpaceOnUse" x1="35.1357" y1="37.3555" x2="44.7307" y2="26.0597" gradientTransform="matrix(0.997 7.730000e-002 -7.730000e-002 0.997 1.382 -3.616)">
			<stop  offset="0" style="stop-color:#9F9F9F"/>
			<stop  offset="1" style="stop-color:#828282"/>
		</linearGradient>
		<path style="&st40;" d="M32.6,38.5c-0.3,0.2-0.8-0.1-0.8-0.6c0-0.6,0.2-3,0.3-3.5c0-0.5,0.3-0.9,0.6-1.2c0.3-0.3,11.3-7.9,11.7-8.2c0.4-0.4,0.6,0.3,0.6,0.7c0,0.4-0.2,2.6-0.2,3c0,0.3-0.1,0.5-0.4,0.8c-0.3,0.3-11.5,8.8-11.8,9z"/>
		<g style="&st61;">
			<path d="M31.6,33.1c-1-0.1-17-5.4-17.2-5.5c-0.1,0,0-0.6,0.4-0.9c-1,0.7-1,1.9-1,1.9s0.1-0.5,0.6-0.6c2,0.7,15.9,5.5,16.4,5.7c0.6,0.2,0.8,0.9,0.8,1.4l0.2,3.2l0.3-3.2c0-0.5,0.3-1.5,0.9-1.9c0.3-0.2,7.4-5.4,10.1-7.3c-2.7,1.9-10.3,7.3-11.5,7.2z"/>
			<path d="M43.1,25.9c0.6-0.4,1-0.7,1-0.7s-0.4,0.3-1,0.7z"/>
		</g>
		<path style="&st8;" d="M32.4,38.5c-0.4,0.3-0.6,0.4-1.3,0.2c0.5-0.2,0.7-0.5,0.7-0.5s0.1,0.3,0.6,0.3z"/>
		<path style="&st37;" d="M43.8,24c0.7,0.3,0.9,0.7,0.6,1c0.3-0.2,0.6,0.6,0.6,0.6c0-0.5,0-1.3-1.2-1.6z"/>
		<linearGradient id="aigrd11" gradientUnits="userSpaceOnUse" x1="24.541" y1="34.498" x2="30.0103" y2="34.498">
			<stop  offset="0" style="stop-color:#2A2A2A"/>
			<stop  offset="0.4743" style="stop-color:#585858"/>
			<stop  offset="1" style="stop-color:#878787"/>
		</linearGradient>
		<path style="&st6;" d="M24.5,33.2v0.7l5.5,1.9v-0.6l-5.5-2z"/>
		<path style="&st34;" d="M24.5,33.9l-0.3,0.2v-1.3l6,2.2L30,35.2l-5.5-2v0.7z"/>
		<path style="&st13;" d="M30.2,36.2v-1.3L30,35.2v0.6l-5.5-1.9l-0.3,0.2l6,2.1z"/>
		<linearGradient id="aigrd12" gradientUnits="userSpaceOnUse" x1="41.6797" y1="26.8496" x2="37.7833" y2="34.1414">
			<stop  offset="0" style="stop-color:#FFFFFF"/>
			<stop  offset="1" style="stop-color:#FFFFFF"/>
		</linearGradient>
		<path style="&st39;" d="M44.9,27.6l-12.1,8.8v0.4l12.1-9l0-0.3z"/>
		<linearGradient id="aigrd13" gradientUnits="userSpaceOnUse" x1="41.6797" y1="25.7842" x2="37.7836" y2="33.0754">
			<stop  offset="0" style="stop-color:#FFFFFF"/>
			<stop  offset="1" style="stop-color:#FFFFFF"/>
		</linearGradient>
		<path style="&st4;" d="M44.9,26.5l-12.1,8.8v0.4l12.1-9l0-0.3z"/>
		<linearGradient id="aigrd14" gradientUnits="userSpaceOnUse" x1="41.6797" y1="26.5049" x2="37.7833" y2="33.7967">
			<stop  offset="0" style="stop-color:#000000"/>
			<stop  offset="1" style="stop-color:#6A6A6A"/>
		</linearGradient>
		<path style="&st54;" d="M44.9,27.2l-12.1,8.8v0.4l12.1-9l0-0.3z"/>
		<linearGradient id="aigrd15" gradientUnits="userSpaceOnUse" x1="41.6807" y1="25.4395" x2="37.7842" y2="32.7313">
			<stop  offset="0" style="stop-color:#000000"/>
			<stop  offset="1" style="stop-color:#6A6A6A"/>
		</linearGradient>
		<path style="&st33;" d="M44.9,26.2L32.8,35v0.4l12.1-9l0-0.3z"/>
	</g>
	<g id="keyboard" style="&st38;">
		<linearGradient id="aigrd16" gradientUnits="userSpaceOnUse" x1="12.3916" y1="42.3467" x2="21.6304" y2="33.2922">
			<stop  offset="0" style="stop-color:#DBDBDB"/>
			<stop  offset="1" style="stop-color:#ACACAC"/>
		</linearGradient>
		<path style="&st45;" d="M25.9,37.4l-14.7-5.6c-0.5,1-1.2,1.9-1.9,2.6l0,0c-0.3-0.1-0.9-0.1-1.2,0.2l-2.5,1.9c-0.3,0.2-0.2,0.5,0,0.6l0,0c-1,0.5-1.6,0.8-1.6,0.8c-0.7,0.7,0.3,1.7,0.3,1.7L19,46c1.3,0.6,6.4-3.1,7.3-4.6c0.8-1.5-0.4-4.1-0.4-4.1z"/>
		<linearGradient id="aigrd17" gradientUnits="userSpaceOnUse" x1="11.9951" y1="43.459" x2="20.3376" y2="33.6376">
			<stop  offset="0" style="stop-color:#9F9F9F"/>
			<stop  offset="1" style="stop-color:#828282"/>
		</linearGradient>
		<path style="&st63;" d="M4.4,39.6L19.1,46c1.3,0.6,6.4-3.1,7.3-4.6c0.8-1.5-0.4-4.1-0.4-4.1l-14.7-5.6C9.3,35.8,4,37.9,4,37.9c-0.7,0.7,0.3,1.7,0.3,1.7z"/>
		<linearGradient id="aigrd18" gradientUnits="userSpaceOnUse" x1="4.0293" y1="38.0332" x2="25.9409" y2="38.0332">
			<stop  offset="0" style="stop-color:#EBEBEB"/>
			<stop  offset="1" style="stop-color:#EAEAEA"/>
		</linearGradient>
		<path style="&st47;" d="M25.9,37.4c-1.1,3.2-6.6,6.9-6.6,6.9L4,37.9c0,0,4.9-1.8,7.2-6.1l14.7,5.6z"/>
		<path style="&st61;" d="M25.9,37.4c-0.8,2.5-6.1,6.6-6.7,6.6C18.7,44,4,37.9,4,37.9l14.8,6.3c0,0,0.3,0.2,0.3,0.5l0.2,1.4l0.1-1.3c0,0,0-0.5,0.3-0.6c0,0,5.5-4.1,6.2-6.8z"/>
		<g>
			<linearGradient id="aigrd19" gradientUnits="userSpaceOnUse" x1="10.0361" y1="39.6816" x2="14.6452" y2="35.1645">
				<stop  offset="0" style="stop-color:#686868"/>
				<stop  offset="1" style="stop-color:#6D6D6D"/>
			</linearGradient>
			<path style="&st15;" d="M5.5,37.2c-0.3,0.2-0.3,0.6,0.1,0.7l8.6,3.5c0.4,0.2,0.9,0,1.2-0.2l2.4-2.3c0.3-0.3,0.2-0.6-0.2-0.8L9.5,35c-0.4-0.1-0.9-0.1-1.3,0.2l-2.7,2.1z"/>
		</g>
		<g>
			<linearGradient id="aigrd20" gradientUnits="userSpaceOnUse" x1="9.8589" y1="38.7549" x2="14.1187" y2="34.58">
				<stop  offset="0" style="stop-color:#DBDBDB"/>
				<stop  offset="1" style="stop-color:#ACACAC"/>
			</linearGradient>
			<path style="&st43;" d="M5.7,36.5c-0.3,0.2-0.3,0.5,0.1,0.7l7.9,3.3c0.3,0.1,0.8,0,1.1-0.2l2.2-2.1c0.3-0.3,0.2-0.6-0.1-0.7l-7.6-2.9c-0.3-0.1-0.9-0.1-1.2,0.2l-2.5,1.9z"/>
		</g>
		<g>
			<linearGradient id="aigrd21" gradientUnits="userSpaceOnUse" x1="18.0195" y1="42.1523" x2="21.334" y2="38.904">
				<stop  offset="0" style="stop-color:#686868"/>
				<stop  offset="1" style="stop-color:#6D6D6D"/>
			</linearGradient>
			<path style="&st10;" d="M19.8,38.7c-0.4-0.2-0.9,0-1.2,0.3L16,41.4c-0.3,0.3-0.2,0.7,0.2,0.8l2.4,1c0.4,0.2,0.9,0.1,1.2-0.2l2.5-2.5c0.3-0.3,0.2-0.7-0.2-0.8l-2.4-1z"/>
		</g>
		<g>
			<linearGradient id="aigrd22" gradientUnits="userSpaceOnUse" x1="18.0186" y1="41.3789" x2="20.9465" y2="38.5093">
				<stop  offset="0" style="stop-color:#DBDBDB"/>
				<stop  offset="1" style="stop-color:#ACACAC"/>
			</linearGradient>
			<path style="&st58;" d="M19.6,38.4c-0.3-0.1-0.8,0-1.1,0.2l-2.2,2.2c-0.3,0.3-0.2,0.6,0.1,0.7l2.1,0.9c0.3,0.1,0.8,0,1.1-0.2l2.2-2.2c0.3-0.3,0.2-0.6-0.2-0.7l-2.1-0.9z"/>
		</g>
		<g>
			<linearGradient id="aigrd23" gradientUnits="userSpaceOnUse" x1="13.8281" y1="35.6289" x2="16.4759" y2="33.0339">
				<stop  offset="0" style="stop-color:#686868"/>
				<stop  offset="1" style="stop-color:#6D6D6D"/>
			</linearGradient>
			<path style="&st36;" d="M11.3,32.6c-0.4-0.1-0.8,0-1,0.4l0,0.1c-0.2,0.3-0.1,0.7,0.3,0.9l7.6,3c0.4,0.1,0.8,0,1-0.3l0.1-0.2c0.2-0.3,0.1-0.7-0.3-0.9l-7.7-2.9z"/>
		</g>
		<g>
			<linearGradient id="aigrd24" gradientUnits="userSpaceOnUse" x1="13.6001" y1="35.8232" x2="14.8711" y2="33.7796">
				<stop  offset="0" style="stop-color:#DBDBDB"/>
				<stop  offset="1" style="stop-color:#ACACAC"/>
			</linearGradient>
			<path style="&st3;" d="M11.3,32.2c-0.3-0.1-0.8,0-1,0.3l0,0.1c-0.2,0.3-0.1,0.7,0.3,0.8l7.2,2.9c0.3,0.1,0.8,0,1-0.3l0.1-0.2c0.2-0.3,0.1-0.7-0.3-0.8l-7.3-2.8z"/>
		</g>
		<path style="&st49;" d="M24.9,37.7l-1.1,1.6l-4.7-1.9l1.1-1.4l4.7,1.7z"/>
		<path style="&st7;" d="M19.1,37.4l1.1-1.4l4.7,1.7l-0.3,0l-4.3-1.5l-1.2,1.2z"/>
		<path style="&st61;" d="M17.9,36.4l-7.4-3c-0.5-0.3-0.1-0.9-0.1-0.9s-0.3,0.6,0.3,0.8l7.2,2.9c0.6,0.2,1.1-0.4,1.1-0.4s-0.4,0.7-1,0.6z"/>
		<path style="&st61;" d="M13.9,40.4l-8-3.3c-0.6-0.3-0.1-0.7-0.1-0.7S5.4,36.8,6,37.1l7.8,3.2C14.4,40.4,15,40,15,40s-0.5,0.5-1.1,0.4z"/>
		<path style="&st61;" d="M18.6,42.4l-2.2-1c-0.6-0.3-0.1-0.7-0.1-0.7s-0.3,0.4,0.3,0.6l2,0.9c0.6,0.2,1.2-0.2,1.2-0.2s-0.5,0.5-1.1,0.4z"/>
	</g>
	<g id="monitor" style="&st52;">
		<g style="&st12;">
			<path style="&st57;" d="M28.3,22.3c-1.8-0.5-4.6-0.2-6.2,0.7l-4.4,2.4c-1.6,0.9-1.5,2.1,0.2,2.7l14.5,4.8l0.4,0.5l1.5,4.1l9.4-7L42,26.7c0,0-0.9-0.7-1.8-1l-11.9-3.4z"/>
		</g>
		<radialGradient id="aigrd25" cx="27.416" cy="20.6597" r="8.7597" fx="27.416" fy="20.6597" gradientUnits="userSpaceOnUse">
			<stop  offset="0" style="stop-color:#B6B6B6"/>
			<stop  offset="1" style="stop-color:#878787"/>
		</radialGradient>
		<path style="&st46;" d="M29.3,20.8c-4,0-7.3,1.4-7.3,3.2v0.9c0,1.8,3.3,3.2,7.3,3.2c4,0,7.3-1.4,7.3-3.2V24c0-1.8-3.3-3.2-7.3-3.2z"/>
		<path style="&st53;" d="M29.3,20.8c-4,0-7.3,1.4-7.3,3.2v0.9c0,1.8,3.3,3.2,7.3,3.2c4,0,7.3-1.4,7.3-3.2V24c0-1.8-3.3-3.2-7.3-3.2z"/>
		<path style="&st65;" d="M22.1,23.5c0.2,1.4,1.8,3.4,8.5,3.5c-5.1,0.5-9.1-1-8.5-3.5z"/>
		<g>
			<path style="&st5;" d="M38.4,6.5c0.1-0.4,0-0.7-0.2-0.7c-0.2,0-0.3-0.1-0.3-0.1s0,0,0,0s-0.3-0.1-0.7-0.1L18.8,2.4c-0.4-0.1-0.9-0.1-1.1-0.1c-0.2,0-0.6,0-0.8,0c-0.2,0-0.4,0.3-0.4,0.7L14,20.3c-0.1,0.4,0.2,0.8,0.6,0.9l17.6,5.2c0.4,0.1,0.7,0.2,0.7,0.2s0,0,0,0
				c0,0,0.1,0,0.3,0.1s0.4,0.1,0.5,0c0.1,0,0.3-0.1,0.3-0.1c0.1,0,0.3-0.1,0.3-0.1c0,0,0.2,0,0.4-0.1c0.2-0.1,0.4-0.4,0.5-0.8l3.2-19.1z"/>
			<path style="&st0;" d="M38.4,6.5c0.1-0.4,0-0.7-0.2-0.7c-0.2,0-0.3-0.1-0.3-0.1s0,0,0,0s-0.3-0.1-0.7-0.1L18.8,2.4c-0.4-0.1-0.9-0.1-1.1-0.1c-0.2,0-0.6,0-0.8,0c-0.2,0-0.4,0.3-0.4,0.7L14,20.3c-0.1,0.4,0.2,0.8,0.6,0.9l17.6,5.2c0.4,0.1,0.7,0.2,0.7,0.2s0,0,0,0
				c0,0,0.1,0,0.3,0.1s0.4,0.1,0.5,0c0.1,0,0.3-0.1,0.3-0.1c0.1,0,0.3-0.1,0.3-0.1c0,0,0.2,0,0.4-0.1c0.2-0.1,0.4-0.4,0.5-0.8l3.2-19.1z"/>
		</g>
		<g>
			<linearGradient id="aigrd27" gradientUnits="userSpaceOnUse" x1="16.6025" y1="13.8721" x2="34.358" y2="15.1509">
				<stop  offset="0" style="stop-color:#F8F8F8"/>
				<stop  offset="1" style="stop-color:#C9C9C9"/>
			</linearGradient>
			<path style="&st68;" d="M17.5,2.5c-0.5-0.1-0.9,0.3-1,0.7L14,20.1c-0.1,0.5,0.3,1,0.7,1.1l17.9,5.2c0.5,0.1,0.9-0.1,1-0.6L37,6.7c0.1-0.5-0.2-0.9-0.7-1L17.5,2.5z"/>
		</g>
		<g>
			<linearGradient id="aigrd28" gradientUnits="userSpaceOnUse" x1="31.7095" y1="21.2588" x2="41.3332" y2="9.9291">
				<stop  offset="0" style="stop-color:#9F9F9F"/>
				<stop  offset="1" style="stop-color:#828282"/>
			</linearGradient>
			<path style="&st50;" d="M35.3,25.4c-0.1,0.5-0.5,1-1,1.1s-0.7-0.2-0.7-0.7L37,6.7c0.1-0.5,0.5-0.9,0.9-0.9c0.4,0,0.6,0.4,0.5,0.9l-3.1,18.7z"/>
		</g>
		<g>
			<linearGradient id="aigrd29" gradientUnits="userSpaceOnUse" x1="17.374" y1="4.0742" x2="37.8613" y2="4.0742">
				<stop  offset="0" style="stop-color:#EBEBEB"/>
				<stop  offset="1" style="stop-color:#EAEAEA"/>
			</linearGradient>
			<path style="&st29;" d="M19,2.4c-0.5-0.1-1.2-0.1-1.6-0.1c-0.4,0-0.4,0.1,0.1,0.2l18.8,3.1c0.5,0.1,1.2,0.1,1.6,0.1c0.4,0,0.3-0.1-0.2-0.2L19,2.4z"/>
		</g>
		<path style="&st8;" d="M34.3,26.5c-0.4,0.2-0.9,0.2-1.5,0c0.5-0.2,0.8-0.6,0.8-0.6s0.1,0.7,0.7,0.6z"/>
		<path style="&st44;" d="M36.3,5.8c0.4,0.1,0.8,0.1,0.5,1.2l-1.5,9.2l1.8-9.7c0.1-0.6,0.4-0.7,0.7-0.8L17.4,2.4c-0.1,0-0.2-0.1-0.2-0.1c-0.4,0-0.7,0.5-0.8,0.9c0.2-0.4,0.4-0.6,0.8-0.6l19,3.2z"/>
		<path style="&st37;" d="M38.4,6.7c0-0.7-0.5-0.9-0.5-0.9s0.1-0.1,0-0.1c0.3,0,0.6,0.5,0.5,1z"/>
		<g>
			<linearGradient id="aigrd30" gradientUnits="userSpaceOnUse" x1="24.5947" y1="6.3745" x2="24.5947" y2="19.5348" gradientTransform="matrix(1 -2.300000e-003 2.300000e-003 1 -0.2542 0.289)">
				<stop  offset="0" style="stop-color:#000000"/>
				<stop  offset="1" style="stop-color:#3A4A70"/>
			</linearGradient>
			<path style="&st67;" d="M30.2,22.3l-14.3-4.1l1.9-13.9l14.9,2.6l-2.6,15.4z"/>
			<linearGradient id="aigrd31" gradientUnits="userSpaceOnUse" x1="24.7842" y1="6.4233" x2="24.7842" y2="19.5822" gradientTransform="matrix(1 -2.300000e-003 2.300000e-003 1 -0.2542 0.289)">
				<stop  offset="0" style="stop-color:#2F4030"/>
				<stop  offset="1" style="stop-color:#698969"/>
			</linearGradient>
			<path style="&st14;" d="M30.4,22.4l-14.3-4.1l1.9-13.9L33,6.9l-2.6,15.4z"/>
			<g>
				<linearGradient id="aigrd32" gradientUnits="userSpaceOnUse" x1="25.1572" y1="5.8223" x2="25.1572" y2="11.0836" gradientTransform="matrix(1 -2.300000e-003 2.300000e-003 1 -0.2542 0.289)">
					<stop  offset="0" style="stop-color:#E7EBEF"/>
					<stop  offset="1" style="stop-color:#739167"/>
				</linearGradient>
				<path style="&st56;" d="M18.9,5.1c-0.1,0-0.2,0.1-0.2,0.3l-0.9,6.6c0,0.2,0,0.3,0.1,0.3c3.9,0,10.3-1.8,13.9-3.5C31.9,8.8,32,8.7,32,8.5l0.1-0.6c0-0.2,0-0.4-0.1-0.4L18.9,5.1z"/>
			</g>
			<g>
			</g>
		</g>
		<g style="&st61;">
			<g>
				<g>
					<g>
						<linearGradient id="aigrd33" gradientUnits="userSpaceOnUse" x1="33.0674" y1="18.873" x2="33.7402" y2="18.0809">
							<stop  offset="0" style="stop-color:#9F9F9F"/>
							<stop  offset="1" style="stop-color:#828282"/>
						</linearGradient>
						<path style="&st17;" d="M34.4,18.6l-1.8-0.4l-0.1,0.5l1.9-0.1z"/>
						<path d="M34.3,19l0.1-0.4l-1.9,0.1l1.7,0.4z"/>
					</g>
					<g>
						<linearGradient id="aigrd34" gradientUnits="userSpaceOnUse" x1="33.4111" y1="16.8379" x2="34.0835" y2="16.0463">
							<stop  offset="0" style="stop-color:#9F9F9F"/>
							<stop  offset="1" style="stop-color:#828282"/>
						</linearGradient>
						<path style="&st18;" d="M34.7,16.5L33,16.1l-0.1,0.5l1.9-0.1z"/>
						<path d="M34.6,17l0.1-0.4l-1.9,0.1l1.7,0.4z"/>
					</g>
					<g>
						<linearGradient id="aigrd35" gradientUnits="userSpaceOnUse" x1="33.7539" y1="14.8047" x2="34.4264" y2="14.0129">
							<stop  offset="0" style="stop-color:#9F9F9F"/>
							<stop  offset="1" style="stop-color:#828282"/>
						</linearGradient>
						<path style="&st19;" d="M35.1,14.5l-1.8-0.4l-0.1,0.5l1.9-0.1z"/>
						<path d="M35,14.9l0.1-0.4l-1.9,0.1l1.7,0.4z"/>
					</g>
					<g>
						<linearGradient id="aigrd36" gradientUnits="userSpaceOnUse" x1="34.0967" y1="12.769" x2="34.7685" y2="11.9781">
							<stop  offset="0" style="stop-color:#9F9F9F"/>
							<stop  offset="1" style="stop-color:#828282"/>
						</linearGradient>
						<path style="&st20;" d="M35.4,12.5l-1.8-0.4l-0.1,0.5l1.9-0.1z"/>
						<path d="M35.3,12.9l0.1-0.4l-1.9,0.1l1.7,0.4z"/>
					</g>
					<g>
						<linearGradient id="aigrd37" gradientUnits="userSpaceOnUse" x1="34.4404" y1="10.7349" x2="35.1123" y2="9.9439">
							<stop  offset="0" style="stop-color:#9F9F9F"/>
							<stop  offset="1" style="stop-color:#828282"/>
						</linearGradient>
						<path style="&st21;" d="M35.8,10.4L34,10l-0.1,0.5l1.9-0.1z"/>
						<path d="M35.6,10.9l0.1-0.4l-1.9,0.1l1.7,0.4z"/>
					</g>
					<g>
						<linearGradient id="aigrd38" gradientUnits="userSpaceOnUse" x1="34.7842" y1="8.7007" x2="35.4557" y2="7.9101">
							<stop  offset="0" style="stop-color:#9F9F9F"/>
							<stop  offset="1" style="stop-color:#828282"/>
						</linearGradient>
						<path style="&st22;" d="M36.1,8.4L34.3,8l-0.1,0.5l1.9-0.1z"/>
						<path d="M36,8.8l0.1-0.4l-1.9,0.1L36,8.8z"/>
					</g>
				</g>
			</g>
			<g>
				<g>
					<g>
						<linearGradient id="aigrd39" gradientUnits="userSpaceOnUse" x1="35.1025" y1="8.6772" x2="35.5859" y2="8.1082">
							<stop  offset="0" style="stop-color:#9F9F9F"/>
							<stop  offset="1" style="stop-color:#828282"/>
						</linearGradient>
						<path style="&st23;" d="M34.6,8.4l1.3,0.3l0.1-0.3l-1.3,0z"/>
						<path d="M34.7,8.1l-0.1,0.3l1.3,0l-1.3-0.3z"/>
					</g>
					<g>
						<linearGradient id="aigrd40" gradientUnits="userSpaceOnUse" x1="34.7686" y1="10.7114" x2="35.252" y2="10.1423">
							<stop  offset="0" style="stop-color:#9F9F9F"/>
							<stop  offset="1" style="stop-color:#828282"/>
						</linearGradient>
						<path style="&st24;" d="M34.3,10.4l1.3,0.3l0.1-0.3l-1.3,0z"/>
						<path d="M34.3,10.1l-0.1,0.3l1.3,0l-1.3-0.3z"/>
					</g>
					<g>
						<linearGradient id="aigrd41" gradientUnits="userSpaceOnUse" x1="34.4365" y1="12.7466" x2="34.9199" y2="12.1775">
							<stop  offset="0" style="stop-color:#9F9F9F"/>
							<stop  offset="1" style="stop-color:#828282"/>
						</linearGradient>
						<path style="&st25;" d="M33.9,12.5l1.3,0.3l0.1-0.3l-1.3,0z"/>
						<path d="M34,12.1l-0.1,0.3l1.3,0L34,12.1z"/>
					</g>
					<g>
						<linearGradient id="aigrd42" gradientUnits="userSpaceOnUse" x1="34.1016" y1="14.7813" x2="34.585" y2="14.2122">
							<stop  offset="0" style="stop-color:#9F9F9F"/>
							<stop  offset="1" style="stop-color:#828282"/>
						</linearGradient>
						<path style="&st26;" d="M33.6,14.5l1.3,0.3l0.1-0.3l-1.3,0z"/>
						<path d="M33.7,14.2l-0.1,0.3l1.3,0l-1.3-0.3z"/>
					</g>
					<g>
						<linearGradient id="aigrd43" gradientUnits="userSpaceOnUse" x1="33.7686" y1="16.8159" x2="34.2519" y2="16.2469">
							<stop  offset="0" style="stop-color:#9F9F9F"/>
							<stop  offset="1" style="stop-color:#828282"/>
						</linearGradient>
						<path style="&st27;" d="M33.3,16.5l1.3,0.3l0.1-0.3l-1.3,0z"/>
						<path d="M33.3,16.2l-0.1,0.3l1.3,0l-1.3-0.3z"/>
					</g>
					<g>
						<linearGradient id="aigrd44" gradientUnits="userSpaceOnUse" x1="33.4355" y1="18.8511" x2="33.9189" y2="18.282">
							<stop  offset="0" style="stop-color:#9F9F9F"/>
							<stop  offset="1" style="stop-color:#828282"/>
						</linearGradient>
						<path style="&st28;" d="M32.9,18.6l1.3,0.3l0.1-0.3l-1.3,0z"/>
						<path d="M33,18.2l-0.1,0.3l1.3,0L33,18.2z"/>
					</g>
				</g>
			</g>
		</g>
		<path style="&st55;" d="M64,52H0V0h64v52z"/>
	</g>
	<g id="Layer_x0020_7" style="&st59;">
	</g>
</svg>
