<?xml version="1.0" encoding="iso-8859-1"?>
<!-- Generator: Adobe Illustrator 9.0, SVG Export Plug-In  -->
<!DOCTYPE svg PUBLIC "-//W3C//DTD SVG 20000303 Stylable//EN"   "http://www.w3.org/TR/2000/03/WD-SVG-20000303/DTD/svg-20000303-stylable.dtd" [
	<!ENTITY st0 "fill-rule:evenodd;clip-rule:evenodd;fill:url(#aigrd4);stroke:none;">
	<!ENTITY st1 "opacity:0.34;stroke:none;">
	<!ENTITY st2 "fill-rule:evenodd;clip-rule:evenodd;fill:url(#aigrd1);stroke-width:3.3124;">
	<!ENTITY st3 "opacity:0.28;stroke:none;">
	<!ENTITY st4 "fill-rule:nonzero;clip-rule:nonzero;fill:#FFFFFF;stroke:#000000;stroke-miterlimit:4;">
	<!ENTITY st5 "fill-rule:evenodd;clip-rule:evenodd;fill:url(#aigrd3);stroke:none;">
	<!ENTITY st6 "fill:none;stroke:none;">
	<!ENTITY st7 "fill-rule:evenodd;clip-rule:evenodd;fill:url(#aigrd2);stroke:none;">
	<!ENTITY st8 "fill-rule:nonzero;clip-rule:nonzero;stroke:#000000;stroke-miterlimit:4;">
	<!ENTITY st9 "opacity:0.5;stroke:none;">
	<!ENTITY st10 "stroke-width:1.5987;">
]>
<svg  width="48pt" height="48pt" viewBox="0 0 48 48" xml:space="preserve">
	<g id="Layer_x0020_3" style="&st8;">
		<radialGradient id="aigrd1" cx="19.7397" cy="12.3638" r="22.4875" fx="19.7397" fy="12.3638" gradientUnits="userSpaceOnUse">
			<stop  offset="0" style="stop-color:#2286B7"/>
			<stop  offset="1" style="stop-color:#190F50"/>
		</radialGradient>
		<path style="&st2;" d="M7.6,19.2c0,8.7,7.1,15.8,15.8,15.8c8.7,0,15.8-7.1,15.8-15.8c0-8.7-7.1-15.8-15.8-15.8c-8.7,0-15.8,7.1-15.8,15.8z"/>
		<radialGradient id="aigrd2" cx="18.3164" cy="12.3447" r="23.6885" fx="18.3164" fy="12.3447" gradientUnits="userSpaceOnUse">
			<stop  offset="0" style="stop-color:#99BBA8"/>
			<stop  offset="4.483276e-002" style="stop-color:#94B8A9"/>
			<stop  offset="9.596599e-002" style="stop-color:#87B0A9"/>
			<stop  offset="0.1502" style="stop-color:#72A1A9"/>
			<stop  offset="0.2065" style="stop-color:#538FA8"/>
			<stop  offset="0.264" style="stop-color:#2E79A7"/>
			<stop  offset="0.2865" style="stop-color:#1D70A5"/>
			<stop  offset="0.8539" style="stop-color:#190F50"/>
			<stop  offset="1" style="stop-color:#585287"/>
		</radialGradient>
		<path style="&st7;" d="M7.6,19.2c0,8.7,7.1,15.8,15.8,15.8c8.7,0,15.8-7.1,15.8-15.8c0-8.7-7.1-15.8-15.8-15.8c-8.7,0-15.8,7.1-15.8,15.8z"/>
		<radialGradient id="aigrd3" cx="17.707" cy="12.2183" r="19.492" fx="17.707" fy="12.2183" gradientUnits="userSpaceOnUse">
			<stop  offset="0" style="stop-color:#D5D690"/>
			<stop  offset="0.2202" style="stop-color:#CFD08C"/>
			<stop  offset="0.4404" style="stop-color:#BFBF80"/>
			<stop  offset="0.6607" style="stop-color:#A4A46D"/>
			<stop  offset="0.8799" style="stop-color:#828257"/>
			<stop  offset="0.927" style="stop-color:#7A7A52"/>
			<stop  offset="1" style="stop-color:#9C9C68"/>
		</radialGradient>
		<path style="&st5;" d="M21.3,9.7l3.8,3.2l1.8-3.1l2.6,2.8l-4.4,2.5L24.5,19l0.9,1.6h-0.9L23.4,19h-3.6l-1.4,2.4l3.5,2.1l5.1,3l-4.2,3.5v3.6l-3.2-7.3L21,24l-3.7-2.5v-3.1l-1.7-6.4l-2-1.2l0.2-2.2l2.7-2V9l4.9,0.7z"/>
		<radialGradient id="aigrd4" cx="19.7427" cy="13.5264" r="16.8564" fx="19.7427" fy="13.5264" gradientUnits="userSpaceOnUse">
			<stop  offset="0" style="stop-color:#D5D690"/>
			<stop  offset="0.2202" style="stop-color:#CFD08C"/>
			<stop  offset="0.4404" style="stop-color:#BFBF80"/>
			<stop  offset="0.6607" style="stop-color:#A4A46D"/>
			<stop  offset="0.8799" style="stop-color:#828257"/>
			<stop  offset="0.927" style="stop-color:#7A7A52"/>
			<stop  offset="1" style="stop-color:#9C9C68"/>
		</radialGradient>
		<path style="&st0;" d="M32.3,7.9v2l1.1,2V15l1.7,1l0.2-2l-1-1.8h1.5l-3.6-4.3z"/>
	</g>
	<g id="Layer_x0020_2" style="&st4;">
		<path style="&st6;" d="M48,48H0V0h48v48z"/>
		<path style="&st3;" d="M40,22.6c0.1-0.8,0.2-1.6,0.2-2.5c0-4.7-1.9-8.9-5-11.9c1.5,2.5,2.4,5.4,2.4,8.6c0,9.1-7.4,16.5-16.5,16.5c-5.3,0-10.1-2.6-13.1-6.5c2.1,4.8,6.4,8.5,11.6,9.7c0.5,0,1,0.1,1.5,0.1c8.9,0,16.4-5.9,18.9-13.9z"/>
		<path style="&st1;" d="M21.1,3.7c-0.5,0-1,0-1.5,0.1c-4.1,1-7.7,3.4-10,6.8c-1,1.8-1.5,3.9-1.5,6.2c0,7.2,5.9,13.1,13.1,13.1S34.2,24,34.2,16.7S28.3,3.7,21.1,3.7z M21.1,26.5c-5.4,0-9.8-4.4-9.8-9.8S15.7,7,21.1,7s9.8,4.4,9.8,9.8s-4.4,9.8-9.8,9.8z"/>
		<path style="&st9;" d="M21.1,10.3c-3.6,0-6.4,2.9-6.4,6.4c0,3.6,2.9,6.4,6.4,6.4c3.6,0,6.4-2.9,6.4-6.4c0-3.6-2.9-6.4-6.4-6.4z M21.1,20.1c-1.9,0-3.4-1.5-3.4-3.4c0-1.9,1.5-3.4,3.4-3.4c1.9,0,3.4,1.5,3.4,3.4c0,1.9-1.5,3.4-3.4,3.4z"/>
		<path style="&st10;" d="M36.6,35.5l6.6-2.4l-21-15l6.9,26.2l4-6.3l5.5,7.6l4.1-3l-6.2-7.1z"/>
	</g>
</svg>
