<?xml version="1.0" encoding="iso-8859-1"?>
<!-- Generator: Adobe Illustrator 9.0, SVG Export Plug-In  -->
<!DOCTYPE svg PUBLIC "-//W3C//DTD SVG 20000303 Stylable//EN"   "http://www.w3.org/TR/2000/03/WD-SVG-20000303/DTD/svg-20000303-stylable.dtd" [
	<!ENTITY st0 "fill:url(#aigrd14);stroke:none;">
	<!ENTITY st1 "opacity:0.305;">
	<!ENTITY st2 "opacity:0.415;">
	<!ENTITY st3 "opacity:0.525;">
	<!ENTITY st4 "fill:#000000;stroke:none;">
	<!ENTITY st5 "fill-rule:evenodd;clip-rule:evenodd;fill:#000000;stroke:none;">
	<!ENTITY st6 "fill-rule:evenodd;clip-rule:evenodd;fill:url(#aigrd1);stroke:none;">
	<!ENTITY st7 "opacity:0.15;">
	<!ENTITY st8 "opacity:0.25;">
	<!ENTITY st9 "opacity:0.36;">
	<!ENTITY st10 "opacity:0.47;">
	<!ENTITY st11 "opacity:0.58;">
	<!ENTITY st12 "opacity:0.91;fill:url(#aigrd9);stroke:none;">
	<!ENTITY st13 "opacity:0.58;fill:url(#aigrd16);stroke:none;">
	<!ENTITY st14 "fill:url(#aigrd6);stroke:none;">
	<!ENTITY st15 "opacity:0.46;fill-rule:evenodd;clip-rule:evenodd;fill:url(#aigrd17);stroke:none;">
	<!ENTITY st16 "fill:url(#aigrd13);stroke:none;">
	<!ENTITY st17 "opacity:0.91;fill:url(#aigrd11);stroke:none;">
	<!ENTITY st18 "fill-rule:nonzero;clip-rule:nonzero;fill:#FFFFFF;stroke:#000000;stroke-miterlimit:4;">
	<!ENTITY st19 "fill-rule:evenodd;clip-rule:evenodd;fill:url(#aigrd3);stroke:none;">
	<!ENTITY st20 "fill:url(#aigrd10);stroke:none;">
	<!ENTITY st21 "fill:url(#aigrd8);stroke:none;">
	<!ENTITY st22 "fill:url(#aigrd5);stroke:none;">
	<!ENTITY st23 "fill:url(#aigrd15);stroke:none;">
	<!ENTITY st24 "fill:none;stroke:none;">
	<!ENTITY st25 "fill:url(#aigrd12);stroke:none;">
	<!ENTITY st26 "fill:#0C0B0B;stroke:none;">
	<!ENTITY st27 "fill-rule:evenodd;clip-rule:evenodd;fill:url(#aigrd2);stroke:none;">
	<!ENTITY st28 "fill-rule:nonzero;clip-rule:nonzero;stroke:#000000;stroke-miterlimit:4;">
	<!ENTITY st29 "fill:url(#aigrd7);stroke:none;">
	<!ENTITY st30 "stroke:none;">
	<!ENTITY st31 "fill:url(#aigrd4);stroke:none;">
]>
<svg  width="48pt" height="48pt" viewBox="0 0 48 48" xml:space="preserve">
	<g id="Layer_x0020_2" style="&st18;">
		<g>
			<g>
				<g>
					<path style="&st4;" d="M2.2,24.6C2.2,12.5,12,2.7,24.1,2.7C36.2,2.7,46,12.5,46,24.6s-9.8,21.9-21.9,21.9C12,46.5,2.2,36.7,2.2,24.6z"/>
					<radialGradient id="aigrd1" cx="18.21" cy="17.6455" r="25.6774" fx="18.21" fy="17.6455" gradientUnits="userSpaceOnUse">
						<stop  offset="0" style="stop-color:#F9FAE9"/>
						<stop  offset="0.5056" style="stop-color:#F5C417"/>
						<stop  offset="0.6035" style="stop-color:#EEB817"/>
						<stop  offset="0.7662" style="stop-color:#DB9714"/>
						<stop  offset="0.9726" style="stop-color:#BD6810"/>
						<stop  offset="1" style="stop-color:#B9620F"/>
					</radialGradient>
					<path style="&st6;" d="M3.6,24.7c0,11.3,9.2,20.5,20.5,20.5S44.6,36,44.6,24.7c0-11.3-9.2-20.5-20.5-20.5S3.6,13.4,3.6,24.7z"/>
					<path style="&st26;" d="M23.4,25.1v0h0v0h0z"/>
					<path style="&st5;" d="M5.5,24.6c0,10.3,8.3,18.6,18.6,18.6c10.3,0,18.6-8.3,18.6-18.6C42.8,14.3,34.4,6,24.1,6C13.8,6,5.5,14.3,5.5,24.6 M2,24.6C2,12.4,11.9,2.5,24.1,2.5c12.2,0,22.1,9.9,22.1,22.1c0,12.2-9.9,22.1-22.1,22.1C11.9,46.7,2,36.8,2,24.6z"/>
					<linearGradient id="aigrd2" gradientUnits="userSpaceOnUse" x1="22.1836" y1="46.9365" x2="45.388" y2="33.0572">
						<stop  offset="0" style="stop-color:#0C0B0B"/>
						<stop  offset="1" style="stop-color:#251F20"/>
					</linearGradient>
					<path style="&st27;" d="M44.1,30.7c-2.8,9.5-12,16.3-23.3,14.6l0.4-0.6c11,0.7,19-5.4,22.2-13.9l0.7-0.1z"/>
					<radialGradient id="aigrd3" cx="3.3306" cy="20.4385" r="14.7268" fx="3.3306" fy="20.4385" gradientUnits="userSpaceOnUse">
						<stop  offset="0" style="stop-color:#0C0B0B"/>
						<stop  offset="1" style="stop-color:#554C4D"/>
					</radialGradient>
					<path style="&st19;" d="M10.9,7.8c-3.1,2-6.8,7.2-7.6,12.6c0.9-0.2,0.1-2,1.2-2c0.6-2.6,0.6-4.4,6-10.2c0-0.1,0.7-0.4,0.3-0.5z"/>
				</g>
			</g>
		</g>
		<path style="&st4;" d="M13.6,26.2h0.1l0-0.2h-0.1l0,0.2z"/>
		<path style="&st4;" d="M19.5,15.4c-1.1,0.7-2,1.5-2.6,2.5c-0.4-0.1-0.8-0.1-1.2-0.1c-1.8,0-3.5,0.6-4.8,1.7c-1.4,1.1-2.1,2.6-2.1,4.3c0,1.6,0.8,3.1,2.1,4.3c1.2,1,2.7,1.5,4.3,1.6c0,0.2,0.1,0.4,0.1,0.5c0.2,0.9,0.6,1.7,1.1,2.5c0.7,1.1,1.7,1.9,2.8,2.4
			c0.9,0.4,1.9,0.8,3,1c2.3,0.5,4.7,0.6,7.4,0.3l0.3,0c1.6-0.2,3.9-0.4,5.1-2c0.5-0.6,0.7-1.3,0.7-1.9c0-0.8-0.3-1.6-0.6-2.3C35,30,35,29.8,34.9,29.6c1.4-0.2,2.6-0.7,3.6-1.6c1.4-1.1,2.1-2.6,2.1-4.3s-0.8-3.1-2.1-4.3c-1.3-1.1-3-1.6-4.8-1.6
			c-0.6,0-1.1,0.1-1.7,0.2c-1.3-2.4-4.3-3.9-7.5-3.9c-1.8,0-3.5,0.5-4.9,1.3z"/>
		<radialGradient id="aigrd4" cx="17.5732" cy="26.1035" r="10.011" fx="17.5732" fy="26.1035" gradientTransform="matrix(1 -1.200000e-003 1.200000e-003 1 8.264160e-002 -4.455566e-002)" gradientUnits="userSpaceOnUse">
			<stop  offset="0" style="stop-color:#574C3A"/>
			<stop  offset="0.1995" style="stop-color:#534737"/>
			<stop  offset="0.4684" style="stop-color:#483B2D"/>
			<stop  offset="0.6517" style="stop-color:#3D3024"/>
			<stop  offset="0.8146" style="stop-color:#634934"/>
			<stop  offset="1" style="stop-color:#815F44"/>
		</radialGradient>
		<path style="&st31;" d="M21.6,23.8c0,2.6-2.6,4.7-5.8,4.7c-3.2,0-5.8-2.1-5.8-4.7c0-2.6,2.6-4.7,5.8-4.7s5.8,2.1,5.8,4.7z"/>
		<radialGradient id="aigrd5" cx="35.7871" cy="25.6074" r="7.375" fx="35.7871" fy="25.6074" gradientTransform="matrix(1 -1.200000e-003 1.200000e-003 1 8.264160e-002 -4.455566e-002)" gradientUnits="userSpaceOnUse">
			<stop  offset="0" style="stop-color:#574C3A"/>
			<stop  offset="0.1995" style="stop-color:#534737"/>
			<stop  offset="0.4684" style="stop-color:#483B2D"/>
			<stop  offset="0.6517" style="stop-color:#3D3024"/>
			<stop  offset="0.8146" style="stop-color:#634934"/>
			<stop  offset="1" style="stop-color:#815F44"/>
		</radialGradient>
		<path style="&st22;" d="M39.5,23.8c0,2.6-2.6,4.7-5.8,4.7s-5.8-2.1-5.8-4.7s2.6-4.7,5.8-4.7s5.8,2.1,5.8,4.7z"/>
		<radialGradient id="aigrd6" cx="25.2021" cy="17.2661" r="10.7515" fx="25.2021" fy="17.2661" gradientTransform="matrix(1 -1.200000e-003 1.200000e-003 1 8.264160e-002 -4.455566e-002)" gradientUnits="userSpaceOnUse">
			<stop  offset="0" style="stop-color:#8E7B5F"/>
			<stop  offset="0.1071" style="stop-color:#89765B"/>
			<stop  offset="0.2518" style="stop-color:#79674F"/>
			<stop  offset="0.418" style="stop-color:#62513E"/>
			<stop  offset="0.5989" style="stop-color:#45372A"/>
			<stop  offset="0.6517" style="stop-color:#3D3024"/>
			<stop  offset="1" style="stop-color:#634934"/>
		</radialGradient>
		<path style="&st14;" d="M31.6,20.8c0,3.1-3.2,5.6-7.1,5.6c-3.9,0-7.1-2.5-7.1-5.5c0-3.1,3.2-5.6,7.1-5.6c3.9,0,7.1,2.5,7.1,5.5z"/>
		<g style="&st30;">
			<path style="&st7;" d="M38.4,23.8c0,0-1-2.7-3.5-3c-2.5-0.4-4.1,2.3-4.1,2.3l0.3,1.1c0,0,0.9-2.1,3.3-2.3c2.4-0.2,4.1,1.9,4.1,1.9z"/>
			<path style="&st7;" d="M33.9,26c0,0,1.4-0.6,1.5-1.9C35.4,22.7,34,22,34,22l-0.6,0.2c0,0,1.1,0.4,1.3,1.6c0.2,1.2-0.8,2.2-0.8,2.2z"/>
		</g>
		<g style="&st30;">
			<path style="&st7;" d="M11.9,23.5c0,0,1-2.7,3.5-3c2.5-0.4,4.2,2.3,4.2,2.3l-0.2,1.1c0,0-0.9-2.1-3.3-2.3c-2.4-0.2-4.1,1.9-4.1,1.9z"/>
			<path style="&st7;" d="M16.4,25.6c0,0-1.4-0.6-1.5-1.9c-0.1-1.3,1.4-2.1,1.4-2.1l0.6,0.2c0,0-1.1,0.4-1.3,1.6c-0.2,1.2,0.8,2.2,0.8,2.2z"/>
		</g>
		<radialGradient id="aigrd7" cx="23.2837" cy="-16.7251" r="5.3107" fx="23.2837" fy="-16.7251" gradientTransform="matrix(0.7962 -9.000000e-004 1.500000e-003 1.2931 6.5501 40.8115)" gradientUnits="userSpaceOnUse">
			<stop  offset="0" style="stop-color:#FFFFFF"/>
			<stop  offset="0.3345" style="stop-color:#FCFCFC"/>
			<stop  offset="0.5471" style="stop-color:#F4F4F4"/>
			<stop  offset="0.7258" style="stop-color:#E5E5E5"/>
			<stop  offset="0.8847" style="stop-color:#D0D0D0"/>
			<stop  offset="1" style="stop-color:#BCBCBC"/>
		</radialGradient>
		<path style="&st29;" d="M27.4,17.4c1,0,2.3,1,2.3,2.4c0,1.7-1.6,3-4,3c-2.4,0-4.3-1.4-4.3-3c0-1.5,1-2.5,2.3-2.5c1.2,0,1.7,1.6,2,1.6c0.4,0,0.2-1.5,1.7-1.5z"/>
		<g>
			<radialGradient id="aigrd8" cx="27.4492" cy="20.1563" r="1.1468" fx="27.4492" fy="20.1563" gradientTransform="matrix(1 -1.200000e-003 1.200000e-003 1 8.264160e-002 -4.455566e-002)" gradientUnits="userSpaceOnUse">
				<stop  offset="0" style="stop-color:#7E81B6"/>
				<stop  offset="0.2121" style="stop-color:#5E5DA2"/>
				<stop  offset="0.4551" style="stop-color:#3E3D90"/>
				<stop  offset="0.4971" style="stop-color:#3D3B8C"/>
				<stop  offset="0.8147" style="stop-color:#313173"/>
				<stop  offset="1" style="stop-color:#2E2D6B"/>
			</radialGradient>
			<path style="&st21;" d="M28,19.6c0,0.5-0.4,0.9-0.9,0.9c-0.5,0-0.9-0.4-0.9-0.9c0-0.5,0.4-0.9,0.9-0.9s0.9,0.4,0.9,0.9z"/>
			<path style="&st4;" d="M27.4,19.6c0,0.2-0.1,0.3-0.3,0.3s-0.3-0.1-0.3-0.3c0-0.2,0.1-0.3,0.3-0.3s0.3,0.1,0.3,0.3z"/>
			<linearGradient id="aigrd9" gradientUnits="userSpaceOnUse" x1="26.5762" y1="19.1636" x2="26.8046" y2="19.4491" gradientTransform="matrix(1 -1.200000e-003 1.200000e-003 1 8.264160e-002 -4.455566e-002)">
				<stop  offset="5.618000e-003" style="stop-color:#FFFFFF"/>
				<stop  offset="0.1515" style="stop-color:#ECECEC"/>
				<stop  offset="0.4482" style="stop-color:#BABABA"/>
				<stop  offset="0.8658" style="stop-color:#6A6A6A"/>
				<stop  offset="1" style="stop-color:#4F4F4F"/>
			</linearGradient>
			<path style="&st12;" d="M26.4,19.4c0,0.1,0,0.2,0,0.2c0.1,0,0.1,0,0.2,0c0.3,0,0.5-0.2,0.5-0.5c0-0.1,0-0.2,0-0.2c-0.1,0-0.1,0-0.2,0c-0.3,0-0.5,0.2-0.5,0.5z"/>
		</g>
		<g>
			<radialGradient id="aigrd10" cx="23.8423" cy="20.1558" r="1.1483" fx="23.8423" fy="20.1558" gradientTransform="matrix(1 -1.200000e-003 1.200000e-003 1 8.264160e-002 -4.455566e-002)" gradientUnits="userSpaceOnUse">
				<stop  offset="0" style="stop-color:#7E81B6"/>
				<stop  offset="0.2121" style="stop-color:#5E5DA2"/>
				<stop  offset="0.4551" style="stop-color:#3E3D90"/>
				<stop  offset="0.4971" style="stop-color:#3D3B8C"/>
				<stop  offset="0.8147" style="stop-color:#313173"/>
				<stop  offset="1" style="stop-color:#2E2D6B"/>
			</radialGradient>
			<path style="&st20;" d="M24.4,19.6c0,0.5-0.4,0.9-0.9,0.9c-0.5,0-0.9-0.4-0.9-0.9c0-0.5,0.4-0.9,0.9-0.9c0.5,0,0.9,0.4,0.9,0.9z"/>
			<path style="&st4;" d="M23.8,19.6c0,0.2-0.1,0.3-0.3,0.3c-0.2,0-0.3-0.1-0.3-0.3s0.1-0.3,0.3-0.3c0.2,0,0.3,0.1,0.3,0.3z"/>
			<linearGradient id="aigrd11" gradientUnits="userSpaceOnUse" x1="22.9702" y1="19.1631" x2="23.1991" y2="19.4492" gradientTransform="matrix(1 -1.200000e-003 1.200000e-003 1 8.264160e-002 -4.455566e-002)">
				<stop  offset="5.618000e-003" style="stop-color:#FFFFFF"/>
				<stop  offset="0.1515" style="stop-color:#ECECEC"/>
				<stop  offset="0.4482" style="stop-color:#BABABA"/>
				<stop  offset="0.8658" style="stop-color:#6A6A6A"/>
				<stop  offset="1" style="stop-color:#4F4F4F"/>
			</linearGradient>
			<path style="&st17;" d="M22.8,19.4c0,0.1,0,0.2,0,0.2c0.1,0,0.1,0,0.2,0c0.3,0,0.5-0.2,0.5-0.5c0-0.1,0-0.2,0-0.2c-0.1,0-0.1,0-0.2,0c-0.3,0-0.5,0.2-0.5,0.5z"/>
		</g>
		<radialGradient id="aigrd12" cx="31.1504" cy="32.833" r="15.1796" fx="31.1504" fy="32.833" gradientTransform="matrix(1 -1.200000e-003 1.200000e-003 1 8.264160e-002 -4.455566e-002)" gradientUnits="userSpaceOnUse">
			<stop  offset="5.618000e-003" style="stop-color:#DFC89B"/>
			<stop  offset="0.1204" style="stop-color:#DDC699"/>
			<stop  offset="0.1617" style="stop-color:#D7C195"/>
			<stop  offset="0.191" style="stop-color:#CDB88E"/>
			<stop  offset="0.5835" style="stop-color:#D0BB91"/>
			<stop  offset="0.7522" style="stop-color:#DAC89D"/>
			<stop  offset="0.8777" style="stop-color:#ECDEB3"/>
			<stop  offset="0.9326" style="stop-color:#F9EEC3"/>
		</radialGradient>
		<path style="&st25;" d="M17.6,32c-0.4-0.6-0.8-1.4-1-2.1c-0.5-1.8-0.3-3.8,0.5-5.5c1.3-3,4.3-3.9,7.3-4.2c3.1-0.4,9.6-1.3,11.1,2.5c0.8,2-1.2,3.6-1.7,5.3c-0.6,1.9,1.8,3.9,0.5,5.6c-1,1.2-3.2,1.4-4.6,1.5c-2.3,0.3-4.7,0.2-7-0.3c-0.9-0.2-1.8-0.5-2.7-0.9
			c-0.9-0.4-1.7-1.1-2.3-2z"/>
		<path style="&st4;" d="M28.6,22.1c0,0-0.7-1.1,0.4-1.1c1.1,0,0.9,0.6,0.6,0.6c-0.2,0-0.7-0.5-1-0.3c-0.3,0.3-0.2,0.3-0.1,0.8z"/>
		<path style="&st4;" d="M27.7,22.4c0,0,0.1-1.4-1.3-1.4c-1.4,0-0.7,0.7-0.3,0.7c0.3,0,0.5-0.7,1-0.4c0.5,0.3,0.5,0.4,0.7,1z"/>
		<linearGradient id="aigrd13" gradientUnits="userSpaceOnUse" x1="17.2744" y1="29.9434" x2="34.1318" y2="29.9434" gradientTransform="matrix(1 -1.200000e-003 1.200000e-003 1 8.264160e-002 -4.455566e-002)">
			<stop  offset="0" style="stop-color:#D9D9D9"/>
			<stop  offset="5.655828e-002" style="stop-color:#E8E8E8"/>
			<stop  offset="0.1374" style="stop-color:#F5F5F5"/>
			<stop  offset="0.2403" style="stop-color:#FDFDFD"/>
			<stop  offset="0.4382" style="stop-color:#FFFFFF"/>
			<stop  offset="0.582" style="stop-color:#FCFCFC"/>
			<stop  offset="0.6723" style="stop-color:#F4F4F4"/>
			<stop  offset="0.7478" style="stop-color:#E5E5E5"/>
			<stop  offset="0.8148" style="stop-color:#D1D1D1"/>
			<stop  offset="0.8315" style="stop-color:#CACACA"/>
			<stop  offset="1" style="stop-color:#9C9C9C"/>
		</linearGradient>
		<path style="&st16;" d="M34.2,26c-1.4-1.4-9.9,1.3-16.8-0.1c-0.9,0.9-0.9,6.3,4.4,7.7c2.6,1.1,8.4-0.7,11.2-0.2c2.3-1.8-1.5-3.8,1.2-7.4z"/>
		<linearGradient id="aigrd14" gradientUnits="userSpaceOnUse" x1="30.4014" y1="29.0527" x2="33.2051" y2="29.0527" gradientTransform="matrix(1 -1.200000e-003 1.200000e-003 1 8.264160e-002 -4.455566e-002)">
			<stop  offset="0" style="stop-color:#D9D9D9"/>
			<stop  offset="0.1272" style="stop-color:#CDCDCD"/>
			<stop  offset="0.4675" style="stop-color:#B2B2B2"/>
			<stop  offset="0.7695" style="stop-color:#A1A1A1"/>
			<stop  offset="1" style="stop-color:#9C9C9C"/>
		</linearGradient>
		<path style="&st0;" d="M33.3,28.5l0,1c-0.6-0.8-2.8-0.5-2.8-0.5l2.8-0.5z"/>
		<linearGradient id="aigrd15" gradientUnits="userSpaceOnUse" x1="17.123" y1="30.0527" x2="24.7485" y2="30.0527" gradientTransform="matrix(1 -1.200000e-003 1.200000e-003 1 8.264160e-002 -4.455566e-002)">
			<stop  offset="0" style="stop-color:#D9D9D9"/>
			<stop  offset="0.1272" style="stop-color:#CDCDCD"/>
			<stop  offset="0.4675" style="stop-color:#B2B2B2"/>
			<stop  offset="0.7695" style="stop-color:#A1A1A1"/>
			<stop  offset="1" style="stop-color:#9C9C9C"/>
		</linearGradient>
		<path style="&st23;" d="M17.2,29.1l0.8,1.8c0.7-1.2,6.9-1.7,6.9-1.7s-7,0.5-7.6-0.2z"/>
		<path style="&st4;" d="M21.6,13.8c0,0,1.2-2.1,2.1-2.1c0.9,0,0.9,1.7,0.9,1.7s-0.2-1-1-1c-0.8,0-2,1.4-2,1.4z"/>
		<path style="&st4;" d="M26.2,13.5c0,0,0-1.7,1.1-1.7c1.2,0,1.5,1.9,1.5,1.9s-0.9-1.4-1.5-1.4s-1.2,1.3-1.2,1.3z"/>
		<linearGradient id="aigrd16" gradientUnits="userSpaceOnUse" x1="26.1523" y1="26.5215" x2="25.9906" y2="25.2276" gradientTransform="matrix(1 -1.200000e-003 1.200000e-003 1 8.264160e-002 -4.455566e-002)">
			<stop  offset="5.618000e-003" style="stop-color:#8D7E62"/>
			<stop  offset="0.2706" style="stop-color:#948668"/>
			<stop  offset="0.6209" style="stop-color:#A99C7C"/>
			<stop  offset="1" style="stop-color:#CCC3A0"/>
		</linearGradient>
		<path style="&st13;" d="M34.2,26c0,0,1.2-1.4,0.4-2c-1.3,1-10.1,1.9-17.2,1.9c6.8,1.3,15.1-1.3,16.8,0.1z"/>
		<g style="&st30;">
			<g>
				<path style="&st8;" d="M25.9,34.3c0,0,7.2-1.2,6.8-0.5c-0.3,0.6-6.1,0.5-6.1,0.5"/>
				<path style="&st1;" d="M26.1,34.3c0,0,6.8-1.2,6.6-0.5c-0.4,0.6-6,0.5-6,0.5"/>
				<path style="&st9;" d="M26.3,34.3c0,0,6.3-1.2,6.3-0.5c-0.5,0.6-5.8,0.5-5.8,0.5"/>
				<path style="&st2;" d="M26.5,34.3c0,0,5.9-1.1,6.1-0.5c-0.6,0.5-5.7,0.5-5.7,0.5"/>
				<path style="&st10;" d="M26.7,34.3c0,0,5.5-1.1,5.8-0.5c-0.7,0.5-5.6,0.5-5.6,0.5"/>
				<path style="&st3;" d="M26.9,34.2c0,0,5.1-1.1,5.5-0.5c-0.8,0.5-5.4,0.5-5.4,0.5"/>
				<path style="&st11;" d="M27.1,34.2c0,0,4.6-1,5.3-0.5c-0.9,0.5-5.3,0.5-5.3,0.5"/>
			</g>
		</g>
		<linearGradient id="aigrd17" gradientUnits="userSpaceOnUse" x1="23.2246" y1="22.2437" x2="15.9825" y2="9.932">
			<stop  offset="0" style="stop-color:#FFFFFF"/>
			<stop  offset="1" style="stop-color:#FFFFFF"/>
		</linearGradient>
		<path style="&st15;" d="M7,28.1c13.9,5.8,18.7-15.7,34.1-8.6C38.3,10.8,29.2,5.7,20.2,7.8C11.1,10,5.3,19,7,28.1z"/>
	</g>
	<g id="Layer_x0020_3" style="&st28;">
		<path style="&st24;" d="M48,48H0V0h48v48z"/>
	</g>
</svg>
