<?xml version="1.0" encoding="iso-8859-1"?>
<!-- Generator: Adobe Illustrator 9.0, SVG Export Plug-In  -->
<!DOCTYPE svg PUBLIC "-//W3C//DTD SVG 20000303 Stylable//EN"   "http://www.w3.org/TR/2000/03/WD-SVG-20000303/DTD/svg-20000303-stylable.dtd" [
	<!ENTITY st0 "fill-rule:evenodd;clip-rule:evenodd;fill:url(#aigrd1);stroke:none;">
	<!ENTITY st1 "opacity:0.7;fill:#FFFFFF;stroke:none;">
	<!ENTITY st2 "fill:none;stroke:none;">
	<!ENTITY st3 "fill-rule:nonzero;clip-rule:nonzero;stroke:#000000;stroke-miterlimit:4;">
	<!ENTITY st4 "stroke:none;">
]>
<svg  width="48pt" height="48pt" viewBox="0 0 48 48" xml:space="preserve">
	<g id="Layer_x0020_1" style="&st3;">
		<path style="&st4;" d="M6.4,24.3c0,10,8.1,18.1,18.1,18.1c10,0,18.1-8.1,18.1-18.1c0-10-8.1-18.1-18.1-18.1c-10,0-18.1,8.1-18.1,18.1z"/>
		<radialGradient id="aigrd1" cx="18.9292" cy="17.7773" r="22.4782" fx="18.9292" fy="17.7773" gradientUnits="userSpaceOnUse">
			<stop  offset="0" style="stop-color:#FED182"/>
			<stop  offset="0.2809" style="stop-color:#FFB310"/>
			<stop  offset="1" style="stop-color:#996E04"/>
		</radialGradient>
		<path style="&st0;" d="M39.5,24.3c0,8.5-6.9,15.4-15.4,15.4c-8.5,0-15.4-6.9-15.4-15.4c0-8.5,6.9-15.4,15.4-15.4c8.5,0,15.4,6.9,15.4,15.4z"/>
		<path style="&st1;" d="M31.3,19h-0.4c-0.1-3.5-3.1-6.3-6.6-6.3c-3.6,0-6.5,2.8-6.6,6.3h-0.4c-0.7,0-1.4,0.6-1.4,1.4v10.9c0,0.7,0.6,1.4,1.4,1.4h14c0.7,0,1.4-0.6,1.4-1.4V20.3c0-0.7-0.6-1.4-1.4-1.4z M24.2,16.4c1.5,0,2.7,1.1,2.8,2.6h-5.7
			c0.1-1.4,1.4-2.6,2.8-2.6z M26.1,28.7h-3.7l1.2-2.1c-0.7-0.3-1.1-1-1.1-1.7c0-1,0.8-1.9,1.9-1.9c1,0,1.9,0.8,1.9,1.9c0,0.8-0.5,1.5-1.2,1.8l1.1,2.1z"/>
	</g>
	<g id="Layer_x0020_2" style="&st3;">
		<path style="&st2;" d="M48,48H0V0h48v48z"/>
	</g>
</svg>
