<?xml version="1.0" encoding="iso-8859-1"?>
<!-- Generator: Adobe Illustrator 9.0, SVG Export Plug-In  -->
<!DOCTYPE svg PUBLIC "-//W3C//DTD SVG 20000303 Stylable//EN"   "http://www.w3.org/TR/2000/03/WD-SVG-20000303/DTD/svg-20000303-stylable.dtd" [
	<!ENTITY st0 "fill:url(#aigrd1);stroke:none;">
	<!ENTITY st1 "opacity:0.6833;fill:#F7FCB7;stroke:none;">
	<!ENTITY st2 "opacity:0.525;fill:#F4FA95;stroke:none;">
	<!ENTITY st3 "opacity:0.3667;fill:#F0F972;stroke:none;">
	<!ENTITY st4 "opacity:0.8417;fill:#FBFDDB;stroke:none;">
	<!ENTITY st5 "fill:url(#aigrd3);stroke:none;">
	<!ENTITY st6 "opacity:0.3;stroke:none;">
	<!ENTITY st7 "fill:#FFFFFF;stroke:none;">
	<!ENTITY st8 "opacity:5.000000e-002;fill:#E8F52F;stroke:none;">
	<!ENTITY st9 "fill:url(#aigrd2);stroke:none;">
	<!ENTITY st10 "fill:#BEBEBE;stroke:none;">
	<!ENTITY st11 "fill:none;stroke:none;">
	<!ENTITY st12 "opacity:0.2083;fill:#ECF751;stroke:none;">
	<!ENTITY st13 "fill:#515151;stroke:none;">
	<!ENTITY st14 "fill-rule:nonzero;clip-rule:nonzero;stroke:#000000;stroke-miterlimit:4;">
	<!ENTITY st15 "stroke:none;">
	<!ENTITY st16 "fill:#FCFCFC;stroke:none;">
]>
<svg  width="43.8pt" height="39pt" viewBox="0 0 43.8 39" xml:space="preserve">
	<g id="Layer_x0020_2" style="&st14;">
		<path style="&st11;" d="M43.8,39H0V0h43.8v39z"/>
	</g>
	<g id="Layer_x0020_3" style="&st14;">
		<path style="&st15;" d="M6.2,0.7C3.8,0.7,1.8,2.6,1.8,5v29c0,2.4,1.9,4.3,4.3,4.3H37c2.4,0,4.3-1.9,4.3-4.3V5c0-2.4-1.9-4.3-4.3-4.3H6.2z"/>
		<linearGradient id="aigrd1" gradientUnits="userSpaceOnUse" x1="12.4873" y1="3.7319" x2="31.0813" y2="36.0328">
			<stop  offset="0" style="stop-color:#D2D2D2"/>
			<stop  offset="1" style="stop-color:#EDEDED"/>
		</linearGradient>
		<path style="&st0;" d="M39.1,33.3c0,1.6-1.3,2.9-2.9,2.9H6.9c-1.6,0-2.9-1.3-2.9-2.9V5.7c0-1.6,1.3-2.9,2.9-2.9h29.3c1.6,0,2.9,1.3,2.9,2.9v27.6z"/>
		<linearGradient id="aigrd2" gradientUnits="userSpaceOnUse" x1="21.877" y1="30.3413" x2="21.9168" y2="22.5769">
			<stop  offset="0" style="stop-color:#163069"/>
			<stop  offset="1" style="stop-color:#83A1CB"/>
		</linearGradient>
		<path style="&st9;" d="M36.6,29.6H7.3V9.7h29.3v19.9z"/>
		<path style="&st16;" d="M5.2,6.3L4.6,35.1C4.2,34.6,4,33.7,4,33.7L4,5.3c0,0,0-0.7,0.6-1.6c0.7-0.9,1.8-0.9,1.8-0.9l25.5,0L7.4,4c-1,0-1.5,0.5-1.7,0.7C5.5,5,5.2,5.6,5.2,6.3z"/>
		<path style="&st10;" d="M37.9,32.6L38.6,4c0.4,0.4,0.6,1.4,0.6,1.4l0,28.3c0,0,0,0.7-0.6,1.6c-0.7,0.9-1.9,1-1.9,1l-25.3,0l24.5-1.4c1,0,1.5-0.5,1.7-0.7c0.2-0.2,0.5-0.9,0.5-1.5z"/>
		<path style="&st10;" d="M36.6,9.7L37.2,9L6.6,8.9l0,21.4l0.7-0.8V9.7h29.3z"/>
		<path style="&st7;" d="M6.6,30.3l30.6-0.1V9l-0.7,0.7v19.9H7.3l-0.7,0.8z"/>
		<linearGradient id="aigrd3" gradientUnits="userSpaceOnUse" x1="21.9326" y1="24.6274" x2="21.9326" y2="7.1091">
			<stop  offset="0" style="stop-color:#D0D6E5"/>
			<stop  offset="1" style="stop-color:#093A80"/>
		</linearGradient>
		<path style="&st5;" d="M7.6,9.9h28.7V22H7.6V9.9z"/>
		<g>
			<g>
				<path style="&st8;" d="M18.4,15.4c0,2.2-1.8,4.1-4.1,4.1c-2.2,0-4.1-1.8-4.1-4.1c0-2.2,1.8-4.1,4.1-4.1c2.2,0,4.1,1.8,4.1,4.1z"/>
				<path style="&st12;" d="M18,15.4c0,2-1.6,3.7-3.7,3.7c-2,0-3.7-1.6-3.7-3.7c0-2,1.6-3.7,3.7-3.7c2,0,3.7,1.6,3.7,3.7z"/>
				<path style="&st3;" d="M17.6,15.4c0,1.8-1.5,3.3-3.3,3.3S11,17.2,11,15.4s1.5-3.3,3.3-3.3s3.3,1.5,3.3,3.3z"/>
				<path style="&st2;" d="M17.2,15.4c0,1.6-1.3,2.9-2.9,2.9s-2.9-1.3-2.9-2.9s1.3-2.9,2.9-2.9s2.9,1.3,2.9,2.9z"/>
				<path style="&st1;" d="M16.8,15.4c0,1.4-1.1,2.5-2.5,2.5c-1.4,0-2.5-1.1-2.5-2.5s1.1-2.5,2.5-2.5c1.4,0,2.5,1.1,2.5,2.5z"/>
				<path style="&st4;" d="M16.4,15.4c0,1.2-1,2.1-2.1,2.1s-2.1-1-2.1-2.1s1-2.1,2.1-2.1s2.1,1,2.1,2.1z"/>
				<path style="&st7;" d="M16,15.4c0,1-0.8,1.8-1.8,1.8s-1.8-0.8-1.8-1.8c0-1,0.8-1.8,1.8-1.8s1.8,0.8,1.8,1.8z"/>
			</g>
		</g>
		<path style="&st6;" d="M24,23.7h7.3l1.4,0.4h-2.4c0,0,2.4,0.2,3.6,1.7c1.2,1.4-1.4,3.1-1.4,3.1s0,0,0,0c-0.1-0.3-0.7-2.7-1.9-3.7c-0.9-0.8-1.9-1-1.9-1H24l0-0.4z"/>
		<path style="&st6;" d="M28.8,24.3h-4.2l7.8,4.4l-3.6-4.4z"/>
		<path style="&st13;" d="M24,23.8h7.3l1.1-0.7h-2.4c0,0,2.2-0.4,2.5-2.9c0.3-2.5-3.4-5.3-3.4-5.3s0,0,0,0.1c0.1,0.6,1.1,4.8,0.4,6.4c-0.3,1.4-1.2,1.7-1.2,1.7h-4.6l0.2,0.7z"/>
		<path style="&st13;" d="M28.4,22.7h-4.2l5-7.6l-0.8,7.6z"/>
		<path style="&st15;" d="M7.3,9.7v19.9h29.3V9.7H7.3z M36,29h-28V10.3h28V29z"/>
	</g>
</svg>
