<?xml version="1.0" encoding="iso-8859-1"?>
<!-- Generator: Adobe Illustrator 9.0, SVG Export Plug-In  -->
<!DOCTYPE svg PUBLIC "-//W3C//DTD SVG 20000303 Stylable//EN"   "http://www.w3.org/TR/2000/03/WD-SVG-20000303/DTD/svg-20000303-stylable.dtd" [
	<!ENTITY st0 "fill-rule:evenodd;clip-rule:evenodd;fill:url(#aigrd1);stroke:none;">
	<!ENTITY st1 "fill-rule:evenodd;clip-rule:evenodd;fill:url(#aigrd1);stroke-width:5;stroke-linecap:round;stroke-linejoin:round;">
	<!ENTITY st2 "fill:none;stroke:none;">
	<!ENTITY st3 "fill-rule:nonzero;clip-rule:nonzero;stroke:#000000;stroke-miterlimit:4;">
]>
<svg  width="48pt" height="48pt" viewBox="0 0 48 48" xml:space="preserve">
	<g id="Layer_x0020_2" style="&st3;">
		<path style="&st2;" d="M48,48H0V0h48v48z"/>
	</g>
	<g id="Layer_x0020_3" style="&st3;">
		<g>
			<radialGradient id="aigrd1" cx="18.8047" cy="16.5483" r="25.2026" fx="18.8047" fy="16.5483" gradientUnits="userSpaceOnUse">
				<stop  offset="0" style="stop-color:#FED182"/>
				<stop  offset="0.2809" style="stop-color:#FFB310"/>
				<stop  offset="1" style="stop-color:#996E04"/>
			</radialGradient>
			<path style="&st1;" d="M37.1,10.9L27.8,22v0.2l13.9-2.8v8.8l-14-2.3V26l9.4,10.8l-7.7,4.4l-5-13.4l-0.2,0.1l-5,13.3l-7.5-4.4l9.3-10.9L21,25.7L7.4,28.2v-8.8l13.6,2.8V22l-9.1-11l7.7-4.4l4.8,13.4h0.2l5-13.4l7.6,4.3z"/>
		</g>
		<g>
			<path style="&st0;" d="M37.1,10.9L27.8,22v0.2l13.9-2.8v8.8l-14-2.3V26l9.4,10.8l-7.7,4.4l-5-13.4l-0.2,0.1l-5,13.3l-7.5-4.4l9.3-10.9L21,25.7L7.4,28.2v-8.8l13.6,2.8V22l-9.1-11l7.7-4.4l4.8,13.4h0.2l5-13.4l7.6,4.3z"/>
		</g>
	</g>
</svg>
