<?xml version="1.0" encoding="iso-8859-1"?>
<!-- Generator: Adobe Illustrator 9.0, SVG Export Plug-In  -->
<!DOCTYPE svg PUBLIC "-//W3C//DTD SVG 20000303 Stylable//EN"   "http://www.w3.org/TR/2000/03/WD-SVG-20000303/DTD/svg-20000303-stylable.dtd" [
	<!ENTITY st0 "fill-rule:nonzero;clip-rule:nonzero;fill:#E6E6E6;stroke:#000000;stroke-miterlimit:4;">
	<!ENTITY st1 "fill:url(#aigrd1);stroke:none;">
	<!ENTITY st2 "fill:#000000;stroke:none;">
	<!ENTITY st3 "fill:url(#aigrd6);stroke:none;">
	<!ENTITY st4 "fill:url(#aigrd3);stroke:none;">
	<!ENTITY st5 "fill:#545454;stroke:none;">
	<!ENTITY st6 "fill:#3B3B3B;stroke:none;">
	<!ENTITY st7 "fill:url(#aigrd5);stroke:none;">
	<!ENTITY st8 "fill:url(#aigrd2);stroke:none;">
	<!ENTITY st9 "fill:none;stroke:none;">
	<!ENTITY st10 "fill:#454545;stroke:none;">
	<!ENTITY st11 "fill:#9F9F9F;stroke:none;">
	<!ENTITY st12 "fill-rule:nonzero;clip-rule:nonzero;stroke:#000000;stroke-miterlimit:4;">
	<!ENTITY st13 "stroke:none;">
	<!ENTITY st14 "fill:url(#aigrd4);stroke:none;">
]>
<svg  width="45.5pt" height="39.5pt" viewBox="0 0 45.5 39.5" xml:space="preserve">
	<g id="Layer_x0020_2" style="&st12;">
		<path style="&st9;" d="M45.5,39H1.7V0h43.8v39z"/>
	</g>
	<g id="Layer_x0020_4" style="&st0;">
		<path style="&st2;" d="M10.2,24c1.2,4.4,6.9,5,11.5,5.5c2.1,0.2,4.8,0.5,5.5,1.2c1.8,1.8-0.2,5.6-0.2,5.6l-1.7,3.1l3.3-1.1c2.9-1,11-3.1,14.3-0.8l2.3,1.7L45,36.3c-0.4-4.8-1.6-8.1-3.9-10c-3.2-2.7-7.8-2.3-12.7-1.8c-5.2,0.5-11.1,1.1-16.2-2.1l-2.9-1.8l0.9,3.3z"
			/>
		<path style="&st2;" d="M14.5,0.5c-3.1,0.8-6.3,2.7-8.8,5.2c-2.5,2.6-4.4,5.7-5.2,8.8C0.2,15.8,0,17.1,0,18.3c0,1.2,0.2,2.4,0.5,3.6c0.7,2.2,1.9,4.1,3.7,5.4c2,2.8,5.2,4.3,9,4.3c4.5,0,9.2-2,12.7-5.6c3.6-3.6,5.6-8.2,5.6-12.7c0-3.7-1.5-6.8-4.1-8.8
			c-1.3-1.8-3.2-3.2-5.5-3.9c-2.3-0.7-4.9-0.7-7.5,0z"/>
		<linearGradient id="aigrd1" gradientUnits="userSpaceOnUse" x1="18.6235" y1="19.1899" x2="24.3907" y2="25.8145">
			<stop  offset="0" style="stop-color:#959595"/>
			<stop  offset="1" style="stop-color:#5B5B5B"/>
		</linearGradient>
		<path style="&st1;" d="M16.6,4C10.7,5.5,5.3,11,3.8,16.9c-1.7,6.7,1.8,12.8,9,12.8c8.6,0,16.7-8.1,16.7-16.7c0-7.3-6.2-10.8-12.9-9z M12.9,20.7c-0.4,2.4-2.5,4.4-4.6,4.6c-2,0.1-3.1-1.7-2.6-3.9c0.5-2.1,2.3-4,4.2-4.2c2-0.3,3.3,1.3,3,3.5z M14.5,10.6
			c-0.3,1.9-2.2,3.8-4.1,4.1c-1.8,0.3-2.9-1-2.5-2.8c0.4-1.7,2.1-3.4,3.8-3.8c1.8-0.4,3.1,0.7,2.8,2.5z M24.5,19.6c-0.1,2.6-2.5,5-5.1,5.1c-2.5,0.1-4.2-1.8-3.8-4.3c0.3-2.3,2.4-4.4,4.7-4.7c2.4-0.3,4.4,1.3,4.3,3.8z M25.1,8.5c-0.1,2.1-2.2,4.2-4.6,4.6
			c-2.3,0.4-3.8-1-3.5-2.9c0.3-1.9,2.1-3.7,4.2-4.2c2.2-0.5,4,0.6,3.9,2.6z"/>
		<radialGradient id="aigrd2" cx="13.5024" cy="12.3457" r="10.8808" fx="13.5024" fy="12.3457" gradientUnits="userSpaceOnUse">
			<stop  offset="0" style="stop-color:#454545"/>
			<stop  offset="1" style="stop-color:#333333"/>
		</radialGradient>
		<path style="&st8;" d="M24,13.6c0,5.3-5.1,10.4-10.5,10.4c-4.5,0-6.7-3.8-5.6-8c1-3.7,4.3-7.1,8-8c4.2-1.1,8.1,1.1,8.1,5.6z"/>
		<radialGradient id="aigrd3" cx="23.1567" cy="29.0337" r="26.966" fx="23.1567" fy="29.0337" gradientUnits="userSpaceOnUse">
			<stop  offset="0" style="stop-color:#767676"/>
			<stop  offset="1" style="stop-color:#484848"/>
		</radialGradient>
		<path style="&st4;" d="M22.5,12.1c0,5.3-5.1,10.4-10.5,10.4c-4.5,0-6.7-3.8-5.6-8c1-3.7,4.3-7.1,8-8c4.2-1.1,8.1,1.1,8.1,5.6z"/>
		<path style="&st6;" d="M27.3,6.5c3.5,3.5,3.6,11.4-1.8,17.4C20.1,30,12,31.3,7.2,28c13.5,6.4,27.4-11.7,20.1-21.6z"/>
		<radialGradient id="aigrd4" cx="9.3418" cy="22.6138" r="14.1515" fx="9.3418" fy="22.6138" gradientUnits="userSpaceOnUse">
			<stop  offset="0" style="stop-color:#767676"/>
			<stop  offset="1" style="stop-color:#484848"/>
		</radialGradient>
		<path style="&st14;" d="M43.6,36.4C39.1,33.2,28.1,37,28.1,37s2.6-4.7,0-7.2c-2.6-2.6-15-0.4-16.6-6.1c13.5,8.3,30.6-7.3,32.1,12.8z"/>
		<radialGradient id="aigrd5" cx="31.3135" cy="24.5933" r="14.4316" fx="31.3135" fy="24.5933" gradientUnits="userSpaceOnUse">
			<stop  offset="0" style="stop-color:#767676"/>
			<stop  offset="1" style="stop-color:#484848"/>
		</radialGradient>
		<path style="&st7;" d="M43.5,36.3C39,33.1,28,36.9,28,36.9s5.8-9.2-5.5-10.8C36,24.7,43,24,43.5,36.3z"/>
		<path style="&st11;" d="M29.2,29c1.4,5.1-1.1,7.9-1.1,7.9s2.3-4.1,0.5-7.6c-2.2-4.2-12-0.3-17.1-5.7c5.3,5.3,16.2-0.2,17.7,5.4z"/>
		<linearGradient id="aigrd6" gradientUnits="userSpaceOnUse" x1="-1.2432" y1="-3.2012" x2="26.5278" y2="28.3922">
			<stop  offset="0" style="stop-color:#FFFFFF"/>
			<stop  offset="1" style="stop-color:#959595"/>
		</linearGradient>
		<path style="&st3;" d="M14.5,1.8C8.6,3.4,3.2,8.8,1.7,14.7c-1.7,6.7,1.8,12.8,9,12.8c8.6,0,16.7-8.1,16.7-16.7c0-7.3-6.2-10.8-12.9-9z M10.8,18.6C10.4,21,8.3,23,6.3,23.1c-2,0.1-3.1-1.7-2.6-3.9c0.5-2.1,2.3-4,4.2-4.2c2-0.3,3.3,1.3,3,3.5z M12.4,8.4
			c-0.3,1.9-2.2,3.8-4.1,4.1c-1.8,0.3-2.9-1-2.5-2.8C6.2,8,7.8,6.3,9.6,5.9c1.8-0.4,3.1,0.7,2.8,2.5z M22.4,17.5c-0.1,2.6-2.5,5-5.1,5.1c-2.5,0.1-4.2-1.8-3.8-4.3c0.3-2.3,2.4-4.4,4.7-4.7c2.4-0.3,4.4,1.3,4.3,3.8z M23,6.3c-0.1,2.1-2.2,4.2-4.6,4.6
			c-2.3,0.4-3.8-1-3.5-2.9C15.1,6,17,4.2,19.1,3.7c2.2-0.5,4,0.6,3.9,2.6z"/>
		<path style="&st6;" d="M21.2,14.5c-1.5-1.3-4.2-1.2-6,0.6c-1.9,1.9-2.8,5-0.4,6.8c-3.6-4.5,2.6-9.7,6.4-7.4z"/>
		<path style="&st13;" d="M14.8,21.9c4.9,3.3,10.5-4.5,6.4-7.4c3.8,3.9-2,9.9-6.4,7.4z"/>
		<path style="&st5;" d="M11.8,6.4c-0.7-0.7-2.5-1-4.5,0.8c-1.3,1.2-2.5,3.7-0.8,5C4.3,10.1,9,4.7,11.8,6.4z"/>
		<path style="&st13;" d="M6.4,12.1c0.7,0.7,2.5,1,4.5-0.8c1.3-1.2,2.5-3.7,0.8-5c2.1,2.1-2.5,7.5-5.4,5.8z"/>
		<path style="&st10;" d="M9.8,15.5c-0.7-0.7-2.6-0.9-4.5,0.8c-2.1,2-2.4,5.1-0.7,6.3c-2.4-3.1,2-8.6,5.2-7.2z"/>
		<path style="&st13;" d="M4.8,22.8c0.7,0.7,2.6,0.9,4.5-0.8c2.1-2,2.4-5.1,0.7-6.3c2.4,3.1-2,8.6-5.2,7.2z"/>
		<path style="&st5;" d="M21.9,4c-0.7-0.7-3.4-0.8-5.4,1c-1.8,1.7-2.3,3.8-0.8,5.2c-2.6-3.4,3-7.7,6.1-6.3z"/>
		<path style="&st13;" d="M16.2,10.7c0.7,0.7,3.4,0.8,5.4-1c1.8-1.7,2.3-3.8,0.8-5.2c2.6,3.4-3,7.7-6.1,6.3z"/>
		<path style="&st6;" d="M25.1,4.3c3.5,3.5,3.6,11.4-1.8,17.4C17.9,27.8,9.8,29.1,5,25.8c13.5,6.4,27.4-11.7,20.1-21.6z"/>
	</g>
</svg>
