<?xml version="1.0" encoding="iso-8859-1"?>
<!-- Generator: Adobe Illustrator 9.0, SVG Export Plug-In  -->
<!DOCTYPE svg PUBLIC "-//W3C//DTD SVG 20000303 Stylable//EN"   "http://www.w3.org/TR/2000/03/WD-SVG-20000303/DTD/svg-20000303-stylable.dtd" [
	<!ENTITY st0 "fill-rule:evenodd;clip-rule:evenodd;fill:url(#aigrd1);stroke:none;">
	<!ENTITY st1 "opacity:0.7;fill:#FFFFFF;stroke:none;">
	<!ENTITY st2 "fill:none;stroke:none;">
	<!ENTITY st3 "fill-rule:nonzero;clip-rule:nonzero;stroke:#000000;stroke-miterlimit:4;">
	<!ENTITY st4 "stroke:none;">
]>
<svg  width="48pt" height="48pt" viewBox="0 0 48 48" xml:space="preserve">
	<g id="Layer_x0020_1" style="&st3;">
		<path style="&st4;" d="M6.4,24.3c0,10,8.1,18.1,18.1,18.1c10,0,18.1-8.1,18.1-18.1c0-10-8.1-18.1-18.1-18.1c-10,0-18.1,8.1-18.1,18.1z"/>
		<radialGradient id="aigrd1" cx="18.9292" cy="17.7773" r="22.4782" fx="18.9292" fy="17.7773" gradientUnits="userSpaceOnUse">
			<stop  offset="0" style="stop-color:#FED182"/>
			<stop  offset="0.2809" style="stop-color:#FFB310"/>
			<stop  offset="1" style="stop-color:#996E04"/>
		</radialGradient>
		<path style="&st0;" d="M39.5,24.3c0,8.5-6.9,15.4-15.4,15.4c-8.5,0-15.4-6.9-15.4-15.4c0-8.5,6.9-15.4,15.4-15.4c8.5,0,15.4,6.9,15.4,15.4z"/>
		<g id="Layer_x0020_3">
			<path style="&st1;" d="M37.4,23.5c-0.2-0.2-3.3-3.8-7.9-5.7l0.9-1.6c0.4-0.7,0.1-1.6-0.6-1.9c-0.7-0.4-1.6-0.1-1.9,0.6L26.7,17c-0.8-0.2-1.6-0.2-2.4-0.2c-7.2,0-12.9,6.5-13.1,6.7c-0.5,0.6-0.5,1.4,0,2c0.2,0.2,3.4,3.8,8,5.7l-1,1.8c-0.4,0.7-0.1,1.6,0.6,1.9
				c0.7,0.4,1.6,0.1,1.9-0.6l1.3-2.3c0.8,0.1,1.6,0.2,2.4,0.2c7.2,0,12.9-6.5,13.1-6.7c0.5-0.6,0.5-1.4,0-2z M20.2,20.6c-0.9,1-1.5,2.4-1.5,3.9s0.6,2.8,1.5,3.9c-2.5-1-4.6-2.8-5.8-3.9c1.1-1.1,3.2-2.8,5.8-3.9z M22,24.5c0-1.2,0.9-2.1,2-2.3l-1.8,3.3
				c-0.1-0.3-0.2-0.6-0.2-1z M24.7,26.8l1.7-3.2c0.1,0.3,0.2,0.6,0.2,0.9c0,1.1-0.8,2.1-1.9,2.3z M28.4,28.3c0.9-1,1.5-2.4,1.5-3.9s-0.6-2.8-1.5-3.9c2.5,1,4.6,2.8,5.8,3.9c-1.1,1.1-3.2,2.8-5.8,3.9z"/>
		</g>
	</g>
	<g id="Layer_x0020_2" style="&st3;">
		<path style="&st2;" d="M48,48H0V0h48v48z"/>
	</g>
</svg>
