<?xml version="1.0" encoding="iso-8859-1"?>
<!-- Generator: Adobe Illustrator 9.0, SVG Export Plug-In  -->
<!DOCTYPE svg PUBLIC "-//W3C//DTD SVG 20000303 Stylable//EN"   "http://www.w3.org/TR/2000/03/WD-SVG-20000303/DTD/svg-20000303-stylable.dtd" [
	<!ENTITY st0 "fill:#ABABAB;stroke:none;">
	<!ENTITY st1 "fill:#545454;stroke:none;">
	<!ENTITY st2 "fill:none;stroke:none;">
	<!ENTITY st3 "fill-rule:nonzero;clip-rule:nonzero;stroke:#000000;stroke-miterlimit:4;">
	<!ENTITY st4 "stroke:none;">
]>
<svg  width="48pt" height="48pt" viewBox="0 0 48 48" xml:space="preserve">
	<g id="Layer_x0020_4" style="&st3;">
		<path style="&st4;" d="M37.1,1.2h-4v2c0,0.7-0.1,0.9-0.1,0.9c-0.2,0.3-1.8,0.4-2.4,0.5c-2.7,0.3-7.6,0.9-9,6.7c-0.6,0-3.2,0-3.2,0s0,3.8,0,5.2c-6.1,2.3-10.2,8.1-10.2,14.8c0,8.7,7.1,15.8,15.8,15.8c8.7,0,15.8-7.1,15.8-15.8c0-6.4-4-12.2-9.9-14.6
			c0-1.4,0-5.4,0-5.4s-1.2,0-1.7,0c0.6-0.4,1.6-0.6,3.1-0.8c2.5-0.3,7.8-0.9,7.8-7.3v-2h-2z"/>
		<path style="&st0;" d="M27.4,17.6v-4.8h-2.6c0.5-4.1,3-4.4,5.8-4.7c2.7-0.3,6-0.7,6-5.4h-2c0,2.8-1.4,3-4.3,3.4c-3,0.4-7,0.8-7.6,6.7h-2.9v4.7c-5.9,1.6-10.2,6.9-10.2,13.3c0,7.6,6.2,13.8,13.8,13.8c7.6,0,13.8-6.2,13.8-13.8c0-6.3-4.2-11.5-9.9-13.2z"/>
		<path style="&st1;" d="M27.4,17.6v-4.1l-2.6,0c0.5-3.9,3.1-5.2,5.8-5.4c3.1-0.3,6-0.9,6-5.4h-1.5c0,2.7-1.6,3.9-4.3,4.3c-2.8,0.3-6.5,0.8-7.1,6.5h-2.7v5.3c-2,0.6-3.8,1.5-5.3,2.8c1.3,0.2,2.3,1.3,2.3,2.6c0,1.4-1.2,2.6-2.6,2.6c-1.1,0-2.1-0.7-2.5-1.7
			c-0.9,1.7-1.4,3.7-1.4,5.9c0,7.4,5.4,13.7,12.5,13.7c7.1,0,13.3-6.2,13.3-13.8c0-6.4-4.1-11.6-9.9-13.2z"/>
	</g>
	<g id="Layer_x0020_2" style="&st3;">
		<path style="&st2;" d="M48,48H0V0h48v48z"/>
	</g>
</svg>
