<?xml version="1.0" encoding="iso-8859-1"?>
<!-- Generator: Adobe Illustrator 9.0, SVG Export Plug-In  -->
<!DOCTYPE svg PUBLIC "-//W3C//DTD SVG 20000303 Stylable//EN"   "http://www.w3.org/TR/2000/03/WD-SVG-20000303/DTD/svg-20000303-stylable.dtd" [
	<!ENTITY st0 "fill:url(#aigrd1);stroke:none;">
	<!ENTITY st1 "fill:#000000;stroke:none;">
	<!ENTITY st2 "opacity:0.58;stroke:none;">
	<!ENTITY st3 "fill:url(#aigrd3);stroke:none;">
	<!ENTITY st4 "fill-rule:nonzero;clip-rule:nonzero;fill:#FFFFFF;stroke:#000000;stroke-miterlimit:4;">
	<!ENTITY st5 "opacity:0.74;stroke:none;">
	<!ENTITY st6 "opacity:0.48;stroke:none;">
	<!ENTITY st7 "fill:url(#aigrd2);stroke:none;">
	<!ENTITY st8 "fill:url(#aigrd4);stroke:none;">
]>
<svg  width="42pt" height="35.3pt" viewBox="0 0 42 35.3" xml:space="preserve">
	<g id="Layer_x0020_1" style="&st4;">
		<path style="&st1;" d="M0,15.9v0.4c0,3.2,0,10,4.4,14.5c2.9,2.9,7.2,4.4,12.7,4.4c6,0,10.5-1.9,13.4-5.6c2.5-0.4,11.4-2.4,11.4-9.1c0-0.9-0.2-1.8-0.5-2.8l-0.1-0.4l-0.3-0.3c-1.1-1.1-4.7-1.7-6.8-2c-0.7-5.2-8-9.2-17.1-9.2C7.5,5.9,0,10.3,0,15.9z M33.7,22.5
			c0.2,0,0.5,0,0.7,0c-0.2,0.1-0.5,0.2-0.8,0.3c0-0.1,0-0.2,0.1-0.4z"/>
		<linearGradient id="aigrd1" gradientUnits="userSpaceOnUse" x1="27.3223" y1="26.7012" x2="8.0751" y2="14.2313">
			<stop  offset="0" style="stop-color:#959595"/>
			<stop  offset="1" style="stop-color:#FFFFFF"/>
		</linearGradient>
		<path style="&st0;" d="M32.4,15.7c0,4.7-0.3,17.8-15.6,17.8C0.8,33.4,1.3,20.3,1.3,15.7c0-4.7,7-8.4,15.6-8.4c8.6,0,15.6,3.8,15.6,8.4z"/>
		<linearGradient id="aigrd2" gradientUnits="userSpaceOnUse" x1="3.7012" y1="15.6582" x2="29.7139" y2="15.6582">
			<stop  offset="0" style="stop-color:#959595"/>
			<stop  offset="1" style="stop-color:#FFFFFF"/>
		</linearGradient>
		<path style="&st7;" d="M29.7,15.7c0,3.9-5.8,7.1-13,7.1s-13-3.2-13-7.1c0-3.9,5.8-7.1,13-7.1s13,3.2,13,7.1z"/>
		<radialGradient id="aigrd3" cx="12.5562" cy="11.665" r="7.7954" fx="12.5562" fy="11.665" gradientTransform="matrix(1.0325 0 0 1.0389 -3.228760e-002 -4.272461e-004)" gradientUnits="userSpaceOnUse">
			<stop  offset="0" style="stop-color:#787816"/>
			<stop  offset="1" style="stop-color:#000000"/>
		</radialGradient>
		<path style="&st3;" d="M28.9,17c0,3-5.5,5.4-12.2,5.4C10,22.5,4.5,20,4.5,17c0-3,5.5-5.4,12.2-5.4c6.7,0,12.2,2.4,12.2,5.4z"/>
		<linearGradient id="aigrd4" gradientUnits="userSpaceOnUse" x1="30.2197" y1="26.4189" x2="38.6941" y2="16.2493">
			<stop  offset="0" style="stop-color:#959595"/>
			<stop  offset="1" style="stop-color:#FFFFFF"/>
		</linearGradient>
		<path style="&st8;" d="M32.4,16.3c0,0,6.3,0.7,7.2,1.7c2.8,8.3-10.2,9.9-10.2,9.9L31,25c0,0,8-1.8,5.9-4.1c-0.2-0.2-4.7-0.4-4.7-0.4c-0.6-0.6-0.1-3.8,0.3-4.3z"/>
		<path style="&st6;" d="M32.6,19.4c0,0,5.1,0.6,5.4,0.9c0.8,0.8-0.3,2.2-0.3,2.2s2.1-1.9,0.9-3.1c-0.7-0.7-6-0.1-6-0.1z"/>
		<path style="&st2;" d="M17.7,0c0,3.3-10.2,4.7-10.2,7.1s13.9,1.6,13.9,3.1c0,1.5-6.3,2.9-6.3,6.9c0-3.4,13.9-4.2,13.9-6.8c0-2.5-14.4-1.6-14.4-3.7S17.7,3,17.7,0z"/>
		<path style="&st5;" d="M31.2,26.9c2-0.4,5-1.7,6.6-3c-0.7,1.6-5.2,3-6.6,3z"/>
		<path style="&st5;" d="M2.1,18.2c0.8,2.2,3.1,4.2,6.3,5.5c1,0.4,0,8,5.7,9c-1.4-3.3-0.5-7.6,0.5-7.5c4.6,0.4,9.8-0.5,14.1-3.7c-9.7,5.5-23.4,2.4-26.5-3.2z"/>
	</g>
</svg>
