<?xml version="1.0" encoding="iso-8859-1"?>
<!-- Generator: Adobe Illustrator 9.0, SVG Export Plug-In  -->
<!DOCTYPE svg PUBLIC "-//W3C//DTD SVG 20000303 Stylable//EN"   "http://www.w3.org/TR/2000/03/WD-SVG-20000303/DTD/svg-20000303-stylable.dtd" [
	<!ENTITY st0 "fill-rule:evenodd;clip-rule:evenodd;fill:url(#aigrd1);stroke:none;">
	<!ENTITY st1 "fill:none;stroke-linecap:round;stroke-linejoin:round;">
	<!ENTITY st2 "opacity:0.29;fill:none;stroke:#FFFFFF;stroke-linecap:round;stroke-linejoin:round;">
	<!ENTITY st3 "fill:none;stroke:none;">
	<!ENTITY st4 "fill-rule:nonzero;clip-rule:nonzero;stroke:#000000;stroke-miterlimit:4;">
	<!ENTITY st5 "stroke:none;">
]>
<svg  width="48pt" height="48pt" viewBox="0 0 48 48" xml:space="preserve">
	<g id="Layer_x0020_1" style="&st4;">
		<path style="&st5;" d="M6.4,24.3c0,10,8.1,18.1,18.1,18.1c10,0,18.1-8.1,18.1-18.1c0-10-8.1-18.1-18.1-18.1c-10,0-18.1,8.1-18.1,18.1z"/>
		<radialGradient id="aigrd1" cx="18.9292" cy="17.7773" r="22.4782" fx="18.9292" fy="17.7773" gradientUnits="userSpaceOnUse">
			<stop  offset="0" style="stop-color:#FED182"/>
			<stop  offset="0.2809" style="stop-color:#FFB310"/>
			<stop  offset="1" style="stop-color:#996E04"/>
		</radialGradient>
		<path style="&st0;" d="M39.5,24.3c0,8.5-6.9,15.4-15.4,15.4c-8.5,0-15.4-6.9-15.4-15.4c0-8.5,6.9-15.4,15.4-15.4c8.5,0,15.4,6.9,15.4,15.4z"/>
		<path style="&st5;" d="M37,15H24.7h-0.9H11.5c-4.4,0-6.7,5.2-6.7,5.2s1.1-2.6,4.4-2.5c3.2,0.1,2.6,2.1,5,3.4c2.3,1.3,7.6,1.6,8.5,0l1.6-2.8l1.6,2.8c0.9,1.6,6.2,1.3,8.5,0c2.3-1.3,1.7-3.4,5-3.4c3.2-0.1,4.4,2.5,4.4,2.5S41.4,15,37,15z"/>
		<path style="&st2;" d="M13.8,24.3c4.4,7.6,18.4,7.1,21.3,0"/>
		<path style="&st1;" d="M13.8,23.8c4.4,7.6,18.4,7.1,21.3,0"/>
	</g>
	<g id="Layer_x0020_2" style="&st4;">
		<path style="&st3;" d="M48,48H0V0h48v48z"/>
	</g>
</svg>
