#define shade_pressed_width 6
#define shade_pressed_height 6
static unsigned char shade_pressed_bits[] = {
   0x3f, 0x3f, 0x00, 0x00, 0x00, 0x00 };
