<?xml version="1.0" encoding="iso-8859-1"?>
<!-- Generator: Adobe Illustrator 9.0, SVG Export Plug-In  -->
<!DOCTYPE svg PUBLIC "-//W3C//DTD SVG 20000303 Stylable//EN"   "http://www.w3.org/TR/2000/03/WD-SVG-20000303/DTD/svg-20000303-stylable.dtd" [
	<!ENTITY st0 "fill-rule:evenodd;clip-rule:evenodd;fill:url(#aigrd1);stroke:none;">
	<!ENTITY st1 "opacity:0.75;fill-rule:evenodd;clip-rule:evenodd;stroke:none;">
	<!ENTITY st2 "stroke-width:0.8698;">
	<!ENTITY st3 "fill-rule:evenodd;clip-rule:evenodd;fill:#FFFFFF;stroke:none;">
	<!ENTITY st4 "fill-rule:evenodd;clip-rule:evenodd;fill:url(#aigrd2);stroke:none;">
	<!ENTITY st5 "fill-rule:nonzero;clip-rule:nonzero;stroke:#000000;stroke-miterlimit:4;">
	<!ENTITY st6 "fill-rule:evenodd;clip-rule:evenodd;fill:none;stroke:none;">
]>
<svg  width="24pt" height="24pt" viewBox="0 0 24 24" xml:space="preserve">
	<g id="Layer_x0020_3" style="&st5;">
		<g>
			<path style="&st2;" d="M1,12C1,18.1,6,23,12,23c6.1,0,11-4.9,11-11c0-6.1-4.9-11-11-11C6,1,1,5.9,1,12z"/>
			<radialGradient id="aigrd1" cx="8.8257" cy="7.979" r="13.6745" fx="8.8257" fy="7.979" gradientUnits="userSpaceOnUse">
				<stop  offset="0" style="stop-color:#FED182"/>
				<stop  offset="0.2809" style="stop-color:#FFB310"/>
				<stop  offset="1" style="stop-color:#996E04"/>
			</radialGradient>
			<path style="&st0;" d="M21.3,11.9c0,5.2-4.2,9.4-9.4,9.4s-9.4-4.2-9.4-9.4c0-5.2,4.2-9.4,9.4-9.4s9.4,4.2,9.4,9.4z"/>
			<path style="&st1;" d="M18.3,10.1l-1.7-1.3V6.5h-2.2v0.7l-2-1.5c-0.4-0.3-0.9-0.3-1.3,0l-6,4.4c-0.4,0.3-0.5,0.8-0.4,1.2c0.2,0.5,0.6,0.8,1.1,0.8c0,0,0.3,0,0.6,0c0,1.4,0,4.3,0,4.3c0,0.6,0.5,1.1,1.1,1.1H16c0.6,0,1.1-0.5,1.1-1.1c0,0,0-2.9,0-4.3
				c0.2,0,0.5,0,0.5,0c0.5,0,0.9-0.3,1.1-0.8c0-0.1,0.1-0.2,0.1-0.4c0-0.3-0.2-0.7-0.4-0.9z"/>
			<path style="&st3;" d="M18.5,10.3L16.8,9V6.6h-2.2v0.7l-2-1.5c-0.4-0.3-0.9-0.3-1.3,0l-6,4.4c-0.4,0.3-0.5,0.8-0.4,1.2C5,12,5.5,12.3,5.9,12.3c0,0,0.3,0,0.6,0c0,1.4,0,4.3,0,4.3c0,0.6,0.5,1.1,1.1,1.1h8.6c0.6,0,1.1-0.5,1.1-1.1c0,0,0-2.9,0-4.3
				c0.2,0,0.5,0,0.5,0c0.5,0,0.9-0.3,1.1-0.8c0-0.1,0.1-0.2,0.1-0.3c0-0.3-0.2-0.7-0.4-0.9z"/>
			<radialGradient id="aigrd2" cx="9.125" cy="8.0234" r="12.2634" fx="9.125" fy="8.0234" gradientUnits="userSpaceOnUse">
				<stop  offset="0" style="stop-color:#FFFFFF"/>
				<stop  offset="1" style="stop-color:#F0E1BD"/>
			</radialGradient>
			<path style="&st4;" d="M18.4,10.2l-1.7-1.3V6.6h-2.2v0.7l-2-1.5c-0.4-0.3-0.9-0.3-1.3,0l-6,4.4c-0.4,0.3-0.5,0.8-0.4,1.2c0.2,0.5,0.6,0.8,1.1,0.8c0,0,0.3,0,0.6,0c0,1.4,0,4.3,0,4.3c0,0.6,0.5,1.1,1.1,1.1h8.6c0.6,0,1.1-0.5,1.1-1.1c0,0,0-2.9,0-4.3
				c0.2,0,0.5,0,0.5,0c0.5,0,0.9-0.3,1.1-0.8c0-0.1,0.1-0.2,0.1-0.3c0-0.3-0.2-0.7-0.4-0.9z"/>
		</g>
	</g>
	<g id="Layer_x0020_2" style="&st5;">
		<path style="&st6;" d="M24,24H0V0h24v24z"/>
	</g>
</svg>
