<?xml version="1.0" encoding="iso-8859-1"?>
<!-- Generator: Adobe Illustrator 9.0, SVG Export Plug-In  -->
<!DOCTYPE svg PUBLIC "-//W3C//DTD SVG 20000303 Stylable//EN"   "http://www.w3.org/TR/2000/03/WD-SVG-20000303/DTD/svg-20000303-stylable.dtd" [
	<!ENTITY st0 "fill:url(#aigrd1);">
	<!ENTITY st1 "fill:url(#aigrd2);">
	<!ENTITY st2 "opacity:0.42;">
	<!ENTITY st3 "opacity:0.48;">
	<!ENTITY st4 "fill-rule:nonzero;clip-rule:nonzero;fill:#FFFFFF;stroke:#000000;stroke-miterlimit:4;">
	<!ENTITY st5 "fill:#000000;">
	<!ENTITY st6 "fill:#000000;stroke:#000000;stroke-width:0.8636;">
	<!ENTITY st7 "fill-rule:evenodd;clip-rule:evenodd;stroke:none;">
	<!ENTITY st8 "fill-rule:nonzero;clip-rule:nonzero;stroke:#000000;stroke-miterlimit:4;">
	<!ENTITY st9 "fill-rule:evenodd;clip-rule:evenodd;fill:none;stroke:none;">
]>
<svg  width="24pt" height="24pt" viewBox="0 0 24 24" xml:space="preserve">
	<g id="Layer_x0020_1" style="&st4;">
		<g style="&st7;">
			<path style="&st6;" d="M4.4,4.4c-2,2-3.1,4.7-3.1,7.6c0,2.9,1.1,5.6,3.1,7.6c2,2,4.7,3.1,7.6,3.1c2.9,0,5.6-1.1,7.6-3.1c2-2,3.1-4.7,3.1-7.6c0-2.9-1.1-5.6-3.1-7.6S14.9,1.3,12,1.3c-2.9,0-5.6,1.1-7.6,3.1z"/>
			<radialGradient id="aigrd1" cx="8.7124" cy="7.8398" r="14.3823" fx="8.7124" fy="7.8398" gradientUnits="userSpaceOnUse">
				<stop  offset="0" style="stop-color:#F6A783"/>
				<stop  offset="0.2809" style="stop-color:#F96415"/>
				<stop  offset="1" style="stop-color:#99310C"/>
			</radialGradient>
			<path style="&st0;" d="M21.9,12c0,5.4-4.4,9.9-9.9,9.9c-5.4,0-9.9-4.4-9.9-9.9c0-5.4,4.4-9.9,9.9-9.9c5.4,0,9.9,4.4,9.9,9.9z"/>
			<linearGradient id="aigrd2" gradientUnits="userSpaceOnUse" x1="9.2695" y1="9.2505" x2="15.6925" y2="16.0001">
				<stop  offset="0" style="stop-color:#FFFFFF"/>
				<stop  offset="1" style="stop-color:#EDEDED"/>
			</linearGradient>
			<path style="&st1;" d="M14.4,12l2.5-2.5c0.7-0.7,0.7-1.8,0-2.5c-0.7-0.7-1.8-0.7-2.5,0l-2.5,2.4L9.5,7.1C8.8,6.4,7.7,6.4,7,7.1C6.3,7.8,6.3,8.9,7,9.6L9.5,12L7,14.5c-0.7,0.7-0.7,1.8,0,2.5c0.7,0.7,1.8,0.7,2.5,0l2.5-2.5l2.5,2.4c0.7,0.7,1.8,0.7,2.5,0
				c0.7-0.7,0.7-1.8,0-2.5L14.4,12z"/>
			<g>
				<path style="&st3;" d="M16.8,9.5L14.4,12l0.2,0.2L17,9.7c0.7-0.7,0.7-1.8,0-2.5c0,0-0.1-0.1-0.1-0.1c0.6,0.7,0.6,1.7-0.1,2.4z"/>
				<path style="&st3;" d="M16.8,14.4c0.7,0.7,0.7,1.8,0,2.5c-0.7,0.7-1.8,0.7-2.5,0l-2.5-2.5l-2.5,2.5c-0.6,0.6-1.7,0.7-2.4,0.1c0,0,0.1,0.1,0.1,0.1c0.7,0.7,1.8,0.7,2.5,0l2.5-2.5l2.5,2.5c0.7,0.7,1.8,0.7,2.5,0c0.7-0.7,0.7-1.8,0-2.5l-0.2-0.2z"/>
			</g>
			<g style="&st5;">
				<path style="&st2;" d="M16.6,14.2L14.4,12l2.3,2.3z"/>
				<path style="&st2;" d="M7,14.4L9.4,12L7,9.5C6.3,8.8,6.3,7.7,7,7.1c0.7-0.7,1.8-0.7,2.5,0l2.4,2.5l2.5-2.5C15,6.4,16,6.4,16.7,7c0,0-0.1-0.1-0.1-0.1c-0.7-0.7-1.8-0.7-2.5,0l-2.5,2.5L9.3,6.9c-0.7-0.7-1.8-0.7-2.5,0c-0.7,0.7-0.7,1.8,0,2.5l2.5,2.5l-2.5,2.5
					c-0.7,0.7-0.7,1.8,0,2.5c0,0,0.1,0.1,0.1,0.1c-0.6-0.7-0.6-1.7,0.1-2.4z"/>
			</g>
		</g>
	</g>
	<g id="Layer_x0020_2" style="&st8;">
		<path style="&st9;" d="M24,24H0V0h24v24z"/>
	</g>
</svg>
