<?xml version="1.0" encoding="iso-8859-1"?>
<!-- Generator: Adobe Illustrator 9.0, SVG Export Plug-In  -->
<!DOCTYPE svg PUBLIC "-//W3C//DTD SVG 20000303 Stylable//EN"   "http://www.w3.org/TR/2000/03/WD-SVG-20000303/DTD/svg-20000303-stylable.dtd" [
	<!ENTITY st0 "fill:url(#aigrd1);stroke:none;">
	<!ENTITY st1 "fill:#FFFFFF;stroke:none;">
	<!ENTITY st2 "stroke-width:0.8567;">
	<!ENTITY st3 "fill:none;stroke:none;">
	<!ENTITY st4 "fill-rule:nonzero;clip-rule:nonzero;stroke:#000000;stroke-miterlimit:4;">
	<!ENTITY st5 "stroke:none;">
]>
<svg  width="24pt" height="24pt" viewBox="0 0 24 24" xml:space="preserve">
	<g id="Layer_x0020_2" style="&st4;">
		<path style="&st2;" d="M2.4,1.5C1.7,1.5,1,2.1,1,2.9v18.2c0,0.8,0.6,1.4,1.4,1.4h19c0.8,0,1.4-0.6,1.4-1.4V2.9c0-0.8-0.6-1.4-1.4-1.4h-19z"/>
		<path style="&st1;" d="M22,21.1c0,0.3-0.2,0.5-0.5,0.5h-19c-0.3,0-0.5-0.2-0.5-0.5V2.9c0-0.3,0.2-0.5,0.5-0.5h19c0.3,0,0.5,0.2,0.5,0.5v18.2z"/>
		<linearGradient id="aigrd1" gradientUnits="userSpaceOnUse" x1="19.085" y1="18.4395" x2="5.1758" y2="5.9047">
			<stop  offset="0" style="stop-color:#FFFFFF"/>
			<stop  offset="1" style="stop-color:#EDEDED"/>
		</linearGradient>
		<path style="&st0;" d="M2.4,2.8c-0.1,0-0.1,0-0.1,0.1v18.2c0,0.1,0,0.1,0.1,0.1h19c0.1,0,0.1,0,0.1-0.1V2.9c0-0.1,0-0.1-0.1-0.1h-19z"/>
	</g>
	<g id="Layer_x0020_3" style="&st4;">
		<g>
			<path style="&st5;" d="M8.9,10.8c0,0.5,0,1.1,0.1,1.5H8l-0.1-0.8h0c-0.3,0.5-1,0.9-1.9,0.9c-1.3,0-1.9-0.9-1.9-1.8c0-1.5,1.3-2.3,3.7-2.3V8.2c0-0.5-0.1-1.5-1.4-1.4c-0.6,0-1.2,0.2-1.6,0.5L4.5,6.5C5,6.1,5.8,5.9,6.5,5.9c1.9,0,2.4,1.3,2.4,2.5v2.3z M7.8,9.1
				c-1.2,0-2.6,0.2-2.6,1.4c0,0.7,0.5,1.1,1.1,1.1c0.8,0,1.3-0.5,1.5-1c0-0.1,0.1-0.2,0.1-0.4V9.1z"/>
		</g>
		<g>
			<path style="&st5;" d="M9.8,9.8h2v3.6h0c0.4-0.5,1-0.9,1.9-0.9c1.5,0,2.6,1.2,2.6,3.2c0,2.3-1.4,3.4-2.9,3.4c-0.7,0-1.5-0.3-1.9-1h0l-0.1,0.9H9.8c0-0.4,0.1-1.2,0.1-1.9V9.8z M11.8,16.3c0,0.1,0,0.2,0,0.3c0.1,0.5,0.6,0.9,1.1,0.9c0.8,0,1.3-0.6,1.3-1.8
				c0-1-0.4-1.7-1.3-1.7c-0.5,0-1,0.4-1.1,1c0,0.1,0,0.2,0,0.4v0.9z"/>
		</g>
		<g>
			<path style="&st5;" d="M18.3,11.3c-0.3,0.2-1,0.4-1.8,0.4c-1.6,0-2.4-1.1-2.4-2.4c0-2.1,1.6-4.1,3.8-4.1c0.6,0,1.1,0.2,1.3,0.3l-0.3,0.8C18.6,6.1,18.3,6,17.8,6c-1.6,0-2.6,1.6-2.6,3.1c0,1,0.5,1.7,1.5,1.7c0.6,0,1.1-0.2,1.4-0.3l0.1,0.8z"/>
		</g>
	</g>
	<g id="Layer_x0020_4" style="&st4;">
		<path style="&st3;" d="M24,24H0V0h24v24z"/>
	</g>
</svg>
