<?xml version="1.0" encoding="iso-8859-1"?>
<!-- Generator: Adobe Illustrator 9.0, SVG Export Plug-In  -->
<!DOCTYPE svg PUBLIC "-//W3C//DTD SVG 20000303 Stylable//EN"   "http://www.w3.org/TR/2000/03/WD-SVG-20000303/DTD/svg-20000303-stylable.dtd" [
	<!ENTITY st0 "fill:url(#aigrd1);stroke:none;">
	<!ENTITY st1 "fill:#000000;stroke:none;">
	<!ENTITY st2 "fill:url(#aigrd3);stroke:none;">
	<!ENTITY st3 "fill-rule:nonzero;clip-rule:nonzero;fill:#FFFFFF;stroke:#000000;stroke-miterlimit:4;">
	<!ENTITY st4 "fill:url(#aigrd2);stroke:none;">
	<!ENTITY st5 "fill:#BEBEBE;stroke:none;">
	<!ENTITY st6 "fill:none;stroke:none;">
	<!ENTITY st7 "fill-rule:nonzero;clip-rule:nonzero;stroke:#000000;stroke-miterlimit:4;">
	<!ENTITY st8 "stroke:none;">
	<!ENTITY st9 "fill:url(#aigrd4);stroke:none;">
]>
<svg  width="24pt" height="24pt" viewBox="0 0 24 24" xml:space="preserve">
	<g id="Layer_x0020_1" style="&st3;">
		<path style="&st1;" d="M4.8,1.5C3.2,1.5,2,2.7,2,4.2v16.2c0,1.5,1.2,2.7,2.7,2.7h14.5c1.5,0,2.8-1.2,2.8-2.7V4.2c0-1.5-1.2-2.7-2.8-2.7H4.8z"/>
		<linearGradient id="aigrd1" gradientUnits="userSpaceOnUse" x1="6.9556" y1="3.7808" x2="17.0085" y2="21.2444">
			<stop  offset="0" style="stop-color:#F0F0F0"/>
			<stop  offset="1" style="stop-color:#D6D6D6"/>
		</linearGradient>
		<path style="&st0;" d="M20.6,20.4c0,0.8-0.7,1.5-1.5,1.5H4.6c-0.8,0-1.5-0.7-1.5-1.5V4.2c0-0.8,0.7-1.5,1.5-1.5h14.5c0.8,0,1.5,0.7,1.5,1.5v16.2z"/>
		<g>
			<radialGradient id="aigrd2" cx="4.6206" cy="15.7773" r="0.657" fx="4.6206" fy="15.7773" gradientUnits="userSpaceOnUse">
				<stop  offset="0" style="stop-color:#F0F0F0"/>
				<stop  offset="1" style="stop-color:#474747"/>
			</radialGradient>
			<path style="&st4;" d="M4.9,15.6c0,0.2-0.2,0.4-0.4,0.4C4.2,16,4,15.8,4,15.6c0-0.2,0.2-0.4,0.4-0.4c0.2,0,0.4,0.2,0.4,0.4z"/>
			<radialGradient id="aigrd3" cx="4.6206" cy="9.5278" r="0.6575" fx="4.6206" fy="9.5278" gradientUnits="userSpaceOnUse">
				<stop  offset="0" style="stop-color:#F0F0F0"/>
				<stop  offset="1" style="stop-color:#474747"/>
			</radialGradient>
			<path style="&st2;" d="M4.9,9.3c0,0.2-0.2,0.4-0.4,0.4C4.2,9.8,4,9.6,4,9.3c0-0.2,0.2-0.4,0.4-0.4c0.2,0,0.4,0.2,0.4,0.4z"/>
		</g>
		<path style="&st8;" d="M6,21.9H5.8V3H6v18.9z"/>
		<linearGradient id="aigrd4" gradientUnits="userSpaceOnUse" x1="5.7778" y1="3.5645" x2="5.5549" y2="21.2332">
			<stop  offset="0" style="stop-color:#EDEDED"/>
			<stop  offset="1" style="stop-color:#CACACA"/>
		</linearGradient>
		<path style="&st9;" d="M5.8,21.9H5.6V3h0.2v18.9z"/>
		<path style="&st8;" d="M3.8,4.7L3.5,21.4c-0.2-0.2-0.3-0.8-0.3-0.8l0-16.5c0,0,0-0.4,0.4-0.9c0.4-0.5,1.1-0.5,1.1-0.5l14.8,0L5.1,3.4c-0.6,0-0.9,0.3-1,0.4C4,4,3.8,4.4,3.8,4.7z"/>
		<path style="&st5;" d="M20,19.9l0.3-16.7C20.6,3.5,20.7,4,20.7,4l0,16.5c0,0,0,0.4-0.4,0.9c-0.4,0.5-1.1,0.5-1.1,0.5l-14.8,0l14.2-0.7c0.6,0,0.9-0.3,1-0.4c0.1-0.1,0.3-0.5,0.3-0.9z"/>
	</g>
	<g id="Layer_x0020_2" style="&st7;">
		<path style="&st6;" d="M24,24H0V0h24v24z"/>
	</g>
</svg>
