<?xml version="1.0" encoding="iso-8859-1"?>
<!-- Generator: Adobe Illustrator 9.0, SVG Export Plug-In  -->
<!DOCTYPE svg PUBLIC "-//W3C//DTD SVG 20000303 Stylable//EN"   "http://www.w3.org/TR/2000/03/WD-SVG-20000303/DTD/svg-20000303-stylable.dtd" [
	<!ENTITY st0 "fill:url(#aigrd1);stroke:none;">
	<!ENTITY st1 "fill:url(#aigrd3);stroke:none;">
	<!ENTITY st2 "fill:#808078;stroke:none;">
	<!ENTITY st3 "fill:#C1C2B4;stroke:none;">
	<!ENTITY st4 "fill:#F1F2E1;stroke:none;">
	<!ENTITY st5 "stroke-width:0.8309;">
	<!ENTITY st6 "fill:url(#aigrd2);stroke:none;">
	<!ENTITY st7 "fill:none;stroke:none;">
	<!ENTITY st8 "fill-rule:nonzero;clip-rule:nonzero;stroke:#000000;stroke-miterlimit:4;">
	<!ENTITY st9 "stroke:none;">
]>
<svg  width="24pt" height="24pt" viewBox="0 0 24 24" xml:space="preserve">
	<g id="Layer_x0020_2" style="&st8;">
		<path style="&st5;" d="M19.7,4.5c0.6,0.4,0.8,1,0.9,1.3c0,0,0,0.2,0.1,0.2c0.1,0,0.2,0,0.3,0c0.4,0,1.1,0.1,1.6,0.8c0.2,0.2,0.3,0.6,0.3,2.3c0,0.2,0,0.4,0,0.6c0,0.9,0,2-0.1,3c-0.2,2.4-0.5,5.6-1.4,6.6c-0.2,0.3-0.6,0.5-1,0.6c-0.5,0.2-1.4,0.3-2.8,0.3
			c0,0-0.5,0-0.5,0c-1.9,0-4.3-0.1-6.5-0.4c-0.4,0-0.7-0.1-1-0.1c-2.5-0.3-3.1-0.6-3.3-0.7c-0.8-0.6-2.8-3.4-3-3.7c-1-1.5-2.3-3.5-2.4-4.6c0-0.1,0-0.2,0-0.2c0-0.4,0.1-0.6,0.3-0.7c0.3-0.4,0.8-0.5,2.8-0.6c0.8,0,1.7,0,2.8,0c0.4-1.2,1-2.6,1.6-3
			c0.8-0.5,2.5-0.6,4.7-0.6c0.5,0,1.2,0,1.4,0c0.2,0,0.4-0.2,0.7-0.5s0.6-0.5,1-0.7c0.9-0.5,2.8-0.7,3.8,0z"/>
		<path style="&st9;" d="M19.3,4.9C19.8,5.2,19.9,5.6,20,6c0.1,0.3,0.1,0.4,0.2,0.4c0.1,0.1,0.3,0.1,0.5,0.1c0.4,0,0.9,0.1,1.3,0.6c0.1,0.1,0.2,0.3,0.3,2.1c0,1.1,0,2.3-0.1,3.6c-0.1,1.9-0.5,5.4-1.3,6.4c-0.3,0.3-1,0.8-4,0.8c-1.9,0-4.3-0.1-6.5-0.4
			c-3.6-0.5-3.9-0.9-4-1c-0.7-0.9-0.9-2.6-0.6-5C6.2,11,7.4,7.2,8.2,6.7c0.7-0.5,2.4-0.5,4.5-0.5c0.7,0,1.3,0,1.5,0c0.3-0.1,0.6-0.3,0.9-0.6c0.2-0.2,0.5-0.5,0.9-0.7c0.8-0.4,2.5-0.6,3.4,0z"/>
		<linearGradient id="aigrd1" gradientUnits="userSpaceOnUse" x1="182.2607" y1="26.0352" x2="178.6353" y2="35.7464" gradientTransform="matrix(0.9799 -0.1997 0.1997 0.9799 -168.8719 17.8115)">
			<stop  offset="0" style="stop-color:#989C80"/>
			<stop  offset="1" style="stop-color:#000000"/>
		</linearGradient>
		<path style="&st0;" d="M8.4,7c-0.9,0.6-3.6,9.1-1.7,11.3c0.6,0.8,12.7,2,13.9,0.6c1.3-1.6,1.5-11,1.1-11.6c-0.4-0.6-1.2-0.3-1.7-0.6c-0.5-0.4-0.2-1.1-0.9-1.5c-0.7-0.5-2.3-0.3-3,0c-0.7,0.4-1.1,1.1-1.8,1.3C13.4,6.7,9.3,6.4,8.4,7z"/>
		<path style="&st3;" d="M6.5,15.5c-0.3-2.2,0.8-7.8,1.8-8.6s5.2-0.3,5.9-0.4s1-0.8,1.8-1.2c0.8-0.4,2.3-0.4,3,0c0.5,0.4,0.5,1.3,0.8,1.5c0.3,0.2,1.3,0.3,1.6,0.5c0,0-1.3-0.1-1.7-0.4c-0.4-0.3-0.5-1-0.8-1.2c-0.3-0.2-2.5-0.3-3,0.1s-0.9,1-1.6,1.3
			c-0.7,0.3-4.6-0.3-5.6,0.5c-1,0.9-2.2,8-2.2,8z"/>
		<path style="&st9;" d="M8.1,9.8c3.1,0.2,6.6,0.5,7.5,0.7c1,0.4,2.4,2.7,3,3.7c0.8,1.5,1.8,3.5,1.9,4.6c0,0.6-0.2,0.8-0.4,0.9c-1.1,0.5-5.4,0.2-7.1,0.1c-0.2,0-5.8-0.5-6.7-1c-0.5-0.4-1.9-2.1-2.9-3.6c-0.8-1.2-2.2-3.4-2.4-4.4c0-0.3,0-0.5,0.1-0.7
			c0.2-0.2,0.5-0.4,2.5-0.4c1.2,0,2.7,0,4.5,0.1z"/>
		<linearGradient id="aigrd2" gradientUnits="userSpaceOnUse" x1="176.5332" y1="31.9297" x2="178.5262" y2="39.0082" gradientTransform="matrix(0.9799 -0.1997 0.1997 0.9799 -168.8719 17.8115)">
			<stop  offset="0" style="stop-color:#DEDFCE"/>
			<stop  offset="1" style="stop-color:#C2C4B5"/>
		</linearGradient>
		<path style="&st6;" d="M19.7,19.3c1-0.5-2.8-7.9-4.4-8.4c-1.4-0.5-13.5-1.2-14-0.6c-0.6,0.8,4.1,7.5,5,8.1c0.9,0.6,11.8,1.6,13.4,0.9z"/>
		<linearGradient id="aigrd3" gradientUnits="userSpaceOnUse" x1="10.312" y1="35.749" x2="11.779" y2="40.9594" gradientTransform="matrix(0.9773 -0.2117 0.2117 0.9773 -9.9229 -19.4468)">
			<stop  offset="0" style="stop-color:#DEDFCE"/>
			<stop  offset="1" style="stop-color:#FFFFFF"/>
		</linearGradient>
		<path style="&st1;" d="M10.9,19.2c-4.4-3.9,3.4-3,0.2-8.8c0,0-9.5-0.7-9.6,0.2c-0.2,1,4.2,7.4,4.9,7.9c0.8,0.5,4.5,0.8,4.5,0.8z"/>
		<path style="&st4;" d="M6.3,18.4c0,0-4.6-6.3-4.5-7.3c0.1-1.1,12.6-0.4,12.6-0.4C14,10.6,2,9.6,1.4,10.4c-0.7,0.8,4.2,7.6,5,8z"/>
		<path style="&st2;" d="M21.2,7.1c0.8,0.4,0.4,8.1-0.6,11.6c1.2-3.4,1.4-8.9,1.1-11c0-0.2-0.1-0.5-0.5-0.6z"/>
	</g>
	<g id="Layer_x0020_1" style="&st8;">
		<path style="&st7;" d="M24,24H0V0h24v24z"/>
	</g>
</svg>
