<?xml version="1.0" encoding="iso-8859-1"?>
<!-- Generator: Adobe Illustrator 9.0, SVG Export Plug-In  -->
<!DOCTYPE svg PUBLIC "-//W3C//DTD SVG 20000303 Stylable//EN"   "http://www.w3.org/TR/2000/03/WD-SVG-20000303/DTD/svg-20000303-stylable.dtd" [
	<!ENTITY st0 "fill:url(#aigrd1);stroke:none;">
	<!ENTITY st1 "fill:#000000;stroke-width:0.7647;stroke-linecap:round;stroke-linejoin:round;">
	<!ENTITY st2 "fill:url(#aigrd3);stroke:none;">
	<!ENTITY st3 "fill-rule:nonzero;clip-rule:nonzero;fill:#9D9E92;stroke:#000000;stroke-miterlimit:4;">
	<!ENTITY st4 "fill:#F3F5E5;stroke:none;">
	<!ENTITY st5 "stroke-width:0.8474;">
	<!ENTITY st6 "fill:url(#aigrd2);stroke:none;">
	<!ENTITY st7 "fill:none;stroke:none;">
	<!ENTITY st8 "fill-rule:nonzero;clip-rule:nonzero;stroke:#000000;stroke-miterlimit:4;">
	<!ENTITY st9 "stroke:none;">
]>
<svg  width="24pt" height="24pt" viewBox="0 0 24 24" xml:space="preserve">
	<g id="Layer_x0020_2" style="&st8;">
		<path style="&st5;" d="M5.4,2C4.7,2,4.1,2.6,4.1,3.3v17.8c0,0.7,0.5,1.2,1.2,1.2H21c0.6,0,1.2-0.5,1.2-1.2v-15c0-0.5-0.2-1-0.5-1.3l-2.1-2.1C19.2,2.3,18.6,2,18,2H5.4z"/>
		<linearGradient id="aigrd1" gradientUnits="userSpaceOnUse" x1="19.3086" y1="19.6396" x2="5.7873" y2="5.7993">
			<stop  offset="0" style="stop-color:#E4E4E4"/>
			<stop  offset="1" style="stop-color:#FEFEFE"/>
		</linearGradient>
		<path style="&st0;" d="M18,2.8H5.4C5.1,2.8,4.9,3,4.9,3.3v17.8c0,0.2,0.1,0.4,0.4,0.4H21c0.2,0,0.4-0.2,0.4-0.4v-15c0-0.4-0.1-0.6-0.3-0.8L19,3.2c-0.3-0.2-0.7-0.4-1-0.4z"/>
		<linearGradient id="aigrd2" gradientUnits="userSpaceOnUse" x1="5.5762" y1="5.5293" x2="19.2593" y2="19.5667">
			<stop  offset="0" style="stop-color:#E4E4E4"/>
			<stop  offset="1" style="stop-color:#FEFEFE"/>
		</linearGradient>
		<path style="&st6;" d="M5.7,3.6c0,1.4,0,15.7,0,17.1c1.4,0,13.5,0,14.9,0c0-1.4,0-14.2,0-14.8c-0.3-0.3-2-2-2.3-2.3c-0.6,0-11.2,0-12.6,0z"/>
	</g>
	<g id="Layer_x0020_5" style="&st3;">
		<path style="&st1;" d="M15.4,7.3H6.3c0,0,0,3.1,0,3.6c-0.4-0.8-1.1-1.3-1.9-1.3C3.1,9.6,2,11.1,2,13s1.1,3.5,2.4,3.5c0.8,0,1.4-0.5,1.9-1.3c0,0.5,0,3.6,0,3.6h9.9c0,0,0-3.1,0-3.6c0.4,0.8,1.1,1.3,1.9,1.3c1.3,0,2.4-1.5,2.4-3.5S19.4,9.6,18,9.6
			c-0.8,0-1.4,0.5-1.9,1.3c0-0.5,0-3.6,0-3.6h-0.8z"/>
		<linearGradient id="aigrd3" gradientUnits="userSpaceOnUse" x1="8.2915" y1="10.3013" x2="14.3278" y2="15.947">
			<stop  offset="0" style="stop-color:#DEDFCE"/>
			<stop  offset="1" style="stop-color:#C2C4B5"/>
		</linearGradient>
		<path style="&st2;" d="M18,10.4c-0.6,0-1.1,0.5-1.4,1.3c-0.5,0.2-1.1,0-1.3-0.5V8h-0.1H7.1H7.1v3.2c-0.2,0.5-0.8,0.7-1.2,0.5c-0.3-0.8-0.8-1.4-1.4-1.4c-0.9,0-1.6,1.2-1.6,2.7c0,1.5,0.7,2.7,1.6,2.7c0.6,0,1.1-0.5,1.4-1.3c0.5-0.2,1.1,0,1.3,0.5V18h0.1h8.2h0.1
			v-3.2c0.2-0.5,0.8-0.7,1.2-0.5c0.3,0.8,0.8,1.4,1.4,1.4c0.9,0,1.6-1.2,1.6-2.7c0-1.5-0.7-2.7-1.6-2.7z"/>
		<g style="&st9;">
			<path d="M5.5,11.5c0.1,0,0.2,0.1,0.2,0.1c-0.2-0.5-0.5-0.9-0.9-1.1c0.3,0.2,0.5,0.6,0.6,1z"/>
			<path d="M15.1,11c0.1,0.2,0.2,0.4,0.4,0.5c-0.1-0.1-0.1-0.1-0.1-0.2V8h-0.1h-0.2V11z"/>
			<path d="M5.5,14.3c-0.3,0.8-0.8,1.3-1.4,1.3c-0.2,0-0.4,0-0.5-0.1c0.2,0.2,0.5,0.4,0.8,0.4c0.6,0,1.1-0.5,1.4-1.3c0.3-0.1,0.6-0.1,0.8,0c-0.3-0.3-0.8-0.4-1.1-0.2z"/>
			<path d="M18.5,10.5c0.5,0.5,0.8,1.3,0.8,2.3c0,1.5-0.7,2.7-1.6,2.7c-0.2,0-0.4,0-0.5-0.1c0.2,0.2,0.5,0.4,0.8,0.4c0.9,0,1.6-1.2,1.6-2.7c0-1.2-0.5-2.2-1.1-2.5z"/>
			<path d="M16.3,14.2c-0.4-0.2-1.1,0-1.2,0.5v3.2H15H7.1v0.2h0.1h8.2h0.1v-3.2c0.1-0.4,0.6-0.6,1-0.6c0,0,0-0.1-0.1-0.1z"/>
		</g>
		<g style="&st4;">
			<path d="M3,13.2c0-1.5,0.7-2.7,1.6-2.7c0.3,0,0.5,0.1,0.7,0.3c-0.3-0.3-0.6-0.5-1-0.5c-0.9,0-1.6,1.2-1.6,2.7c0,1,0.4,2,0.9,2.4C3.2,14.9,3,14.1,3,13.2z"/>
			<path d="M16.8,11.8c0.3-0.8,0.8-1.3,1.4-1.3c0.3,0,0.5,0.1,0.7,0.3c-0.3-0.3-0.6-0.5-1-0.5c-0.6,0-1.1,0.5-1.4,1.3c-0.3,0.1-0.7,0.1-1-0.1c0.2,0.4,0.8,0.5,1.2,0.3z"/>
			<path d="M6,11.9c0.4,0.2,1.1,0,1.2-0.5V8.2h0.1h8V8h-0.1H7.1H7v3.2c-0.2,0.5-0.6,0.7-1.1,0.5c0,0.1,0,0.1,0.1,0.2z"/>
			<path d="M7.3,15.1c-0.1-0.2-0.2-0.3-0.3-0.4c0,0,0.1,0.1,0.1,0.2V18h0.1h0.1v-2.9z"/>
			<path d="M16.8,14.6c-0.1,0-0.1,0-0.2-0.1c0.2,0.4,0.4,0.7,0.6,0.9c-0.2-0.2-0.3-0.5-0.5-0.9z"/>
		</g>
	</g>
	<g id="Layer_x0020_3" style="&st8;">
		<path style="&st7;" d="M24,24H0V0h24v24z"/>
	</g>
</svg>
