<?xml version="1.0" encoding="iso-8859-1"?>
<!-- Generator: Adobe Illustrator 9.0, SVG Export Plug-In  -->
<!DOCTYPE svg PUBLIC "-//W3C//DTD SVG 20000303 Stylable//EN"   "http://www.w3.org/TR/2000/03/WD-SVG-20000303/DTD/svg-20000303-stylable.dtd" [
	<!ENTITY st0 "fill:url(#aigrd1);stroke:none;">
	<!ENTITY st1 "opacity:0.27;">
	<!ENTITY st2 "fill:#FFFFFF;stroke:none;">
	<!ENTITY st3 "stroke-width:0.8827;">
	<!ENTITY st4 "fill:url(#aigrd2);stroke:none;">
	<!ENTITY st5 "fill:none;stroke:none;">
	<!ENTITY st6 "fill-rule:nonzero;clip-rule:nonzero;stroke:#000000;stroke-miterlimit:4;">
	<!ENTITY st7 "stroke:none;">
]>
<svg  width="24pt" height="24pt" viewBox="0 0 24 24" xml:space="preserve">
	<g id="Layer_x0020_3" style="&st6;">
		<path style="&st3;" d="M2.5,1.4C1.7,1.4,1.1,2,1.1,2.8v11.7c0,0.8,0.6,1.4,1.4,1.4h12.9c0.8,0,1.4-0.6,1.4-1.4V2.8c0-0.8-0.6-1.4-1.4-1.4H2.5z"/>
		<path style="&st2;" d="M16,14.4c0,0.3-0.2,0.5-0.5,0.5H2.5C2.2,15,2,14.8,2,14.4V2.8c0-0.3,0.2-0.5,0.5-0.5h12.9c0.3,0,0.5,0.2,0.5,0.5v11.7z"/>
		<linearGradient id="aigrd1" gradientUnits="userSpaceOnUse" x1="13.7441" y1="12.9111" x2="4.4902" y2="4.5716">
			<stop  offset="0" style="stop-color:#FFFFFF"/>
			<stop  offset="1" style="stop-color:#EDEDED"/>
		</linearGradient>
		<path style="&st0;" d="M2.5,2.7c-0.1,0-0.1,0-0.1,0.1v11.7c0,0.1,0,0.1,0.1,0.1h12.9c0.1,0,0.1,0,0.1-0.1V2.8c0-0.1,0-0.1-0.1-0.1H2.5z"/>
		<g style="&st7;">
			<path style="&st1;" d="M13.5,12.3H4.6v-1.5h8.9v1.5z"/>
			<path style="&st1;" d="M13.5,9.2H4.6V7.6h8.9v1.5z"/>
			<path style="&st1;" d="M13.5,6.1H4.6V4.6h8.9v1.5z"/>
		</g>
		<path style="&st3;" d="M8.9,8.5c-0.8,0-1.4,0.6-1.4,1.4v11.7c0,0.8,0.6,1.4,1.4,1.4h12.9c0.8,0,1.4-0.6,1.4-1.4V9.9c0-0.8-0.6-1.4-1.4-1.4H8.9z"/>
		<path style="&st2;" d="M22.4,21.6c0,0.3-0.2,0.5-0.5,0.5H8.9c-0.3,0-0.5-0.2-0.5-0.5V9.9c0-0.3,0.2-0.5,0.5-0.5h12.9c0.3,0,0.5,0.2,0.5,0.5v11.7z"/>
		<linearGradient id="aigrd2" gradientUnits="userSpaceOnUse" x1="20.1611" y1="20.0322" x2="10.9072" y2="11.6927">
			<stop  offset="0" style="stop-color:#FFFFFF"/>
			<stop  offset="1" style="stop-color:#EDEDED"/>
		</linearGradient>
		<path style="&st4;" d="M8.9,9.8c-0.1,0-0.1,0-0.1,0.1v11.7c0,0.1,0,0.1,0.1,0.1h12.9c0.1,0,0.1,0,0.1-0.1V9.9c0-0.1,0-0.1-0.1-0.1H8.9z"/>
		<g style="&st7;">
			<path style="&st1;" d="M19.9,19.4H11v-1.5h8.9v1.5z"/>
			<path style="&st1;" d="M19.9,16.3H11v-1.5h8.9v1.5z"/>
			<path style="&st1;" d="M19.9,13.2H11v-1.5h8.9v1.5z"/>
		</g>
	</g>
	<g id="Layer_x0020_2" style="&st6;">
		<path style="&st5;" d="M24,24H0V0h24v24z"/>
	</g>
</svg>
