<?xml version="1.0" encoding="iso-8859-1"?>
<!-- Generator: Adobe Illustrator 9.0, SVG Export Plug-In  -->
<!DOCTYPE svg PUBLIC "-//W3C//DTD SVG 20000303 Stylable//EN"   "http://www.w3.org/TR/2000/03/WD-SVG-20000303/DTD/svg-20000303-stylable.dtd" [
	<!ENTITY st0 "fill-rule:evenodd;clip-rule:evenodd;fill:url(#aigrd1);stroke:none;">
	<!ENTITY st1 "fill-rule:evenodd;clip-rule:evenodd;fill:url(#aigrd3);stroke:none;">
	<!ENTITY st2 "stroke-width:0.8634;">
	<!ENTITY st3 "fill-rule:evenodd;clip-rule:evenodd;fill:#FFFFFF;stroke:none;">
	<!ENTITY st4 "fill:none;stroke:none;">
	<!ENTITY st5 "fill-rule:evenodd;clip-rule:evenodd;fill:url(#aigrd2);stroke:none;">
	<!ENTITY st6 "fill-rule:evenodd;clip-rule:evenodd;stroke:none;">
	<!ENTITY st7 "fill-rule:nonzero;clip-rule:nonzero;stroke:#000000;stroke-miterlimit:4;">
]>
<svg  width="24pt" height="24pt" viewBox="0 0 24 24" xml:space="preserve">
	<g id="Layer_x0020_5" style="&st7;">
		<path style="&st2;" d="M1,11.9c0,6,4.9,10.9,10.9,10.9s10.9-4.9,10.9-10.9S17.9,1,11.9,1S1,5.9,1,11.9z"/>
		<radialGradient id="aigrd1" cx="8.7124" cy="7.8916" r="13.575" fx="8.7124" fy="7.8916" gradientUnits="userSpaceOnUse">
			<stop  offset="0" style="stop-color:#FED182"/>
			<stop  offset="0.2809" style="stop-color:#FFB310"/>
			<stop  offset="1" style="stop-color:#996E04"/>
		</radialGradient>
		<path style="&st0;" d="M21.1,11.8c0,5.1-4.2,9.3-9.3,9.3S2.5,17,2.5,11.8c0-5.1,4.2-9.3,9.3-9.3s9.3,4.2,9.3,9.3z"/>
		<path style="&st6;" d="M10.6,5.8c0,0,0,3,0,5.4c-1-1-2-2-2-2C8.4,9,8.1,8.9,7.8,8.9C7.5,8.9,7.2,9,7,9.2c-0.4,0.4-0.4,1.1,0,1.6l3.9,3.9c0,0,0,0,0.1,0.1c0,0,0,0,0,0c0,0,0,0,0.1,0c0,0,0,0,0,0c0,0,0.1,0,0.1,0c0,0,0,0,0,0c0,0,0,0,0.1,0c0,0,0,0,0,0
			c0,0,0,0,0.1,0c0,0,0,0,0,0c0,0,0.1,0,0.1,0c0,0,0,0,0,0c0,0,0.1,0,0.1,0c0,0,0,0,0,0c0,0,0,0,0.1,0c0,0,0,0,0,0c0,0,0.1,0,0.1,0c0,0,0,0,0,0c0,0,0.1,0,0.1,0c0,0,0,0,0,0c0,0,0,0,0.1,0c0,0,0,0,0,0c0,0,0,0,0.1,0c0,0,0,0,0,0c0,0,0,0,0,0c0,0,0.1,0,0.1,0
			c0,0,0,0,0,0c0,0,0,0,0.1,0c0,0,0,0,0,0c0,0,0,0,0.1,0c0,0,0,0,0,0c0,0,0.1,0,0.1-0.1c0,0,0,0,0,0l3.9-3.9c0.4-0.4,0.4-1.1,0-1.6s-1.1-0.4-1.6,0l-2,2V5.8c0-0.6-0.5-1.1-1.1-1.1s-1.1,0.5-1.1,1.1z"/>
		<path style="&st3;" d="M10.8,5.8c0,0,0,3,0,5.4c-1-1-2-2-2-2C8.5,9,8.2,8.9,8,8.9C7.7,8.9,7.4,9,7.2,9.2c-0.4,0.4-0.4,1.1,0,1.6l3.9,3.9c0,0,0,0,0.1,0.1c0,0,0,0,0,0c0,0,0,0,0.1,0c0,0,0,0,0,0c0,0,0.1,0,0.1,0c0,0,0,0,0,0c0,0,0,0,0.1,0c0,0,0,0,0,0
			c0,0,0,0,0.1,0c0,0,0,0,0,0c0,0,0.1,0,0.1,0c0,0,0,0,0,0c0,0,0.1,0,0.1,0c0,0,0,0,0,0c0,0,0,0,0.1,0c0,0,0,0,0,0c0,0,0.1,0,0.1,0c0,0,0,0,0,0c0,0,0.1,0,0.1,0c0,0,0,0,0,0c0,0,0,0,0.1,0c0,0,0,0,0,0c0,0,0,0,0.1,0c0,0,0,0,0,0c0,0,0,0,0,0c0,0,0.1,0,0.1,0
			c0,0,0,0,0,0c0,0,0,0,0.1,0c0,0,0,0,0,0c0,0,0,0,0.1,0c0,0,0,0,0,0c0,0,0.1,0,0.1-0.1c0,0,0,0,0,0l3.9-3.9c0.4-0.4,0.4-1.1,0-1.6s-1.1-0.4-1.6,0l-2,2V5.8c0-0.6-0.5-1.1-1.1-1.1c-0.6,0-1.1,0.5-1.1,1.1z"/>
		<radialGradient id="aigrd2" cx="11.3379" cy="-43.8872" r="8.664" fx="11.3379" fy="-43.8872" gradientTransform="matrix(0 -1 1 0 54.1431 17.7617)" gradientUnits="userSpaceOnUse">
			<stop  offset="0" style="stop-color:#FFFFFF"/>
			<stop  offset="1" style="stop-color:#F0E1BD"/>
		</radialGradient>
		<path style="&st5;" d="M10.7,5.8c0,0,0,3,0,5.4c-1-1-2-2-2-2C8.4,9,8.2,8.9,7.9,8.9C7.6,8.9,7.3,9,7.1,9.2c-0.4,0.4-0.4,1.1,0,1.6l3.9,3.9c0,0,0,0,0.1,0.1c0,0,0,0,0,0c0,0,0,0,0.1,0c0,0,0,0,0,0c0,0,0.1,0,0.1,0c0,0,0,0,0,0c0,0,0,0,0.1,0c0,0,0,0,0,0
			c0,0,0,0,0.1,0c0,0,0,0,0,0c0,0,0.1,0,0.1,0c0,0,0,0,0,0c0,0,0.1,0,0.1,0c0,0,0,0,0,0c0,0,0,0,0.1,0c0,0,0,0,0,0c0,0,0.1,0,0.1,0c0,0,0,0,0,0c0,0,0.1,0,0.1,0c0,0,0,0,0,0c0,0,0,0,0.1,0c0,0,0,0,0,0c0,0,0,0,0.1,0c0,0,0,0,0,0c0,0,0,0,0,0c0,0,0.1,0,0.1,0
			c0,0,0,0,0,0c0,0,0,0,0.1,0c0,0,0,0,0,0c0,0,0,0,0.1,0c0,0,0,0,0,0c0,0,0.1,0,0.1-0.1c0,0,0,0,0,0l3.9-3.9c0.4-0.4,0.4-1.1,0-1.6s-1.1-0.4-1.6,0l-2,2V5.8c0-0.6-0.5-1.1-1.1-1.1s-1.1,0.5-1.1,1.1z"/>
		<path style="&st6;" d="M15.2,18H8c-0.6,0-1.2-0.5-1.2-1.2c0-0.6,0.5-1.2,1.2-1.2h7.1c0.6,0,1.2,0.5,1.2,1.2c0,0.6-0.5,1.2-1.2,1.2z"/>
		<path style="&st3;" d="M15.3,18.2H8.2c-0.6,0-1.2-0.5-1.2-1.2c0-0.6,0.5-1.2,1.2-1.2h7.1c0.6,0,1.2,0.5,1.2,1.2c0,0.6-0.5,1.2-1.2,1.2z"/>
		<radialGradient id="aigrd3" cx="-99.7085" cy="-100.103" r="10.4871" fx="-99.7085" fy="-100.103" gradientTransform="matrix(0 -1 -1 0 -91.6641 -91.6641)" gradientUnits="userSpaceOnUse">
			<stop  offset="0" style="stop-color:#FFFFFF"/>
			<stop  offset="1" style="stop-color:#F0E1BD"/>
		</radialGradient>
		<path style="&st1;" d="M15.3,18.1H8.1c-0.6,0-1.2-0.5-1.2-1.2c0-0.6,0.5-1.2,1.2-1.2h7.1c0.6,0,1.2,0.5,1.2,1.2c0,0.6-0.5,1.2-1.2,1.2z"/>
	</g>
	<g id="Layer_x0020_2" style="&st7;">
		<path style="&st4;" d="M24,24H0V0h24v24z"/>
	</g>
</svg>
