<?xml version="1.0" encoding="iso-8859-1"?>
<!-- Generator: Adobe Illustrator 9.0, SVG Export Plug-In  -->
<!DOCTYPE svg PUBLIC "-//W3C//DTD SVG 20000303 Stylable//EN"   "http://www.w3.org/TR/2000/03/WD-SVG-20000303/DTD/svg-20000303-stylable.dtd" [
	<!ENTITY st0 "fill:url(#aigrd1);stroke:none;">
	<!ENTITY st1 "opacity:0.6833;fill:#F7FCB7;stroke:none;">
	<!ENTITY st2 "fill:#000000;stroke:none;">
	<!ENTITY st3 "opacity:0.525;fill:#F4FA95;stroke:none;">
	<!ENTITY st4 "opacity:0.3667;fill:#F0F972;stroke:none;">
	<!ENTITY st5 "opacity:0.8417;fill:#FBFDDB;stroke:none;">
	<!ENTITY st6 "fill:url(#aigrd3);stroke:none;">
	<!ENTITY st7 "fill-rule:nonzero;clip-rule:nonzero;fill:#BEBEBE;stroke:#000000;stroke-miterlimit:4;">
	<!ENTITY st8 "fill:#FFFFFF;stroke:none;">
	<!ENTITY st9 "stroke-width:0.8474;">
	<!ENTITY st10 "opacity:5.000000e-002;fill:#E8F52F;stroke:none;">
	<!ENTITY st11 "fill:url(#aigrd5);stroke:none;">
	<!ENTITY st12 "fill:url(#aigrd2);stroke:none;">
	<!ENTITY st13 "fill:none;stroke:none;">
	<!ENTITY st14 "opacity:0.2083;fill:#ECF751;stroke:none;">
	<!ENTITY st15 "fill:#000000;stroke-width:0.8474;">
	<!ENTITY st16 "fill-rule:nonzero;clip-rule:nonzero;stroke:#000000;stroke-miterlimit:4;">
	<!ENTITY st17 "stroke:none;">
	<!ENTITY st18 "fill:#FCFCFC;stroke:none;">
	<!ENTITY st19 "fill:url(#aigrd4);stroke:none;">
]>
<svg  width="24pt" height="24pt" viewBox="0 0 24 24" xml:space="preserve">
	<g id="Layer_x0020_2" style="&st16;">
		<path style="&st9;" d="M6.4,2C5.7,2,5.1,2.6,5.1,3.3v17.8c0,0.7,0.5,1.2,1.2,1.2H22c0.6,0,1.2-0.5,1.2-1.2v-15c0-0.5-0.2-1-0.5-1.3l-2.1-2.1C20.2,2.3,19.6,2,19,2H6.4z"/>
		<linearGradient id="aigrd1" gradientUnits="userSpaceOnUse" x1="20.3096" y1="19.6396" x2="6.7878" y2="5.7988">
			<stop  offset="0" style="stop-color:#E4E4E4"/>
			<stop  offset="1" style="stop-color:#FEFEFE"/>
		</linearGradient>
		<path style="&st0;" d="M19,2.8H6.4C6.1,2.8,5.9,3,5.9,3.3v17.8c0,0.2,0.1,0.4,0.4,0.4H22c0.2,0,0.4-0.2,0.4-0.4v-15c0-0.4-0.1-0.6-0.3-0.8L20,3.2c-0.3-0.2-0.7-0.4-1-0.4z"/>
		<linearGradient id="aigrd2" gradientUnits="userSpaceOnUse" x1="6.5757" y1="5.5288" x2="20.2594" y2="19.5669">
			<stop  offset="0" style="stop-color:#E4E4E4"/>
			<stop  offset="1" style="stop-color:#FEFEFE"/>
		</linearGradient>
		<path style="&st12;" d="M6.7,3.6c0,1.4,0,15.7,0,17.1c1.4,0,13.5,0,14.9,0c0-1.4,0-14.2,0-14.8c-0.3-0.3-2-2-2.3-2.3c-0.6,0-11.2,0-12.6,0z"/>
	</g>
	<g id="Layer_x0020_4" style="&st7;">
		<path style="&st15;" d="M3.1,4C2,4,1.1,4.9,1.1,6.1v11.7c0,1.1,0.9,2.1,2.1,2.1h12.4c1.1,0,2.1-0.9,2.1-2.1V6.1c0-1.1-0.9-2.1-2.1-2.1H3.1z"/>
		<linearGradient id="aigrd3" gradientUnits="userSpaceOnUse" x1="5.5542" y1="5.3145" x2="13.3341" y2="18.8294">
			<stop  offset="0" style="stop-color:#D2D2D2"/>
			<stop  offset="1" style="stop-color:#EDEDED"/>
		</linearGradient>
		<path style="&st6;" d="M16.8,17.8c0,0.7-0.6,1.2-1.2,1.2H3.1c-0.7,0-1.2-0.6-1.2-1.2V6.1c0-0.7,0.6-1.2,1.2-1.2h12.4c0.7,0,1.2,0.6,1.2,1.2v11.7z"/>
		<path style="&st18;" d="M2.4,6.3L2.2,18.5C2,18.3,1.9,18,1.9,18l0-12.1c0,0,0-0.3,0.3-0.7c0.3-0.4,0.8-0.4,0.8-0.4l10.8,0L3.4,5.3c-0.4,0-0.6,0.2-0.7,0.3C2.6,5.7,2.4,6,2.4,6.3z"/>
		<path style="&st17;" d="M16.3,17.5l0.3-12.1c0.2,0.2,0.2,0.6,0.2,0.6l0,12c0,0,0,0.3-0.3,0.7c-0.3,0.4-0.8,0.4-0.8,0.4L5,19l10.4-0.6c0.4,0,0.6-0.2,0.7-0.3c0.1-0.1,0.2-0.4,0.2-0.6z"/>
		<g>
			<path style="&st17;" d="M15.5,7.7l0.3-0.3l-13,0l0,9.1l0.3-0.3V7.7h12.4z"/>
			<path style="&st8;" d="M2.9,16.4l13,0v-9l-0.3,0.3v8.4H3.1l-0.3,0.3z"/>
			<linearGradient id="aigrd4" gradientUnits="userSpaceOnUse" x1="9.376" y1="16.4131" x2="9.3927" y2="13.1531">
				<stop  offset="0" style="stop-color:#B1B270"/>
				<stop  offset="0.2132" style="stop-color:#A9A96B"/>
				<stop  offset="0.4785" style="stop-color:#91905F"/>
				<stop  offset="0.7702" style="stop-color:#6D6C4D"/>
				<stop  offset="1" style="stop-color:#4F4F3D"/>
			</linearGradient>
			<path style="&st19;" d="M15.5,16.1H3.3V7.7h12.3v8.4z"/>
			<linearGradient id="aigrd5" gradientUnits="userSpaceOnUse" x1="9.3999" y1="14.0137" x2="9.3999" y2="6.659">
				<stop  offset="0" style="stop-color:#D0D6E5"/>
				<stop  offset="1" style="stop-color:#093A80"/>
			</linearGradient>
			<path style="&st11;" d="M3.4,7.8h12.1v5.1H3.4V7.8z"/>
			<g>
				<g>
					<path style="&st10;" d="M7.9,10.1c0,0.9-0.8,1.7-1.7,1.7s-1.7-0.8-1.7-1.7c0-0.9,0.8-1.7,1.7-1.7s1.7,0.8,1.7,1.7z"/>
					<path style="&st14;" d="M7.7,10.1c0,0.9-0.7,1.5-1.5,1.5S4.6,11,4.6,10.1c0-0.9,0.7-1.5,1.5-1.5s1.5,0.7,1.5,1.5z"/>
					<path style="&st4;" d="M7.6,10.1c0,0.8-0.6,1.4-1.4,1.4s-1.4-0.6-1.4-1.4c0-0.8,0.6-1.4,1.4-1.4s1.4,0.6,1.4,1.4z"/>
					<path style="&st3;" d="M7.4,10.1c0,0.7-0.5,1.2-1.2,1.2S5,10.8,5,10.1c0-0.7,0.5-1.2,1.2-1.2s1.2,0.5,1.2,1.2z"/>
					<path style="&st1;" d="M7.2,10.1c0,0.6-0.5,1.1-1.1,1.1s-1.1-0.5-1.1-1.1c0-0.6,0.5-1.1,1.1-1.1s1.1,0.5,1.1,1.1z"/>
					<path style="&st5;" d="M7.1,10.1c0,0.5-0.4,0.9-0.9,0.9s-0.9-0.4-0.9-0.9c0-0.5,0.4-0.9,0.9-0.9s0.9,0.4,0.9,0.9z"/>
					<path style="&st8;" d="M6.9,10.1c0,0.4-0.3,0.7-0.7,0.7s-0.7-0.3-0.7-0.7c0-0.4,0.3-0.7,0.7-0.7s0.7,0.3,0.7,0.7z"/>
				</g>
			</g>
			<path style="&st2;" d="M3.1,7.7v8.4h12.4V7.7H3.1z M15.3,15.8H3.4V7.9h11.9v7.9z"/>
		</g>
	</g>
	<g id="Layer_x0020_3" style="&st16;">
		<path style="&st13;" d="M24,24H0V0h24v24z"/>
	</g>
</svg>
