<?xml version="1.0" encoding="iso-8859-1"?>
<!-- Generator: Adobe Illustrator 9.0, SVG Export Plug-In  -->
<!DOCTYPE svg PUBLIC "-//W3C//DTD SVG 20000303 Stylable//EN"   "http://www.w3.org/TR/2000/03/WD-SVG-20000303/DTD/svg-20000303-stylable.dtd" [
	<!ENTITY st0 "fill:url(#aigrd1);stroke:none;">
	<!ENTITY st1 "fill:#000000;stroke:none;">
	<!ENTITY st2 "opacity:0.54;stroke-width:0.9015;">
	<!ENTITY st3 "opacity:0.47;fill:url(#aigrd6);stroke:none;">
	<!ENTITY st4 "fill:url(#aigrd3);stroke:none;">
	<!ENTITY st5 "fill:#000000;stroke:#000000;stroke-width:0.9015;stroke-linecap:butt;">
	<!ENTITY st6 "fill:#C8AF53;stroke:none;">
	<!ENTITY st7 "fill:#96833E;stroke:none;">
	<!ENTITY st8 "fill:#919191;stroke:none;">
	<!ENTITY st9 "opacity:0.5;">
	<!ENTITY st10 "fill:url(#aigrd5);stroke:none;">
	<!ENTITY st11 "fill-rule:nonzero;clip-rule:nonzero;fill:none;stroke:#FFFFFF;stroke-width:0.4508;stroke-linecap:round;stroke-miterlimit:4;">
	<!ENTITY st12 "fill:url(#aigrd2);stroke:none;">
	<!ENTITY st13 "stroke:#000000;stroke-width:1.8031;stroke-linejoin:round;">
	<!ENTITY st14 "fill:#F7E46E;stroke:none;">
	<!ENTITY st15 "fill:none;stroke:none;">
	<!ENTITY st16 "fill-rule:nonzero;clip-rule:nonzero;stroke:#000000;stroke-miterlimit:4;">
	<!ENTITY st17 "fill:url(#aigrd4);stroke:none;">
]>
<svg  width="24pt" height="24pt" viewBox="0 0 24 24" xml:space="preserve">
	<g id="Layer_x0020_2" style="&st11;">
		<path style="&st5;" d="M4,1.3c-0.8,0-1.4,0.6-1.4,1.4v18.9c0,0.7,0.5,1.2,1.3,1.2h16.2c0.7,0,1.2-0.6,1.2-1.2v-16c0-0.6-0.2-1-0.5-1.4l-2.2-2.2c-0.4-0.4-1-0.7-1.7-0.7H4z"/>
		<linearGradient id="aigrd1" gradientUnits="userSpaceOnUse" x1="18.4277" y1="19.9326" x2="4.217" y2="5.3866">
			<stop  offset="0" style="stop-color:#E4E4E4"/>
			<stop  offset="1" style="stop-color:#FEFEFE"/>
		</linearGradient>
		<path style="&st0;" d="M16.9,2.1H4c-0.4,0-0.5,0.3-0.5,0.5v18.9c0,0.2,0.1,0.4,0.5,0.4h16.2c0.2,0,0.4-0.2,0.4-0.4v-16c0-0.4-0.1-0.6-0.3-0.8L18,2.5c-0.3-0.3-0.7-0.4-1.1-0.4z"/>
		<linearGradient id="aigrd2" gradientUnits="userSpaceOnUse" x1="4.0015" y1="5.1084" x2="18.3699" y2="19.8489">
			<stop  offset="0" style="stop-color:#E4E4E4"/>
			<stop  offset="1" style="stop-color:#FEFEFE"/>
		</linearGradient>
		<path style="&st12;" d="M4.2,2.9c0,1.5,0,16.8,0,18.2c1.5,0,13.9,0,15.4,0c0-1.5,0-15.1,0-15.7c-0.4-0.4-2.1-2.1-2.5-2.5c-0.6,0-11.5,0-12.9,0z"/>
		<path style="&st13;" d="M9.6,20.9l2.9-5.5l7.9-5.9l1.2,0.1L23,11l-0.1,1.4l-7.5,6.2l-5.8,2.3z"/>
		<linearGradient id="aigrd3" gradientUnits="userSpaceOnUse" x1="162.7832" y1="-6.8374" x2="166.9589" y2="-10.0693" gradientTransform="matrix(0 -1 1 0 24.29 180.2402)">
			<stop  offset="0" style="stop-color:#EFF0CE"/>
			<stop  offset="0.5" style="stop-color:#FFFFFF"/>
			<stop  offset="1" style="stop-color:#EFF0CE"/>
		</linearGradient>
		<path style="&st4;" d="M9.6,20.9l2.9-5.5l7.9-5.9l1.2,0.1L23,11l-0.1,1.4l-7.5,6.2l-5.8,2.3z"/>
		<path style="&st7;" d="M15.9,16.7L23,11l-0.1,1.4l-7.5,6.2l0.5-1.9z"/>
		<path style="&st6;" d="M14.4,15.2l7.3-5.6L23,11l-7.2,5.7l-1.5-1.5z"/>
		<path style="&st14;" d="M12.4,15.4l7.9-5.9l1.2,0.1l-7.3,5.6l-1.9,0.2z"/>
		<linearGradient id="aigrd4" gradientUnits="userSpaceOnUse" x1="159.8643" y1="-13.3721" x2="160.7222" y2="-13.9155" gradientTransform="matrix(0 -1 1 0 24.29 180.2402)">
			<stop  offset="0" style="stop-color:#000000"/>
			<stop  offset="0.5" style="stop-color:#616061"/>
			<stop  offset="1" style="stop-color:#000000"/>
		</linearGradient>
		<path style="&st17;" d="M10.9,18.4c0.9,0,1.4,0.5,1.4,1.4l-2.7,1.1l1.3-2.5z"/>
		<path style="&st1;" d="M9.5,0.6c-3.2,0-5.8,2.6-5.8,5.8c0,1,0.2,1.9,0.7,2.7C4.2,9.3,4.1,9.4,4,9.5l-3.2,3.2c-0.3,0.3-0.5,0.8-0.5,1.3c0,0.5,0.2,0.9,0.5,1.3c0.7,0.7,1.8,0.7,2.5,0L6.5,12c0.1-0.1,0.2-0.3,0.3-0.4c0.8,0.4,1.8,0.7,2.7,0.7c3.2,0,5.8-2.6,5.8-5.8
			c0-3.2-2.6-5.8-5.8-5.8z M9.5,9.5c-1.7,0-3-1.4-3-3s1.4-3,3-3c1.7,0,3,1.4,3,3s-1.4,3-3,3z"/>
		<path style="&st8;" d="M1.3,14.7c0.4,0.4,1.1,0.4,1.5,0L6,11.5c0.3-0.3,0.4-0.7,0.3-1.1c0.9,0.7,2,1.2,3.2,1.2c2.8,0,5.1-2.3,5.1-5.1c0-2.8-2.3-5.1-5.1-5.1c-2.8,0-5.1,2.3-5.1,5.1c0,1.2,0.4,2.4,1.2,3.3c-0.4-0.1-0.8,0-1.1,0.3l-3.2,3.2c-0.4,0.4-0.4,1.1,0,1.5z
			 M5.8,6.5c0-2.1,1.7-3.8,3.8-3.8c2.1,0,3.7,1.7,3.7,3.8s-1.7,3.7-3.7,3.7c-2.1,0-3.8-1.7-3.8-3.7z"/>
		<linearGradient id="aigrd5" gradientUnits="userSpaceOnUse" x1="-5.3389" y1="11.582" x2="-6.8599" y2="13.103" gradientTransform="matrix(-1 0 0 1 -2.4336 0)">
			<stop  offset="0" style="stop-color:#304A2F"/>
			<stop  offset="0.3315" style="stop-color:#6FAB6C"/>
			<stop  offset="1" style="stop-color:#304A2F"/>
		</linearGradient>
		<path style="&st10;" d="M4.5,10L6,11.5l-3.2,3.2l-1.5-1.5L4.5,10z"/>
		<path style="&st2;" d="M5,10.5l-3.1,3.1"/>
		<path style="&st9;" d="M9.4,1.6c-2.6,0-4.7,2.1-4.7,4.7"/>
		<path style="&st9;" d="M9.5,10.6c2.3,0,4.2-1.9,4.2-4.2"/>
		<radialGradient id="aigrd6" cx="-10.7666" cy="5.5439" r="4.4329" fx="-10.7666" fy="5.5439" gradientTransform="matrix(-1 0 0 1 -2.4336 0)" gradientUnits="userSpaceOnUse">
			<stop  offset="0" style="stop-color:#FFFFFF"/>
			<stop  offset="1.256170e-002" style="stop-color:#F5F3F8"/>
			<stop  offset="7.182755e-002" style="stop-color:#C7C4D9"/>
			<stop  offset="0.1357" style="stop-color:#A19FC1"/>
			<stop  offset="0.2033" style="stop-color:#8182AF"/>
			<stop  offset="0.2758" style="stop-color:#696CA2"/>
			<stop  offset="0.355" style="stop-color:#555C99"/>
			<stop  offset="0.4444" style="stop-color:#495193"/>
			<stop  offset="0.5524" style="stop-color:#424C8F"/>
			<stop  offset="0.7303" style="stop-color:#3F4A8E"/>
			<stop  offset="0.8388" style="stop-color:#3A4A92"/>
			<stop  offset="0.997" style="stop-color:#2C499E"/>
			<stop  offset="1" style="stop-color:#2C499E"/>
		</radialGradient>
		<path style="&st3;" d="M6.4,6.5c0,1.7,1.4,3.1,3.1,3.1c1.7,0,3.1-1.4,3.1-3.1c0-1.7-1.4-3.1-3.1-3.1c-1.7,0-3.1,1.4-3.1,3.1z"/>
	</g>
	<g id="Layer_x0020_3" style="&st16;">
		<path style="&st15;" d="M24,24H0V0h24v24z"/>
	</g>
</svg>
