<?xml version="1.0" encoding="iso-8859-1"?>
<!-- Generator: Adobe Illustrator 9.0, SVG Export Plug-In  -->
<!DOCTYPE svg PUBLIC "-//W3C//DTD SVG 20000303 Stylable//EN"   "http://www.w3.org/TR/2000/03/WD-SVG-20000303/DTD/svg-20000303-stylable.dtd" [
	<!ENTITY st0 "fill:url(#aigrd1);stroke:none;">
	<!ENTITY st1 "opacity:0.59;">
	<!ENTITY st2 "fill:url(#aigrd3);stroke:none;">
	<!ENTITY st3 "fill-rule:nonzero;clip-rule:nonzero;fill:#FFFFFF;stroke:#000000;stroke-miterlimit:4;">
	<!ENTITY st4 "fill:#808078;stroke:none;">
	<!ENTITY st5 "fill:#C1C2B4;stroke:none;">
	<!ENTITY st6 "fill:#F1F2E1;stroke:none;">
	<!ENTITY st7 "stroke-width:0.8205;">
	<!ENTITY st8 "fill:url(#aigrd2);stroke:none;">
	<!ENTITY st9 "fill:none;stroke:none;">
	<!ENTITY st10 "fill:none;stroke-width:2.5552;stroke-linecap:round;stroke-linejoin:round;">
	<!ENTITY st11 "fill-rule:nonzero;clip-rule:nonzero;stroke:#000000;stroke-miterlimit:4;">
	<!ENTITY st12 "stroke:none;">
	<!ENTITY st13 "fill:url(#aigrd4);stroke:none;">
]>
<svg  width="24pt" height="24pt" viewBox="0 0 24 24" xml:space="preserve">
	<g id="Layer_x0020_2" style="&st11;">
		<path style="&st7;" d="M19.6,3.4c0.6,0.4,0.8,1,0.9,1.3c0,0,0,0.2,0.1,0.2c0.1,0,0.2,0,0.3,0c0.4,0,1.1,0.1,1.5,0.8C22.6,6,22.7,6.3,22.8,8c0,0.2,0,0.4,0,0.6c0,0.9,0,2-0.1,3c-0.2,2.4-0.5,5.5-1.4,6.6c-0.2,0.3-0.5,0.5-1,0.6c-0.5,0.2-1.4,0.3-2.7,0.3
			c0,0-0.5,0-0.5,0c-1.8,0-4.3-0.1-6.4-0.4c-0.4,0-0.7-0.1-1-0.1c-2.4-0.3-3.1-0.6-3.3-0.7c-0.8-0.5-2.7-3.4-3-3.7c-1-1.5-2.2-3.5-2.4-4.5c0-0.1,0-0.2,0-0.2C0.9,9,1,8.8,1.1,8.7c0.3-0.3,0.8-0.5,2.8-0.5c0.8,0,1.7,0,2.8,0C7.1,7,7.6,5.6,8.2,5.2
			c0.8-0.5,2.5-0.6,4.6-0.6c0.5,0,1.2,0,1.4,0c0.2,0,0.4-0.2,0.6-0.5c0.2-0.2,0.6-0.5,0.9-0.7c0.9-0.4,2.8-0.7,3.8,0z"/>
		<path style="&st12;" d="M19.2,3.8c0.5,0.3,0.6,0.8,0.7,1.1C20,5.1,20,5.2,20.2,5.3c0.1,0.1,0.3,0.1,0.5,0.1c0.4,0,0.9,0.1,1.2,0.6c0.1,0.1,0.2,0.3,0.3,2c0,1,0,2.3-0.1,3.6c-0.1,1.9-0.5,5.3-1.3,6.3c-0.3,0.3-1,0.8-4,0.8c-1.8,0-4.2-0.1-6.4-0.4
			c-3.5-0.4-3.9-0.8-4-1c-0.7-0.9-0.9-2.5-0.6-4.9c0.4-2.6,1.6-6.3,2.4-6.9C9,5.1,10.7,5.1,12.7,5c0.6,0,1.3,0,1.4,0c0.3-0.1,0.6-0.3,0.8-0.6c0.2-0.2,0.5-0.5,0.8-0.7c0.8-0.4,2.5-0.6,3.4,0z"/>
		<linearGradient id="aigrd1" gradientUnits="userSpaceOnUse" x1="182.5" y1="24.9258" x2="178.9198" y2="34.5158" gradientTransform="matrix(0.9799 -0.1997 0.1997 0.9799 -168.8719 17.8115)">
			<stop  offset="0" style="stop-color:#989C80"/>
			<stop  offset="1" style="stop-color:#000000"/>
		</linearGradient>
		<path style="&st0;" d="M8.4,5.9c-0.9,0.6-3.5,9-1.7,11.2c0.6,0.8,12.6,2,13.7,0.6c1.3-1.6,1.5-10.8,1.1-11.5c-0.4-0.6-1.1-0.3-1.7-0.6c-0.5-0.3-0.2-1.1-0.9-1.5c-0.7-0.5-2.3-0.3-3,0s-1.1,1.1-1.8,1.3S9.4,5.3,8.4,5.9z"/>
		<path style="&st5;" d="M6.6,14.3c-0.3-2.2,0.8-7.7,1.8-8.5c1-0.8,5.2-0.3,5.8-0.4c0.6-0.1,1-0.8,1.8-1.2s2.3-0.4,2.9,0c0.5,0.4,0.5,1.3,0.8,1.4C20,5.7,21.1,5.8,21.3,6c0,0-1.3-0.1-1.6-0.4c-0.4-0.3-0.4-1-0.8-1.2c-0.3-0.2-2.5-0.3-3,0.1c-0.5,0.3-0.8,1-1.6,1.3
			c-0.7,0.3-4.6-0.3-5.6,0.5c-1,0.9-2.2,7.9-2.2,7.9z"/>
		<path style="&st12;" d="M8.2,8.6c3.1,0.2,6.6,0.4,7.4,0.7c1,0.4,2.4,2.6,2.9,3.6c0.8,1.4,1.8,3.5,1.8,4.6c0,0.6-0.2,0.8-0.4,0.9c-1.1,0.5-5.3,0.2-7.1,0.1c-0.2,0-5.7-0.5-6.6-1c-0.5-0.4-1.9-2.1-2.8-3.6c-0.8-1.2-2.2-3.3-2.3-4.4c0-0.3,0-0.5,0.1-0.7
			c0.2-0.2,0.5-0.4,2.5-0.4c1.2,0,2.7,0,4.4,0.1z"/>
		<linearGradient id="aigrd2" gradientUnits="userSpaceOnUse" x1="176.8438" y1="30.7461" x2="178.8119" y2="37.7365" gradientTransform="matrix(0.9799 -0.1997 0.1997 0.9799 -168.8719 17.8115)">
			<stop  offset="0" style="stop-color:#DEDFCE"/>
			<stop  offset="1" style="stop-color:#C2C4B5"/>
		</linearGradient>
		<path style="&st8;" d="M19.7,18c1-0.5-2.8-7.8-4.3-8.3C14,9.2,2,8.5,1.5,9.2c-0.6,0.7,4,7.4,5,8c0.9,0.6,11.7,1.6,13.2,0.9z"/>
		<linearGradient id="aigrd3" gradientUnits="userSpaceOnUse" x1="10.6694" y1="34.583" x2="12.1179" y2="39.7277" gradientTransform="matrix(0.9773 -0.2117 0.2117 0.9773 -9.9229 -19.4468)">
			<stop  offset="0" style="stop-color:#DEDFCE"/>
			<stop  offset="1" style="stop-color:#FFFFFF"/>
		</linearGradient>
		<path style="&st2;" d="M10.9,17.9c-4.3-3.8,3.4-2.9,0.2-8.7c0,0-9.4-0.7-9.5,0.2c-0.2,1,4.1,7.3,4.9,7.8c0.8,0.5,4.5,0.8,4.5,0.8z"/>
		<path style="&st6;" d="M6.5,17.1c0,0-4.5-6.2-4.5-7.2c0.1-1.1,12.5-0.4,12.5-0.4C14,9.4,2.2,8.5,1.6,9.2c-0.7,0.8,4.2,7.5,4.9,7.9z"/>
		<path style="&st4;" d="M21.1,5.9c0.8,0.4,0.4,8-0.6,11.5C21.8,14,22,8.6,21.6,6.5c0-0.2-0.1-0.5-0.5-0.6z"/>
	</g>
	<g id="Layer_x0020_1" style="&st3;">
		<path style="&st10;" d="M21.9,16.1v-2.3h-1.5c-0.1-0.6-0.4-1.2-0.7-1.7l1-1.1l-1.6-1.6l-1.1,1.1c-0.5-0.3-1.1-0.5-1.7-0.7V8.3h-2.3v1.5c-0.6,0.1-1.2,0.4-1.7,0.7l-1.1-1.1l-1.6,1.6l1,1.1c-0.3,0.5-0.6,1.1-0.7,1.7H8.7v2.3h1.5c0.1,0.6,0.4,1.2,0.7,1.7l-1,1
			l1.6,1.6l1-1c0.5,0.3,1.1,0.6,1.7,0.7v1.5h2.3v-1.5c0.6-0.1,1.2-0.4,1.7-0.7l1,1l1.6-1.6l-1-1c0.3-0.5,0.6-1.1,0.7-1.7h1.5z M15.3,16.1c-0.6,0-1.2-0.5-1.2-1.2s0.5-1.2,1.2-1.2c0.6,0,1.2,0.5,1.2,1.2s-0.5,1.2-1.2,1.2z"/>
		<linearGradient id="aigrd4" gradientUnits="userSpaceOnUse" x1="12.6411" y1="11.7534" x2="18.7194" y2="19.0583">
			<stop  offset="0" style="stop-color:#BBBBBB"/>
			<stop  offset="1" style="stop-color:#D2D2D2"/>
		</linearGradient>
		<path style="&st13;" d="M21.9,16.1v-2.3h-1.5c-0.1-0.6-0.4-1.2-0.7-1.7l1-1.1l-1.6-1.6l-1.1,1.1c-0.5-0.3-1.1-0.5-1.7-0.7V8.3h-2.3v1.5c-0.6,0.1-1.2,0.4-1.7,0.7l-1.1-1.1l-1.6,1.6l1,1.1c-0.3,0.5-0.6,1.1-0.7,1.7H8.7v2.3h1.5c0.1,0.6,0.4,1.2,0.7,1.7l-1,1
			l1.6,1.6l1-1c0.5,0.3,1.1,0.6,1.7,0.7v1.5h2.3v-1.5c0.6-0.1,1.2-0.4,1.7-0.7l1,1l1.6-1.6l-1-1c0.3-0.5,0.6-1.1,0.7-1.7h1.5z M15.3,16.1c-0.6,0-1.2-0.5-1.2-1.2s0.5-1.2,1.2-1.2c0.6,0,1.2,0.5,1.2,1.2s-0.5,1.2-1.2,1.2z"/>
		<g style="&st12;">
			<path style="&st1;" d="M11.5,12.1l-1-1.1l1.3-1.3l-0.3-0.3l-1.6,1.6l1.1,1.1c-0.3,0.5-0.6,1.1-0.7,1.7h0.6c0.1-0.6,0.4-1.2,0.7-1.7z"/>
			<path style="&st1;" d="M13.1,19.4l-0.2,0.2c0.4,0.2,0.8,0.4,1.3,0.5v1.5h0.6v-1.5c-0.6-0.1-1.2-0.4-1.7-0.7z"/>
			<path style="&st1;" d="M11.5,17.7c-0.3-0.5-0.6-1.1-0.7-1.7h-0.6c0.1,0.6,0.4,1.2,0.7,1.7l-1,1l1.6,1.6l0.3-0.3l-1.3-1.3l1-1z"/>
			<path style="&st1;" d="M8.7,13.8v2.3h0.6l0-2.3H8.7z"/>
			<path style="&st1;" d="M14.8,9.8V8.3h-0.6v1.5c-0.4,0.1-0.9,0.3-1.3,0.5l0.2,0.2c0.5-0.3,1.1-0.5,1.7-0.7z"/>
		</g>
	</g>
	<g id="Layer_x0020_3" style="&st11;">
		<path style="&st9;" d="M24,24H0V0h24v24z"/>
	</g>
</svg>
