<?xml version="1.0" encoding="iso-8859-1"?>
<!-- Generator: Adobe Illustrator 9.0, SVG Export Plug-In  -->
<!DOCTYPE svg PUBLIC "-//W3C//DTD SVG 20000303 Stylable//EN"   "http://www.w3.org/TR/2000/03/WD-SVG-20000303/DTD/svg-20000303-stylable.dtd" [
	<!ENTITY st0 "fill:url(#aigrd1);stroke:none;">
	<!ENTITY st1 "fill:none;stroke-width:1.8415;stroke-linecap:round;stroke-linejoin:round;">
	<!ENTITY st2 "fill:url(#aigrd3);stroke:none;">
	<!ENTITY st3 "fill:#C8AF53;stroke:none;">
	<!ENTITY st4 "fill:#E0C35D;stroke:none;">
	<!ENTITY st5 "stroke-width:0.9208;">
	<!ENTITY st6 "fill:url(#aigrd2);stroke:none;">
	<!ENTITY st7 "fill:#F7E46E;stroke:none;">
	<!ENTITY st8 "fill:none;stroke:none;">
	<!ENTITY st9 "opacity:0.14;stroke:none;">
	<!ENTITY st10 "fill-rule:nonzero;clip-rule:nonzero;stroke:#000000;stroke-miterlimit:4;">
	<!ENTITY st11 "fill:url(#aigrd4);stroke:none;">
]>
<svg  width="24pt" height="24pt" viewBox="0 0 24 24" xml:space="preserve">
	<g id="Layer_x0020_1" style="&st10;">
		<path style="&st5;" d="M3.5,1.1c-0.8,0-1.4,0.6-1.4,1.4v19.3c0,0.7,0.5,1.3,1.3,1.3h17.5c0.7,0,1.3-0.6,1.3-1.3V5.5c0-0.6-0.2-1.1-0.5-1.4l-2.3-2.3c-0.4-0.4-1.1-0.7-1.7-0.7H3.5z"/>
		<linearGradient id="aigrd1" gradientUnits="userSpaceOnUse" x1="18.9346" y1="20.374" x2="4.0623" y2="5.1508">
			<stop  offset="0" style="stop-color:#E4E4E4"/>
			<stop  offset="1" style="stop-color:#FEFEFE"/>
		</linearGradient>
		<path style="&st0;" d="M17.6,2H3.5C3.1,2,3,2.2,3,2.5v19.3c0,0.3,0.1,0.4,0.5,0.4h17.5c0.2,0,0.4-0.2,0.4-0.4V5.5c0-0.4-0.1-0.7-0.3-0.8l-2.3-2.3C18.5,2.1,18,2,17.6,2z"/>
		<linearGradient id="aigrd2" gradientUnits="userSpaceOnUse" x1="3.8237" y1="4.8481" x2="18.8864" y2="20.3008">
			<stop  offset="0" style="stop-color:#E4E4E4"/>
			<stop  offset="1" style="stop-color:#FEFEFE"/>
		</linearGradient>
		<path style="&st6;" d="M3.8,2.8c0,1.5,0,17.1,0,18.6c1.5,0,15.2,0,16.7,0c0-1.5,0-15.4,0-16.1C20.1,5,18.3,3.2,18,2.8c-0.6,0-12.6,0-14.1,0z"/>
		<g id="Layer_x0020_3">
		</g>
	</g>
	<g id="Layer_x0020_4" style="&st10;">
		<path style="&st9;" d="M5.9,16.4h12.4V19H5.9v-2.6z"/>
		<path style="&st9;" d="M5.9,5.9h12.4v2.6H5.9V5.9z"/>
		<path style="&st9;" d="M5.9,11.2h12.4v2.6H5.9v-2.6z"/>
	</g>
	<g id="Layer_x0020_5" style="&st10;">
		<path style="&st1;" d="M6.4,6.6l5.6,3l6,8.1l-0.1,1.3l-1.4,1.4L15,20.2l-6.3-7.7L6.4,6.6z"/>
		<linearGradient id="aigrd3" gradientUnits="userSpaceOnUse" x1="9.8765" y1="14.6738" x2="14.1429" y2="11.3717">
			<stop  offset="0" style="stop-color:#EFF0CE"/>
			<stop  offset="0.5" style="stop-color:#FFFFFF"/>
			<stop  offset="1" style="stop-color:#EFF0CE"/>
		</linearGradient>
		<path style="&st2;" d="M6.4,6.6l5.6,3l6,8.1l-0.1,1.3l-1.4,1.4L15,20.2l-6.3-7.7L6.4,6.6z"/>
		<path style="&st4;" d="M10.6,13l5.8,7.3L15,20.2l-6.3-7.7l1.9,0.5z"/>
		<path style="&st3;" d="M12.2,11.5l5.7,7.4l-1.4,1.4L10.6,13l1.5-1.5z"/>
		<path style="&st7;" d="M11.9,9.6l6,8.1l-0.1,1.3l-5.7-7.4l-0.2-2z"/>
		<linearGradient id="aigrd4" gradientUnits="userSpaceOnUse" x1="6.8955" y1="7.999" x2="7.772" y2="7.4439">
			<stop  offset="0" style="stop-color:#000000"/>
			<stop  offset="0.5" style="stop-color:#616061"/>
			<stop  offset="1" style="stop-color:#000000"/>
		</linearGradient>
		<path style="&st11;" d="M8.9,7.9c0,0.9-0.5,1.4-1.4,1.4L6.4,6.6l2.5,1.3z"/>
	</g>
	<g id="Layer_x0020_6" style="&st10;">
		<path style="&st8;" d="M24,24H0V0h24v24z"/>
	</g>
</svg>
