<?xml version="1.0" encoding="iso-8859-1"?>
<!-- Generator: Adobe Illustrator 9.0, SVG Export Plug-In  -->
<!DOCTYPE svg PUBLIC "-//W3C//DTD SVG 20000303 Stylable//EN"   "http://www.w3.org/TR/2000/03/WD-SVG-20000303/DTD/svg-20000303-stylable.dtd" [
	<!ENTITY st0 "fill:url(#aigrd1);stroke:none;">
	<!ENTITY st1 "fill:#000000;stroke:none;">
	<!ENTITY st2 "fill:url(#aigrd6);stroke:none;">
	<!ENTITY st3 "fill:url(#aigrd3);stroke:none;">
	<!ENTITY st4 "fill-rule:nonzero;clip-rule:nonzero;fill:#FFFFFF;stroke:#000000;stroke-miterlimit:4;">
	<!ENTITY st5 "fill:url(#aigrd8);stroke:none;">
	<!ENTITY st6 "fill:url(#aigrd5);stroke:none;">
	<!ENTITY st7 "fill:url(#aigrd2);stroke:none;">
	<!ENTITY st8 "fill:#BEBEBE;stroke:none;">
	<!ENTITY st9 "fill:none;stroke:none;">
	<!ENTITY st10 "fill-rule:nonzero;clip-rule:nonzero;stroke:#000000;stroke-miterlimit:4;">
	<!ENTITY st11 "fill:url(#aigrd7);stroke:none;">
	<!ENTITY st12 "stroke:none;">
	<!ENTITY st13 "fill:url(#aigrd4);stroke:none;">
]>
<svg  width="52pt" height="48pt" viewBox="0 0 52 48" xml:space="preserve">
	<g id="Layer_x0020_1" style="&st4;">
		<path style="&st1;" d="M22.4,14.7c-1.8,0-3.3,1.5-3.3,3.3v19.6c0,1.8,1.5,3.3,3.3,3.3h17.5c1.8,0,3.3-1.5,3.3-3.3V18c0-1.8-1.5-3.3-3.3-3.3H22.4z"/>
		<linearGradient id="aigrd1" gradientUnits="userSpaceOnUse" x1="25.0967" y1="17.4907" x2="37.2287" y2="38.566">
			<stop  offset="0" style="stop-color:#F0F0F0"/>
			<stop  offset="1" style="stop-color:#D6D6D6"/>
		</linearGradient>
		<path style="&st0;" d="M41.6,37.6c0,1-0.8,1.8-1.8,1.8H22.3c-1,0-1.8-0.8-1.8-1.8V18c0-1,0.8-1.8,1.8-1.8h17.5c1,0,1.8,0.8,1.8,1.8v19.6z"/>
		<g>
			<radialGradient id="aigrd2" cx="22.2783" cy="31.9658" r="0.7938" fx="22.2783" fy="31.9658" gradientUnits="userSpaceOnUse">
				<stop  offset="0" style="stop-color:#F0F0F0"/>
				<stop  offset="1" style="stop-color:#474747"/>
			</radialGradient>
			<path style="&st7;" d="M22.7,31.7c0,0.3-0.2,0.5-0.5,0.5c-0.3,0-0.5-0.2-0.5-0.5s0.2-0.5,0.5-0.5c0.3,0,0.5,0.2,0.5,0.5z"/>
			<radialGradient id="aigrd3" cx="22.2783" cy="24.4263" r="0.7934" fx="22.2783" fy="24.4263" gradientUnits="userSpaceOnUse">
				<stop  offset="0" style="stop-color:#F0F0F0"/>
				<stop  offset="1" style="stop-color:#474747"/>
			</radialGradient>
			<path style="&st3;" d="M22.7,24.2c0,0.3-0.2,0.5-0.5,0.5c-0.3,0-0.5-0.2-0.5-0.5s0.2-0.5,0.5-0.5c0.3,0,0.5,0.2,0.5,0.5z"/>
		</g>
		<path style="&st12;" d="M23.9,39.4h-0.2V16.6h0.2v22.8z"/>
		<linearGradient id="aigrd4" gradientUnits="userSpaceOnUse" x1="23.6753" y1="17.2295" x2="23.4063" y2="38.5511">
			<stop  offset="0" style="stop-color:#EDEDED"/>
			<stop  offset="1" style="stop-color:#CACACA"/>
		</linearGradient>
		<path style="&st13;" d="M23.7,39.4h-0.2V16.6h0.2v22.8z"/>
		<path style="&st12;" d="M21.3,18.6l-0.4,20.1c-0.3-0.3-0.4-0.9-0.4-0.9l0-19.9c0,0,0-0.5,0.4-1.1c0.5-0.6,1.3-0.6,1.3-0.6l17.8,0l-17.1,0.8c-0.7,0-1.1,0.3-1.2,0.5c-0.1,0.1-0.4,0.6-0.4,1.1z"/>
		<path style="&st8;" d="M40.8,37l0.4-20.1c0.3,0.3,0.4,0.9,0.4,0.9l0,19.9c0,0,0,0.5-0.4,1.1c-0.5,0.6-1.3,0.6-1.3,0.6l-17.8,0l17.1-0.8c0.7,0,1.1-0.3,1.2-0.5c0.1-0.1,0.4-0.6,0.4-1.1z"/>
	</g>
	<g id="Layer_x0020_3" style="&st4;">
		<path style="&st1;" d="M12.3,6C10.5,6,9,7.5,9,9.3v19.6c0,1.8,1.5,3.3,3.3,3.3h17.5c1.8,0,3.3-1.5,3.3-3.3V9.3c0-1.8-1.5-3.3-3.3-3.3H12.3z"/>
		<linearGradient id="aigrd5" gradientUnits="userSpaceOnUse" x1="14.9507" y1="8.7808" x2="27.0823" y2="29.8553">
			<stop  offset="0" style="stop-color:#F0F0F0"/>
			<stop  offset="1" style="stop-color:#D6D6D6"/>
		</linearGradient>
		<path style="&st6;" d="M31.4,28.9c0,1-0.8,1.8-1.8,1.8H12.1c-1,0-1.8-0.8-1.8-1.8V9.3c0-1,0.8-1.8,1.8-1.8h17.5c1,0,1.8,0.8,1.8,1.8v19.6z"/>
		<g>
			<radialGradient id="aigrd6" cx="12.1328" cy="23.2563" r="0.7927" fx="12.1328" fy="23.2563" gradientUnits="userSpaceOnUse">
				<stop  offset="0" style="stop-color:#F0F0F0"/>
				<stop  offset="1" style="stop-color:#474747"/>
			</radialGradient>
			<path style="&st2;" d="M12.5,23c0,0.3-0.2,0.5-0.5,0.5c-0.3,0-0.5-0.2-0.5-0.5c0-0.3,0.2-0.5,0.5-0.5c0.3,0,0.5,0.2,0.5,0.5z"/>
			<radialGradient id="aigrd7" cx="12.1328" cy="15.7153" r="0.7927" fx="12.1328" fy="15.7153" gradientUnits="userSpaceOnUse">
				<stop  offset="0" style="stop-color:#F0F0F0"/>
				<stop  offset="1" style="stop-color:#474747"/>
			</radialGradient>
			<path style="&st11;" d="M12.5,15.5c0,0.3-0.2,0.5-0.5,0.5c-0.3,0-0.5-0.2-0.5-0.5c0-0.3,0.2-0.5,0.5-0.5c0.3,0,0.5,0.2,0.5,0.5z"/>
		</g>
		<path style="&st12;" d="M13.8,30.7h-0.2V7.9h0.2v22.8z"/>
		<linearGradient id="aigrd8" gradientUnits="userSpaceOnUse" x1="13.5283" y1="8.5186" x2="13.2593" y2="29.8401">
			<stop  offset="0" style="stop-color:#EDEDED"/>
			<stop  offset="1" style="stop-color:#CACACA"/>
		</linearGradient>
		<path style="&st5;" d="M13.5,30.7h-0.2V7.9h0.2v22.8z"/>
		<path style="&st12;" d="M11.2,9.9L10.8,30c-0.3-0.3-0.4-0.9-0.4-0.9l0-19.9c0,0,0-0.5,0.4-1.1C11.3,7.5,12,7.5,12,7.5l17.8,0L12.7,8.3c-0.7,0-1.1,0.3-1.2,0.5c-0.1,0.1-0.4,0.6-0.4,1.1z"/>
		<path style="&st8;" d="M30.7,28.2l0.4-20.1c0.3,0.3,0.4,0.9,0.4,0.9l0,19.9c0,0,0,0.5-0.4,1.1c-0.5,0.6-1.3,0.6-1.3,0.6l-17.8,0l17.1-0.8c0.7,0,1.1-0.3,1.2-0.5c0.1-0.1,0.4-0.6,0.4-1.1z"/>
	</g>
	<g id="Layer_x0020_2" style="&st10;">
		<path style="&st9;" d="M52,48H0V0h52v48z"/>
	</g>
</svg>
