<?xml version="1.0" encoding="iso-8859-1"?>
<!-- Generator: Adobe Illustrator 9.0, SVG Export Plug-In  -->
<!DOCTYPE svg PUBLIC "-//W3C//DTD SVG 20000303 Stylable//EN"   "http://www.w3.org/TR/2000/03/WD-SVG-20000303/DTD/svg-20000303-stylable.dtd" [
	<!ENTITY st0 "fill-rule:evenodd;clip-rule:evenodd;stroke-width:0.8701;">
	<!ENTITY st1 "fill-rule:evenodd;clip-rule:evenodd;fill:url(#aigrd1);stroke:none;">
	<!ENTITY st2 "opacity:0.47;fill:#FFFFFF;stroke:none;">
	<!ENTITY st3 "stroke-width:0.8701;">
	<!ENTITY st4 "fill:#51AF55;stroke:none;">
	<!ENTITY st5 "fill:url(#aigrd2);stroke:none;">
	<!ENTITY st6 "fill:none;stroke:none;">
	<!ENTITY st7 "fill-rule:nonzero;clip-rule:nonzero;stroke:#000000;stroke-miterlimit:4;">
]>
<svg  width="24pt" height="24pt" viewBox="0 0 24 24" xml:space="preserve">
	<g id="Layer_x0020_3" style="&st7;">
		<path style="&st0;" d="M6.5,12.7c0,4.6,3.7,8.3,8.3,8.3c4.6,0,8.3-3.7,8.3-8.3c0-4.6-3.7-8.3-8.3-8.3c-4.6,0-8.3,3.7-8.3,8.3z"/>
		<radialGradient id="aigrd1" cx="12.3335" cy="9.5859" r="10.8032" fx="12.3335" fy="9.5859" gradientUnits="userSpaceOnUse">
			<stop  offset="0" style="stop-color:#F7EB9F"/>
			<stop  offset="6.478396e-002" style="stop-color:#F7E99A"/>
			<stop  offset="0.1448" style="stop-color:#F7E48A"/>
			<stop  offset="0.233" style="stop-color:#F8DA6F"/>
			<stop  offset="0.3269" style="stop-color:#FACD4C"/>
			<stop  offset="0.4243" style="stop-color:#FEBC24"/>
			<stop  offset="0.4719" style="stop-color:#FFB310"/>
			<stop  offset="1" style="stop-color:#996E04"/>
		</radialGradient>
		<path style="&st1;" d="M22.2,12.7c0,4.1-3.3,7.4-7.4,7.4c-4.1,0-7.4-3.3-7.4-7.4c0-4.1,3.3-7.4,7.4-7.4c4.1,0,7.4,3.3,7.4,7.4z"/>
		<path style="&st3;" d="M6.3,3.8C5.9,4,5.7,4.3,5.7,4.7c0,0,0,1.5,0,2.5c-1.1,0-3.6,0-3.6,0c-0.6,0-1,0.4-1,1l0,4.4c0,0.6,0.5,1,1,1c0,0,2.5,0,3.6,0c0,0.9,0,2.4,0,2.4c0,0.4,0.2,0.7,0.6,0.9c0.4,0.1,0.8,0.1,1-0.2l5.5-5.5c0.6-0.6,0.4-1.2,0-1.6l0,0L7.4,4
			C7.1,3.7,6.7,3.7,6.3,3.8z"/>
		<path style="&st4;" d="M6.6,4.7c0-0.1,0.1-0.1,0.2-0.1l5.5,5.6c0.2,0.2,0.1,0.2,0,0.3l-5.5,5.5c0,0-0.1,0-0.1,0v-3.3H2.1C2,12.7,2,12.7,2,12.6l0-4.4C2,8.1,2,8,2.1,8h4.5l0-3.3z"/>
		<linearGradient id="aigrd2" gradientUnits="userSpaceOnUse" x1="-6.272" y1="13.0537" x2="-6.272" y2="10.5907" gradientTransform="matrix(-1 0 0 1 0.9932 0)">
			<stop  offset="0" style="stop-color:#48AA53"/>
			<stop  offset="0.9199" style="stop-color:#388540"/>
			<stop  offset="1" style="stop-color:#37823F"/>
		</linearGradient>
		<path style="&st5;" d="M11.6,10.4H2.9l0,1.5h4.3v2.6l4.4-4.1z"/>
		<path style="&st2;" d="M2.3,8.4l0,4.4c-0.2,0-0.3,0-0.3-0.1l0-4.2C2,8,1.9,8,2.3,8h4.4l0-3.3C6.7,4.5,6.9,4.8,7,4.9l0,3.4H2.3z"/>
	</g>
	<g id="Layer_x0020_2" style="&st7;">
		<path style="&st6;" d="M24,24H0V0h24v24z"/>
	</g>
</svg>
