<?xml version="1.0" encoding="iso-8859-1"?>
<!-- Generator: Adobe Illustrator 9.0, SVG Export Plug-In  -->
<!DOCTYPE svg PUBLIC "-//W3C//DTD SVG 20000303 Stylable//EN"   "http://www.w3.org/TR/2000/03/WD-SVG-20000303/DTD/svg-20000303-stylable.dtd" [
	<!ENTITY st0 "fill:url(#aigrd1);stroke:none;">
	<!ENTITY st1 "opacity:0.5;fill:url(#aigrd5);stroke:none;">
	<!ENTITY st2 "fill:url(#aigrd3);stroke:none;">
	<!ENTITY st3 "opacity:0.61;stroke:none;">
	<!ENTITY st4 "opacity:0.62;stroke:none;">
	<!ENTITY st5 "fill-rule:nonzero;clip-rule:nonzero;fill:#F3F3F3;stroke:#000000;stroke-miterlimit:4;">
	<!ENTITY st6 "fill:url(#aigrd2);stroke:none;">
	<!ENTITY st7 "fill:none;stroke:none;">
	<!ENTITY st8 "fill:#000000;stroke-width:0.9707;">
	<!ENTITY st9 "fill-rule:nonzero;clip-rule:nonzero;stroke:#000000;stroke-miterlimit:4;">
	<!ENTITY st10 "fill:url(#aigrd7);stroke:none;">
	<!ENTITY st11 "opacity:0.5;fill:url(#aigrd6);stroke:none;">
	<!ENTITY st12 "fill:url(#aigrd4);stroke:none;">
]>
<svg  width="24pt" height="24pt" viewBox="0 0 24 24" xml:space="preserve">
	<g id="Layer_x0020_3" style="&st5;">
		<path style="&st8;" d="M4.5,1.5c-1.6,0-2.8,1-2.8,2.3V21l0,0.1c0.1,0.5,0.7,1.5,1.9,1.5h16.2c0.6,0,1-0.5,1-1c0,0,0-0.2,0-0.2c0-0.1,0.1-0.3,0.1-0.4c0.1,0,0.2,0,0.2,0l-0.1,0c0.6,0,1-0.5,1-1V2.5c0-0.6-0.5-1-1-1H4.5z"/>
		<linearGradient id="aigrd1" gradientUnits="userSpaceOnUse" x1="17.583" y1="16.6758" x2="8.35" y2="8.4507">
			<stop  offset="0" style="stop-color:#646698"/>
			<stop  offset="1" style="stop-color:#7B7C99"/>
		</linearGradient>
		<path style="&st0;" d="M21.3,19.8c0,0.1-0.1,0.2-0.2,0.2L3.6,21.7c-0.8,0-1-0.8-1-0.8V3.8c0-0.9,0.9-1.5,1.9-1.5h16.5c0.1,0,0.2,0.1,0.2,0.2v17.3z"/>
		<linearGradient id="aigrd2" gradientUnits="userSpaceOnUse" x1="19.2715" y1="11.8052" x2="20.8251" y2="11.7643">
			<stop  offset="0" style="stop-color:#F3F3F3"/>
			<stop  offset="1" style="stop-color:#C1C1C1"/>
		</linearGradient>
		<path style="&st6;" d="M20.8,19.7c-0.7,0.1-0.8,1.4-0.8,1.4L4.4,20.3c-0.1,0,0-0.6,0-0.7L4.6,4H3.3c0,0,0.1-1.2,2.1-1.2l15.3,0c0.1,0,0.2,0.1,0.2,0.2v16.7z"/>
		<linearGradient id="aigrd3" gradientUnits="userSpaceOnUse" x1="17.1436" y1="17.6533" x2="8.1813" y2="9.6695">
			<stop  offset="0" style="stop-color:#646698"/>
			<stop  offset="1" style="stop-color:#7B7C99"/>
		</linearGradient>
		<path style="&st2;" d="M20,21.5c0,0.1-0.1,0.2-0.2,0.2H3.6c-0.1,0-0.2-0.1-0.2-0.2V4.2C3.5,4.1,3.6,4,3.6,4h16.2C19.9,4,20,4.1,20,4.2v17.3z"/>
		<linearGradient id="aigrd4" gradientUnits="userSpaceOnUse" x1="20.5684" y1="3.5093" x2="20.6491" y2="3.5072">
			<stop  offset="0" style="stop-color:#F3F3F3"/>
			<stop  offset="1" style="stop-color:#C1C1C1"/>
		</linearGradient>
		<path style="&st12;" d="M20.6,3c-0.4,0.2-0.9,0.5-0.9,1c-0.1-0.5,0.4-1,0.9-1z"/>
		<path style="&st4;" d="M19.5,4.4L3.1,4.8l0,16.7c-0.2-0.1-0.4-0.5-0.4-0.6V3.8c0,0,0,0.6,0.4,0.6l16.4,0z"/>
		<linearGradient id="aigrd5" gradientUnits="userSpaceOnUse" x1="19.4072" y1="12.833" x2="19.9835" y2="12.833">
			<stop  offset="5.618000e-003" style="stop-color:#646698"/>
			<stop  offset="1" style="stop-color:#303048"/>
		</linearGradient>
		<path style="&st1;" d="M20,4.1v17.3c0,0.1-0.1,0.2-0.1,0.2h-0.4l0-17.7h0.3c0,0,0.2,0,0.2,0.1z"/>
		<linearGradient id="aigrd6" gradientUnits="userSpaceOnUse" x1="20.9854" y1="11.1274" x2="21.2714" y2="11.1274">
			<stop  offset="5.618000e-003" style="stop-color:#646698"/>
			<stop  offset="1" style="stop-color:#303048"/>
		</linearGradient>
		<path style="&st11;" d="M21.3,2.5l0,17.3c0,0.1-0.1,0.2-0.3,0.2l0-17.7c0.1,0,0.2,0,0.2,0.2z"/>
		<path style="&st3;" d="M21,2.3L4.4,2.4C3.5,2.4,2.6,3.2,2.6,4C2.5,3.3,3,2.3,4.5,2.3l16.5,0z"/>
		<linearGradient id="aigrd7" gradientUnits="userSpaceOnUse" x1="3.5859" y1="13.1846" x2="4.5403" y2="13.1846">
			<stop  offset="0" style="stop-color:#747AB0"/>
			<stop  offset="0.2416" style="stop-color:#555778"/>
			<stop  offset="0.5449" style="stop-color:#7B7C99"/>
			<stop  offset="0.7865" style="stop-color:#9FA1BE"/>
			<stop  offset="1" style="stop-color:#7B7C99"/>
		</linearGradient>
		<path style="&st10;" d="M4.6,21.6h-1V4.8h1v16.9z"/>
	</g>
	<g id="Layer_x0020_2" style="&st9;">
		<path style="&st7;" d="M24,24H0V0h24v24z"/>
	</g>
</svg>
