<?xml version="1.0" encoding="iso-8859-1"?>
<!-- Generator: Adobe Illustrator 9.0, SVG Export Plug-In  -->
<!DOCTYPE svg PUBLIC "-//W3C//DTD SVG 20000303 Stylable//EN"   "http://www.w3.org/TR/2000/03/WD-SVG-20000303/DTD/svg-20000303-stylable.dtd" [
	<!ENTITY st0 "opacity:0.2;fill:url(#aigrd1);stroke:none;">
	<!ENTITY st1 "stroke-width:0.9107;">
	<!ENTITY st2 "fill:none;stroke:none;">
	<!ENTITY st3 "fill-rule:nonzero;clip-rule:nonzero;stroke:#000000;stroke-miterlimit:4;">
	<!ENTITY st4 "fill:#FFBA00;stroke:none;">
]>
<svg  width="24pt" height="24pt" viewBox="0 0 24 24" xml:space="preserve">
	<g id="Layer_x0020_1" style="&st3;">
		<path style="&st1;" d="M10.5,1.8l-7.9,8l0,0c-0.1,0.1-0.4,0.4-0.4,0.9c0,0.5,0.3,0.7,0.4,0.9l7.9,7.9c0.3,0.3,0.7,0.4,1.1,0.2c0.4-0.2,0.6-0.5,0.6-0.9c0,0,0-2.6,0-3.8c0.6,0,1.3,0,1.3,0c0.2,0,0.7,0.1,1,0.3c0.4,0.2,0.5,0.5,0.5,0.9v2.1c0,0.7-1.2,1.2-2,1.6
			c-0.3,0.2-0.6,0.3-0.9,0.4c-0.5,0.3-0.7,0.7-0.7,1.1c0,0.9,0.8,1.5,1.5,1.7l0.1,0h2.9c1.5,0,2.9-0.7,3.8-2c0.8-1.1,1.2-2.5,1.2-4v-3.5c0-2.2-0.6-4.1-1.8-5.3c-1.1-1.2-2.8-1.8-4.7-1.8c0,0-1.2,0-2.1,0c0-1.2,0-3.9,0-3.9c0-0.4-0.2-0.8-0.6-1
			c-0.4-0.2-0.9-0.1-1.2,0.2z"/>
		<path style="&st4;" d="M11.4,2.5c0-0.1-0.2-0.2-0.2-0.1l-7.9,8c-0.2,0.2-0.2,0.3,0,0.5l7.9,7.9c0.1,0.1,0.2,0,0.2-0.1v-4.7h2.2c0.7,0,2.5,0.3,2.5,2.1v2.1c0,2-3.6,2.5-3.6,3.2c0,0.6,0.8,0.8,0.8,0.8h2.8c2.7,0,4.1-2.6,4.1-5.1v-3.5c0-4.2-2.3-6.2-5.6-6.2h-3.1
			l0-4.8z"/>
		<linearGradient id="aigrd1" gradientUnits="userSpaceOnUse" x1="11.021" y1="16.166" x2="11.021" y2="11.1243">
			<stop  offset="0" style="stop-color:#FFBA00"/>
			<stop  offset="1" style="stop-color:#000000"/>
		</linearGradient>
		<path style="&st0;" d="M4.2,10.7h10.5c1.6,0,3.1,1.7,3.1,3.1v5.3c0-3.4-1.4-6.3-2.9-6.3h-4.3v3.8l-6.4-5.9z"/>
	</g>
	<g id="Layer_x0020_2" style="&st3;">
		<path style="&st2;" d="M24,24H0V0h24v24z"/>
	</g>
</svg>
