<?xml version="1.0" encoding="iso-8859-1"?>
<!-- Generator: Adobe Illustrator 9.0, SVG Export Plug-In  -->
<!DOCTYPE svg PUBLIC "-//W3C//DTD SVG 20000303 Stylable//EN"   "http://www.w3.org/TR/2000/03/WD-SVG-20000303/DTD/svg-20000303-stylable.dtd" [
	<!ENTITY st0 "fill:url(#aigrd1);stroke:none;">
	<!ENTITY st1 "fill:url(#aigrd9);stroke:none;">
	<!ENTITY st2 "fill:url(#aigrd6);stroke:none;">
	<!ENTITY st3 "fill:url(#aigrd3);stroke:none;">
	<!ENTITY st4 "fill:none;stroke-width:2.5791;stroke-linecap:round;stroke-linejoin:round;">
	<!ENTITY st5 "fill:url(#aigrd8);stroke:none;">
	<!ENTITY st6 "fill:#FFFFFF;stroke:none;">
	<!ENTITY st7 "fill:url(#aigrd5);stroke:none;">
	<!ENTITY st8 "fill:url(#aigrd2);stroke:none;">
	<!ENTITY st9 "fill:none;stroke:none;">
	<!ENTITY st10 "fill-rule:nonzero;clip-rule:nonzero;stroke:#000000;stroke-miterlimit:4;">
	<!ENTITY st11 "fill:url(#aigrd7);stroke:none;">
	<!ENTITY st12 "fill:url(#aigrd4);stroke:none;">
	<!ENTITY st13 "opacity:0.43;fill:#F3F3F3;stroke:none;">
]>
<svg  width="24pt" height="24pt" viewBox="0 0 24 24" xml:space="preserve">
	<g id="Layer_x0020_1" style="&st10;">
		<path style="&st4;" d="M22,13.9l-0.9,0c-0.3-0.5-0.6-1.5-0.6-1.5c-0.7-0.5-7.5,0-7.5,0l0.1-7.9l-1.1-0.7l-0.6,0.4V3.7L10.4,4l-0.3,0.2l0-0.5L9.8,3.9L9.7,3.5C9.6,3.3,9.5,3.3,9.4,3.4l-7.5,5C1.8,8.4,1.8,8.5,1.8,8.7L4,16.8c0.3,1.4,1.3,2.2,2.4,2.4l10.1,1.3
			c0.2,0,0.2,0,0.3-0.1l5.2-6.3c0.1-0.1,0-0.2-0.1-0.2z"/>
		<g id="Layer_x0020_3">
		</g>
		<linearGradient id="aigrd1" gradientUnits="userSpaceOnUse" x1="9.6309" y1="11.8784" x2="11.8342" y2="14.0817">
			<stop  offset="0" style="stop-color:#4A4B70"/>
			<stop  offset="0.3539" style="stop-color:#58597A"/>
			<stop  offset="0.6629" style="stop-color:#727398"/>
			<stop  offset="1" style="stop-color:#7B7C99"/>
		</linearGradient>
		<path style="&st0;" d="M22.1,14.1L17,20.4c-0.1,0.1-0.2,0.1-0.3,0.1L6.5,19.2c-1.1-0.3-2.1-1.1-2.4-2.4L1.9,8.7C1.8,8.5,1.9,8.4,2,8.4l7.5-5c0.1-0.1,0.3-0.1,0.3,0.1l1.9,8.2c0.2,0.9,1,2,2.3,2l8,0.2c0.1,0,0.2,0.1,0.1,0.2z"/>
		<linearGradient id="aigrd2" gradientUnits="userSpaceOnUse" x1="10.2813" y1="16.0791" x2="12.3723" y2="21.0004">
			<stop  offset="0" style="stop-color:#EFEFEF"/>
			<stop  offset="0.9775" style="stop-color:#CFCFCF"/>
		</linearGradient>
		<path style="&st8;" d="M16.4,19.8l-1-2.4c-0.4-0.5-8.9-0.1-8.9-0.1s0.3,0.6,0.3,1.1l9.7,1.4z"/>
		<linearGradient id="aigrd3" gradientUnits="userSpaceOnUse" x1="4.2036" y1="8.6172" x2="9.6171" y2="11.101">
			<stop  offset="0" style="stop-color:#D3D3D3"/>
			<stop  offset="1" style="stop-color:#A8A8A8"/>
		</linearGradient>
		<path style="&st3;" d="M5.2,16.8L3,8.7l7.1-5.1l0.8,8.6l-5.8,4.6z"/>
		<linearGradient id="aigrd4" gradientUnits="userSpaceOnUse" x1="22.8311" y1="19.6846" x2="14.6302" y2="12.961">
			<stop  offset="0" style="stop-color:#D3D3D3"/>
			<stop  offset="1" style="stop-color:#929292"/>
		</linearGradient>
		<path style="&st12;" d="M21.4,14.1l-5,5.7c-0.4-0.1-1-1.5-1-2.4l5.1-5.1c0,0,0.5,1.6,0.9,1.8z"/>
		<linearGradient id="aigrd5" gradientUnits="userSpaceOnUse" x1="4.8921" y1="8.2549" x2="14.1952" y2="13.133">
			<stop  offset="0" style="stop-color:#D6D6D6"/>
			<stop  offset="0.9831" style="stop-color:#F3F3F3"/>
		</linearGradient>
		<path style="&st7;" d="M5,8l6.3-4.4v8.8l-5.5,4.2L5,8z"/>
		<linearGradient id="aigrd6" gradientUnits="userSpaceOnUse" x1="16.3623" y1="17.2617" x2="11.6701" y2="13.3426">
			<stop  offset="0" style="stop-color:#FFFFFF"/>
			<stop  offset="0.3175" style="stop-color:#F3F3F3"/>
			<stop  offset="0.7753" style="stop-color:#E6E6E6"/>
			<stop  offset="1" style="stop-color:#C1C1C1"/>
		</linearGradient>
		<path style="&st2;" d="M6.5,17.3c0,0,8.6-0.2,8.9,0.1l5.1-5.1c-0.7-0.5-7.5,0-7.5,0l-6.5,5z"/>
		<linearGradient id="aigrd7" gradientUnits="userSpaceOnUse" x1="4.1328" y1="8.876" x2="7.253" y2="16.2193">
			<stop  offset="0" style="stop-color:#EFEFEF"/>
			<stop  offset="0.9775" style="stop-color:#D5D5D5"/>
		</linearGradient>
		<path style="&st11;" d="M5.2,16.8c0,0,1,0.1,1.2,0.5V9l-1-0.8l0.4,8.5L5,8l-1,0.3l1.2,8.5z"/>
		<linearGradient id="aigrd8" gradientUnits="userSpaceOnUse" x1="7.1025" y1="9.6782" x2="11.6338" y2="11.7572">
			<stop  offset="0" style="stop-color:#D3D3D3"/>
			<stop  offset="1" style="stop-color:#A8A8A8"/>
		</linearGradient>
		<path style="&st5;" d="M12.9,12.4l-6.5,5V9L13,4.4l-0.1,7.9z"/>
		<linearGradient id="aigrd9" gradientUnits="userSpaceOnUse" x1="9.0171" y1="6.0156" x2="9.7902" y2="7.2953">
			<stop  offset="0" style="stop-color:#FFFFFF"/>
			<stop  offset="1" style="stop-color:#F6F6F6"/>
		</linearGradient>
		<path style="&st1;" d="M5.4,8.2l1,0.8L13,4.4l-1.1-0.7L5.4,8.2z"/>
		<path style="&st6;" d="M11.3,3.6L5,8l-1,0.3L10.5,4l0.9-0.3z"/>
		<path style="&st13;" d="M9.7,3.5L2.3,8.6l2.1,8.3C4.5,17.6,5,18.3,5.8,19c-0.7-0.3-1.5-1.2-1.7-2L1.9,8.7c0,0-0.1-0.2,0.1-0.3l7.5-5c0.3-0.1,0.3,0.1,0.3,0.1z"/>
	</g>
	<g id="Layer_x0020_4" style="&st10;">
		<path style="&st9;" d="M24,24H0V0h24v24z"/>
	</g>
</svg>
