<?xml version="1.0" encoding="iso-8859-1"?>
<!-- Generator: Adobe Illustrator 9.0, SVG Export Plug-In  -->
<!DOCTYPE svg PUBLIC "-//W3C//DTD SVG 20000303 Stylable//EN"   "http://www.w3.org/TR/2000/03/WD-SVG-20000303/DTD/svg-20000303-stylable.dtd" [
	<!ENTITY st0 "fill:url(#aigrd1);stroke:none;">
	<!ENTITY st1 "fill:url(#aigrd3);stroke:none;">
	<!ENTITY st2 "stroke-width:0.8834;">
	<!ENTITY st3 "fill:url(#aigrd2);stroke:none;">
	<!ENTITY st4 "fill:none;stroke:none;">
	<!ENTITY st5 "fill-rule:nonzero;clip-rule:nonzero;stroke:#000000;stroke-miterlimit:4;">
]>
<svg  width="24pt" height="24pt" viewBox="0 0 24 24" xml:space="preserve">
	<g id="Layer_x0020_2" style="&st5;">
		<path style="&st2;" d="M20,15.1c-0.8-0.9-1.9-1.4-3.1-1.4c-0.5,0-1,0.1-1.5,0.3c-0.2-0.4-0.3-0.5-0.5-0.8c1.5-1.1,3.2-2.7,4.5-4.8c0.5-1,0.8-1.8,0.8-2.6c0-0.9-0.3-1.7-0.6-2.3c-0.6-1.1-1.5-1.7-1.6-1.7c-0.2-0.1-0.4-0.2-0.7-0.1c-0.2,0.1-0.4,0.2-0.6,0.4
			c0,0-3.2,5.2-4.3,7c-1.1-1.8-4.3-7-4.3-7C7.7,1.8,7.5,1.6,7.3,1.6s-0.5,0-0.7,0.1C6.5,1.7,5.6,2.3,5,3.4C4.6,4,4.3,4.8,4.3,5.7c0,0.8,0.2,1.6,0.8,2.6c1.3,2.2,3,3.8,4.5,4.9C9.3,13.5,9.3,13.7,9,14c-0.5-0.2-1-0.3-1.5-0.3c-1.2,0-2.3,0.5-3.1,1.4
			c-0.7,0.8-1.1,1.8-1.1,2.9s0.4,2.1,1.1,2.9c0.8,0.9,1.9,1.4,3.1,1.4c1.2,0,2.3-0.5,3.1-1.4c0.7-0.7,1.1-1.7,1.1-2.9c0-0.3,0.2-1.3,0.4-2.2c0.2,0.9,0.3,1.9,0.4,2.2c0.1,1.1,0.5,2.2,1.1,2.9c0.8,0.9,1.9,1.4,3.1,1.4c1.2,0,2.3-0.5,3.1-1.4c0.7-0.8,1.1-1.8,1.1-2.9
			s-0.4-2.1-1.1-2.9z M6.9,16.9c0.1-0.1,0.3-0.3,0.6-0.3c0.3,0,0.5,0.2,0.6,0.3c0.3,0.3,0.4,0.7,0.4,1.1s-0.2,0.9-0.4,1.1c-0.1,0.1-0.3,0.3-0.6,0.3c-0.3,0-0.5-0.2-0.6-0.3c-0.3-0.3-0.4-0.7-0.4-1.1s0.2-0.9,0.4-1.1z M16.2,16.9c0.1-0.1,0.3-0.3,0.6-0.3
			c0.3,0,0.5,0.2,0.6,0.3c0.3,0.3,0.4,0.7,0.4,1.1s-0.2,0.9-0.4,1.1c-0.1,0.1-0.3,0.3-0.6,0.3c-0.3,0-0.5-0.2-0.6-0.3c-0.3-0.3-0.4-0.7-0.4-1.1s0.2-0.9,0.4-1.1z"/>
		<linearGradient id="aigrd1" gradientUnits="userSpaceOnUse" x1="-46.0938" y1="9.5923" x2="-37.1114" y2="16.0139" gradientTransform="matrix(-1 0 0 1 -30.4814 0)">
			<stop  offset="0" style="stop-color:#E6E6E6"/>
			<stop  offset="1" style="stop-color:#9F9F9F"/>
		</linearGradient>
		<path style="&st0;" d="M5.8,7.8c2.4,4.2,6.8,6.2,6.8,6.2s0.7,3.2,0.7,4c0,0.8,0.3,1.7,0.9,2.3c0.6,0.7,1.5,1.1,2.5,1.1c1,0,1.9-0.4,2.5-1.1c0.6-0.6,0.9-1.5,0.9-2.3c0-0.9-0.3-1.7-0.9-2.3c-0.6-0.7-1.5-1.1-2.5-1.1c-0.7,0-1.3,0.2-1.9,0.5L7.1,2.4
			c0,0-3.2,2-1.2,5.4z M14.9,18c0-0.7,0.2-1.3,0.7-1.7c0.2-0.2,0.7-0.6,1.3-0.6c0.6,0,1.1,0.4,1.3,0.6c0.4,0.5,0.7,1.1,0.7,1.7c0,0.7-0.2,1.3-0.7,1.7c-0.2,0.2-0.7,0.6-1.3,0.6c-0.6,0-1.1-0.4-1.3-0.6c-0.4-0.5-0.7-1.1-0.7-1.7z"/>
		<linearGradient id="aigrd2" gradientUnits="userSpaceOnUse" x1="11.9678" y1="11.9824" x2="15.9886" y2="14.7877">
			<stop  offset="0" style="stop-color:#FFFFFF"/>
			<stop  offset="1" style="stop-color:#BEBEBE"/>
		</linearGradient>
		<path style="&st3;" d="M17.2,2.4L9.3,15.1c-0.5-0.3-1.2-0.5-1.9-0.5c-1,0-1.9,0.4-2.5,1.1c-0.6,0.6-0.9,1.5-0.9,2.3c0,0.9,0.3,1.7,0.9,2.3c0.6,0.7,1.5,1.1,2.5,1.1c1,0,1.9-0.4,2.5-1.1c0.6-0.6,0.9-1.5,0.9-2.3c0-0.8,0.7-4,0.7-4s4.4-2,6.8-6.2
			c1.9-3.4-1.2-5.4-1.2-5.4z M8.8,19.7c-0.2,0.2-0.7,0.6-1.3,0.6c-0.6,0-1.1-0.4-1.3-0.6c-0.4-0.5-0.7-1.1-0.7-1.7s0.2-1.3,0.7-1.7c0.2-0.2,0.7-0.6,1.3-0.6c0.6,0,1.1,0.4,1.3,0.6c0.4,0.5,0.7,1.1,0.7,1.7s-0.2,1.3-0.7,1.7z"/>
		<radialGradient id="aigrd3" cx="-17.5649" cy="12.0332" r="0.8478" fx="-17.5649" fy="12.0332" gradientTransform="matrix(1.1422 0 0 1 31.8838 0)" gradientUnits="userSpaceOnUse">
			<stop  offset="0" style="stop-color:#FFFFFF"/>
			<stop  offset="1" style="stop-color:#BEBEBE"/>
		</radialGradient>
		<path style="&st1;" d="M13.1,12.4c0,0.4-0.4,0.8-0.9,0.8s-0.9-0.4-0.9-0.8c0-0.4,0.4-0.8,0.9-0.8s0.9,0.4,0.9,0.8z"/>
	</g>
	<g id="Layer_x0020_3" style="&st5;">
		<path style="&st4;" d="M24,24H0V0h24v24z"/>
	</g>
</svg>
