<?xml version="1.0" encoding="iso-8859-1"?>
<!-- Generator: Adobe Illustrator 9.0, SVG Export Plug-In  -->
<!DOCTYPE svg PUBLIC "-//W3C//DTD SVG 20000303 Stylable//EN"   "http://www.w3.org/TR/2000/03/WD-SVG-20000303/DTD/svg-20000303-stylable.dtd" [
	<!ENTITY st0 "fill-rule:evenodd;clip-rule:evenodd;fill:url(#aigrd1);stroke:none;">
	<!ENTITY st1 "fill-rule:evenodd;clip-rule:evenodd;fill:url(#aigrd3);stroke:none;">
	<!ENTITY st2 "stroke-width:0.8662;">
	<!ENTITY st3 "fill-rule:evenodd;clip-rule:evenodd;fill:#FFFFFF;stroke:none;">
	<!ENTITY st4 "fill:none;stroke:none;">
	<!ENTITY st5 "fill-rule:evenodd;clip-rule:evenodd;fill:url(#aigrd2);stroke:none;">
	<!ENTITY st6 "fill-rule:evenodd;clip-rule:evenodd;stroke:none;">
	<!ENTITY st7 "fill-rule:nonzero;clip-rule:nonzero;stroke:#000000;stroke-miterlimit:4;">
]>
<svg  width="24pt" height="24pt" viewBox="0 0 24 24" xml:space="preserve">
	<g id="Layer_x0020_2" style="&st7;">
		<path style="&st2;" d="M1.2,12.1c0,6,4.9,10.9,10.9,10.9s10.9-4.9,10.9-10.9c0-6-4.9-10.9-10.9-10.9S1.2,6.1,1.2,12.1z"/>
		<radialGradient id="aigrd1" cx="8.9658" cy="8.1055" r="13.6202" fx="8.9658" fy="8.1055" gradientUnits="userSpaceOnUse">
			<stop  offset="0" style="stop-color:#FED182"/>
			<stop  offset="0.2809" style="stop-color:#FFB310"/>
			<stop  offset="1" style="stop-color:#996E04"/>
		</radialGradient>
		<path style="&st0;" d="M21.4,12c0,5.2-4.2,9.3-9.3,9.3c-5.2,0-9.3-4.2-9.3-9.3c0-5.2,4.2-9.3,9.3-9.3c5.2,0,9.3,4.2,9.3,9.3z"/>
	</g>
	<g id="Layer_x0020_3" style="&st7;">
		<path style="&st6;" d="M14.6,5c0-0.1-0.1-0.1-0.1,0l-3.8,3.8c-0.1,0.1-0.1,0.2,0,0.2l3.8,3.8c0,0,0.1,0,0.1,0v-2.3h1c0.3,0,1.2,0.2,1.2,1v1c0,0.9-1.7,1.2-1.7,1.5c0,0.3,0.4,0.4,0.4,0.4h1.3c1.3,0,2-1.2,2-2.4v-1.7c0-2-1.1-3-2.7-3h-1.5l0-2.3z"/>
		<path style="&st6;" d="M9.8,19.3c0,0.1,0.1,0.1,0.1,0l3.8-3.8c0.1-0.1,0.1-0.2,0-0.2l-3.8-3.8c0,0-0.1,0-0.1,0v2.3h-1c-0.3,0-1.2-0.2-1.2-1v-1c0-0.9,1.7-1.2,1.7-1.5c0-0.3-0.4-0.4-0.4-0.4H7.6c-1.3,0-2,1.2-2,2.4V14c0,2,1.1,3,2.7,3h1.5l0,2.3z"/>
		<path style="&st3;" d="M14.7,5.2c0-0.1-0.1-0.1-0.1,0L10.8,9c-0.1,0.1-0.1,0.2,0,0.2l3.8,3.8c0,0,0.1,0,0.1,0v-2.3h1c0.3,0,1.2,0.2,1.2,1v1c0,0.9-1.7,1.2-1.7,1.5c0,0.3,0.4,0.4,0.4,0.4h1.3c1.3,0,2-1.2,2-2.4v-1.7c0-2-1.1-3-2.7-3h-1.5l0-2.3z"/>
		<path style="&st3;" d="M9.9,19.4c0,0.1,0.1,0.1,0.1,0l3.8-3.8c0.1-0.1,0.1-0.2,0-0.2L10,11.6c0,0-0.1,0-0.1,0v2.3h-1c-0.3,0-1.2-0.2-1.2-1v-1c0-0.9,1.7-1.2,1.7-1.5s-0.4-0.4-0.4-0.4H7.8c-1.3,0-2,1.2-2,2.4v1.7c0,2,1.1,3,2.7,3H10l0,2.3z"/>
		<radialGradient id="aigrd2" cx="13.2129" cy="6.8301" r="8.4458" fx="13.2129" fy="6.8301" gradientUnits="userSpaceOnUse">
			<stop  offset="0" style="stop-color:#FFFFFF"/>
			<stop  offset="1" style="stop-color:#F0E1BD"/>
		</radialGradient>
		<path style="&st5;" d="M14.6,5.1c0-0.1-0.1-0.1-0.1,0l-3.8,3.8c-0.1,0.1-0.1,0.2,0,0.2l3.8,3.8c0,0,0.1,0,0.1,0v-2.3h1c0.3,0,1.2,0.2,1.2,1v1c0,0.9-1.7,1.2-1.7,1.5s0.4,0.4,0.4,0.4h1.3c1.3,0,2-1.2,2-2.4v-1.7c0-2-1.1-3-2.7-3h-1.5l0-2.3z"/>
		<radialGradient id="aigrd3" cx="8.1943" cy="11.7568" r="8.4446" fx="8.1943" fy="11.7568" gradientUnits="userSpaceOnUse">
			<stop  offset="0" style="stop-color:#FFFFFF"/>
			<stop  offset="1" style="stop-color:#F0E1BD"/>
		</radialGradient>
		<path style="&st1;" d="M9.8,19.4c0,0.1,0.1,0.1,0.1,0l3.8-3.8c0.1-0.1,0.1-0.2,0-0.2L10,11.5c0,0-0.1,0-0.1,0v2.3h-1c-0.3,0-1.2-0.2-1.2-1v-1c0-0.9,1.7-1.2,1.7-1.5C9.4,10.1,9,10,9,10H7.7c-1.3,0-2,1.2-2,2.4v1.7c0,2,1.1,3,2.7,3h1.5l0,2.3z"/>
	</g>
	<g id="Layer_x0020_4" style="&st7;">
		<path style="&st4;" d="M24,24H0V0h24v24z"/>
	</g>
</svg>
