<?xml version="1.0" encoding="iso-8859-1"?>
<!-- Generator: Adobe Illustrator 9.0, SVG Export Plug-In  -->
<!DOCTYPE svg PUBLIC "-//W3C//DTD SVG 20000303 Stylable//EN"   "http://www.w3.org/TR/2000/03/WD-SVG-20000303/DTD/svg-20000303-stylable.dtd" [
	<!ENTITY st0 "opacity:0.44;fill:#FFFFFF;stroke:none;">
	<!ENTITY st1 "fill:url(#aigrd14);stroke:none;">
	<!ENTITY st2 "fill:url(#aigrd1);stroke:none;">
	<!ENTITY st3 "fill:url(#aigrd11);stroke:none;">
	<!ENTITY st4 "fill:url(#aigrd9);stroke:none;">
	<!ENTITY st5 "fill:url(#aigrd21);stroke:none;">
	<!ENTITY st6 "opacity:0.33;fill:#BCBCBC;stroke:none;">
	<!ENTITY st7 "fill:url(#aigrd19);stroke:none;">
	<!ENTITY st8 "fill:url(#aigrd6);stroke:none;">
	<!ENTITY st9 "fill:url(#aigrd16);stroke:none;">
	<!ENTITY st10 "fill:url(#aigrd3);stroke:none;">
	<!ENTITY st11 "fill:url(#aigrd13);stroke:none;">
	<!ENTITY st12 "fill:url(#aigrd23);stroke:none;">
	<!ENTITY st13 "fill:url(#aigrd10);stroke:none;">
	<!ENTITY st14 "fill:url(#aigrd8);stroke:none;">
	<!ENTITY st15 "fill:url(#aigrd20);stroke:none;">
	<!ENTITY st16 "fill:url(#aigrd18);stroke:none;">
	<!ENTITY st17 "stroke-width:0.8572;">
	<!ENTITY st18 "fill:url(#aigrd5);stroke:none;">
	<!ENTITY st19 "fill:url(#aigrd15);stroke:none;">
	<!ENTITY st20 "fill:url(#aigrd2);stroke:none;">
	<!ENTITY st21 "fill:none;stroke:none;">
	<!ENTITY st22 "fill:url(#aigrd12);stroke:none;">
	<!ENTITY st23 "fill:url(#aigrd22);stroke:none;">
	<!ENTITY st24 "fill-rule:nonzero;clip-rule:nonzero;stroke:#000000;stroke-miterlimit:4;">
	<!ENTITY st25 "fill:url(#aigrd7);stroke:none;">
	<!ENTITY st26 "fill:url(#aigrd17);stroke:none;">
	<!ENTITY st27 "opacity:9.000000e-002;stroke:none;">
	<!ENTITY st28 "fill:url(#aigrd4);stroke:none;">
]>
<svg  width="24pt" height="24pt" viewBox="0 0 24 24" xml:space="preserve">
	<g id="Layer_x0020_3" style="&st24;">
		<path style="&st17;" d="M5.6,2.1c-1.9,0.8-3,2-3,3.4v3.1c0,0.5,0.2,1.3,0.9,2.1c0,0.7,0,8.1,0,8.1c0,1.2,1,2.3,2.7,3.1c1.5,0.7,3.6,1,5.7,1c2.1,0,4.2-0.4,5.7-1c1.8-0.8,2.7-1.9,2.7-3.1c0,0,0-7.4,0-8.1c0.7-0.8,0.9-1.5,0.9-2V5.5c0-1.3-1.1-2.6-3-3.4
			c-1.7-0.7-4-1.2-6.3-1.2C9.5,1,7.3,1.4,5.6,2.1z"/>
		<linearGradient id="aigrd1" gradientUnits="userSpaceOnUse" x1="9.375" y1="12.1948" x2="19.0412" y2="12.1434">
			<stop  offset="0" style="stop-color:#BBBBBB"/>
			<stop  offset="1" style="stop-color:#707070"/>
		</linearGradient>
		<path style="&st2;" d="M11.9,2.5C7.8,2.5,4.4,4,4.4,5.8v12.8c0,1.8,3.4,3.3,7.6,3.3s7.6-1.5,7.6-3.3V5.8c0-1.8-3.4-3.3-7.6-3.3z"/>
		<linearGradient id="aigrd2" gradientUnits="userSpaceOnUse" x1="6.3672" y1="18.582" x2="7.8169" y2="11.3337">
			<stop  offset="0" style="stop-color:#BBBBBB"/>
			<stop  offset="1" style="stop-color:#F3F3F3"/>
		</linearGradient>
		<path style="&st20;" d="M5.5,10.3v8.3L8.8,19v-8.1l-3.4-0.6z"/>
		<path style="&st27;" d="M19.4,13.2c-0.3-1.9-5.3-0.3-7.2-1.1l7.2-2.3c0,0,0.3,5.2,0,3.4z"/>
		<linearGradient id="aigrd3" gradientUnits="userSpaceOnUse" x1="5.3154" y1="6.9414" x2="14.3216" y2="6.9414">
			<stop  offset="0" style="stop-color:#BBBBBB"/>
			<stop  offset="1" style="stop-color:#707070"/>
		</linearGradient>
		<path style="&st10;" d="M11.9,1.7c-4.7,0-8.5,1.7-8.5,3.7v3.1c0,2,3.8,3.7,8.5,3.7c4.7,0,8.5-1.7,8.5-3.7V5.4c0-2-3.8-3.7-8.5-3.7z"/>
		<linearGradient id="aigrd4" gradientUnits="userSpaceOnUse" x1="6.9785" y1="5.248" x2="16.1905" y2="5.1451">
			<stop  offset="0" style="stop-color:#4E4E4E"/>
			<stop  offset="1" style="stop-color:#707070"/>
		</linearGradient>
		<path style="&st28;" d="M19,5.2c0,1.5-3.1,2.7-7,2.7c-3.8,0-7-1.2-7-2.7s3.1-2.7,7-2.7c3.8,0,7,1.2,7,2.7z"/>
		<path style="&st0;" d="M3.9,5.1C4.1,6.7,6,9,13.8,9.1C7.9,9.7,3.2,8,3.9,5.1z"/>
		<path style="&st6;" d="M17.6,6.9c3.2-2.3-1.8-5.3-9.1-4.1c6.5-1.8,14.4,1.5,9.1,4.1z"/>
		<g>
			<linearGradient id="aigrd5" gradientUnits="userSpaceOnUse" x1="9.855" y1="10.8408" x2="9.855" y2="7.6162">
				<stop  offset="0" style="stop-color:#C5C5C5"/>
				<stop  offset="0.2838" style="stop-color:#D1D1D1"/>
				<stop  offset="0.7942" style="stop-color:#F0F0F0"/>
				<stop  offset="1" style="stop-color:#FFFFFF"/>
			</linearGradient>
			<path style="&st18;" d="M10.4,7.3l0.5-0.2c-0.7-0.9-1.2-1.8-1.2-2.4C9.3,5,8.9,5.3,8.5,5.6h1.1v2.1c0.5,0.1,1,0.1,1.6,0.1l0,0l-0.7-0.6z"/>
			<linearGradient id="aigrd6" gradientUnits="userSpaceOnUse" x1="8.3364" y1="10.8398" x2="8.3364" y2="7.6163">
				<stop  offset="0" style="stop-color:#C5C5C5"/>
				<stop  offset="0.2838" style="stop-color:#D1D1D1"/>
				<stop  offset="0.7942" style="stop-color:#F0F0F0"/>
				<stop  offset="1" style="stop-color:#FFFFFF"/>
			</linearGradient>
			<path style="&st8;" d="M7.3,7.2c0.6,0.2,1.3,0.4,2,0.5L7.8,6.5C7.6,6.8,7.5,7,7.3,7.2z"/>
			<linearGradient id="aigrd7" gradientUnits="userSpaceOnUse" x1="7.915" y1="4.6162" x2="7.2093" y2="8.0978">
				<stop  offset="0" style="stop-color:#C5C5C5"/>
				<stop  offset="1" style="stop-color:#FFFFFF"/>
			</linearGradient>
			<path style="&st25;" d="M7.7,5.6l1.5-0.7L8.5,4.5l0.4-0.9L6.4,5.5l1.4,1.1C8,6.2,8.3,5.9,8.5,5.6H7.7z"/>
			<linearGradient id="aigrd8" gradientUnits="userSpaceOnUse" x1="8.6973" y1="10.8408" x2="8.6973" y2="7.6162">
				<stop  offset="0" style="stop-color:#C5C5C5"/>
				<stop  offset="0.2838" style="stop-color:#D1D1D1"/>
				<stop  offset="0.7942" style="stop-color:#F0F0F0"/>
				<stop  offset="1" style="stop-color:#FFFFFF"/>
			</linearGradient>
			<path style="&st14;" d="M8.5,5.6C8.3,5.9,8,6.2,7.8,6.5l1.5,1.2c0.1,0,0.2,0,0.3,0V5.6H8.5z"/>
			<linearGradient id="aigrd9" gradientUnits="userSpaceOnUse" x1="9.1582" y1="4.8682" x2="8.4524" y2="8.3501">
				<stop  offset="0" style="stop-color:#C5C5C5"/>
				<stop  offset="1" style="stop-color:#FFFFFF"/>
			</linearGradient>
			<path style="&st4;" d="M8.5,5.6C8.3,5.9,8,6.2,7.8,6.5l1.5,1.2c0.1,0,0.2,0,0.3,0V5.6H8.5z"/>
			<linearGradient id="aigrd10" gradientUnits="userSpaceOnUse" x1="11.9136" y1="5.9185" x2="10.9624" y2="10.6107">
				<stop  offset="0" style="stop-color:#C5C5C5"/>
				<stop  offset="1" style="stop-color:#FFFFFF"/>
			</linearGradient>
			<path style="&st13;" d="M12.6,5.1c-0.4,0.1-0.9,0.2-1.4,0.4c0.5,0.5,0.9,1,1.3,1.5c0.3-0.5,0.4-1.1,0.1-1.9z"/>
			<linearGradient id="aigrd11" gradientUnits="userSpaceOnUse" x1="15.3711" y1="6.6543" x2="14.449" y2="11.2032">
				<stop  offset="0" style="stop-color:#C5C5C5"/>
				<stop  offset="1" style="stop-color:#FFFFFF"/>
			</linearGradient>
			<path style="&st3;" d="M13,5.1c0.7,0.9,1.5,2.1,1.9,2.6c1.4-0.2,2.6-0.7,3.3-1.2C17.7,6,16.3,4.4,13,5.1z"/>
			<linearGradient id="aigrd12" gradientUnits="userSpaceOnUse" x1="11.2456" y1="-4.589844e-002" x2="10.9559" y2="1.3835" gradientTransform="matrix(0.7871 0.6168 -0.6168 0.7871 2.8878 0.176)">
				<stop  offset="0" style="stop-color:#C5C5C5"/>
				<stop  offset="1" style="stop-color:#FFFFFF"/>
			</linearGradient>
			<path style="&st22;" d="M12.1,7.5L12,7.4l0.1-0.7l-1.2,0.4c0.2,0.3,0.4,0.5,0.6,0.8c0.2-0.1,0.4-0.2,0.5-0.4z"/>
			<linearGradient id="aigrd13" gradientUnits="userSpaceOnUse" x1="10.9629" y1="10.8394" x2="10.9629" y2="7.6167">
				<stop  offset="0" style="stop-color:#C5C5C5"/>
				<stop  offset="0.2838" style="stop-color:#D1D1D1"/>
				<stop  offset="0.7942" style="stop-color:#F0F0F0"/>
				<stop  offset="1" style="stop-color:#FFFFFF"/>
			</linearGradient>
			<path style="&st11;" d="M10.9,7.1l-0.5,0.2l0.7,0.6l0,0c0.1,0,0.2,0,0.3,0c0,0,0,0,0,0c-0.2-0.3-0.4-0.5-0.6-0.8z"/>
			<linearGradient id="aigrd14" gradientUnits="userSpaceOnUse" x1="11.1309" y1="-7.031250e-002" x2="10.841" y2="1.3595" gradientTransform="matrix(0.7871 0.6168 -0.6168 0.7871 2.8878 0.176)">
				<stop  offset="0" style="stop-color:#C5C5C5"/>
				<stop  offset="1" style="stop-color:#FFFFFF"/>
			</linearGradient>
			<path style="&st1;" d="M10.9,7.1l-0.5,0.2l0.7,0.6l0,0c0.1,0,0.2,0,0.3,0c0,0,0,0,0,0c-0.2-0.3-0.4-0.5-0.6-0.8z"/>
			<linearGradient id="aigrd15" gradientUnits="userSpaceOnUse" x1="12.4839" y1="8.0845" x2="12.4839" y2="5.8494">
				<stop  offset="0" style="stop-color:#C5C5C5"/>
				<stop  offset="0.2838" style="stop-color:#D1D1D1"/>
				<stop  offset="0.7942" style="stop-color:#F0F0F0"/>
				<stop  offset="1" style="stop-color:#FFFFFF"/>
			</linearGradient>
			<path style="&st19;" d="M12.3,4.5c0.1,0.2,0.2,0.4,0.3,0.6c0.1,0,0.2-0.1,0.4-0.1c-0.8-1.2-1.5-1.9-0.6-0.5z"/>
			<linearGradient id="aigrd16" gradientUnits="userSpaceOnUse" x1="12.5386" y1="8.084" x2="12.5386" y2="5.8506">
				<stop  offset="0" style="stop-color:#C5C5C5"/>
				<stop  offset="0.2838" style="stop-color:#D1D1D1"/>
				<stop  offset="0.7942" style="stop-color:#F0F0F0"/>
				<stop  offset="1" style="stop-color:#FFFFFF"/>
			</linearGradient>
			<path style="&st9;" d="M12.1,7.5l0.3,0.4c0.2,0,0.4,0,0.7,0c-0.1-0.3-0.3-0.6-0.5-0.9c-0.1,0.2-0.3,0.3-0.4,0.5z"/>
			<linearGradient id="aigrd17" gradientUnits="userSpaceOnUse" x1="13.748" y1="6.29" x2="12.7968" y2="10.9825">
				<stop  offset="0" style="stop-color:#C5C5C5"/>
				<stop  offset="1" style="stop-color:#FFFFFF"/>
			</linearGradient>
			<path style="&st26;" d="M12.6,5.1c0.3,0.8,0.2,1.4-0.1,1.9c0.2,0.3,0.4,0.6,0.5,0.9c0.6,0,1.3-0.1,1.8-0.2C14.4,7.1,13.6,6,13,5.1c-0.1,0-0.2,0-0.4,0.1z"/>
			<linearGradient id="aigrd18" gradientUnits="userSpaceOnUse" x1="13.6582" y1="8.0845" x2="13.6582" y2="5.8496">
				<stop  offset="0" style="stop-color:#C5C5C5"/>
				<stop  offset="0.2838" style="stop-color:#D1D1D1"/>
				<stop  offset="0.7942" style="stop-color:#F0F0F0"/>
				<stop  offset="1" style="stop-color:#FFFFFF"/>
			</linearGradient>
			<path style="&st16;" d="M12.6,5.1c0.3,0.8,0.2,1.4-0.1,1.9c0.2,0.3,0.4,0.6,0.5,0.9c0.6,0,1.3-0.1,1.8-0.2C14.4,7.1,13.6,6,13,5.1c-0.1,0-0.2,0-0.4,0.1z"/>
			<linearGradient id="aigrd19" gradientUnits="userSpaceOnUse" x1="11.9902" y1="0.105" x2="11.7005" y2="1.5342" gradientTransform="matrix(0.7871 0.6168 -0.6168 0.7871 2.8878 0.176)">
				<stop  offset="0" style="stop-color:#C5C5C5"/>
				<stop  offset="1" style="stop-color:#FFFFFF"/>
			</linearGradient>
			<path style="&st7;" d="M11.5,7.9c0,0,0,0,0,0c0.2,0,0.3,0,0.5,0c0.1,0,0.2,0,0.4,0l-0.3-0.4c-0.2,0.2-0.4,0.3-0.5,0.4z"/>
			<linearGradient id="aigrd20" gradientUnits="userSpaceOnUse" x1="11.9453" y1="8.084" x2="11.9453" y2="5.8516">
				<stop  offset="0" style="stop-color:#C5C5C5"/>
				<stop  offset="0.2838" style="stop-color:#D1D1D1"/>
				<stop  offset="0.7942" style="stop-color:#F0F0F0"/>
				<stop  offset="1" style="stop-color:#FFFFFF"/>
			</linearGradient>
			<path style="&st15;" d="M11.5,7.9c0,0,0,0,0,0c0.2,0,0.3,0,0.5,0c0.1,0,0.2,0,0.4,0l-0.3-0.4c-0.2,0.2-0.4,0.3-0.5,0.4z"/>
			<linearGradient id="aigrd21" gradientUnits="userSpaceOnUse" x1="11.5337" y1="10.9165" x2="11.5337" y2="7.6087">
				<stop  offset="0" style="stop-color:#C5C5C5"/>
				<stop  offset="0.2838" style="stop-color:#D1D1D1"/>
				<stop  offset="0.7942" style="stop-color:#F0F0F0"/>
				<stop  offset="1" style="stop-color:#FFFFFF"/>
			</linearGradient>
			<path style="&st5;" d="M11.5,7.9c0,0,0,0,0,0c0,0,0,0,0,0c0,0,0,0,0,0z"/>
			<linearGradient id="aigrd22" gradientUnits="userSpaceOnUse" x1="11.7295" y1="6.396484e-002" x2="11.4444" y2="1.4702" gradientTransform="matrix(0.7871 0.6168 -0.6168 0.7871 2.8878 0.176)">
				<stop  offset="0" style="stop-color:#C5C5C5"/>
				<stop  offset="1" style="stop-color:#FFFFFF"/>
			</linearGradient>
			<path style="&st23;" d="M11.5,7.9c0,0,0,0,0,0c0,0,0,0,0,0c0,0,0,0,0,0z"/>
			<linearGradient id="aigrd23" gradientUnits="userSpaceOnUse" x1="11.5337" y1="8.0879" x2="11.5337" y2="5.7958">
				<stop  offset="0" style="stop-color:#C5C5C5"/>
				<stop  offset="0.2838" style="stop-color:#D1D1D1"/>
				<stop  offset="0.7942" style="stop-color:#F0F0F0"/>
				<stop  offset="1" style="stop-color:#FFFFFF"/>
			</linearGradient>
			<path style="&st12;" d="M11.5,7.9c0,0,0,0,0,0c0,0,0,0,0,0c0,0,0,0,0,0z"/>
		</g>
	</g>
	<g id="Layer_x0020_2" style="&st24;">
		<path style="&st21;" d="M24,24H0V0h24v24z"/>
	</g>
</svg>
