<?xml version="1.0" encoding="iso-8859-1"?>
<!-- Generator: Adobe Illustrator 9.0, SVG Export Plug-In  -->
<!DOCTYPE svg PUBLIC "-//W3C//DTD SVG 20000303 Stylable//EN"   "http://www.w3.org/TR/2000/03/WD-SVG-20000303/DTD/svg-20000303-stylable.dtd" [
	<!ENTITY st0 "fill:url(#aigrd1);stroke:none;">
	<!ENTITY st1 "opacity:0.18;">
	<!ENTITY st2 "opacity:0.27;">
	<!ENTITY st3 "fill:url(#aigrd6);stroke:none;">
	<!ENTITY st4 "fill:url(#aigrd3);stroke:none;">
	<!ENTITY st5 "opacity:0.1;">
	<!ENTITY st6 "stroke-width:0.9174;">
	<!ENTITY st7 "fill:url(#aigrd5);stroke:none;">
	<!ENTITY st8 "opacity:0.16;fill:#FFFFFF;stroke:none;">
	<!ENTITY st9 "fill:url(#aigrd2);stroke:none;">
	<!ENTITY st10 "fill:none;stroke:none;">
	<!ENTITY st11 "fill-rule:nonzero;clip-rule:nonzero;stroke:#000000;stroke-miterlimit:4;">
	<!ENTITY st12 "stroke:none;">
	<!ENTITY st13 "opacity:9.000000e-002;stroke:none;">
	<!ENTITY st14 "fill:url(#aigrd4);stroke:none;">
]>
<svg  width="24pt" height="24pt" viewBox="0 0 24 24" xml:space="preserve">
	<g id="Layer_x0020_1" style="&st11;">
		<path style="&st6;" d="M2.4,9.2c-0.7,0-1.3,0.6-1.3,1.3v9.6c0,0.7,0.6,1.3,1.3,1.3h19.1c0.7,0,1.3-0.6,1.3-1.3v-9.6c0-0.7-0.6-1.3-1.3-1.3H2.4z"/>
		<path style="&st6;" d="M3.1,19c-0.7,0-1.3,0.6-1.3,1.3v0.8c0,0.7,0.6,1.3,1.3,1.3h17.5c0.7,0,1.3-0.6,1.3-1.3v-0.8c0-0.7-0.6-1.3-1.3-1.3H3.1z"/>
		<linearGradient id="aigrd1" gradientUnits="userSpaceOnUse" x1="11.8486" y1="19.9717" x2="11.8486" y2="21.3586">
			<stop  offset="0" style="stop-color:#7C7C7C"/>
			<stop  offset="0.4065" style="stop-color:#797979"/>
			<stop  offset="0.7202" style="stop-color:#6F6F6F"/>
			<stop  offset="1" style="stop-color:#5F5F5F"/>
		</linearGradient>
		<path style="&st0;" d="M21,21.1c0,0.2-0.2,0.4-0.4,0.4H3.1c-0.2,0-0.4-0.2-0.4-0.4v-0.8c0-0.2,0.2-0.4,0.4-0.4h17.5c0.2,0,0.4,0.2,0.4,0.4v0.8z"/>
		<linearGradient id="aigrd2" gradientUnits="userSpaceOnUse" x1="11.9058" y1="10.478" x2="11.9058" y2="20.1592">
			<stop  offset="0" style="stop-color:#CACACA"/>
			<stop  offset="3.315715e-002" style="stop-color:#C5C5C5"/>
			<stop  offset="0.1195" style="stop-color:#BEBEBE"/>
			<stop  offset="0.3596" style="stop-color:#BCBCBC"/>
			<stop  offset="0.3695" style="stop-color:#C3C3C3"/>
			<stop  offset="0.3911" style="stop-color:#CBCBCB"/>
			<stop  offset="0.4326" style="stop-color:#CDCDCD"/>
			<stop  offset="0.5" style="stop-color:#909090"/>
			<stop  offset="0.9326" style="stop-color:#8B8B8B"/>
			<stop  offset="1" style="stop-color:#737373"/>
		</linearGradient>
		<path style="&st9;" d="M21.8,20.1c0,0.2-0.2,0.4-0.4,0.4H2.4c-0.2,0-0.4-0.2-0.4-0.4v-9.6c0-0.2,0.2-0.4,0.4-0.4h19.1c0.2,0,0.4,0.2,0.4,0.4v9.6z"/>
		<path style="&st6;" d="M5.3,1.3C4.6,1.3,4,1.9,4,2.6v10h15.9v-10c0-0.7-0.6-1.3-1.3-1.3H5.3z"/>
		<linearGradient id="aigrd3" gradientUnits="userSpaceOnUse" x1="11.9614" y1="13.1299" x2="11.9614" y2="12.0555">
			<stop  offset="0" style="stop-color:#7E7E7E"/>
			<stop  offset="0.3534" style="stop-color:#585858"/>
			<stop  offset="1" style="stop-color:#161616"/>
		</linearGradient>
		<path style="&st4;" d="M20.7,12.6c0,0.2-0.2,0.4-0.4,0.4H3.6c-0.2,0-0.4-0.2-0.4-0.4v-0.5c0-0.2,0.2-0.4,0.4-0.4h16.7c0.2,0,0.4,0.2,0.4,0.4v0.5z"/>
		<linearGradient id="aigrd4" gradientUnits="userSpaceOnUse" x1="11.939" y1="2.7632" x2="11.939" y2="11.5125">
			<stop  offset="0" style="stop-color:#F0F0F0"/>
			<stop  offset="0.1955" style="stop-color:#FBFBFB"/>
			<stop  offset="0.4045" style="stop-color:#FFFFFF"/>
			<stop  offset="0.7475" style="stop-color:#F1F1F1"/>
			<stop  offset="1" style="stop-color:#E4E4E4"/>
		</linearGradient>
		<path style="&st14;" d="M19,12.3H4.9V2.7c0-0.2,0.2-0.4,0.4-0.4h13.3c0.2,0,0.4,0.2,0.4,0.4v9.6z"/>
		<g style="&st12;">
			<path style="&st2;" d="M17.3,10.4H6.8V9h10.5v1.3z"/>
			<path style="&st5;" d="M17.3,7.7H6.8V6.4h10.5v1.3z"/>
			<path style="&st1;" d="M17.3,5H6.8V3.7h10.5V5z"/>
		</g>
		<linearGradient id="aigrd5" gradientUnits="userSpaceOnUse" x1="11.939" y1="11.1455" x2="11.939" y2="12.2036">
			<stop  offset="0" style="stop-color:#E2E2E2"/>
			<stop  offset="0.1771" style="stop-color:#D4D4D4"/>
			<stop  offset="0.5109" style="stop-color:#B0B0B0"/>
			<stop  offset="0.9628" style="stop-color:#757575"/>
			<stop  offset="1" style="stop-color:#707070"/>
		</linearGradient>
		<path style="&st7;" d="M4.9,12.3H19v-1.2H4.9v1.2z"/>
		<linearGradient id="aigrd6" gradientUnits="userSpaceOnUse" x1="12.0518" y1="14.124" x2="12.0518" y2="20.2688">
			<stop  offset="0" style="stop-color:#BDBDBD"/>
			<stop  offset="0.3989" style="stop-color:#CFCFCF"/>
			<stop  offset="0.4341" style="stop-color:#C0C0C0"/>
			<stop  offset="0.4898" style="stop-color:#AFAFAF"/>
			<stop  offset="0.5592" style="stop-color:#A3A3A3"/>
			<stop  offset="0.6566" style="stop-color:#9C9C9C"/>
			<stop  offset="0.927" style="stop-color:#9B9B9B"/>
			<stop  offset="1" style="stop-color:#737373"/>
		</linearGradient>
		<path style="&st3;" d="M20.2,20c0,0.3-0.2,0.5-0.5,0.5H4.4c-0.3,0-0.5-0.2-0.5-0.5v-5.7c0-0.3,0.2-0.5,0.5-0.5h15.4c0.3,0,0.5,0.2,0.5,0.5V20z"/>
		<path style="&st13;" d="M20.2,20v-5.7c0-0.3-0.2-0.5-0.5-0.5v6.6c0.2,0,0.5-0.2,0.5-0.5z"/>
		<path style="&st8;" d="M3.9,14.3V20c0,0.3,0.2,0.5,0.5,0.5v-6.6c-0.2,0-0.5,0.2-0.5,0.5z"/>
	</g>
	<g id="Layer_x0020_2" style="&st11;">
		<path style="&st10;" d="M24,24H0V0h24v24z"/>
	</g>
</svg>
