<?xml version="1.0" encoding="iso-8859-1"?>
<!-- Generator: Adobe Illustrator 9.0, SVG Export Plug-In  -->
<!DOCTYPE svg PUBLIC "-//W3C//DTD SVG 20000303 Stylable//EN"   "http://www.w3.org/TR/2000/03/WD-SVG-20000303/DTD/svg-20000303-stylable.dtd" [
	<!ENTITY st0 "fill:#F0DC99;stroke:none;">
	<!ENTITY st1 "opacity:0.2;fill:url(#aigrd1);stroke:none;">
	<!ENTITY st2 "fill:none;stroke:none;">
	<!ENTITY st3 "stroke-width:0.909;">
	<!ENTITY st4 "fill-rule:nonzero;clip-rule:nonzero;stroke:#000000;stroke-miterlimit:4;">
]>
<svg  width="24pt" height="24pt" viewBox="0 0 24 24" xml:space="preserve">
	<g id="Layer_x0020_1" style="&st4;">
		<path style="&st3;" d="M13.6,1.5l7.9,8l0,0c0.1,0.1,0.4,0.4,0.4,0.9c0,0.5-0.3,0.7-0.4,0.9l-7.9,7.9c-0.3,0.3-0.7,0.4-1.1,0.2c-0.4-0.2-0.6-0.5-0.6-0.9c0,0,0-2.6,0-3.8c-0.6,0-1.3,0-1.3,0c-0.2,0-0.7,0.1-1,0.3C9.2,15.2,9,15.4,9,15.9v2.1c0,0.7,1.2,1.2,2,1.6
			c0.3,0.2,0.6,0.3,0.8,0.4c0.5,0.3,0.7,0.7,0.7,1.1c0,0.9-0.8,1.5-1.5,1.7l-0.1,0H8.2c-1.5,0-2.9-0.7-3.8-2c-0.8-1.1-1.2-2.5-1.2-4v-3.5C3.2,11,3.8,9.2,5,8c1.1-1.2,2.8-1.8,4.7-1.8c0,0,1.2,0,2.1,0c0-1.2,0-3.9,0-3.9c0-0.4,0.2-0.8,0.6-1c0.4-0.2,0.9-0.1,1.2,0.2z
			"/>
		<path style="&st0;" d="M12.7,2.2c0-0.1,0.2-0.2,0.2-0.1l7.9,8c0.2,0.2,0.2,0.3,0,0.5l-7.9,7.9c-0.1,0.1-0.2,0-0.2-0.1v-4.7h-2.2c-0.7,0-2.5,0.3-2.5,2.1v2.1c0,2,3.6,2.5,3.6,3.2c0,0.6-0.8,0.8-0.8,0.8H8.2c-2.7,0-4.1-2.6-4.1-5.1v-3.5C4.1,9.1,6.4,7,9.7,7h3l0-4.8
			z"/>
		<linearGradient id="aigrd1" gradientUnits="userSpaceOnUse" x1="-12.0366" y1="15.8672" x2="-12.0366" y2="10.834" gradientTransform="matrix(-1 0 0 1 0.9932 0)">
			<stop  offset="0" style="stop-color:#FFBA00"/>
			<stop  offset="1" style="stop-color:#000000"/>
		</linearGradient>
		<path style="&st1;" d="M19.8,10.4H9.4c-1.6,0-3.1,1.7-3.1,3.1v5.3c0-3.4,1.4-6.2,2.9-6.2h4.3v3.8l6.4-5.9z"/>
	</g>
	<g id="Layer_x0020_2" style="&st4;">
		<path style="&st2;" d="M24,24H0V0h24v24z"/>
	</g>
</svg>
