<?xml version="1.0" encoding="iso-8859-1"?>
<!-- Generator: Adobe Illustrator 9.0, SVG Export Plug-In  -->
<!DOCTYPE svg PUBLIC "-//W3C//DTD SVG 20000303 Stylable//EN"   "http://www.w3.org/TR/2000/03/WD-SVG-20000303/DTD/svg-20000303-stylable.dtd" [
	<!ENTITY st0 "fill-rule:nonzero;clip-rule:nonzero;fill:none;stroke:#FFFFFF;stroke-width:2.1609;stroke-linecap:round;stroke-linejoin:round;stroke-miterlimit:4;">
	<!ENTITY st1 "fill-rule:evenodd;clip-rule:evenodd;fill:url(#aigrd1);stroke:none;">
	<!ENTITY st2 "fill:#000000;stroke:#000000;stroke-width:1.0388;stroke-linecap:butt;stroke-linejoin:miter;">
	<!ENTITY st3 "fill:none;stroke:none;">
	<!ENTITY st4 "fill-rule:nonzero;clip-rule:nonzero;stroke:#000000;stroke-miterlimit:4;">
]>
<svg  width="24pt" height="24pt" viewBox="0 0 24 24" xml:space="preserve">
	<g id="Layer_x0020_4" style="&st4;">
		<path style="&st3;" d="M24,24H0V0h24v24z"/>
	</g>
	<g id="Layer_x0020_3" style="&st0;">
		<path style="&st2;" d="M1.3,12.2c0,6,4.9,10.9,10.9,10.9c6,0,10.9-4.9,10.9-10.9c0-6-4.9-10.9-10.9-10.9c-6,0-10.9,4.9-10.9,10.9z"/>
		<radialGradient id="aigrd1" cx="8.9468" cy="8.1943" r="13.5165" fx="8.9468" fy="8.1943" gradientUnits="userSpaceOnUse">
			<stop  offset="0" style="stop-color:#FED182"/>
			<stop  offset="0.2809" style="stop-color:#FFB310"/>
			<stop  offset="1" style="stop-color:#996E04"/>
		</radialGradient>
		<path style="&st1;" d="M21.3,12.1c0,5.1-4.1,9.3-9.3,9.3c-5.1,0-9.3-4.1-9.3-9.3S6.9,2.8,12,2.8c5.1,0,9.3,4.1,9.3,9.3z"/>
		<path d="M12.1,7.9v8.4"/>
		<path d="M7.9,12.1h8.4"/>
	</g>
</svg>
