<?xml version="1.0" encoding="iso-8859-1"?>
<!-- Generator: Adobe Illustrator 9.0, SVG Export Plug-In  -->
<!DOCTYPE svg PUBLIC "-//W3C//DTD SVG 20000303 Stylable//EN"   "http://www.w3.org/TR/2000/03/WD-SVG-20000303/DTD/svg-20000303-stylable.dtd" [
	<!ENTITY st0 "opacity:0.47;fill:url(#aigrd4);stroke:none;">
	<!ENTITY st1 "fill:url(#aigrd1);stroke:none;">
	<!ENTITY st2 "fill:#000000;stroke:none;">
	<!ENTITY st3 "opacity:0.54;stroke-width:0.9085;">
	<!ENTITY st4 "fill:url(#aigrd3);stroke:none;">
	<!ENTITY st5 "fill:#919191;stroke:none;">
	<!ENTITY st6 "opacity:0.5;">
	<!ENTITY st7 "fill:url(#aigrd2);stroke:none;">
	<!ENTITY st8 "fill:none;stroke:none;">
	<!ENTITY st9 "fill:#000000;stroke:#000000;stroke-width:0.9085;stroke-linecap:butt;">
	<!ENTITY st10 "fill-rule:nonzero;clip-rule:nonzero;stroke:#000000;stroke-miterlimit:4;">
	<!ENTITY st11 "fill-rule:nonzero;clip-rule:nonzero;fill:none;stroke:#FFFFFF;stroke-width:0.4543;stroke-linecap:round;stroke-miterlimit:4;">
]>
<svg  width="24pt" height="23.9pt" viewBox="0 0 24 23.9" xml:space="preserve">
	<g id="Layer_x0020_3" style="&st11;">
		<path style="&st9;" d="M3.7,1.1c-0.8,0-1.4,0.6-1.4,1.4v19.1c0,0.7,0.5,1.3,1.3,1.3h16.8c0.7,0,1.3-0.6,1.3-1.3V5.4c0-0.6-0.2-1.1-0.5-1.4l-2.3-2.3c-0.4-0.4-1.1-0.7-1.7-0.7H3.7z"/>
		<linearGradient id="aigrd1" gradientUnits="userSpaceOnUse" x1="18.5986" y1="20.0044" x2="4.1007" y2="5.1644">
			<stop  offset="0" style="stop-color:#E4E4E4"/>
			<stop  offset="1" style="stop-color:#FEFEFE"/>
		</linearGradient>
		<path style="&st1;" d="M17.1,1.9H3.7c-0.4,0-0.5,0.3-0.5,0.5v19.1c0,0.2,0.1,0.4,0.5,0.4h16.8c0.2,0,0.4-0.2,0.4-0.4V5.4c0-0.4-0.1-0.6-0.3-0.8l-2.3-2.3c-0.3-0.3-0.7-0.4-1.1-0.4z"/>
		<linearGradient id="aigrd2" gradientUnits="userSpaceOnUse" x1="3.874" y1="4.8745" x2="18.5451" y2="19.9254">
			<stop  offset="0" style="stop-color:#E4E4E4"/>
			<stop  offset="1" style="stop-color:#FEFEFE"/>
		</linearGradient>
		<path style="&st7;" d="M4,2.8c0,1.5,0,16.9,0,18.3c1.5,0,14.5,0,16,0c0-1.5,0-15.2,0-15.9c-0.4-0.4-2.1-2.1-2.5-2.5c-0.6,0-12,0-13.5,0z"/>
		<path style="&st2;" d="M4.4,10.3c0,3.2,2.6,5.9,5.9,5.9c0.9,0,1.9-0.2,2.7-0.7c0.1,0.1,0.2,0.3,0.3,0.4l3.2,3.2c0.7,0.7,1.8,0.7,2.6,0c0.4-0.4,0.5-0.8,0.5-1.3c0-0.5-0.2-0.9-0.5-1.3l-3.2-3.2c-0.1-0.1-0.3-0.2-0.4-0.3c0.4-0.8,0.7-1.8,0.7-2.8
			c0-3.2-2.6-5.9-5.9-5.9c-3.2,0-5.9,2.6-5.9,5.9z M7.2,10.3c0-1.7,1.4-3.1,3.1-3.1c1.7,0,3.1,1.4,3.1,3.1c0,1.7-1.4,3.1-3.1,3.1c-1.7,0-3.1-1.4-3.1-3.1z"/>
		<path style="&st5;" d="M18.6,17.1l-3.2-3.2c-0.3-0.3-0.7-0.4-1.1-0.3c0.7-0.9,1.2-2,1.2-3.3c0-2.8-2.3-5.1-5.1-5.1s-5.1,2.3-5.1,5.1s2.3,5.1,5.1,5.1c1.2,0,2.4-0.4,3.3-1.2c-0.1,0.4,0,0.8,0.3,1.1l3.2,3.2c0.4,0.4,1.1,0.4,1.5,0c0.4-0.4,0.4-1.1,0-1.5z M10.3,14.1
			c-2.1,0-3.8-1.7-3.8-3.8c0-2.1,1.7-3.8,3.8-3.8c2.1,0,3.8,1.7,3.8,3.8c0,2.1-1.7,3.8-3.8,3.8z"/>
		<linearGradient id="aigrd3" gradientUnits="userSpaceOnUse" x1="16.9707" y1="15.4409" x2="15.438" y2="16.9736">
			<stop  offset="0" style="stop-color:#304A2F"/>
			<stop  offset="0.3315" style="stop-color:#6FAB6C"/>
			<stop  offset="1" style="stop-color:#304A2F"/>
		</linearGradient>
		<path style="&st4;" d="M15.4,13.8l-1.5,1.5l3.2,3.2l1.5-1.5l-3.2-3.2z"/>
		<path style="&st3;" d="M14.9,14.3l3.1,3.1"/>
		<path style="&st6;" d="M5.4,10.2c0-2.6,2.1-4.8,4.8-4.8"/>
		<path style="&st6;" d="M14.4,10.2c0,2.3-1.9,4.2-4.2,4.2"/>
		<radialGradient id="aigrd4" cx="9.7275" cy="9.5425" r="4.0488" fx="9.7275" fy="9.5425" gradientUnits="userSpaceOnUse">
			<stop  offset="0" style="stop-color:#FFFFFF"/>
			<stop  offset="1.256170e-002" style="stop-color:#F5F3F8"/>
			<stop  offset="7.182755e-002" style="stop-color:#C7C4D9"/>
			<stop  offset="0.1357" style="stop-color:#A19FC1"/>
			<stop  offset="0.2033" style="stop-color:#8182AF"/>
			<stop  offset="0.2758" style="stop-color:#696CA2"/>
			<stop  offset="0.355" style="stop-color:#555C99"/>
			<stop  offset="0.4444" style="stop-color:#495193"/>
			<stop  offset="0.5524" style="stop-color:#424C8F"/>
			<stop  offset="0.7303" style="stop-color:#3F4A8E"/>
			<stop  offset="0.8388" style="stop-color:#3A4A92"/>
			<stop  offset="0.997" style="stop-color:#2C499E"/>
			<stop  offset="1" style="stop-color:#2C499E"/>
		</radialGradient>
		<path style="&st0;" d="M13.4,10.3c0,1.7-1.4,3.1-3.1,3.1S7.2,12,7.2,10.3c0-1.7,1.4-3.1,3.1-3.1s3.1,1.4,3.1,3.1z"/>
	</g>
	<g id="Layer_x0020_2" style="&st10;">
		<path style="&st8;" d="M24,23.9H0V0h24v23.9z"/>
	</g>
</svg>
