#define max_toggled_width 4
#define max_toggled_height 4
static unsigned char max_toggled_bits[] = {
   0x0c, 0x0f, 0x05, 0x07 };
