#define iconify_width 7
#define iconify_height 7
static unsigned char iconify_bits[] = {
   0x04, 0x0e, 0x1c, 0x38, 0x1c, 0x0e, 0x04 };
