#define max_width 7
#define max_height 7
static unsigned char max_bits[] = {
   0x10, 0x38, 0x1c, 0x0e, 0x1c, 0x38, 0x10 };
