#define shade_t_width 11
#define shade_t_height 11
static unsigned char shade_t_bits[] = {
   0xff, 0x07, 0x01, 0x04, 0xfd, 0x05, 0xfd, 0x05, 0xfd, 0x05, 0x21, 0x04,
   0x21, 0x04, 0x71, 0x04, 0x71, 0x04, 0x01, 0x04, 0xff, 0x07 };
