#define iconify_width 9
#define iconify_height 9
static unsigned char iconify_bits[] = {
   0x00, 0x00, 0x00, 0x00, 0x00, 0x00, 0x83, 0x01, 0xc7, 0x01, 0xee, 0x00,
   0x7c, 0x00, 0x38, 0x00, 0x10, 0x00 };
