#define max_width 9
#define max_height 9
static unsigned char max_bits[] = {
   0x00, 0x00, 0x00, 0x00, 0x00, 0x00, 0x10, 0x00, 0x38, 0x00, 0x7c, 0x00,
   0xee, 0x00, 0xc7, 0x01, 0x83, 0x01 };
