<?xml version="1.0" encoding="iso-8859-1"?>
<!-- Generator: Adobe Illustrator 9.0, SVG Export Plug-In  -->
<!DOCTYPE svg PUBLIC "-//W3C//DTD SVG 20000303 Stylable//EN"   "http://www.w3.org/TR/2000/03/WD-SVG-20000303/DTD/svg-20000303-stylable.dtd" [
	<!ENTITY st0 "fill:url(#aigrd14);stroke:none;">
	<!ENTITY st1 "fill:url(#aigrd5);stroke-width:0.5137;">
	<!ENTITY st2 "fill:url(#aigrd1);stroke:none;">
	<!ENTITY st3 "fill:#F5C0A6;stroke:none;">
	<!ENTITY st4 "fill:#000000;stroke:none;">
	<!ENTITY st5 "opacity:0.15;fill:#000000;stroke:none;">
	<!ENTITY st6 "fill:url(#aigrd11);stroke:none;">
	<!ENTITY st7 "fill:url(#aigrd9);stroke:none;">
	<!ENTITY st8 "fill:url(#aigrd6);stroke:none;">
	<!ENTITY st9 "fill:url(#aigrd3);stroke:none;">
	<!ENTITY st10 "fill:url(#aigrd13);stroke:none;">
	<!ENTITY st11 "opacity:0.3;stroke:none;">
	<!ENTITY st12 "fill-rule:nonzero;clip-rule:nonzero;fill:#FFFFFF;stroke:#000000;stroke-miterlimit:4;">
	<!ENTITY st13 "fill:url(#aigrd10);stroke:none;">
	<!ENTITY st14 "fill:url(#aigrd8);stroke:none;">
	<!ENTITY st15 "opacity:0.55;stroke:none;">
	<!ENTITY st16 "fill:url(#aigrd2);stroke:none;">
	<!ENTITY st17 "fill:#BEBEBE;stroke:none;">
	<!ENTITY st18 "fill:none;stroke:none;">
	<!ENTITY st19 "fill:url(#aigrd12);stroke:none;">
	<!ENTITY st20 "fill-rule:nonzero;clip-rule:nonzero;stroke:#000000;stroke-miterlimit:4;">
	<!ENTITY st21 "fill:url(#aigrd7);stroke:none;">
	<!ENTITY st22 "stroke:none;">
	<!ENTITY st23 "fill:url(#aigrd4);stroke:none;">
]>
<svg  width="48.2pt" height="53.3pt" viewBox="0 0 48.2 53.3" xml:space="preserve">
	<g id="Layer_x0020_1" style="&st12;">
		<path style="&st4;" d="M11,8.8c-2.9,0-5.2,2.3-5.2,5.2v30.8c0,2.9,2.3,5.2,5.2,5.2h27.5c2.9,0,5.2-2.3,5.2-5.2V14c0-2.9-2.3-5.2-5.2-5.2H11z"/>
		<linearGradient id="aigrd1" gradientUnits="userSpaceOnUse" x1="15.0889" y1="13.0137" x2="34.4041" y2="46.5674">
			<stop  offset="0" style="stop-color:#F0F0F0"/>
			<stop  offset="1" style="stop-color:#D6D6D6"/>
		</linearGradient>
		<path style="&st2;" d="M41.1,44.8c0,1.6-1.3,2.8-2.8,2.8H10.8c-1.6,0-2.8-1.3-2.8-2.8V14c0-1.6,1.3-2.8,2.8-2.8h27.5c1.6,0,2.8,1.3,2.8,2.8v30.8z"/>
		<g>
			<radialGradient id="aigrd2" cx="10.7749" cy="35.9795" r="1.247" fx="10.7749" fy="35.9795" gradientUnits="userSpaceOnUse">
				<stop  offset="0" style="stop-color:#F0F0F0"/>
				<stop  offset="1" style="stop-color:#474747"/>
			</radialGradient>
			<path style="&st16;" d="M11.4,35.6c0,0.5-0.4,0.8-0.8,0.8s-0.8-0.4-0.8-0.8s0.4-0.8,0.8-0.8s0.8,0.4,0.8,0.8z"/>
			<radialGradient id="aigrd3" cx="10.7749" cy="24.1221" r="1.247" fx="10.7749" fy="24.1221" gradientUnits="userSpaceOnUse">
				<stop  offset="0" style="stop-color:#F0F0F0"/>
				<stop  offset="1" style="stop-color:#474747"/>
			</radialGradient>
			<path style="&st9;" d="M11.4,23.8c0,0.5-0.4,0.8-0.8,0.8s-0.8-0.4-0.8-0.8c0-0.5,0.4-0.8,0.8-0.8s0.8,0.4,0.8,0.8z"/>
		</g>
		<path style="&st22;" d="M13.3,47.6H13V11.8h0.4v35.8z"/>
		<linearGradient id="aigrd4" gradientUnits="userSpaceOnUse" x1="12.9697" y1="12.8047" x2="12.5467" y2="46.3331">
			<stop  offset="0" style="stop-color:#EDEDED"/>
			<stop  offset="1" style="stop-color:#CACACA"/>
		</linearGradient>
		<path style="&st23;" d="M12.9,47.6h-0.4V11.8h0.4v35.8z"/>
		<path style="&st22;" d="M9.2,15L8.6,46.6C8.2,46.2,8,45.2,8,45.2l0-31.3c0,0,0-0.8,0.7-1.7c0.7-0.9,2-1,2-1l28,0l-26.9,1.3c-1.1,0-1.7,0.5-1.9,0.8c-0.2,0.2-0.6,1-0.6,1.7z"/>
		<path style="&st17;" d="M40,43.8l0.6-31.6c0.5,0.5,0.6,1.4,0.6,1.4l0,31.3c0,0,0,0.8-0.7,1.7c-0.8,0.9-2,1-2,1l-28,0l26.9-1.3c1.1,0,1.7-0.5,1.9-0.8c0.2-0.2,0.6-1,0.6-1.7z"/>
	</g>
	<g id="Layer_x0020_2" style="&st20;">
		<path style="&st18;" d="M48.2,53.3H0V0h48.2v53.3z"/>
	</g>
	<g id="Layer_x0020_4" style="&st20;">
		<path style="&st11;" d="M34,21c-2.5-2.5-18.8-6.9-12.7,3.5c3.1,5.3-5.3,10.6-0.7,17.5c5.5,8.3,20.8-0.3,12.4-8.1C27,28.4,36.6,23.5,34,21z"/>
		<radialGradient id="aigrd5" cx="21.7808" cy="19.0679" r="29.4142" fx="21.7808" fy="19.0679" gradientUnits="userSpaceOnUse">
			<stop  offset="0" style="stop-color:#F1A988"/>
			<stop  offset="1" style="stop-color:#E13718"/>
		</radialGradient>
		<path style="&st1;" d="M33.1,19.6c-2.5-2.5-19.1-6.1-13,4.3c3.1,5.3-5.3,10.6-0.7,17.5c5.5,8.3,20.8-0.3,12.4-8.1c-6-5.5,3.9-11.1,1.4-13.6z"/>
		<path style="&st22;" d="M39.7,24.8h-1.4L33.5,20c0.1-0.1,0.1-0.2,0.1-0.4c0-0.4-0.3-0.6-0.6-0.6c-0.1,0-0.3,0-0.4,0.1l-4.9-4.9v-1.5h-0.1H26v1.7h1.5l4.9,4.9c-0.1,0.1-0.1,0.2-0.1,0.4c0,0.4,0.3,0.6,0.6,0.6c0.1,0,0.3,0,0.4-0.1l4.8,4.8v1.5h1.7v-1.7h-0.1z
			 M27.4,14.2c-0.2,0-1,0-1.2,0c0-0.2,0-1,0-1.2c0.2,0,1,0,1.2,0c0,0.2,0,1,0,1.2z M39.6,26.3c-0.2,0-1,0-1.2,0c0-0.2,0-1,0-1.2c0.2,0,1,0,1.2,0c0,0.2,0,1,0,1.2z"/>
		<path style="&st3;" d="M29.5,18.2c-10-2.7-11.3,0.4-10.2,3.3c0.7,1.8,2.2,3.8,1.7,5.7c-1.1,4.4-6.5,12.1,1.4,16.5c-6.9-5.1-1.1-13-0.5-16.1c0.5-3.1-7.8-12,7.6-9.3z"/>
		<path style="&st22;" d="M22.8,16v-1.7h-0.1h-1.6v1.5l-1.6,1.6c-0.1-0.1-0.2-0.1-0.4-0.1c-0.4,0-0.6,0.3-0.6,0.6c0,0.1,0,0.3,0.1,0.4L16.9,20h-1.5v1.7h1.7v-1.5l1.7-1.7c0.1,0.1,0.2,0.1,0.4,0.1c0.4,0,0.6-0.3,0.6-0.6c0-0.1,0-0.3-0.1-0.4l1.6-1.6h1.5z M21.3,14.6
			c0.2,0,1,0,1.2,0c0,0.2,0,1,0,1.2c-0.2,0-1,0-1.2,0c0-0.2,0-1,0-1.2z M15.6,21.5c0-0.2,0-1,0-1.2c0.2,0,0.9,0,1.2,0l0,0c0,0.2,0,1,0,1.2c-0.2,0-1,0-1.2,0z"/>
	</g>
	<g id="Layer_x0020_3" style="&st12;">
		<path style="&st5;" d="M38.1,18.4c-0.7-0.8-1.7-1.3-2.9-1.4c-3.2-0.4-7.3,1.4-10.2,3.3L23.8,21c-0.2,0.1-0.3,0.2-0.4,0.3c-0.1-0.2-0.4-0.4-0.7-0.6c-0.2-0.1-0.5-0.1-0.7-0.2c0-0.1,0.2-1.5,0.2-1.5c0.3-2.8,0-5.7-1.2-7.7h-9.8c-1.2,1.4-2.2,3.2-2.7,5v4.3
			c0.1,0.4,0.3,0.8,0.5,1.2c-0.2,0.2-0.4,0.4-0.5,0.5v8.7C8.7,31.1,8.8,31.1,9,31c0.5,0.5,1.2,0.8,2,0.8c1,0.1,2.1-0.1,3.1-0.5c0,0.1,0,0.2-0.1,0.3c-0.1,0.9,0.2,1.4,0.9,1.7c0.7,0.3,1.4,0.1,2-0.3c0.1,0.6,0.3,1.1,0.6,1.6c0.4,0.6,1,1,1.7,1.2c0.1,0.5,0.1,1.5,0,2
			c0,1.4-0.1,2.2,0.6,2.7l1.1,0.4c1.6,0,2-1.3,2.1-2.4c0-0.2,0-0.5,0.1-0.7c0-0.3,0-0.6,0.1-0.8c0.1-0.7,0.3-1.5,0.7-1.7l0.5-0.2c1.9-0.8,4.1-1.6,4.7-3.3c0.1-0.2,0.1-0.4,0.1-0.6c0,0,0-0.1,0-0.1c1.6-0.2,3-0.7,4.2-1.5c2.9-1.8,5.1-4.9,5.6-7.7c0-0.1,0-0.2,0-0.3
			c0.2-1.3-0.2-2.5-0.9-3.4z"/>
		<path style="&st4;" d="M4.8,13.9c0,1.5,0.4,3,1.2,4.5c-0.8,1-1,2.3-1,3.6c0,0.7,0.1,1.4,0.1,2l0,0.5c0,0,0,0,0,0c0,0.7-1.3,1.5-2.1,2c-0.9,0.6-2.3,1.5-2.3,2.7c0,0.3,0.1,0.6,0.3,0.9L2,30.9c0.8,0.2,1.6-0.2,3-1.1c0.6-0.3,1.5-0.9,2-1.1c0.6,0.5,1.2,0.7,2,0.8
			c1,0,2-0.3,2.9-0.9c0,0.1,0,0.2,0,0.4c0,1,0.4,1.6,1.1,1.9c0.3,0.1,0.6,0.2,0.9,0.1c0.1,0.7,0.2,1.2,0.6,1.7c0.2,0.2,0.4,0.4,0.7,0.6c0,0.5-0.1,1.3-0.2,1.8c-0.1,0.7-0.2,1.3-0.2,1.8c0,0.6,0.1,1,0.5,1.4c0.4,0.3,0.9,0.4,1.4,0.3c1.3-0.4,1.5-1.8,1.8-3.3
			c0.2-1.1,0.4-2.6,1-3.1l0.4-0.3c1.4-1.1,2.9-2.4,3.5-4.1c0.1-0.3,0.2-0.7,0.2-1c1.2-0.5,2.3-1.4,3.3-2.4c2.4-2.6,4.9-7.4,4.9-10.7c0-0.7-0.1-1.4-0.4-1.9c-0.4-0.7-1.1-1.2-1.9-1.3c-2.9-0.3-7.2,4.1-8.4,5.5c0,0-0.7,0.7-0.9,1c-0.1-0.5-0.5-0.9-0.9-1.1
			c-0.2-0.1-0.5-0.1-0.7-0.1c0-0.1,0-1.7,0-1.7c0-5.6-2.2-11.6-6.2-11.6c-4.1,0-7.4,6.4-7.4,11.6z M15.8,23.5c0.1,0,0.5,0.2,1.1,0.5c-0.6-0.1-1.1-0.2-1.1-0.2c0-0.1,0-0.1,0.1-0.3z"/>
		<linearGradient id="aigrd6" gradientUnits="userSpaceOnUse" x1="-154.2046" y1="14.582" x2="-147.7615" y2="13.5857" gradientTransform="matrix(-0.9994 -3.400000e-002 -3.400000e-002 0.9994 -127.5091 -1.0452)">
			<stop  offset="0" style="stop-color:#A3D6E2"/>
			<stop  offset="1" style="stop-color:#35AECA"/>
		</linearGradient>
		<path style="&st8;" d="M25.7,23c-3.1,3.5-7.5,3.2-8.5,1.4c-1-1.8,1.6-4.4,4.8-7.9s7-6.3,8.1-4.5c1,1.8-1.2,7.5-4.3,11z"/>
		<linearGradient id="aigrd7" gradientUnits="userSpaceOnUse" x1="-134.478" y1="9.6455" x2="-141.6935" y2="19.8042" gradientTransform="matrix(-1 0 0 1 -124.667 0)">
			<stop  offset="0" style="stop-color:#3EAACE"/>
			<stop  offset="1" style="stop-color:#2E86A1"/>
		</linearGradient>
		<path style="&st21;" d="M6.1,13.6c0,4.9,5.2,8.9,8.2,8.9s2.6-4,2.6-8.9c0-4.9-1.8-10.2-4.8-10.2s-6,5.4-6,10.2z"/>
		<radialGradient id="aigrd8" cx="23.3354" cy="8.9082" r="6.9057" fx="23.3354" fy="8.9082" gradientUnits="userSpaceOnUse">
			<stop  offset="0" style="stop-color:#787878"/>
			<stop  offset="1" style="stop-color:#313131"/>
		</radialGradient>
		<path style="&st14;" d="M19.4,15.9l0.2,0.1c1.9-2.6,7.1-9.2,9-8l0.1-0.2c-2.4-1.7-9,7.6-9.3,8z"/>
		<radialGradient id="aigrd9" cx="19.5972" cy="5.1641" r="8.3226" fx="19.5972" fy="5.1641" gradientUnits="userSpaceOnUse">
			<stop  offset="0" style="stop-color:#787878"/>
			<stop  offset="1" style="stop-color:#313131"/>
		</radialGradient>
		<path style="&st7;" d="M19.1,3.8c2.2,0.5,0.7,8.8,0,12l0.2,0.1c0.1-0.5,2.7-11.6-0.2-12.3l-0.1,0.2z"/>
		<linearGradient id="aigrd10" gradientUnits="userSpaceOnUse" x1="-148.1592" y1="26.0337" x2="-144.4599" y2="25.4616" gradientTransform="matrix(-0.9994 -3.400000e-002 -3.400000e-002 0.9994 -127.5091 -1.0452)">
			<stop  offset="0" style="stop-color:#3BB1CE"/>
			<stop  offset="1" style="stop-color:#37A6C2"/>
		</linearGradient>
		<path style="&st13;" d="M16.2,36.8c1-0.3,0.5-4.6,2.3-6.1c1.4-1.1,3-2.3,3.4-3.8c0.8-2.4-1.7-4.3-3.2-4.4s-2.2,2-2.7,3.3c-0.8,2.4-1.6,6.1,0.1,6c0.9-0.1-0.5,5.2,0,5z"/>
		<linearGradient id="aigrd11" gradientUnits="userSpaceOnUse" x1="-220.8203" y1="85.2461" x2="-215.2613" y2="84.3865" gradientTransform="matrix(0.5742 0.8187 -0.8187 0.5742 203.2852 154.5803)">
			<stop  offset="0" style="stop-color:#2C7F9A"/>
			<stop  offset="1" style="stop-color:#24667A"/>
		</linearGradient>
		<path style="&st6;" d="M2.2,29.2c-0.7-1.3,4.5-2.4,4.3-5.1c-0.1-2-0.4-4.2,0.7-5.3c1.8-1.9,6.3,0,8,1.7s0.1,3.2-0.9,4.3c-1.8,1.9-5.1,4.2-6.6,2.4c-0.8-1-5.1,2.6-5.4,2z"/>
		<radialGradient id="aigrd12" cx="-115.9253" cy="11.1514" r="6.3103" fx="-115.9253" fy="11.1514" gradientTransform="matrix(-1.3608 -0.5505 -0.5505 1.3608 -133.5183 -60.679)" gradientUnits="userSpaceOnUse">
			<stop  offset="0" style="stop-color:#787878"/>
			<stop  offset="1" style="stop-color:#313131"/>
		</radialGradient>
		<path style="&st19;" d="M15,22.6c-1.4,3.5-2.1,6.5-1.6,6.7c0.5,0.2,2.1-2.4,3.5-5.9c1.4-3.5,2.1-6.5,1.6-6.7c-0.5-0.2-2.1,2.4-3.5,5.9z"/>
		<radialGradient id="aigrd13" cx="19.0098" cy="3.3965" r="0.7158" fx="19.0098" fy="3.3965" gradientUnits="userSpaceOnUse">
			<stop  offset="0" style="stop-color:#787878"/>
			<stop  offset="1" style="stop-color:#313131"/>
		</radialGradient>
		<path style="&st10;" d="M18.6,3.7c0,0.2,0.2,0.4,0.4,0.4c0.2,0,0.4-0.2,0.4-0.4c0-0.2-0.2-0.4-0.4-0.4c-0.2,0-0.4,0.2-0.4,0.4z"/>
		<radialGradient id="aigrd14" cx="28.5522" cy="7.6436" r="0.7154" fx="28.5522" fy="7.6436" gradientUnits="userSpaceOnUse">
			<stop  offset="0" style="stop-color:#787878"/>
			<stop  offset="1" style="stop-color:#313131"/>
		</radialGradient>
		<path style="&st0;" d="M28.2,8c0,0.2,0.2,0.4,0.4,0.4c0.2,0,0.4-0.2,0.4-0.4s-0.2-0.4-0.4-0.4c-0.2,0-0.4,0.2-0.4,0.4z"/>
		<path style="&st15;" d="M14.6,4.7c0,0-2-2.7-4.5-0.6c-3.4,2.9-4.2,8-3.8,11.1c0.4-8.8,5.2-13.7,8.3-10.5z"/>
		<path style="&st15;" d="M17.8,21.3C22,15.9,28.2,9.4,30,12c-2.3-0.7-6.3,2.7-12.3,9.4z"/>
		<path style="&st15;" d="M18.8,17.3c-0.5-0.8-5,7.6-5.5,11.1c0.8-5.4,4.2-11,4.9-11.6c0.6-0.6,0.6,0.5,0.6,0.5z"/>
		<path style="&st15;" d="M12.9,19c-1.6-1-4.9-1.4-6,0c-1.1,1.4-0.4,4.2-0.4,5.6s-3.9,3.2-4.1,3.8c1.4-1,4-1.9,4.4-3.1s0-4.4,0.8-5.8c0.9-1.4,3.8-1,5.3-0.5z"/>
	</g>
</svg>
