<?xml version="1.0" encoding="iso-8859-1"?>
<!-- Generator: Adobe Illustrator 9.0, SVG Export Plug-In  -->
<!DOCTYPE svg PUBLIC "-//W3C//DTD SVG 20000303 Stylable//EN"   "http://www.w3.org/TR/2000/03/WD-SVG-20000303/DTD/svg-20000303-stylable.dtd" [
	<!ENTITY st0 "fill:url(#aigrd14);stroke:none;">
	<!ENTITY st1 "fill:url(#aigrd1);stroke:none;">
	<!ENTITY st2 "fill:#000000;stroke:none;">
	<!ENTITY st3 "fill:url(#aigrd11);stroke:none;">
	<!ENTITY st4 "fill:url(#aigrd9);stroke:none;">
	<!ENTITY st5 "fill:url(#aigrd19);stroke:none;">
	<!ENTITY st6 "fill:url(#aigrd6);stroke:none;">
	<!ENTITY st7 "fill:url(#aigrd16);stroke:none;">
	<!ENTITY st8 "fill:url(#aigrd3);stroke:none;">
	<!ENTITY st9 "fill:url(#aigrd13);stroke:none;">
	<!ENTITY st10 "fill-rule:nonzero;clip-rule:nonzero;fill:#FFFFFF;stroke:#000000;stroke-miterlimit:4;">
	<!ENTITY st11 "fill:url(#aigrd10);stroke:none;">
	<!ENTITY st12 "fill:url(#aigrd8);stroke:none;">
	<!ENTITY st13 "fill:url(#aigrd18);stroke:none;">
	<!ENTITY st14 "fill:url(#aigrd5);stroke:none;">
	<!ENTITY st15 "fill:url(#aigrd15);stroke:none;">
	<!ENTITY st16 "fill:url(#aigrd2);stroke:none;">
	<!ENTITY st17 "fill:#BEBEBE;stroke:none;">
	<!ENTITY st18 "fill:none;stroke:none;">
	<!ENTITY st19 "fill:url(#aigrd12);stroke:none;">
	<!ENTITY st20 "fill-rule:nonzero;clip-rule:nonzero;stroke:#000000;stroke-miterlimit:4;">
	<!ENTITY st21 "fill:url(#aigrd7);stroke:none;">
	<!ENTITY st22 "stroke:none;">
	<!ENTITY st23 "fill:url(#aigrd17);stroke:none;">
	<!ENTITY st24 "fill:url(#aigrd4);stroke:none;">
]>
<svg  width="44.572pt" height="48pt" viewBox="0 0 44.572 48" xml:space="preserve">
	<g id="Layer_x0020_1" style="&st10;">
		<path style="&st2;" d="M9.324,2.56c-2.877,0-5.217,2.34-5.217,5.217v30.779c0,2.877,2.34,5.218,5.217,5.218h27.461c2.877,0,5.217-2.341,5.217-5.218V7.776c0-2.876-2.34-5.217-5.217-5.217H9.324z"/>
		<linearGradient id="aigrd1" gradientUnits="userSpaceOnUse" x1="13.375" y1="6.7632" x2="32.6902" y2="40.3169">
			<stop  offset="0" style="stop-color:#F0F0F0"/>
			<stop  offset="1" style="stop-color:#D6D6D6"/>
		</linearGradient>
		<path style="&st1;" d="M39.395,38.556c0,1.572-1.275,2.846-2.846,2.846H9.086c-1.572,0-2.846-1.273-2.846-2.846V7.776c0-1.571,1.274-2.846,2.846-2.846h27.462c1.57,0,2.846,1.274,2.846,2.846v30.779z"/>
		<g>
			<radialGradient id="aigrd2" cx="9.0605" cy="29.7285" r="1.247" fx="9.0605" fy="29.7285" gradientUnits="userSpaceOnUse">
				<stop  offset="0" style="stop-color:#F0F0F0"/>
				<stop  offset="1" style="stop-color:#474747"/>
			</radialGradient>
			<path style="&st16;" d="M9.662,29.373c0,0.468-0.379,0.848-0.847,0.848s-0.847-0.38-0.847-0.848s0.379-0.847,0.847-0.847s0.847,0.379,0.847,0.847z"/>
			<radialGradient id="aigrd3" cx="9.0605" cy="17.8711" r="1.247" fx="9.0605" fy="17.8711" gradientUnits="userSpaceOnUse">
				<stop  offset="0" style="stop-color:#F0F0F0"/>
				<stop  offset="1" style="stop-color:#474747"/>
			</radialGradient>
			<path style="&st8;" d="M9.662,17.516c0,0.468-0.379,0.847-0.847,0.847s-0.847-0.379-0.847-0.847c0-0.468,0.379-0.847,0.847-0.847s0.847,0.379,0.847,0.847z"/>
		</g>
		<path style="&st22;" d="M11.619,41.383h-0.383V5.557h0.383v35.826z"/>
		<linearGradient id="aigrd4" gradientUnits="userSpaceOnUse" x1="11.2563" y1="6.5542" x2="10.8333" y2="40.0826">
			<stop  offset="0" style="stop-color:#EDEDED"/>
			<stop  offset="1" style="stop-color:#CACACA"/>
		</linearGradient>
		<path style="&st24;" d="M11.234,41.383h-0.383V5.557h0.383v35.826z"/>
		<path style="&st22;" d="M7.52,8.762L6.899,40.375c-0.451-0.451-0.631-1.432-0.631-1.432L6.229,7.66c0,0-0.038-0.807,0.703-1.739C7.681,4.977,8.929,4.92,8.929,4.92l28.022,0.04L10.008,6.273c-1.088,0-1.671,0.539-1.909,0.822C7.907,7.325,7.532,8.069,7.52,8.762z"
			/>
		<path style="&st17;" d="M38.242,37.577l0.621-31.613c0.451,0.451,0.631,1.431,0.631,1.431l0.039,31.284c0,0,0.037,0.807-0.703,1.739c-0.75,0.944-1.998,1.001-1.998,1.001l-28.021-0.04l26.943-1.313c1.088,0,1.67-0.539,1.908-0.822
			c0.193-0.229,0.568-0.974,0.58-1.666z"/>
	</g>
	<g id="Layer_x0020_4" style="&st20;">
		<path style="&st18;" d="M44.572,48H0V0h44.572v48z"/>
	</g>
	<g id="Layer_x0020_3" style="&st20;">
		<path style="&st22;" d="M25.146,14.423l-4.748,2.254c0,0,0,1.382,0,1.962c-0.034-0.016-0.103-0.049-0.103-0.049l-5.255,2.495v6.459l4.709,2.438c0,0,0.271,0.141,0.435,0.227c0,0.043,0,0.139,0,0.139l5.254,2.859l10.331-5.377v-6.459c0,0-4.814-2.289-4.895-2.327
			c0-0.815,0-2.377,0-2.377l-5.223-2.483l-0.506,0.24z"/>
		<g>
			<g>
				<linearGradient id="aigrd5" gradientUnits="userSpaceOnUse" x1="29.6035" y1="24.7188" x2="25.7803" y2="22.0032">
					<stop  offset="0" style="stop-color:#6D6E66"/>
					<stop  offset="1" style="stop-color:#B0B1A4"/>
				</linearGradient>
				<path style="&st14;" d="M25.24,21.42v5.201l4.076-2.112v-4.996L25.24,21.42z"/>
				<linearGradient id="aigrd6" gradientUnits="userSpaceOnUse" x1="21.8628" y1="20.6074" x2="25.1347" y2="26.2635">
					<stop  offset="0" style="stop-color:#CECFBF"/>
					<stop  offset="1" style="stop-color:#A8AA9E"/>
				</linearGradient>
				<path style="&st6;" d="M25.271,21.432v5.201l-4.075-2.11v-4.997l4.075,1.906z"/>
				<linearGradient id="aigrd7" gradientUnits="userSpaceOnUse" x1="23.4951" y1="18.7939" x2="28.8976" y2="20.9752">
					<stop  offset="0" style="stop-color:#EBEAD9"/>
					<stop  offset="1" style="stop-color:#C4C7B8"/>
				</linearGradient>
				<path style="&st21;" d="M29.316,19.513l-4.045,1.919l-4.075-1.906l4.075-1.936l4.045,1.923z"/>
			</g>
			<g>
				<linearGradient id="aigrd8" gradientUnits="userSpaceOnUse" x1="24.4971" y1="27.0078" x2="20.6738" y2="24.2922">
					<stop  offset="0" style="stop-color:#6D6E66"/>
					<stop  offset="1" style="stop-color:#B0B1A4"/>
				</linearGradient>
				<path style="&st12;" d="M20.134,23.709v5.201l4.075-2.109v-4.999l-4.075,1.907z"/>
				<linearGradient id="aigrd9" gradientUnits="userSpaceOnUse" x1="16.7559" y1="22.8965" x2="20.0281" y2="28.5532">
					<stop  offset="0" style="stop-color:#CECFBF"/>
					<stop  offset="1" style="stop-color:#A8AA9E"/>
				</linearGradient>
				<path style="&st4;" d="M20.165,23.721v5.201l-4.076-2.109v-4.998l4.076,1.906z"/>
				<linearGradient id="aigrd10" gradientUnits="userSpaceOnUse" x1="18.3877" y1="21.0825" x2="23.7901" y2="23.2638">
					<stop  offset="0" style="stop-color:#EBEAD9"/>
					<stop  offset="1" style="stop-color:#C4C7B8"/>
				</linearGradient>
				<path style="&st11;" d="M24.209,21.802l-4.044,1.919l-4.076-1.906l4.076-1.936l4.044,1.923z"/>
			</g>
			<g>
				<linearGradient id="aigrd11" gradientUnits="userSpaceOnUse" x1="34.748" y1="27.3037" x2="30.9255" y2="24.5887">
					<stop  offset="0" style="stop-color:#6D6E66"/>
					<stop  offset="1" style="stop-color:#B0B1A4"/>
				</linearGradient>
				<path style="&st3;" d="M30.385,24.006v5.199l4.075-2.109v-4.997l-4.075,1.907z"/>
				<linearGradient id="aigrd12" gradientUnits="userSpaceOnUse" x1="27.0068" y1="23.1929" x2="30.2783" y2="28.8483">
					<stop  offset="0" style="stop-color:#CECFBF"/>
					<stop  offset="1" style="stop-color:#A8AA9E"/>
				</linearGradient>
				<path style="&st19;" d="M30.415,24.018v5.199l-4.075-2.109v-4.997l4.075,1.907z"/>
				<linearGradient id="aigrd13" gradientUnits="userSpaceOnUse" x1="28.6396" y1="21.3794" x2="34.0428" y2="23.5609">
					<stop  offset="0" style="stop-color:#EBEAD9"/>
					<stop  offset="1" style="stop-color:#C4C7B8"/>
				</linearGradient>
				<path style="&st9;" d="M34.46,22.099l-4.045,1.919l-4.075-1.907l4.075-1.936l4.045,1.924z"/>
			</g>
			<g>
				<linearGradient id="aigrd14" gradientUnits="userSpaceOnUse" x1="29.6406" y1="29.8115" x2="25.8181" y2="27.0965">
					<stop  offset="0" style="stop-color:#6D6E66"/>
					<stop  offset="1" style="stop-color:#B0B1A4"/>
				</linearGradient>
				<path style="&st0;" d="M25.277,26.514v5.199l4.075-2.109v-4.998l-4.075,1.908z"/>
				<linearGradient id="aigrd15" gradientUnits="userSpaceOnUse" x1="21.8989" y1="25.6992" x2="25.1708" y2="31.3553">
					<stop  offset="0" style="stop-color:#CECFBF"/>
					<stop  offset="1" style="stop-color:#A8AA9E"/>
				</linearGradient>
				<path style="&st15;" d="M25.309,26.525v5.199l-4.076-2.109v-4.998l4.076,1.908z"/>
				<linearGradient id="aigrd16" gradientUnits="userSpaceOnUse" x1="23.5313" y1="23.8862" x2="28.9344" y2="26.0677">
					<stop  offset="0" style="stop-color:#EBEAD9"/>
					<stop  offset="1" style="stop-color:#C4C7B8"/>
				</linearGradient>
				<path style="&st7;" d="M29.353,24.606l-4.044,1.919l-4.076-1.908l4.076-1.935l4.044,1.923z"/>
			</g>
			<g>
				<linearGradient id="aigrd17" gradientUnits="userSpaceOnUse" x1="29.8545" y1="22.6001" x2="26.032" y2="19.885">
					<stop  offset="0" style="stop-color:#6D6E66"/>
					<stop  offset="1" style="stop-color:#B0B1A4"/>
				</linearGradient>
				<path style="&st23;" d="M25.491,19.302v5.199l4.075-2.109v-4.997l-4.075,1.907z"/>
				<linearGradient id="aigrd18" gradientUnits="userSpaceOnUse" x1="22.1128" y1="18.4888" x2="25.3847" y2="24.1448">
					<stop  offset="0" style="stop-color:#CECFBF"/>
					<stop  offset="1" style="stop-color:#A8AA9E"/>
				</linearGradient>
				<path style="&st13;" d="M25.521,19.314v5.199l-4.075-2.109v-4.997l4.075,1.907z"/>
				<linearGradient id="aigrd19" gradientUnits="userSpaceOnUse" x1="23.7456" y1="16.6763" x2="29.1487" y2="18.8578">
					<stop  offset="0" style="stop-color:#EBEAD9"/>
					<stop  offset="1" style="stop-color:#C4C7B8"/>
				</linearGradient>
				<path style="&st5;" d="M29.566,17.395l-4.045,1.919l-4.075-1.907l4.075-1.935l4.045,1.923z"/>
			</g>
		</g>
	</g>
</svg>
