<?xml version="1.0" encoding="iso-8859-1"?>
<!-- Generator: Adobe Illustrator 9.0, SVG Export Plug-In  -->
<!DOCTYPE svg PUBLIC "-//W3C//DTD SVG 20000303 Stylable//EN"   "http://www.w3.org/TR/2000/03/WD-SVG-20000303/DTD/svg-20000303-stylable.dtd" [
	<!ENTITY st0 "fill:url(#aigrd1);stroke:none;">
	<!ENTITY st1 "fill:#000000;stroke:none;">
	<!ENTITY st2 "fill:url(#aigrd9);stroke-width:0.1438;">
	<!ENTITY st3 "fill:url(#aigrd6);stroke:none;">
	<!ENTITY st4 "fill:url(#aigrd3);stroke:none;">
	<!ENTITY st5 "opacity:0.52;fill:#FFFFFF;stroke:none;">
	<!ENTITY st6 "fill:url(#aigrd8);stroke-width:0.1438;">
	<!ENTITY st7 "fill-rule:nonzero;clip-rule:nonzero;fill:#FFFFFF;stroke:#000000;stroke-miterlimit:4;">
	<!ENTITY st8 "fill:#7273A3;stroke:none;">
	<!ENTITY st9 "fill:#7273A3;stroke-width:0.1438;">
	<!ENTITY st10 "fill:url(#aigrd5);stroke:none;">
	<!ENTITY st11 "fill:url(#aigrd2);stroke:none;">
	<!ENTITY st12 "fill:#BEBEBE;stroke:none;">
	<!ENTITY st13 "fill:none;stroke:none;">
	<!ENTITY st14 "opacity:0.44;stroke:none;">
	<!ENTITY st15 "fill-rule:nonzero;clip-rule:nonzero;stroke:#000000;stroke-miterlimit:4;">
	<!ENTITY st16 "stroke:none;">
	<!ENTITY st17 "opacity:0.79;fill:url(#aigrd7);stroke:none;">
	<!ENTITY st18 "fill:url(#aigrd4);stroke:none;">
]>
<svg  width="42.5pt" height="48pt" viewBox="0 0 42.5 48" xml:space="preserve">
	<g id="Layer_x0020_1" style="&st7;">
		<path style="&st1;" d="M8.2,3.6C5.3,3.6,3,5.9,3,8.8v30.8c0,2.9,2.3,5.2,5.2,5.2h27.5c2.9,0,5.2-2.3,5.2-5.2V8.8c0-2.9-2.3-5.2-5.2-5.2H8.2z"/>
		<linearGradient id="aigrd1" gradientUnits="userSpaceOnUse" x1="12.2363" y1="7.7627" x2="31.5515" y2="41.3164">
			<stop  offset="0" style="stop-color:#F0F0F0"/>
			<stop  offset="1" style="stop-color:#D6D6D6"/>
		</linearGradient>
		<path style="&st0;" d="M38.3,39.6c0,1.6-1.3,2.8-2.8,2.8H7.9c-1.6,0-2.8-1.3-2.8-2.8V8.8c0-1.6,1.3-2.8,2.8-2.8h27.5c1.6,0,2.8,1.3,2.8,2.8v30.8z"/>
		<g>
			<radialGradient id="aigrd2" cx="7.9224" cy="30.7285" r="1.247" fx="7.9224" fy="30.7285" gradientUnits="userSpaceOnUse">
				<stop  offset="0" style="stop-color:#F0F0F0"/>
				<stop  offset="1" style="stop-color:#474747"/>
			</radialGradient>
			<path style="&st11;" d="M8.5,30.4c0,0.5-0.4,0.8-0.8,0.8s-0.8-0.4-0.8-0.8s0.4-0.8,0.8-0.8s0.8,0.4,0.8,0.8z"/>
			<radialGradient id="aigrd3" cx="7.9224" cy="18.8711" r="1.247" fx="7.9224" fy="18.8711" gradientUnits="userSpaceOnUse">
				<stop  offset="0" style="stop-color:#F0F0F0"/>
				<stop  offset="1" style="stop-color:#474747"/>
			</radialGradient>
			<path style="&st4;" d="M8.5,18.5c0,0.5-0.4,0.8-0.8,0.8S6.8,19,6.8,18.5c0-0.5,0.4-0.8,0.8-0.8s0.8,0.4,0.8,0.8z"/>
		</g>
		<path style="&st16;" d="M10.5,42.4h-0.4V6.6h0.4v35.8z"/>
		<linearGradient id="aigrd4" gradientUnits="userSpaceOnUse" x1="10.1172" y1="7.5537" x2="9.6941" y2="41.0821">
			<stop  offset="0" style="stop-color:#EDEDED"/>
			<stop  offset="1" style="stop-color:#CACACA"/>
		</linearGradient>
		<path style="&st18;" d="M10.1,42.4H9.7V6.6h0.4v35.8z"/>
		<path style="&st16;" d="M6.4,9.8L5.8,41.4c-0.5-0.5-0.6-1.4-0.6-1.4l0-31.3c0,0,0-0.8,0.7-1.7c0.7-0.9,2-1,2-1l28,0L8.9,7.3C7.8,7.3,7.2,7.8,7,8.1c-0.2,0.2-0.6,1-0.6,1.7z"/>
		<path style="&st12;" d="M37.1,38.6L37.7,7c0.5,0.5,0.6,1.4,0.6,1.4l0,31.3c0,0,0,0.8-0.7,1.7c-0.8,0.9-2,1-2,1l-28,0l26.9-1.3c1.1,0,1.7-0.5,1.9-0.8c0.2-0.2,0.6-1,0.6-1.7z"/>
	</g>
	<g id="Layer_x0020_2" style="&st15;">
		<path style="&st13;" d="M42.5,48H0V0h42.5v48z"/>
	</g>
	<g id="Layer_x0020_4" style="&st15;">
		<path style="&st16;" d="M15.9,26.8c0,5.3,4.3,9.7,9.7,9.7c5.3,0,9.7-4.3,9.7-9.7c0-5.3-4.3-9.7-9.7-9.7c-5.3,0-9.7,4.3-9.7,9.7z M23,26.8c0-1.5,1.2-2.7,2.7-2.7c1.5,0,2.7,1.2,2.7,2.7c0,1.5-1.2,2.7-2.7,2.7c-1.5,0-2.7-1.2-2.7-2.7z"/>
		<linearGradient id="aigrd5" gradientUnits="userSpaceOnUse" x1="23.4702" y1="21.106" x2="27.4281" y2="31.603">
			<stop  offset="0" style="stop-color:#FFFFFF"/>
			<stop  offset="0.2661" style="stop-color:#FBFBFB"/>
			<stop  offset="0.5261" style="stop-color:#EFEFEF"/>
			<stop  offset="0.7829" style="stop-color:#DCDCDC"/>
			<stop  offset="1" style="stop-color:#C5C5C5"/>
		</linearGradient>
		<path style="&st10;" d="M16.7,26.8c0,4.9,4,8.9,8.9,8.9c4.9,0,8.9-4,8.9-8.9c0-4.9-4-8.9-8.9-8.9c-4.9,0-8.9,4-8.9,8.9z M22.2,26.8c0-1.9,1.6-3.5,3.5-3.5c1.9,0,3.5,1.6,3.5,3.5c0,1.9-1.6,3.5-3.5,3.5c-1.9,0-3.5-1.6-3.5-3.5z"/>
		<linearGradient id="aigrd6" gradientUnits="userSpaceOnUse" x1="27.5073" y1="36.7793" x2="23.8094" y2="17.2018">
			<stop  offset="0" style="stop-color:#FFFFFF"/>
			<stop  offset="0.4944" style="stop-color:#858585"/>
			<stop  offset="0.5225" style="stop-color:#FFFFFF"/>
			<stop  offset="1" style="stop-color:#C2C2C2"/>
		</linearGradient>
		<path style="&st3;" d="M25.6,18.3c-4.7,0-8.5,3.8-8.5,8.5c0,4.7,3.8,8.5,8.5,8.5c4.7,0,8.5-3.8,8.5-8.5c0-4.7-3.8-8.5-8.5-8.5z M25.6,30.7c-2.1,0-3.9-1.7-3.9-3.9c0-2.1,1.7-3.9,3.9-3.9c2.1,0,3.9,1.7,3.9,3.9c0,2.1-1.7,3.9-3.9,3.9z"/>
		<linearGradient id="aigrd7" gradientUnits="userSpaceOnUse" x1="24.4937" y1="23.0474" x2="26.7794" y2="30.6665">
			<stop  offset="0" style="stop-color:#FFFFFF"/>
			<stop  offset="1" style="stop-color:#C2C2C2"/>
		</linearGradient>
		<path style="&st17;" d="M25.6,21.7c-2.8,0-5.1,2.3-5.1,5.1c0,2.8,2.3,5.1,5.1,5.1c2.8,0,5.1-2.3,5.1-5.1c0-2.8-2.3-5.1-5.1-5.1z M25.6,30.3c-1.9,0-3.5-1.6-3.5-3.5c0-1.9,1.6-3.5,3.5-3.5c1.9,0,3.5,1.6,3.5,3.5c0,1.9-1.6,3.5-3.5,3.5z"/>
		<path style="&st16;" d="M26,13.3H14.3c-0.6,0-1.1,0.5-1.1,1.1v11c0,0.2,0.1,0.4,0.2,0.5l0.9,0.9c0.1,0.1,0.3,0.2,0.5,0.2H26c0.6,0,1.1-0.5,1.1-1.1V14.4c0-0.6-0.5-1.1-1.1-1.1z"/>
		<path style="&st8;" d="M13.9,25.3l0.9,0.9H26c0.2,0,0.3-0.2,0.3-0.3V14.4c0-0.2-0.2-0.3-0.3-0.3H14.3c-0.2,0-0.3,0.2-0.3,0.3v11z"/>
		<path style="&st14;" d="M26.3,14.9v11c0,0.2-0.1,0.3-0.3,0.3H15.2l10.4-0.4c0.2,0,0.3-0.1,0.3-0.3l0.4-10.6z"/>
		<linearGradient id="aigrd8" gradientUnits="userSpaceOnUse" x1="20.1768" y1="14.2139" x2="20.1768" y2="16.0562">
			<stop  offset="0" style="stop-color:#FFFFFF"/>
			<stop  offset="0.1236" style="stop-color:#E6E6E6"/>
		</linearGradient>
		<path style="&st6;" d="M25,19.8c0,0.2-0.1,0.3-0.3,0.3h-9c-0.2,0-0.3-0.1-0.3-0.3v-5.4c0-0.2,0.1-0.3,0.3-0.3h9c0.2,0,0.3,0.1,0.3,0.3v5.4z"/>
		<linearGradient id="aigrd9" gradientUnits="userSpaceOnUse" x1="17.9556" y1="21.5615" x2="22.3399" y2="27.716">
			<stop  offset="0" style="stop-color:#FFFFFF"/>
			<stop  offset="0.1742" style="stop-color:#D8D8D8"/>
			<stop  offset="0.2022" style="stop-color:#F9F9F9"/>
			<stop  offset="0.4607" style="stop-color:#F1F1F1"/>
			<stop  offset="0.6292" style="stop-color:#C1C1C1"/>
			<stop  offset="0.7865" style="stop-color:#F0F0F0"/>
			<stop  offset="1" style="stop-color:#E1E1E1"/>
		</linearGradient>
		<path style="&st2;" d="M23.1,26.1c0,0.2-0.2,0.3-0.4,0.3h-6.2c-0.2,0-0.4-0.2-0.4-0.3v-4.6c0-0.2,0.2-0.3,0.4-0.3h6.2c0.2,0,0.4,0.2,0.4,0.3v4.6z"/>
		<path style="&st14;" d="M23,21.4v4.8c0,0.1-0.1,0.2-0.2,0.2h-6.5l6.3-0.2c0.1,0,0.1,0,0.1-0.1l0.2-4.6z"/>
		<path style="&st9;" d="M19.2,25.2c0,0.2-0.2,0.3-0.3,0.3h-1.2c-0.2,0-0.3-0.1-0.3-0.3v-2.8c0-0.2,0.2-0.3,0.3-0.3h1.2c0.2,0,0.3,0.1,0.3,0.3v2.8z"/>
		<path style="&st5;" d="M13.9,25.3v-11c0-0.2,0.1-0.3,0.3-0.3H26l-11.3,0.4c-0.2,0-0.3,0.1-0.3,0.3l-0.4,10.6z"/>
	</g>
</svg>
