<?xml version="1.0" encoding="iso-8859-1"?>
<!-- Generator: Adobe Illustrator 9.0, SVG Export Plug-In  -->
<!DOCTYPE svg PUBLIC "-//W3C//DTD SVG 20000303 Stylable//EN"   "http://www.w3.org/TR/2000/03/WD-SVG-20000303/DTD/svg-20000303-stylable.dtd" [
	<!ENTITY st0 "fill:url(#aigrd1);stroke:none;">
	<!ENTITY st1 "fill:#000000;stroke:none;">
	<!ENTITY st2 "fill:url(#aigrd6);stroke:none;">
	<!ENTITY st3 "fill:url(#aigrd3);stroke:none;">
	<!ENTITY st4 "fill-rule:nonzero;clip-rule:nonzero;fill:#FFFFFF;stroke:#000000;stroke-miterlimit:4;">
	<!ENTITY st5 "fill:#FFFFFF;stroke:none;">
	<!ENTITY st6 "fill:url(#aigrd5);stroke:none;">
	<!ENTITY st7 "fill:url(#aigrd2);stroke:none;">
	<!ENTITY st8 "fill:#BEBEBE;stroke:none;">
	<!ENTITY st9 "fill:none;stroke:none;">
	<!ENTITY st10 "fill-rule:nonzero;clip-rule:nonzero;stroke:#000000;stroke-miterlimit:4;">
	<!ENTITY st11 "stroke:none;">
	<!ENTITY st12 "fill:url(#aigrd4);stroke:none;">
]>
<svg  width="42.5pt" height="48pt" viewBox="0 0 42.5 48" xml:space="preserve">
	<g id="Layer_x0020_1" style="&st4;">
		<path style="&st1;" d="M8.2,3.6C5.3,3.6,3,5.9,3,8.8v30.8c0,2.9,2.3,5.2,5.2,5.2h27.5c2.9,0,5.2-2.3,5.2-5.2V8.8c0-2.9-2.3-5.2-5.2-5.2H8.2z"/>
		<linearGradient id="aigrd1" gradientUnits="userSpaceOnUse" x1="12.2363" y1="7.7627" x2="31.5515" y2="41.3164">
			<stop  offset="0" style="stop-color:#F0F0F0"/>
			<stop  offset="1" style="stop-color:#D6D6D6"/>
		</linearGradient>
		<path style="&st0;" d="M38.3,39.6c0,1.6-1.3,2.8-2.8,2.8H7.9c-1.6,0-2.8-1.3-2.8-2.8V8.8c0-1.6,1.3-2.8,2.8-2.8h27.5c1.6,0,2.8,1.3,2.8,2.8v30.8z"/>
		<g>
			<radialGradient id="aigrd2" cx="7.9224" cy="30.7285" r="1.247" fx="7.9224" fy="30.7285" gradientUnits="userSpaceOnUse">
				<stop  offset="0" style="stop-color:#F0F0F0"/>
				<stop  offset="1" style="stop-color:#474747"/>
			</radialGradient>
			<path style="&st7;" d="M8.5,30.4c0,0.5-0.4,0.8-0.8,0.8s-0.8-0.4-0.8-0.8s0.4-0.8,0.8-0.8s0.8,0.4,0.8,0.8z"/>
			<radialGradient id="aigrd3" cx="7.9224" cy="18.8711" r="1.247" fx="7.9224" fy="18.8711" gradientUnits="userSpaceOnUse">
				<stop  offset="0" style="stop-color:#F0F0F0"/>
				<stop  offset="1" style="stop-color:#474747"/>
			</radialGradient>
			<path style="&st3;" d="M8.5,18.5c0,0.5-0.4,0.8-0.8,0.8S6.8,19,6.8,18.5c0-0.5,0.4-0.8,0.8-0.8s0.8,0.4,0.8,0.8z"/>
		</g>
		<path style="&st11;" d="M10.5,42.4h-0.4V6.6h0.4v35.8z"/>
		<linearGradient id="aigrd4" gradientUnits="userSpaceOnUse" x1="10.1172" y1="7.5537" x2="9.6941" y2="41.0821">
			<stop  offset="0" style="stop-color:#EDEDED"/>
			<stop  offset="1" style="stop-color:#CACACA"/>
		</linearGradient>
		<path style="&st12;" d="M10.1,42.4H9.7V6.6h0.4v35.8z"/>
		<path style="&st11;" d="M6.4,9.8L5.8,41.4c-0.5-0.5-0.6-1.4-0.6-1.4l0-31.3c0,0,0-0.8,0.7-1.7c0.7-0.9,2-1,2-1l28,0L8.9,7.3C7.8,7.3,7.2,7.8,7,8.1c-0.2,0.2-0.6,1-0.6,1.7z"/>
		<path style="&st8;" d="M37.1,38.6L37.7,7c0.5,0.5,0.6,1.4,0.6,1.4l0,31.3c0,0,0,0.8-0.7,1.7c-0.8,0.9-2,1-2,1l-28,0l26.9-1.3c1.1,0,1.7-0.5,1.9-0.8c0.2-0.2,0.6-1,0.6-1.7z"/>
	</g>
	<g id="Layer_x0020_2" style="&st10;">
		<path style="&st9;" d="M42.5,48H0V0h42.5v48z"/>
	</g>
	<g id="Layer_x0020_3" style="&st10;">
		<path style="&st11;" d="M27.7,21.1c0,0-0.1,0.1-0.1,0.2c0-0.1-0.4-0.9-0.4-0.9l-0.8,0.1c-0.3,0-0.7,0.1-1,0.2l-0.7,0.2c0,0,0,0.9,0,1c-0.1-0.1-0.7-0.7-0.7-0.7l-0.7,0.4c-0.3,0.2-0.6,0.4-0.8,0.5L22,22.6c0,0,0.4,0.8,0.4,0.9c-0.1,0-0.9-0.4-0.9-0.4L21,23.7
			c-0.2,0.3-0.4,0.5-0.5,0.8l-0.4,0.7c0,0,0.7,0.6,0.7,0.7c-0.1,0-1,0-1,0l-0.2,0.7c-0.1,0.3-0.1,0.6-0.2,1l-0.1,0.8c0,0,0.9,0.3,0.9,0.4c-0.1,0-0.9,0.4-0.9,0.4l0.1,0.8c0,0.3,0.1,0.7,0.2,1l0.2,0.7c0,0,0.9,0,1,0c-0.1,0.1-0.7,0.7-0.7,0.7l0.4,0.7
			c0.2,0.3,0.4,0.6,0.5,0.8l0.5,0.6c0,0,0.8-0.4,0.9-0.4c0,0.1-0.4,0.9-0.4,0.9l0.6,0.5c0.3,0.2,0.5,0.4,0.8,0.5l0.7,0.4c0,0,0.6-0.7,0.7-0.7c0,0.1,0,1,0,1l0.7,0.2c0.3,0.1,0.6,0.1,1,0.2l0.8,0.1c0,0,0.3-0.9,0.4-0.9c0,0.1,0.4,0.9,0.4,0.9l0.8-0.1
			c0.3,0,0.7-0.1,1-0.2l0.7-0.2c0,0,0-0.9,0-1c0.1,0.1,0.7,0.7,0.7,0.7l0.7-0.4c0.3-0.2,0.6-0.4,0.8-0.5l0.6-0.5c0,0-0.4-0.8-0.4-0.9c0.1,0,0.9,0.4,0.9,0.4l0.5-0.6c0.2-0.3,0.4-0.5,0.5-0.8l0.4-0.7c0,0-0.7-0.6-0.7-0.7c0.1,0,1,0,1,0l0.2-0.7c0.1-0.3,0.1-0.6,0.2-1
			l0.1-0.8c0,0-0.8-0.3-0.9-0.4c0.1,0,0.9-0.4,0.9-0.4l-0.1-0.8c0-0.3-0.1-0.7-0.2-1l-0.2-0.7c0,0-0.9,0-1,0c0.1-0.1,0.7-0.7,0.7-0.7l-0.4-0.7c-0.2-0.3-0.4-0.6-0.5-0.8l-0.5-0.6c0,0-0.8,0.4-0.9,0.4c0-0.1,0.4-0.9,0.4-0.9l-0.6-0.5c-0.3-0.2-0.5-0.4-0.8-0.5
			l-0.7-0.4c0,0-0.6,0.7-0.7,0.7c0-0.1,0-1,0-1l-0.7-0.2c-0.3-0.1-0.6-0.1-1-0.2L28,20.4l-0.3,0.7z M24.1,28.8c0-2,1.6-3.5,3.5-3.5s3.5,1.6,3.5,3.5c0,2-1.6,3.5-3.5,3.5s-3.5-1.6-3.5-3.5z"/>
		<linearGradient id="aigrd5" gradientUnits="userSpaceOnUse" x1="30.6108" y1="32.7344" x2="24.2972" y2="24.3461">
			<stop  offset="0" style="stop-color:#8B8B8B"/>
			<stop  offset="1" style="stop-color:#E4E4E4"/>
		</linearGradient>
		<path style="&st6;" d="M33.9,28.8c0-0.2,0-0.4,0-0.6l1-0.4c0-0.3-0.1-0.6-0.2-0.9l-1.1,0c-0.1-0.4-0.3-0.7-0.5-1.1l0.8-0.8c-0.1-0.3-0.3-0.5-0.5-0.7l-1,0.4c-0.3-0.3-0.5-0.6-0.8-0.8l0.4-1c-0.2-0.2-0.5-0.3-0.7-0.5l-0.8,0.8c-0.3-0.2-0.7-0.3-1.1-0.5l0-1.1
			c-0.3-0.1-0.6-0.1-0.9-0.2l-0.4,1c-0.2,0-0.4,0-0.6,0s-0.4,0-0.6,0l-0.4-1c-0.3,0-0.6,0.1-0.9,0.2l0,1.1c-0.4,0.1-0.7,0.3-1.1,0.5l-0.8-0.8c-0.3,0.1-0.5,0.3-0.7,0.5l0.4,1c-0.3,0.3-0.6,0.5-0.8,0.8l-1-0.4c-0.2,0.2-0.3,0.5-0.5,0.7l0.8,0.8
			c-0.2,0.3-0.3,0.7-0.5,1.1l-1.1,0c-0.1,0.3-0.1,0.6-0.2,0.9l1,0.4c0,0.2,0,0.4,0,0.6c0,0.2,0,0.4,0,0.6l-1,0.4c0,0.3,0.1,0.6,0.2,0.9l1.1,0c0.1,0.4,0.3,0.7,0.5,1.1l-0.8,0.8c0.1,0.3,0.3,0.5,0.5,0.7l1-0.4c0.3,0.3,0.5,0.6,0.8,0.8l-0.4,1c0.2,0.2,0.5,0.3,0.7,0.5
			l0.8-0.8c0.3,0.2,0.7,0.3,1.1,0.5l0,1.1c0.3,0.1,0.6,0.1,0.9,0.2l0.4-1c0.2,0,0.4,0,0.6,0s0.4,0,0.6,0l0.4,1c0.3,0,0.6-0.1,0.9-0.2l0-1.1c0.4-0.1,0.7-0.3,1.1-0.5l0.8,0.8c0.3-0.1,0.5-0.3,0.7-0.5l-0.4-1c0.3-0.3,0.6-0.5,0.8-0.8l1,0.4c0.2-0.2,0.3-0.5,0.5-0.7
			l-0.8-0.8c0.2-0.3,0.3-0.7,0.5-1.1l1.1,0c0.1-0.3,0.1-0.6,0.2-0.9l-1-0.4c0-0.2,0-0.4,0-0.6z M27.6,33.3c-2.5,0-4.5-2-4.5-4.5s2-4.5,4.5-4.5s4.5,2,4.5,4.5s-2,4.5-4.5,4.5z"/>
		<path style="&st11;" d="M16.4,12.9c-0.3,0.1-0.5,0.1-0.8,0.2L15,13.4c0,0,0,0.8,0,1c-0.1,0-0.9-0.4-0.9-0.4l-0.5,0.5c-0.2,0.2-0.4,0.4-0.5,0.7l-0.4,0.6c0,0,0.5,0.7,0.6,0.8c-0.1,0-1,0.3-1,0.3l0,0.7l0,0.6l0,0.9l0.7,0.2c0,0,0.2,0.1,0.3,0.1
			c-0.1,0.1-0.6,0.8-0.6,0.8l0.3,0.6c0.1,0.2,0.3,0.5,0.5,0.7l0.4,0.5c0,0,0.8-0.3,0.9-0.3c0,0.1-0.1,1-0.1,1l0.6,0.3c0.3,0.1,0.5,0.2,0.8,0.3l0.7,0.2c0,0,0.5-0.7,0.6-0.8c0.1,0.1,0.5,0.8,0.5,0.8l0.7-0.1c0.3-0.1,0.5-0.1,0.8-0.2l0.6-0.2c0,0,0-0.8,0-1
			c0.1,0,0.9,0.4,0.9,0.4l0.5-0.5c0.2-0.2,0.4-0.4,0.5-0.7l0.4-0.6c0,0-0.5-0.7-0.6-0.8c0.1,0,1-0.3,1-0.3l0-0.7l0-0.6l0-0.9L22,16.9c0,0-0.2-0.1-0.3-0.1c0.1-0.1,0.6-0.8,0.6-0.8L22,15.5c-0.1-0.2-0.3-0.5-0.5-0.7l-0.4-0.5c0,0-0.8,0.3-0.9,0.3c0-0.1,0.1-1,0.1-1
			l-0.6-0.3c-0.3-0.1-0.5-0.2-0.8-0.3l-0.7-0.2c0,0-0.5,0.7-0.6,0.8c-0.1-0.1-0.5-0.8-0.5-0.8l-0.7,0.1z"/>
		<linearGradient id="aigrd6" gradientUnits="userSpaceOnUse" x1="10.9502" y1="8.9116" x2="22.7734" y2="25.4338">
			<stop  offset="0" style="stop-color:#8B8B8B"/>
			<stop  offset="1" style="stop-color:#E4E4E4"/>
		</linearGradient>
		<path style="&st2;" d="M19.7,20.5l0.9,0.3c0.2-0.2,0.3-0.3,0.4-0.5l-0.5-0.7c0.1-0.3,0.2-0.6,0.3-0.9l0.9-0.2c0-0.2,0-0.3,0-0.5c0-0.1,0-0.1,0-0.2l-0.9-0.3c0-0.3-0.1-0.6-0.3-0.9l0.6-0.7c-0.1-0.2-0.2-0.4-0.4-0.6l-0.9,0.3c-0.2-0.2-0.5-0.4-0.7-0.6l0.1-0.9
			C19,14.1,18.8,14,18.6,14L18,14.7c-0.2,0-0.4-0.1-0.6-0.1c-0.1,0-0.2,0-0.4,0l-0.5-0.8c-0.2,0-0.4,0.1-0.6,0.2l0,0.9c-0.3,0.1-0.5,0.3-0.8,0.5l-0.9-0.3c-0.2,0.2-0.3,0.3-0.4,0.5l0.5,0.7c-0.1,0.3-0.2,0.6-0.3,0.9l-0.9,0.2c0,0.2,0,0.3,0,0.5c0,0.1,0,0.1,0,0.2
			l0.9,0.3c0,0.3,0.1,0.6,0.3,0.9l-0.6,0.7c0.1,0.2,0.2,0.4,0.4,0.6l0.9-0.3c0.2,0.2,0.5,0.4,0.7,0.6l-0.1,0.9c0.2,0.1,0.4,0.2,0.6,0.2l0.5-0.7c0.2,0,0.4,0.1,0.6,0.1c0.1,0,0.2,0,0.3,0l0.5,0.8c0.2,0,0.4-0.1,0.6-0.2l0-0.9c0.3-0.1,0.5-0.3,0.8-0.5z"/>
		<path style="&st5;" d="M32.5,28.8c0,3.4-2.4,4.7-4.7,4.7c2.9-0.3,4.3-2.1,4.7-4.7z"/>
		<path style="&st5;" d="M17.8,15.5c-1.5,0.3-2.7,1.4-2.7,3.2c-0.6-1.4,0.8-3.4,2.7-3.2z"/>
		<path style="&st11;" d="M18.3,17.9c0,0.5-0.4,0.9-0.9,0.9s-0.9-0.4-0.9-0.9S17,17,17.5,17s0.9,0.4,0.9,0.9z"/>
		<path style="&st5;" d="M18.5,17.9c0,0.7-0.5,1-1,1c0,0,0.5,0.2,0.9-0.2c0.3-0.3,0.1-0.8,0.1-0.8z"/>
	</g>
</svg>
