<?xml version="1.0" encoding="iso-8859-1"?>
<!-- Generator: Adobe Illustrator 9.0, SVG Export Plug-In  -->
<!DOCTYPE svg PUBLIC "-//W3C//DTD SVG 20000303 Stylable//EN"   "http://www.w3.org/TR/2000/03/WD-SVG-20000303/DTD/svg-20000303-stylable.dtd" [
	<!ENTITY st0 "fill:#AFAFAF;stroke:none;">
	<!ENTITY st1 "fill:url(#aigrd6);stroke:none;">
	<!ENTITY st2 "opacity:0.51;fill:#FFFFFF;stroke:none;">
	<!ENTITY st3 "fill:url(#aigrd3);stroke:none;">
	<!ENTITY st4 "fill:url(#aigrd1);stroke-width:2.0553;stroke-linecap:round;stroke-linejoin:round;">
	<!ENTITY st5 "opacity:0.35;stroke:none;">
	<!ENTITY st6 "fill:#FFFFFF;stroke:none;">
	<!ENTITY st7 "opacity:0.79;fill:url(#aigrd8);stroke:none;">
	<!ENTITY st8 "fill:url(#aigrd5);stroke:none;">
	<!ENTITY st9 "fill:url(#aigrd2);stroke:none;">
	<!ENTITY st10 "fill:none;stroke:none;">
	<!ENTITY st11 "fill-rule:nonzero;clip-rule:nonzero;stroke:#000000;stroke-miterlimit:4;">
	<!ENTITY st12 "fill:url(#aigrd7);stroke:none;">
	<!ENTITY st13 "stroke:none;">
	<!ENTITY st14 "opacity:0.26;stroke:none;">
	<!ENTITY st15 "fill:url(#aigrd4);stroke:none;">
]>
<svg  width="42.8pt" height="38.1pt" viewBox="0 0 42.8 38.1" xml:space="preserve">
	<g id="Layer_x0020_3" style="&st11;">
		<path style="&st5;" d="M5,25.1l-5,6.8c-0.8,1.3,0.3,2.7,2.2,2.6l19.3,0c8.4,8.4,22.2,1,19.2-2.9l-5.5-7.8L5,25.1z"/>
	</g>
	<g id="Layer_x0020_1" style="&st11;">
		<radialGradient id="aigrd1" cx="7.3911" cy="9.1836" r="28.9215" fx="7.3911" fy="9.1836" gradientUnits="userSpaceOnUse">
			<stop  offset="0" style="stop-color:#3F3F3F"/>
			<stop  offset="1" style="stop-color:#000000"/>
		</radialGradient>
		<path style="&st4;" d="M29.6,1H5.9L3.2,5.5v25.6h29V5.5L29.6,1z"/>
		<linearGradient id="aigrd2" gradientUnits="userSpaceOnUse" x1="6.2646" y1="7.9272" x2="29.5377" y2="29.0843">
			<stop  offset="0" style="stop-color:#FFFFFF"/>
			<stop  offset="1" style="stop-color:#E4E4E4"/>
		</linearGradient>
		<path style="&st9;" d="M32.2,31.1h-29V5.5h29v25.6z"/>
		<radialGradient id="aigrd3" cx="7.3911" cy="2.2368" r="21.8507" fx="7.3911" fy="2.2368" gradientUnits="userSpaceOnUse">
			<stop  offset="0" style="stop-color:#828282"/>
			<stop  offset="1" style="stop-color:#333333"/>
		</radialGradient>
		<path style="&st3;" d="M5.9,1L3.2,5.5h29L29.6,1H5.9z"/>
		<linearGradient id="aigrd4" gradientUnits="userSpaceOnUse" x1="1.4878" y1="12.4834" x2="27.7074" y2="33.5647">
			<stop  offset="0" style="stop-color:#5D6482"/>
			<stop  offset="1" style="stop-color:#654C82"/>
		</linearGradient>
		<path style="&st15;" d="M14.3,31.1H3.2V5.5h11.1v25.6z"/>
		<linearGradient id="aigrd5" gradientUnits="userSpaceOnUse" x1="29.6929" y1="29.4053" x2="7.818" y2="9.7804">
			<stop  offset="0" style="stop-color:#42543D"/>
			<stop  offset="1" style="stop-color:#589F46"/>
		</linearGradient>
		<path style="&st8;" d="M32.2,31.1H14.3v-15h17.9v15z"/>
		<g style="&st13;">
			<path d="M15.4,9.8c0.4-0.1,1-0.1,1.6-0.1c1,0,1.7,0.2,2.2,0.6c0.6,0.4,0.9,1.1,0.9,2c0,1-0.4,1.7-0.9,2.2c-0.6,0.5-1.4,0.7-2.5,0.7c-0.6,0-1.1,0-1.4-0.1V9.8z M16.6,14.1c0.1,0,0.3,0,0.4,0c1.1,0,1.8-0.6,1.8-1.9c0-1.1-0.6-1.7-1.7-1.7c-0.3,0-0.4,0-0.5,0v3.5z"
				/>
			<path d="M24,12.8h-2v1.3h2.2v1h-3.4V9.7h3.3v1h-2.1v1.1h2v1z"/>
			<path d="M25.1,9.8c0.3-0.1,0.9-0.1,1.6-0.1c0.7,0,1.2,0.1,1.6,0.3c0.4,0.2,0.6,0.6,0.6,1.1c0,0.5-0.3,0.9-0.9,1.1v0c0.6,0.2,1.1,0.6,1.1,1.3c0,0.5-0.2,0.9-0.6,1.1c-0.4,0.3-1,0.5-2.1,0.5c-0.6,0-1,0-1.3-0.1V9.8z M26.3,11.8h0.4c0.6,0,1-0.3,1-0.7
				c0-0.4-0.3-0.6-0.9-0.6c-0.3,0-0.4,0-0.5,0v1.2z M26.3,14.2c0.1,0,0.3,0,0.5,0c0.5,0,1-0.2,1-0.8c0-0.5-0.5-0.8-1.1-0.8h-0.4v1.5z"/>
		</g>
		<path style="&st2;" d="M32.2,5.5h-29v25.6l0.6-10.4V6.2l28.4-0.8z"/>
		<path style="&st2;" d="M29.6,1H5.9L3.2,5.5l0.8-0.1l2.3-3.9L29.6,1z"/>
		<path style="&st14;" d="M32.2,5.5v25.6h-29l28.6-0.6V6.3l0.4-0.8z"/>
	</g>
	<g id="Layer_x0020_4" style="&st11;">
		<path style="&st13;" d="M23.8,20.7c-2,1.7-3,3.9-3,6.3c0,2.4,1.1,4.7,3,6.3c1.9,1.6,4.4,2.5,7.1,2.5c2.7,0,5.2-0.9,7.1-2.5c2-1.7,3-3.9,3-6.3c0-2.4-1.1-4.7-3-6.3c-1.9-1.6-4.4-2.5-7.1-2.5c-2.7,0-5.2,0.9-7.1,2.5z M28.7,27c0-0.9,1-1.6,2.2-1.6
			c1.2,0,2.2,0.8,2.2,1.6c0,0.9-1,1.6-2.2,1.6c-1.2,0-2.2-0.8-2.2-1.6z"/>
		<linearGradient id="aigrd6" gradientUnits="userSpaceOnUse" x1="28.9321" y1="21.9473" x2="32.3964" y2="31.135">
			<stop  offset="0" style="stop-color:#FFFFFF"/>
			<stop  offset="1" style="stop-color:#9B9B9B"/>
		</linearGradient>
		<path style="&st1;" d="M24.2,21.2c-1.8,1.5-2.8,3.6-2.8,5.8s1,4.3,2.8,5.8c1.8,1.5,4.1,2.3,6.6,2.3c2.5,0,4.9-0.8,6.6-2.3c1.8-1.5,2.8-3.6,2.8-5.8s-1-4.3-2.8-5.8c-1.8-1.5-4.1-2.3-6.6-2.3c-2.5,0-4.9,0.8-6.6,2.3z M28.3,27c0-1.1,1.1-2,2.5-2c1.4,0,2.5,0.9,2.5,2
			c0,1.1-1.1,2-2.5,2c-1.4,0-2.5-0.9-2.5-2z"/>
		<linearGradient id="aigrd7" gradientUnits="userSpaceOnUse" x1="32.4468" y1="35.8311" x2="29.0894" y2="18.0567">
			<stop  offset="0" style="stop-color:#FFFFFF"/>
			<stop  offset="0.4944" style="stop-color:#858585"/>
			<stop  offset="0.5225" style="stop-color:#FFFFFF"/>
			<stop  offset="1" style="stop-color:#C2C2C2"/>
		</linearGradient>
		<path style="&st12;" d="M30.7,19.1c-5,0-9,3.4-9,7.7c0,4.2,4.1,7.7,9,7.7c5,0,9-3.4,9-7.7c0-4.3-4.1-7.7-9-7.7z M30.8,29.4c-1.6,0-2.9-1.1-2.9-2.5c0-1.4,1.3-2.5,2.9-2.5c1.6,0,2.9,1.1,2.9,2.5c0,1.4-1.3,2.5-2.9,2.5z"/>
		<linearGradient id="aigrd8" gradientUnits="userSpaceOnUse" x1="29.9565" y1="23.9746" x2="31.7099" y2="29.8191">
			<stop  offset="0" style="stop-color:#FFFFFF"/>
			<stop  offset="1" style="stop-color:#C2C2C2"/>
		</linearGradient>
		<path style="&st7;" d="M30.8,23c-2.6,0-4.8,1.8-4.8,3.9c0,2.2,2.1,3.9,4.8,3.9s4.8-1.8,4.8-3.9c0-2.2-2.1-3.9-4.8-3.9z M30.8,28.9c-1.5,0-2.7-0.9-2.7-2.1c0-1.1,1.2-2.1,2.7-2.1c1.5,0,2.7,0.9,2.7,2.1c0,1.1-1.2,2.1-2.7,2.1z"/>
		<path style="&st0;" d="M32.6,25.5c-1.5-1.1-3.4-0.2-3.8,0.2c-0.4,0.4-0.7,1.2-0.3,2.2c-0.8-1.1-0.4-1.9,0.1-2.4c0.8-0.8,2.8-1.1,4,0z"/>
		<path style="&st6;" d="M29.1,28.4c1.5,1.1,3.3,0.3,3.8-0.3c0.4-0.5,0.6-1.1,0.2-2c0.8,1.1,0.3,1.9-0.1,2.3c-0.5,0.5-2.5,1.2-3.9,0.1z"/>
		<path style="&st10;" d="M20.5,16.6h22.3v21.6H20.5V16.6z"/>
	</g>
	<g id="Layer_x0020_2" style="&st11;">
	</g>
</svg>
