<?xml version="1.0" encoding="iso-8859-1"?>
<!-- Generator: Adobe Illustrator 9.0, SVG Export Plug-In  -->
<!DOCTYPE svg PUBLIC "-//W3C//DTD SVG 20000303 Stylable//EN"   "http://www.w3.org/TR/2000/03/WD-SVG-20000303/DTD/svg-20000303-stylable.dtd" [
	<!ENTITY st0 "opacity:0.22;stroke:none;">
	<!ENTITY st1 "fill:url(#aigrd1);stroke:none;">
	<!ENTITY st2 "fill:#000000;stroke:none;">
	<!ENTITY st3 "fill:url(#aigrd3);stroke:none;">
	<!ENTITY st4 "fill-rule:nonzero;clip-rule:nonzero;fill:#FFFFFF;stroke:#000000;stroke-miterlimit:4;">
	<!ENTITY st5 "fill:#FFFFFF;stroke:none;">
	<!ENTITY st6 "fill:url(#aigrd5);stroke:none;">
	<!ENTITY st7 "fill:url(#aigrd2);stroke:none;">
	<!ENTITY st8 "fill:#BEBEBE;stroke:none;">
	<!ENTITY st9 "fill:none;stroke:none;">
	<!ENTITY st10 "fill-rule:nonzero;clip-rule:nonzero;stroke:#000000;stroke-miterlimit:4;">
	<!ENTITY st11 "stroke:none;">
	<!ENTITY st12 "fill:url(#aigrd4);stroke:none;">
]>
<svg  width="44.572pt" height="48pt" viewBox="0 0 44.572 48" xml:space="preserve">
	<g id="Layer_x0020_1" style="&st4;">
		<path style="&st2;" d="M9.324,2.56c-2.877,0-5.217,2.34-5.217,5.217v30.779c0,2.877,2.34,5.218,5.217,5.218h27.461c2.877,0,5.217-2.341,5.217-5.218V7.776c0-2.876-2.34-5.217-5.217-5.217H9.324z"/>
		<linearGradient id="aigrd1" gradientUnits="userSpaceOnUse" x1="13.375" y1="6.7632" x2="32.6902" y2="40.3169">
			<stop  offset="0" style="stop-color:#F0F0F0"/>
			<stop  offset="1" style="stop-color:#D6D6D6"/>
		</linearGradient>
		<path style="&st1;" d="M39.395,38.556c0,1.572-1.275,2.846-2.846,2.846H9.086c-1.572,0-2.846-1.273-2.846-2.846V7.776c0-1.571,1.274-2.846,2.846-2.846h27.462c1.57,0,2.846,1.274,2.846,2.846v30.779z"/>
		<g>
			<radialGradient id="aigrd2" cx="9.0605" cy="29.7285" r="1.247" fx="9.0605" fy="29.7285" gradientUnits="userSpaceOnUse">
				<stop  offset="0" style="stop-color:#F0F0F0"/>
				<stop  offset="1" style="stop-color:#474747"/>
			</radialGradient>
			<path style="&st7;" d="M9.662,29.373c0,0.468-0.379,0.848-0.847,0.848s-0.847-0.38-0.847-0.848s0.379-0.847,0.847-0.847s0.847,0.379,0.847,0.847z"/>
			<radialGradient id="aigrd3" cx="9.0605" cy="17.8711" r="1.247" fx="9.0605" fy="17.8711" gradientUnits="userSpaceOnUse">
				<stop  offset="0" style="stop-color:#F0F0F0"/>
				<stop  offset="1" style="stop-color:#474747"/>
			</radialGradient>
			<path style="&st3;" d="M9.662,17.516c0,0.468-0.379,0.847-0.847,0.847s-0.847-0.379-0.847-0.847c0-0.468,0.379-0.847,0.847-0.847s0.847,0.379,0.847,0.847z"/>
		</g>
		<path style="&st11;" d="M11.619,41.383h-0.383V5.557h0.383v35.826z"/>
		<linearGradient id="aigrd4" gradientUnits="userSpaceOnUse" x1="11.2563" y1="6.5542" x2="10.8333" y2="40.0826">
			<stop  offset="0" style="stop-color:#EDEDED"/>
			<stop  offset="1" style="stop-color:#CACACA"/>
		</linearGradient>
		<path style="&st12;" d="M11.234,41.383h-0.383V5.557h0.383v35.826z"/>
		<path style="&st11;" d="M7.52,8.762L6.899,40.375c-0.451-0.451-0.631-1.432-0.631-1.432L6.229,7.66c0,0-0.038-0.807,0.703-1.739C7.681,4.977,8.929,4.92,8.929,4.92l28.022,0.04L10.008,6.273c-1.088,0-1.671,0.539-1.909,0.822C7.907,7.325,7.532,8.069,7.52,8.762z"
			/>
		<path style="&st8;" d="M38.242,37.577l0.621-31.613c0.451,0.451,0.631,1.431,0.631,1.431l0.039,31.284c0,0,0.037,0.807-0.703,1.739c-0.75,0.944-1.998,1.001-1.998,1.001l-28.021-0.04l26.943-1.313c1.088,0,1.67-0.539,1.908-0.822
			c0.193-0.229,0.568-0.974,0.58-1.666z"/>
	</g>
	<g id="Layer_x0020_4" style="&st10;">
		<path style="&st9;" d="M44.572,48H0V0h44.572v48z"/>
	</g>
	<g id="Layer_x0020_3" style="&st10;">
		<path style="&st0;" d="M18.309,2.784c-2.186,0-3.653,1.375-3.653,3.42v10.124c0,1.982,1.369,3.264,3.487,3.264h2.646c1.938,0,3.096-1.598,3.096-3.143v-5.627c0-0.792-0.688-1.436-1.534-1.436s-1.534,0.645-1.534,1.436v5.627c0,0.143-0.042,0.231-0.07,0.27
			c-0.082,0-2.604,0-2.604,0c-0.219,0-0.33-0.029-0.369-0.045c-0.017-0.037-0.049-0.141-0.049-0.346V6.204c0-0.455,0.099-0.547,0.584-0.547h4.015c0.846,0,2.11-0.106,2.11-0.897c0-0.792-0.628-1.976-2.11-1.976h-4.015z"/>
		<path style="&st11;" d="M17.542,1.25c-2.186,0-3.653,1.469-3.653,3.653v10.818c0,2.118,1.369,3.486,3.485,3.486h2.648c1.938,0,3.096-1.707,3.096-3.357V9.837c0-0.846-0.688-1.535-1.535-1.535c-0.846,0-1.534,0.688-1.534,1.535v6.013
			c0,0.152-0.042,0.248-0.07,0.288c-0.082,0-2.605,0-2.605,0c-0.218,0-0.329-0.031-0.367-0.049c-0.018-0.038-0.049-0.15-0.049-0.368V4.903c0-0.486,0.099-0.583,0.584-0.583h4.015c0.846,0,2.11-0.113,2.11-0.96c0-0.846-0.629-2.11-2.11-2.11h-4.015z"/>
		<linearGradient id="aigrd5" gradientUnits="userSpaceOnUse" x1="19.8599" y1="5.4429" x2="20.8412" y2="1.8743">
			<stop  offset="0" style="stop-color:#F5F682"/>
			<stop  offset="1" style="stop-color:#000000"/>
		</linearGradient>
		<path style="&st6;" d="M17.542,2.401c-1.543,0-2.502,0.959-2.502,2.502v10.818c0,1.483,0.851,2.335,2.334,2.335h2.648c1.264,0,1.945-1.136,1.945-2.206V9.837c0-0.212-0.172-0.384-0.384-0.384S21.2,9.625,21.2,9.837v6.013c0,0.715-0.405,1.438-1.178,1.438h-2.648
			c-1.069,0-1.567-0.497-1.567-1.567V4.903c0-1.119,0.617-1.735,1.735-1.735h4.615c0,0-0.049-0.767-0.6-0.767h-4.015z"/>
		<path style="&st5;" d="M17.684,2.566c-1.368,0.373-2.263,1.195-2.552,2.622C15,3.611,15.954,2.389,17.684,2.566z"/>
		<path style="&st5;" d="M21.37,15.598c0.201,1.612-0.256,2.104-1.834,1.916c1.271-0.124,1.834-0.299,1.834-1.916z"/>
	</g>
</svg>
