<?xml version="1.0" encoding="iso-8859-1"?>
<!-- Generator: Adobe Illustrator 9.0, SVG Export Plug-In  -->
<!DOCTYPE svg PUBLIC "-//W3C//DTD SVG 20000303 Stylable//EN"   "http://www.w3.org/TR/2000/03/WD-SVG-20000303/DTD/svg-20000303-stylable.dtd" [
	<!ENTITY st0 "fill:#B4BBD8;stroke:none;">
	<!ENTITY st1 "fill:url(#aigrd1);stroke:none;">
	<!ENTITY st2 "fill:#000000;stroke:none;">
	<!ENTITY st3 "stroke-width:0.2;">
	<!ENTITY st4 "opacity:0.2;stroke:none;">
	<!ENTITY st5 "fill:url(#aigrd6);stroke:none;">
	<!ENTITY st6 "fill:url(#aigrd3);stroke:none;">
	<!ENTITY st7 "fill:#CDD4A9;stroke:none;">
	<!ENTITY st8 "fill-rule:nonzero;clip-rule:nonzero;fill:#FFFFFF;stroke:#000000;stroke-miterlimit:4;">
	<!ENTITY st9 "fill:#FFFFFF;stroke:none;">
	<!ENTITY st10 "fill:url(#aigrd5);stroke:none;">
	<!ENTITY st11 "fill:url(#aigrd2);stroke:none;">
	<!ENTITY st12 "fill:#BEBEBE;stroke:none;">
	<!ENTITY st13 "fill:none;stroke:none;">
	<!ENTITY st14 "fill-rule:nonzero;clip-rule:nonzero;stroke:#000000;stroke-miterlimit:4;">
	<!ENTITY st15 "fill:url(#aigrd7);stroke:none;">
	<!ENTITY st16 "stroke:none;">
	<!ENTITY st17 "fill:url(#aigrd4);stroke:none;">
]>
<svg  width="44.572pt" height="48pt" viewBox="0 0 44.572 48" xml:space="preserve">
	<g id="Layer_x0020_1" style="&st8;">
		<path style="&st2;" d="M9.324,2.56c-2.877,0-5.217,2.34-5.217,5.217v30.779c0,2.877,2.34,5.218,5.217,5.218h27.461c2.877,0,5.217-2.341,5.217-5.218V7.776c0-2.876-2.34-5.217-5.217-5.217H9.324z"/>
		<linearGradient id="aigrd1" gradientUnits="userSpaceOnUse" x1="13.375" y1="6.7632" x2="32.6902" y2="40.3169">
			<stop  offset="0" style="stop-color:#F0F0F0"/>
			<stop  offset="1" style="stop-color:#D6D6D6"/>
		</linearGradient>
		<path style="&st1;" d="M39.395,38.556c0,1.572-1.275,2.846-2.846,2.846H9.086c-1.572,0-2.846-1.273-2.846-2.846V7.776c0-1.571,1.274-2.846,2.846-2.846h27.462c1.57,0,2.846,1.274,2.846,2.846v30.779z"/>
		<g>
			<radialGradient id="aigrd2" cx="9.0605" cy="29.7285" r="1.247" fx="9.0605" fy="29.7285" gradientUnits="userSpaceOnUse">
				<stop  offset="0" style="stop-color:#F0F0F0"/>
				<stop  offset="1" style="stop-color:#474747"/>
			</radialGradient>
			<path style="&st11;" d="M9.662,29.373c0,0.468-0.379,0.848-0.847,0.848s-0.847-0.38-0.847-0.848s0.379-0.847,0.847-0.847s0.847,0.379,0.847,0.847z"/>
			<radialGradient id="aigrd3" cx="9.0605" cy="17.8711" r="1.247" fx="9.0605" fy="17.8711" gradientUnits="userSpaceOnUse">
				<stop  offset="0" style="stop-color:#F0F0F0"/>
				<stop  offset="1" style="stop-color:#474747"/>
			</radialGradient>
			<path style="&st6;" d="M9.662,17.516c0,0.468-0.379,0.847-0.847,0.847s-0.847-0.379-0.847-0.847c0-0.468,0.379-0.847,0.847-0.847s0.847,0.379,0.847,0.847z"/>
		</g>
		<path style="&st16;" d="M11.619,41.383h-0.383V5.557h0.383v35.826z"/>
		<linearGradient id="aigrd4" gradientUnits="userSpaceOnUse" x1="11.2563" y1="6.5542" x2="10.8333" y2="40.0826">
			<stop  offset="0" style="stop-color:#EDEDED"/>
			<stop  offset="1" style="stop-color:#CACACA"/>
		</linearGradient>
		<path style="&st17;" d="M11.234,41.383h-0.383V5.557h0.383v35.826z"/>
		<path style="&st16;" d="M7.52,8.762L6.899,40.375c-0.451-0.451-0.631-1.432-0.631-1.432L6.229,7.66c0,0-0.038-0.807,0.703-1.739C7.681,4.977,8.929,4.92,8.929,4.92l28.022,0.04L10.008,6.273c-1.088,0-1.671,0.539-1.909,0.822C7.907,7.325,7.532,8.069,7.52,8.762z"
			/>
		<path style="&st12;" d="M38.242,37.577l0.621-31.613c0.451,0.451,0.631,1.431,0.631,1.431l0.039,31.284c0,0,0.037,0.807-0.703,1.739c-0.75,0.944-1.998,1.001-1.998,1.001l-28.021-0.04l26.943-1.313c1.088,0,1.67-0.539,1.908-0.822
			c0.193-0.229,0.568-0.974,0.58-1.666z"/>
	</g>
	<g id="Layer_x0020_4" style="&st14;">
		<path style="&st13;" d="M44.572,48H0V0h44.572v48z"/>
	</g>
	<g id="Layer_x0020_5" style="&st14;">
		<path style="&st4;" d="M35.071,37.159h-9.206V9.694h9.206v27.465z"/>
		<path style="&st4;" d="M23.785,37.159h-9.206V9.694h9.206v27.465z"/>
		<path style="&st16;" d="M31.398,9.427c-5.413,0.182-7.981,10.994-8.793,15.33c-0.642,0.207-1.086,0.619-1.223,1.192c-0.004,0.021-0.003,0.04-0.007,0.061c-2.515,0.552-2.856,2.888-3.139,4.818c-0.214,1.461-0.435,2.973-1.425,4.031l-1.627,1.74
			c0,0,3.018,0,3.113,0c0.094,0.009,1.264,0.132,1.264,0.132l0.353-0.466c1.718-2.277,2.945-3.052,4.528-2.858l0.527,0.064l0.36-0.392c0.209-0.229,1.927-2.16,1.927-4.052c0-0.143-0.009-0.284-0.029-0.427c-0.057-0.379-0.194-0.724-0.394-1.033
			c0.047-0.097,0.097-0.192,0.122-0.299c0.027-0.117,0.041-0.236,0.041-0.352c0-0.22-0.062-0.436-0.157-0.644c0.728-1.03,2.346-3.375,3.877-5.967c2.665-4.518,3.363-6.924,3.363-8.315c0-0.627-0.142-1.049-0.309-1.364c-0.249-0.47-0.888-1.249-2.374-1.201z"/>
		<linearGradient id="aigrd5" gradientUnits="userSpaceOnUse" x1="26.2559" y1="17.5723" x2="30.0209" y2="19.4939">
			<stop  offset="0" style="stop-color:#214B98"/>
			<stop  offset="1" style="stop-color:#152A5C"/>
		</linearGradient>
		<path style="&st10;" d="M25.46,26.151c0,0,11.606-15.952,5.821-15.759c-5.606,0.187-7.992,15.51-7.992,15.51l2.17,0.249z"/>
		<linearGradient id="aigrd6" gradientUnits="userSpaceOnUse" x1="23.208" y1="26.0166" x2="24.2559" y2="26.6968">
			<stop  offset="0" style="stop-color:#FFFFFF"/>
			<stop  offset="1" style="stop-color:#ECF1C4"/>
		</linearGradient>
		<path style="&st5;" d="M25.8,26.963c-0.114,0.483-1.005,0.688-1.989,0.453c-0.984-0.233-1.689-0.813-1.575-1.295c0.114-0.483,1.005-0.686,1.989-0.453c0.983,0.233,1.688,0.813,1.574,1.295z"/>
		<radialGradient id="aigrd7" cx="24.6836" cy="-12.6128" r="7.876" fx="24.6836" fy="-12.6128" gradientTransform="matrix(0.9456 0 0 0.6817 -2.6034 37.2446)" gradientUnits="userSpaceOnUse">
			<stop  offset="0.4157" style="stop-color:#ECF1C4"/>
			<stop  offset="1" style="stop-color:#E1F269"/>
		</radialGradient>
		<path style="&st15;" d="M17.414,35.498h0.788l0.737,0.079c1.749-2.318,3.285-3.532,5.479-3.263c0,0,4.294-4.673-0.919-5.387c-6.151-0.841-2.992,5.267-6.083,8.57z"/>
		<path style="&st7;" d="M25.244,27.919c0.143,1.629-2.439,4.088-2.439,4.088l1.328-0.044c0.629-0.568,2.186-2.934,1.111-4.044z"/>
		<path style="&st9;" d="M17.882,35.272c1.831-2.424,0.987-7.324,3.361-8.075l0.924,0.088c-2.864,0.958-2.115,4.76-4.285,7.987z"/>
		<path style="&st3;" d="M21.282,30.407l-3.086,5.062"/>
		<path style="&st9;" d="M21.318,30.934l-2.745,4.433l3.158-4.189c0.626-0.249,0.332-1.06,0.332-1.06s-0.183,0.816-0.745,0.816z"/>
		<path style="&st16;" d="M21.698,30.515c-0.11,0.223-0.385,0.354-0.615,0.296s-0.327-0.287-0.215-0.51c0.11-0.225,0.385-0.356,0.615-0.298c0.229,0.061,0.325,0.289,0.215,0.512z"/>
		<path style="&st0;" d="M31.331,10.823c-5.098,1.081-7.403,14.401-7.403,14.401h0.267c0,0,2.729-11.929,7.137-14.401z"/>
		<path style="&st7;" d="M25.142,26.44c0.248,0.464-0.238,0.589-0.238,0.589s0.414,0.027,0.516-0.166c0.101-0.193-0.277-0.423-0.277-0.423z"/>
	</g>
</svg>
