<?xml version="1.0" encoding="iso-8859-1"?>
<!-- Generator: Adobe Illustrator 9.0, SVG Export Plug-In  -->
<!DOCTYPE svg PUBLIC "-//W3C//DTD SVG 20000303 Stylable//EN"   "http://www.w3.org/TR/2000/03/WD-SVG-20000303/DTD/svg-20000303-stylable.dtd" [
	<!ENTITY st0 "fill-rule:evenodd;clip-rule:evenodd;fill:url(#aigrd7);stroke:none;">
	<!ENTITY st1 "fill:url(#aigrd1);stroke:none;">
	<!ENTITY st2 "fill:#000000;stroke:none;">
	<!ENTITY st3 "fill-rule:evenodd;clip-rule:evenodd;fill:#000000;stroke:none;">
	<!ENTITY st4 "fill:url(#aigrd3);stroke:none;">
	<!ENTITY st5 "fill-rule:evenodd;clip-rule:evenodd;fill:url(#aigrd6);stroke:none;">
	<!ENTITY st6 "fill-rule:nonzero;clip-rule:nonzero;fill:#FFFFFF;stroke:#000000;stroke-miterlimit:4;">
	<!ENTITY st7 "opacity:0.5;">
	<!ENTITY st8 "fill:url(#aigrd2);stroke:none;">
	<!ENTITY st9 "fill-rule:evenodd;clip-rule:evenodd;fill:url(#aigrd5);stroke:none;">
	<!ENTITY st10 "fill:#BEBEBE;stroke:none;">
	<!ENTITY st11 "fill:none;stroke:none;">
	<!ENTITY st12 "fill:#000000;">
	<!ENTITY st13 "opacity:0.78;fill-rule:evenodd;clip-rule:evenodd;fill:url(#aigrd8);stroke:none;">
	<!ENTITY st14 "fill-rule:nonzero;clip-rule:nonzero;stroke:#000000;stroke-miterlimit:4;">
	<!ENTITY st15 "stroke:none;">
	<!ENTITY st16 "fill:none;stroke:#0C0B0B;stroke-width:8.081411e-003;stroke-miterlimit:3.8637;">
	<!ENTITY st17 "fill:url(#aigrd4);stroke:none;">
]>
<svg  width="42.5pt" height="48pt" viewBox="0 0 42.5 48" xml:space="preserve">
	<g id="Layer_x0020_1" style="&st6;">
		<path style="&st2;" d="M8.2,3.6C5.3,3.6,3,5.9,3,8.8v30.8c0,2.9,2.3,5.2,5.2,5.2h27.5c2.9,0,5.2-2.3,5.2-5.2V8.8c0-2.9-2.3-5.2-5.2-5.2H8.2z"/>
		<linearGradient id="aigrd1" gradientUnits="userSpaceOnUse" x1="12.2363" y1="7.7627" x2="31.5515" y2="41.3164">
			<stop  offset="0" style="stop-color:#F0F0F0"/>
			<stop  offset="1" style="stop-color:#D6D6D6"/>
		</linearGradient>
		<path style="&st1;" d="M38.3,39.6c0,1.6-1.3,2.8-2.8,2.8H7.9c-1.6,0-2.8-1.3-2.8-2.8V8.8c0-1.6,1.3-2.8,2.8-2.8h27.5c1.6,0,2.8,1.3,2.8,2.8v30.8z"/>
		<g>
			<radialGradient id="aigrd2" cx="7.9224" cy="30.7285" r="1.247" fx="7.9224" fy="30.7285" gradientUnits="userSpaceOnUse">
				<stop  offset="0" style="stop-color:#F0F0F0"/>
				<stop  offset="1" style="stop-color:#474747"/>
			</radialGradient>
			<path style="&st8;" d="M8.5,30.4c0,0.5-0.4,0.8-0.8,0.8s-0.8-0.4-0.8-0.8s0.4-0.8,0.8-0.8s0.8,0.4,0.8,0.8z"/>
			<radialGradient id="aigrd3" cx="7.9224" cy="18.8711" r="1.247" fx="7.9224" fy="18.8711" gradientUnits="userSpaceOnUse">
				<stop  offset="0" style="stop-color:#F0F0F0"/>
				<stop  offset="1" style="stop-color:#474747"/>
			</radialGradient>
			<path style="&st4;" d="M8.5,18.5c0,0.5-0.4,0.8-0.8,0.8S6.8,19,6.8,18.5c0-0.5,0.4-0.8,0.8-0.8s0.8,0.4,0.8,0.8z"/>
		</g>
		<path style="&st15;" d="M10.5,42.4h-0.4V6.6h0.4v35.8z"/>
		<linearGradient id="aigrd4" gradientUnits="userSpaceOnUse" x1="10.1172" y1="7.5537" x2="9.6941" y2="41.0821">
			<stop  offset="0" style="stop-color:#EDEDED"/>
			<stop  offset="1" style="stop-color:#CACACA"/>
		</linearGradient>
		<path style="&st17;" d="M10.1,42.4H9.7V6.6h0.4v35.8z"/>
		<path style="&st15;" d="M6.4,9.8L5.8,41.4c-0.5-0.5-0.6-1.4-0.6-1.4l0-31.3c0,0,0-0.8,0.7-1.7c0.7-0.9,2-1,2-1l28,0L8.9,7.3C7.8,7.3,7.2,7.8,7,8.1c-0.2,0.2-0.6,1-0.6,1.7z"/>
		<path style="&st10;" d="M37.1,38.6L37.7,7c0.5,0.5,0.6,1.4,0.6,1.4l0,31.3c0,0,0,0.8-0.7,1.7c-0.8,0.9-2,1-2,1l-28,0l26.9-1.3c1.1,0,1.7-0.5,1.9-0.8c0.2-0.2,0.6-1,0.6-1.7z"/>
	</g>
	<g id="Layer_x0020_2" style="&st14;">
		<path style="&st11;" d="M42.5,48H0V0h42.5v48z"/>
	</g>
	<g id="Layer_x0020_3" style="&st6;">
		<g>
			<g>
				<g>
					<path style="&st10;" d="M12.6,25.5c0-6.6,5.3-11.9,11.9-11.9s11.9,5.3,11.9,11.9c0,6.6-5.3,11.9-11.9,11.9s-11.9-5.3-11.9-11.9z"/>
					<radialGradient id="aigrd5" cx="20.4224" cy="20.6162" r="13.9631" fx="20.4224" fy="20.6162" gradientUnits="userSpaceOnUse">
						<stop  offset="0" style="stop-color:#F9FAE9"/>
						<stop  offset="0.5056" style="stop-color:#F5C417"/>
						<stop  offset="0.6035" style="stop-color:#EEB817"/>
						<stop  offset="0.7662" style="stop-color:#DB9714"/>
						<stop  offset="0.9726" style="stop-color:#BD6810"/>
						<stop  offset="1" style="stop-color:#B9620F"/>
					</radialGradient>
					<path style="&st9;" d="M12.5,24.4c0,6.2,5,11.1,11.1,11.1c6.2,0,11.1-5,11.1-11.1s-5-11.1-11.1-11.1c-6.2,0-11.1,5-11.1,11.1z"/>
					<path style="&st16;" d="M23.3,24.7v0"/>
					<path style="&st3;" d="M13.5,24.4c0,5.6,4.5,10.1,10.1,10.1c5.6,0,10.1-4.5,10.1-10.1c0-5.6-4.5-10.1-10.1-10.1c-5.6,0-10.1,4.5-10.1,10.1 M11.6,24.4c0-6.6,5.4-12,12-12c6.6,0,12,5.4,12,12c0,6.6-5.4,12-12,12c-6.6,0-12-5.4-12-12z"/>
					<linearGradient id="aigrd6" gradientUnits="userSpaceOnUse" x1="22.5835" y1="36.5459" x2="35.2023" y2="28.9982">
						<stop  offset="0" style="stop-color:#0C0B0B"/>
						<stop  offset="1" style="stop-color:#251F20"/>
					</linearGradient>
					<path style="&st5;" d="M34.5,27.7c-1.5,5.2-6.5,8.9-12.7,7.9l0.2-0.3c6,0.4,10.4-3,12.1-7.6l0.4,0z"/>
					<radialGradient id="aigrd7" cx="12.3306" cy="22.1348" r="8.0107" fx="12.3306" fy="22.1348" gradientUnits="userSpaceOnUse">
						<stop  offset="0" style="stop-color:#0C0B0B"/>
						<stop  offset="1" style="stop-color:#554C4D"/>
					</radialGradient>
					<path style="&st0;" d="M16.4,15.3c-1.7,1.1-3.7,3.9-4.1,6.9c0.5-0.1,0-1.1,0.7-1.1c0.3-1.4,0.3-2.4,3.3-5.5c0-0.1,0.4-0.2,0.2-0.3z"/>
				</g>
			</g>
		</g>
		<g style="&st15;">
			<g style="&st7;">
				<path d="M28.2,17.8c-3,0-3.6,4.3-1.9,4.3c1.7,0,4.9-4.3,1.9-4.3z"/>
				<path d="M23.1,21.5c0.9,0.1,1.9-3.5,0.2-3.2c-1.7,0.2-1.1,3.2-0.2,3.2z"/>
				<path d="M19,23.7c0.6-0.3,0.1-3.1-1-2.3c-1.1,0.8,0.4,2.6,1,2.3z"/>
				<path d="M20.8,22.3c0.8-0.2,0.8-3.3-0.6-2.7c-1.4,0.6-0.2,2.9,0.6,2.7z"/>
				<path id="newshape" d="M24.8,29.3c0.1,1-0.8,1.6-1.6,0.9c-2.8-2.1,4.7-3.2,4.2-6.1c-0.4-2.4-7.9-1.7-8.7,2.1C18,28.8,21,32.3,24,32.3c1.5,0,3.2-1.4,3.6-3.1c0.2-1.3-2.9-0.8-2.8,0.1z"/>
			</g>
			<g style="&st12;">
				<path d="M28,17.6c-3,0-3.6,4.3-1.9,4.3c1.7,0,4.9-4.3,1.9-4.3z"/>
				<path d="M23,21.4c0.9,0.1,1.9-3.5,0.2-3.2s-1.1,3.2-0.2,3.2z"/>
				<path d="M18.8,23.6c0.6-0.3,0.1-3.1-1-2.3c-1.1,0.8,0.4,2.6,1,2.3z"/>
				<path d="M20.6,22.1c0.8-0.2,0.8-3.3-0.6-2.7c-1.4,0.6-0.2,2.9,0.6,2.7z"/>
				<path d="M24.7,29.2c0.1,1-0.8,1.6-1.6,0.9c-2.8-2.1,4.7-3.2,4.2-6.1c-0.4-2.4-7.9-1.7-8.7,2.1c-0.6,2.6,2.4,6.1,5.4,6.1c1.5,0,3.2-1.4,3.6-3.1c0.2-1.3-2.9-0.8-2.8,0.1z"/>
			</g>
		</g>
		<linearGradient id="aigrd8" gradientUnits="userSpaceOnUse" x1="47.4858" y1="18.7568" x2="47.4858" y2="31.9575" gradientTransform="matrix(0.9723 -0.2335 0.2335 0.9723 -29.0476 8.5486)">
			<stop  offset="0" style="stop-color:#F9FAE9"/>
			<stop  offset="1" style="stop-color:#F5C417"/>
		</linearGradient>
		<path style="&st13;" d="M14.2,26c7.5,3.2,10.1-8.5,18.4-4.6c-1.5-4.7-6.4-7.5-11.3-6.3c-4.9,1.2-8,6-7.1,10.9z"/>
	</g>
</svg>
