<?xml version="1.0" encoding="iso-8859-1"?>
<!-- Generator: Adobe Illustrator 9.0, SVG Export Plug-In  -->
<!DOCTYPE svg PUBLIC "-//W3C//DTD SVG 20000303 Stylable//EN"   "http://www.w3.org/TR/2000/03/WD-SVG-20000303/DTD/svg-20000303-stylable.dtd" [
	<!ENTITY st0 "fill:url(#aigrd1);stroke:none;">
	<!ENTITY st1 "fill:#000000;stroke:none;">
	<!ENTITY st2 "fill:url(#aigrd3);stroke:none;">
	<!ENTITY st3 "fill-rule:nonzero;clip-rule:nonzero;fill:#9D9E92;stroke:#000000;stroke-miterlimit:4;">
	<!ENTITY st4 "fill-rule:nonzero;clip-rule:nonzero;fill:#FFFFFF;stroke:#000000;stroke-miterlimit:4;">
	<!ENTITY st5 "fill:#F3F5E5;stroke:none;">
	<!ENTITY st6 "fill:url(#aigrd5);stroke:none;">
	<!ENTITY st7 "fill:url(#aigrd2);stroke:none;">
	<!ENTITY st8 "fill:#BEBEBE;stroke:none;">
	<!ENTITY st9 "fill:none;stroke:none;">
	<!ENTITY st10 "fill-rule:nonzero;clip-rule:nonzero;stroke:#000000;stroke-miterlimit:4;">
	<!ENTITY st11 "stroke:none;">
	<!ENTITY st12 "fill:url(#aigrd4);stroke:none;">
]>
<svg  width="44.572pt" height="48pt" viewBox="0 0 44.572 48" xml:space="preserve">
	<g id="Layer_x0020_1" style="&st4;">
		<path style="&st1;" d="M9.324,2.56c-2.877,0-5.217,2.34-5.217,5.217v30.779c0,2.877,2.34,5.218,5.217,5.218h27.461c2.877,0,5.217-2.341,5.217-5.218V7.776c0-2.876-2.34-5.217-5.217-5.217H9.324z"/>
		<linearGradient id="aigrd1" gradientUnits="userSpaceOnUse" x1="13.375" y1="6.7632" x2="32.6902" y2="40.3169">
			<stop  offset="0" style="stop-color:#F0F0F0"/>
			<stop  offset="1" style="stop-color:#D6D6D6"/>
		</linearGradient>
		<path style="&st0;" d="M39.395,38.556c0,1.572-1.275,2.846-2.846,2.846H9.086c-1.572,0-2.846-1.273-2.846-2.846V7.776c0-1.571,1.274-2.846,2.846-2.846h27.462c1.57,0,2.846,1.274,2.846,2.846v30.779z"/>
		<g>
			<radialGradient id="aigrd2" cx="9.0605" cy="29.7285" r="1.247" fx="9.0605" fy="29.7285" gradientUnits="userSpaceOnUse">
				<stop  offset="0" style="stop-color:#F0F0F0"/>
				<stop  offset="1" style="stop-color:#474747"/>
			</radialGradient>
			<path style="&st7;" d="M9.662,29.373c0,0.468-0.379,0.848-0.847,0.848s-0.847-0.38-0.847-0.848s0.379-0.847,0.847-0.847s0.847,0.379,0.847,0.847z"/>
			<radialGradient id="aigrd3" cx="9.0605" cy="17.8711" r="1.247" fx="9.0605" fy="17.8711" gradientUnits="userSpaceOnUse">
				<stop  offset="0" style="stop-color:#F0F0F0"/>
				<stop  offset="1" style="stop-color:#474747"/>
			</radialGradient>
			<path style="&st2;" d="M9.662,17.516c0,0.468-0.379,0.847-0.847,0.847s-0.847-0.379-0.847-0.847c0-0.468,0.379-0.847,0.847-0.847s0.847,0.379,0.847,0.847z"/>
		</g>
		<path style="&st11;" d="M11.619,41.383h-0.383V5.557h0.383v35.826z"/>
		<linearGradient id="aigrd4" gradientUnits="userSpaceOnUse" x1="11.2563" y1="6.5542" x2="10.8333" y2="40.0826">
			<stop  offset="0" style="stop-color:#EDEDED"/>
			<stop  offset="1" style="stop-color:#CACACA"/>
		</linearGradient>
		<path style="&st12;" d="M11.234,41.383h-0.383V5.557h0.383v35.826z"/>
		<path style="&st11;" d="M7.52,8.762L6.899,40.375c-0.451-0.451-0.631-1.432-0.631-1.432L6.229,7.66c0,0-0.038-0.807,0.703-1.739C7.681,4.977,8.929,4.92,8.929,4.92l28.022,0.04L10.008,6.273c-1.088,0-1.671,0.539-1.909,0.822C7.907,7.325,7.532,8.069,7.52,8.762z"
			/>
		<path style="&st8;" d="M38.242,37.577l0.621-31.613c0.451,0.451,0.631,1.431,0.631,1.431l0.039,31.284c0,0,0.037,0.807-0.703,1.739c-0.75,0.944-1.998,1.001-1.998,1.001l-28.021-0.04l26.943-1.313c1.088,0,1.67-0.539,1.908-0.822
			c0.193-0.229,0.568-0.974,0.58-1.666z"/>
	</g>
	<g id="Layer_x0020_4" style="&st10;">
		<path style="&st9;" d="M44.572,48H0V0h44.572v48z"/>
	</g>
	<g id="Layer_x0020_6" style="&st3;">
		<path style="&st1;" d="M30.092,16.138h-11.61c0,0,0,3.571,0,4.309c-0.546-0.888-1.343-1.404-2.209-1.404c-1.646,0-2.936,1.841-2.936,4.192c0,2.35,1.29,4.192,2.936,4.192c0.877,0,1.664-0.504,2.209-1.396c0,0.666,0,4.156,0,4.156h11.935c0,0,0-3.433,0-4.164
			c0.545,0.888,1.343,1.404,2.209,1.404c1.646,0,2.936-1.842,2.936-4.192c0-2.351-1.29-4.192-2.936-4.192c-0.877,0-1.664,0.503-2.209,1.396c0-0.671,0-4.301,0-4.301h-0.324z"/>
		<linearGradient id="aigrd5" gradientUnits="userSpaceOnUse" x1="20.8071" y1="19.7559" x2="28.049" y2="26.5292">
			<stop  offset="0" style="stop-color:#DEDFCE"/>
			<stop  offset="1" style="stop-color:#C2C4B5"/>
		</linearGradient>
		<path style="&st6;" d="M32.495,19.818c-0.705,0-1.324,0.61-1.671,1.525c-0.541,0.236-1.3,0.055-1.509-0.546v-3.786h-0.106h-9.78h-0.106v3.84c-0.205,0.64-0.934,0.828-1.473,0.593c-0.338-0.972-0.976-1.627-1.708-1.627c-1.085,0-1.965,1.442-1.965,3.222
			c0,1.778,0.88,3.222,1.965,3.222c0.706,0,1.324-0.61,1.671-1.525c0.542-0.236,1.3-0.056,1.509,0.545v3.752h0.106h9.78h0.106v-3.806c0.204-0.64,0.934-0.828,1.473-0.593c0.338,0.971,0.977,1.627,1.707,1.627c1.086,0,1.965-1.443,1.965-3.222
			c0-1.779-0.879-3.222-1.965-3.222z"/>
		<g style="&st11;">
			<path d="M17.496,21.223c0.091,0.04,0.188,0.066,0.288,0.082c-0.241-0.599-0.6-1.057-1.023-1.287c0.306,0.287,0.561,0.704,0.735,1.205z"/>
			<path d="M28.961,20.576c0.091,0.26,0.285,0.441,0.519,0.544c-0.069-0.082-0.126-0.176-0.164-0.286v-3.786h-0.106h-0.248v3.527z"/>
			<path d="M17.459,24.514c-0.346,0.916-0.965,1.525-1.67,1.525c-0.216,0-0.424-0.059-0.618-0.164c0.287,0.269,0.619,0.423,0.972,0.423c0.706,0,1.324-0.61,1.671-1.525c0.307-0.134,0.684-0.134,0.991,0.002c-0.313-0.367-0.902-0.454-1.346-0.261z"/>
			<path d="M33.114,20.019c0.592,0.555,0.992,1.6,0.992,2.799c0,1.779-0.88,3.221-1.965,3.221c-0.216,0-0.424-0.058-0.618-0.163c0.286,0.269,0.618,0.422,0.972,0.422c1.086,0,1.965-1.442,1.965-3.222c0-1.424-0.564-2.632-1.346-3.058z"/>
			<path d="M30.434,24.412c-0.539-0.234-1.268-0.047-1.473,0.594v3.806h-0.105h-9.533v0.259h0.106h9.78h0.106v-3.807c0.169-0.531,0.7-0.75,1.185-0.675c-0.023-0.058-0.045-0.116-0.066-0.177z"/>
		</g>
		<g style="&st5;">
			<path d="M14.429,23.267c0-1.779,0.879-3.221,1.965-3.221c0.32,0,0.621,0.125,0.888,0.347c-0.322-0.381-0.718-0.606-1.146-0.606c-1.085,0-1.965,1.442-1.965,3.221c0,1.254,0.438,2.34,1.076,2.872c-0.494-0.585-0.816-1.537-0.816-2.613z"/>
			<path d="M31.075,21.57c0.348-0.915,0.966-1.525,1.672-1.525c0.32,0,0.622,0.126,0.889,0.349c-0.322-0.382-0.719-0.608-1.148-0.608c-0.705,0-1.324,0.61-1.671,1.525c-0.364,0.159-0.826,0.128-1.153-0.091c0.29,0.442,0.935,0.559,1.412,0.35z"/>
			<path d="M18.101,21.672c0.539,0.235,1.268,0.046,1.473-0.593v-3.84h0.106h9.628V16.98h-0.106h-9.78h-0.106v3.84c-0.182,0.569-0.779,0.78-1.289,0.654c0.026,0.064,0.052,0.13,0.075,0.198z"/>
			<path d="M19.574,25.509c-0.068-0.196-0.196-0.348-0.355-0.454c0.039,0.059,0.072,0.123,0.097,0.195v3.752h0.106h0.153v-3.493z"/>
			<path d="M31.039,24.861c-0.059-0.025-0.121-0.046-0.184-0.062c0.187,0.457,0.443,0.831,0.745,1.082c-0.229-0.27-0.422-0.618-0.562-1.021z"/>
		</g>
	</g>
</svg>
