<?xml version="1.0" encoding="iso-8859-1"?>
<!-- Generator: Adobe Illustrator 9.0, SVG Export Plug-In  -->
<!DOCTYPE svg PUBLIC "-//W3C//DTD SVG 20000303 Stylable//EN"   "http://www.w3.org/TR/2000/03/WD-SVG-20000303/DTD/svg-20000303-stylable.dtd" [
	<!ENTITY st0 "fill:url(#aigrd1);stroke:none;">
	<!ENTITY st1 "fill:#000000;stroke:none;">
	<!ENTITY st2 "fill:url(#aigrd6);stroke:none;">
	<!ENTITY st3 "fill:url(#aigrd3);stroke:none;">
	<!ENTITY st4 "opacity:0.5;fill:#FFFFFF;stroke:none;">
	<!ENTITY st5 "fill-rule:nonzero;clip-rule:nonzero;fill:#FFFFFF;stroke:#000000;stroke-miterlimit:4;">
	<!ENTITY st6 "fill:none;stroke:#709550;stroke-width:0.4329;">
	<!ENTITY st7 "fill:url(#aigrd5);stroke:none;">
	<!ENTITY st8 "fill-rule:nonzero;clip-rule:nonzero;fill:#669966;stroke:#000000;stroke-miterlimit:4;">
	<!ENTITY st9 "fill:url(#aigrd2);stroke:none;">
	<!ENTITY st10 "fill:#BEBEBE;stroke:none;">
	<!ENTITY st11 "fill-rule:nonzero;clip-rule:nonzero;stroke:#000000;stroke-miterlimit:4;">
	<!ENTITY st12 "stroke:none;">
	<!ENTITY st13 "opacity:0.5;fill:#000000;stroke:none;">
	<!ENTITY st14 "fill:url(#aigrd4);stroke:none;">
	<!ENTITY st15 "fill-rule:evenodd;clip-rule:evenodd;fill:none;stroke:none;">
]>
<svg  width="52pt" height="48pt" viewBox="0 0 52 48" xml:space="preserve">
	<g id="Layer_x0020_1" style="&st5;">
		<path style="&st1;" d="M12.2,3.6C9.3,3.6,7,5.9,7,8.8v30.8c0,2.9,2.3,5.2,5.2,5.2h27.5c2.9,0,5.2-2.3,5.2-5.2V8.8c0-2.9-2.3-5.2-5.2-5.2H12.2z"/>
		<linearGradient id="aigrd1" gradientUnits="userSpaceOnUse" x1="16.2729" y1="7.7627" x2="35.5882" y2="41.3164">
			<stop  offset="0" style="stop-color:#F0F0F0"/>
			<stop  offset="1" style="stop-color:#D6D6D6"/>
		</linearGradient>
		<path style="&st0;" d="M42.3,39.6c0,1.6-1.3,2.8-2.8,2.8H12c-1.6,0-2.8-1.3-2.8-2.8V8.8c0-1.6,1.3-2.8,2.8-2.8h27.5c1.6,0,2.8,1.3,2.8,2.8v30.8z"/>
		<g>
			<radialGradient id="aigrd2" cx="11.959" cy="30.7285" r="1.247" fx="11.959" fy="30.7285" gradientUnits="userSpaceOnUse">
				<stop  offset="0" style="stop-color:#F0F0F0"/>
				<stop  offset="1" style="stop-color:#474747"/>
			</radialGradient>
			<path style="&st9;" d="M12.6,30.4c0,0.5-0.4,0.8-0.8,0.8s-0.8-0.4-0.8-0.8s0.4-0.8,0.8-0.8s0.8,0.4,0.8,0.8z"/>
			<radialGradient id="aigrd3" cx="11.959" cy="18.8711" r="1.247" fx="11.959" fy="18.8711" gradientUnits="userSpaceOnUse">
				<stop  offset="0" style="stop-color:#F0F0F0"/>
				<stop  offset="1" style="stop-color:#474747"/>
			</radialGradient>
			<path style="&st3;" d="M12.6,18.5c0,0.5-0.4,0.8-0.8,0.8s-0.8-0.4-0.8-0.8c0-0.5,0.4-0.8,0.8-0.8s0.8,0.4,0.8,0.8z"/>
		</g>
		<path style="&st12;" d="M14.5,42.4h-0.4V6.6h0.4v35.8z"/>
		<linearGradient id="aigrd4" gradientUnits="userSpaceOnUse" x1="14.1538" y1="7.5537" x2="13.7308" y2="41.0821">
			<stop  offset="0" style="stop-color:#EDEDED"/>
			<stop  offset="1" style="stop-color:#CACACA"/>
		</linearGradient>
		<path style="&st14;" d="M14.1,42.4h-0.4V6.6h0.4v35.8z"/>
		<path style="&st12;" d="M10.4,9.8L9.8,41.4c-0.5-0.5-0.6-1.4-0.6-1.4l0-31.3c0,0,0-0.8,0.7-1.7c0.7-0.9,2-1,2-1l28,0L12.9,7.3c-1.1,0-1.7,0.5-1.9,0.8c-0.2,0.2-0.6,1-0.6,1.7z"/>
		<path style="&st10;" d="M41.1,38.6L41.8,7c0.5,0.5,0.6,1.4,0.6,1.4l0,31.3c0,0,0,0.8-0.7,1.7c-0.8,0.9-2,1-2,1l-28,0l26.9-1.3c1.1,0,1.7-0.5,1.9-0.8c0.2-0.2,0.6-1,0.6-1.7z"/>
	</g>
	<g id="Layer_x0020_4" style="&st8;">
		<path style="&st1;" d="M38.4,21.8l-19.7-3.9l-2.3,11.6l20.4,4L39.1,22l-0.7-0.1z"/>
		<linearGradient id="aigrd5" gradientUnits="userSpaceOnUse" x1="24.6743" y1="17.3008" x2="33.2287" y2="26.7106" gradientTransform="matrix(0.981 0.1941 -0.1941 0.981 3.8925 -1.0124)">
			<stop  offset="0" style="stop-color:#EEEFDF"/>
			<stop  offset="1" style="stop-color:#CAE9C0"/>
		</linearGradient>
		<path style="&st7;" d="M36.2,32.7L17.3,29l2-10.2l18.9,3.7l-2,10.2z"/>
		<path style="&st6;" d="M35.5,31.5l-17.2-3.4l1.6-8l17.2,3.4l-1.6,8z"/>
		<path style="&st12;" d="M18.6,27.1l17.2,3.4l-0.2,1l-17.2-3.4l0.2-1z"/>
		<path style="&st12;" d="M31.1,26.5c-0.4,2.2-2.3,3.7-4.1,3.3c-1.9-0.4-3-2.5-2.6-4.7c0.4-2.2,2.3-3.7,4.1-3.3s3,2.5,2.6,4.7z"/>
		<path style="&st12;" d="M22.7,24.9c-0.1,0.6-0.7,1-1.3,0.9s-1-0.7-0.9-1.3c0.1-0.6,0.7-1,1.3-0.9c0.6,0.1,1,0.7,0.9,1.3z"/>
		<path style="&st12;" d="M32.1,25.6l3.2,0.6l-0.7,1.5l-2.1-0.4l-0.3-1.7z"/>
		<path style="&st1;" d="M35.7,25.5l-3.8-0.8l0.2-1l3.8,0.8l-0.2,1z"/>
		<path style="&st1;" d="M34.7,29.4l-3.3-0.6l0.1-0.5l3.3,0.6l-0.1,0.5z"/>
		<path style="&st13;" d="M28.5,22.4l-0.4,2.2l0.7,1.2l-0.6,0.4l0.7,1.8L28,28.6c0.7,0.1,2.3-0.8,2.6-2.4c0.3-1.3-0.5-3.5-2-3.8z"/>
		<path style="&st4;" d="M28,22.8c0,0-1.9,1.4-2.1,2.1c-0.1,0.8-0.3,1.4-0.3,1.4l-0.9-0.2c-0.2,1.1,0.9,2.2,1.7,2.5c0.8,0.3,2.4,0.5,2.4,0.5L28,28.6l0.8-0.5l-0.7-1.8l0.6-0.4l-0.7-1.2L28,22.8z"/>
		<path style="&st12;" d="M20.2,22.1l4.2,0.8l0.2-0.8l-4.2-0.8l-0.2,0.8z"/>
		<path style="&st12;" d="M19.3,26.4l3.8,0.8l0.1-0.5l-3.8-0.8l-0.1,0.5z"/>
		<path style="&st1;" d="M36.9,18.2H16.8V30h20.8V18.2h-0.8z"/>
		<linearGradient id="aigrd6" gradientUnits="userSpaceOnUse" x1="23.2451" y1="19.7358" x2="31.7999" y2="29.1461">
			<stop  offset="0" style="stop-color:#EEEFDF"/>
			<stop  offset="1" style="stop-color:#CAE9C0"/>
		</linearGradient>
		<path style="&st2;" d="M36.9,29.3H17.6V18.9h19.3v10.4z"/>
		<path style="&st6;" d="M35.9,28.2H18.4v-8.2h17.5v8.2z"/>
		<path style="&st12;" d="M18.4,27.2h17.5v1H18.4v-1z"/>
		<path style="&st12;" d="M30.6,24.1c0,2.3-1.5,4.1-3.4,4.1c-1.9,0-3.4-1.8-3.4-4.1c0-2.3,1.5-4.1,3.4-4.1c1.9,0,3.4,1.8,3.4,4.1z"/>
		<path style="&st12;" d="M22,24.2c0,0.6-0.5,1.1-1.1,1.1c-0.6,0-1.1-0.5-1.1-1.1s0.5-1.1,1.1-1.1c0.6,0,1.1,0.5,1.1,1.1z"/>
		<path style="&st12;" d="M31.4,23.1h3.2l-0.4,1.6h-2.2l-0.7-1.6z"/>
		<path style="&st1;" d="M35,22.2h-3.9v-1H35v1z"/>
		<path style="&st1;" d="M34.7,26.3h-3.3v-0.5h3.3v0.5z"/>
		<path style="&st13;" d="M27.3,20.6l0,2.2l0.9,1.1l-0.5,0.5l1,1.7L28,26.8c0.7,0,2.1-1.3,2.1-2.9c0-1.3-1.2-3.4-2.8-3.4z"/>
		<path style="&st4;" d="M26.8,21.1c0,0-1.6,1.7-1.6,2.5s0,1.4,0,1.4h-1c0,1.2,1.3,2,2.1,2.1c0.8,0.2,2.5,0,2.5,0L28,26.8l0.7-0.7l-1-1.7l0.5-0.5l-0.9-1.1l-0.5-1.7z"/>
		<path style="&st12;" d="M19,22h4.3v-0.9H19V22z"/>
		<path style="&st12;" d="M19,26.3h3.9v-0.5H19v0.5z"/>
	</g>
	<g id="Layer_x0020_3" style="&st11;">
		<path style="&st15;" d="M52,48H0V0h52v48z"/>
	</g>
</svg>
