<?xml version="1.0" encoding="iso-8859-1"?>
<!-- Generator: Adobe Illustrator 9.0, SVG Export Plug-In  -->
<!DOCTYPE svg PUBLIC "-//W3C//DTD SVG 20000303 Stylable//EN"   "http://www.w3.org/TR/2000/03/WD-SVG-20000303/DTD/svg-20000303-stylable.dtd" [
	<!ENTITY st0 "fill:url(#aigrd1);stroke:none;">
	<!ENTITY st1 "fill:#000000;stroke:none;">
	<!ENTITY st2 "fill:url(#aigrd3);stroke:none;">
	<!ENTITY st3 "opacity:0.5;fill:#FFFFFF;stroke:none;">
	<!ENTITY st4 "fill-rule:nonzero;clip-rule:nonzero;fill:#FFFFFF;stroke:#000000;stroke-miterlimit:4;">
	<!ENTITY st5 "fill:#D2D2D2;stroke:none;">
	<!ENTITY st6 "fill:url(#aigrd5);stroke:none;">
	<!ENTITY st7 "fill:url(#aigrd2);stroke:none;">
	<!ENTITY st8 "fill:#BEBEBE;stroke:none;">
	<!ENTITY st9 "fill:none;stroke:none;">
	<!ENTITY st10 "fill-rule:nonzero;clip-rule:nonzero;stroke:#000000;stroke-miterlimit:4;">
	<!ENTITY st11 "opacity:0.5;stroke:none;">
	<!ENTITY st12 "stroke:none;">
	<!ENTITY st13 "fill:url(#aigrd4);stroke:none;">
]>
<svg  width="42.5pt" height="48pt" viewBox="0 0 42.5 48" xml:space="preserve">
	<g id="Layer_x0020_1" style="&st4;">
		<path style="&st1;" d="M8.2,3.6C5.3,3.6,3,5.9,3,8.8v30.8c0,2.9,2.3,5.2,5.2,5.2h27.5c2.9,0,5.2-2.3,5.2-5.2V8.8c0-2.9-2.3-5.2-5.2-5.2H8.2z"/>
		<linearGradient id="aigrd1" gradientUnits="userSpaceOnUse" x1="12.2363" y1="7.7627" x2="31.5515" y2="41.3164">
			<stop  offset="0" style="stop-color:#F0F0F0"/>
			<stop  offset="1" style="stop-color:#D6D6D6"/>
		</linearGradient>
		<path style="&st0;" d="M38.3,39.6c0,1.6-1.3,2.8-2.8,2.8H7.9c-1.6,0-2.8-1.3-2.8-2.8V8.8c0-1.6,1.3-2.8,2.8-2.8h27.5c1.6,0,2.8,1.3,2.8,2.8v30.8z"/>
		<g>
			<radialGradient id="aigrd2" cx="7.9224" cy="30.7285" r="1.247" fx="7.9224" fy="30.7285" gradientUnits="userSpaceOnUse">
				<stop  offset="0" style="stop-color:#F0F0F0"/>
				<stop  offset="1" style="stop-color:#474747"/>
			</radialGradient>
			<path style="&st7;" d="M8.5,30.4c0,0.5-0.4,0.8-0.8,0.8s-0.8-0.4-0.8-0.8s0.4-0.8,0.8-0.8s0.8,0.4,0.8,0.8z"/>
			<radialGradient id="aigrd3" cx="7.9224" cy="18.8711" r="1.247" fx="7.9224" fy="18.8711" gradientUnits="userSpaceOnUse">
				<stop  offset="0" style="stop-color:#F0F0F0"/>
				<stop  offset="1" style="stop-color:#474747"/>
			</radialGradient>
			<path style="&st2;" d="M8.5,18.5c0,0.5-0.4,0.8-0.8,0.8S6.8,19,6.8,18.5c0-0.5,0.4-0.8,0.8-0.8s0.8,0.4,0.8,0.8z"/>
		</g>
		<path style="&st12;" d="M10.5,42.4h-0.4V6.6h0.4v35.8z"/>
		<linearGradient id="aigrd4" gradientUnits="userSpaceOnUse" x1="10.1172" y1="7.5537" x2="9.6941" y2="41.0821">
			<stop  offset="0" style="stop-color:#EDEDED"/>
			<stop  offset="1" style="stop-color:#CACACA"/>
		</linearGradient>
		<path style="&st13;" d="M10.1,42.4H9.7V6.6h0.4v35.8z"/>
		<path style="&st12;" d="M6.4,9.8L5.8,41.4c-0.5-0.5-0.6-1.4-0.6-1.4l0-31.3c0,0,0-0.8,0.7-1.7c0.7-0.9,2-1,2-1l28,0L8.9,7.3C7.8,7.3,7.2,7.8,7,8.1c-0.2,0.2-0.6,1-0.6,1.7z"/>
		<path style="&st8;" d="M37.1,38.6L37.7,7c0.5,0.5,0.6,1.4,0.6,1.4l0,31.3c0,0,0,0.8-0.7,1.7c-0.8,0.9-2,1-2,1l-28,0l26.9-1.3c1.1,0,1.7-0.5,1.9-0.8c0.2-0.2,0.6-1,0.6-1.7z"/>
	</g>
	<g id="Layer_x0020_2" style="&st10;">
		<path style="&st9;" d="M42.5,48H0V0h42.5v48z"/>
	</g>
	<g id="Layer_x0020_3" style="&st10;">
		<path style="&st12;" d="M16.7,18.8c0,0,0,1.2,0,2.2c-1.3,0.1-2.4,1.3-2.4,2.6v10.6c0,1.5,1.2,2.6,2.6,2.6h14.3c1.5,0,2.6-1.2,2.6-2.6V23.5c0-1.3-1-2.4-2.2-2.6c0-0.9,0-2.2,0-2.2c0-4.1-3.4-7.5-7.5-7.5c-4.1,0-7.5,3.4-7.5,7.5z M21.4,18.8c0-1.5,1.2-2.8,2.8-2.8
			c1.5,0,2.8,1.2,2.8,2.8c0,0,0,1.2,0,2.1c-1.3,0-4.3,0-5.6,0c0-0.9,0-2.1,0-2.1z"/>
		<path style="&st5;" d="M17.6,18.7v6.1h2.8v-6.1c0-2.1,1.7-3.8,3.8-3.8s3.8,1.7,3.8,3.8v6.1h2.8v-6.1c0-3.6-2.9-6.5-6.5-6.5s-6.5,2.9-6.5,6.5z"/>
		<g>
			<path style="&st11;" d="M24.6,12.6c3.3-0.1,5.9,2.3,6.1,6v6.1h-0.6V19c0-3.6-2.5-6.1-5.5-6.4z"/>
		</g>
		<g>
			<path style="&st3;" d="M24.6,12.6c1.3,0,2.6,0.4,3.6,1.1c-1.1-0.9-2.6-1.5-4.2-1.5c-3.6,0-6.5,2.9-6.5,6.5v6.1h0.6v-5.7c0-3.6,2.9-6.5,6.5-6.5z"/>
		</g>
		<g>
			<path style="&st3;" d="M28.4,24.7v-5.8c0-1.5-0.9-2.8-2.1-3.4c1,0.7,1.6,1.8,1.6,3.1v6.1h0.5z"/>
		</g>
		<g>
			<path style="&st11;" d="M20,24.8v-5.8c0-1.5,0.9-2.8,2.1-3.4c-1,0.7-1.6,1.8-1.6,3.1v6.1H20z"/>
		</g>
		<linearGradient id="aigrd5" gradientUnits="userSpaceOnUse" x1="16.3872" y1="28.7354" x2="32.0992" y2="28.7354">
			<stop  offset="0" style="stop-color:#F6EDC8"/>
			<stop  offset="1.444304e-002" style="stop-color:#F3EAC0"/>
			<stop  offset="7.716820e-002" style="stop-color:#E8DEA3"/>
			<stop  offset="0.1471" style="stop-color:#E1D48F"/>
			<stop  offset="0.2271" style="stop-color:#DACD81"/>
			<stop  offset="0.3259" style="stop-color:#D7CA78"/>
			<stop  offset="0.5" style="stop-color:#D6C876"/>
			<stop  offset="0.7061" style="stop-color:#D3C575"/>
			<stop  offset="0.7987" style="stop-color:#CABE70"/>
			<stop  offset="0.8686" style="stop-color:#BAAF67"/>
			<stop  offset="0.9271" style="stop-color:#A49B5C"/>
			<stop  offset="0.9779" style="stop-color:#8A844E"/>
			<stop  offset="1" style="stop-color:#7D7746"/>
		</linearGradient>
		<path style="&st6;" d="M32.9,34c0,0.9-0.7,1.7-1.7,1.7H16.9c-0.9,0-1.7-0.7-1.7-1.7V23.4c0-0.9,0.7-1.7,1.7-1.7h14.3c0.9,0,1.7,0.7,1.7,1.7V34z"/>
		<path style="&st3;" d="M26.8,26.9c0-1.1-1.1-2.2-2.2-2.2s-1.7,1.1-1.7,2.2c0,0.8,0.5,1.5,1.2,1.8l-1.7,2.9l4.3,0.3l-1.2-3.2c0.7-0.3,1.2-1,1.2-1.8z"/>
		<path style="&st11;" d="M26.4,26.5c0-1.1-1-2.3-2.4-2.3c-1.1,0-1.9,0.9-1.9,1.9c0,1.2,0.6,1.9,1.3,2.2l-0.9,3.3l3.5-0.4L24.7,28c0.7-0.3,1.7-0.7,1.7-1.5z"/>
		<path style="&st12;" d="M26.4,26.6c0-1.1-0.9-1.9-1.9-1.9s-1.9,0.9-1.9,1.9c0,0.8,0.5,1.5,1.2,1.8l-1.2,3.2h3.9l-1.2-3.2c0.7-0.3,1.2-1,1.2-1.8z"/>
		<path style="&st11;" d="M16.9,35.7c0,0,13.5,0,14.3,0c0.9,0,1.7-0.7,1.7-1.7c0-0.9,0-10.6,0-10.6s-1,9.6-1.1,10.1c-0.1,0.5-0.5,1.2-1.2,1.2c-0.6,0-13.7,0.9-13.7,0.9z"/>
		<path style="&st3;" d="M31.2,21.8c0,0-13.5,0-14.3,0c-0.9,0-1.7,0.7-1.7,1.7s0,10.6,0,10.6s1-9.6,1.1-10.1c0.1-0.4,0.5-1.2,1.2-1.2c0.6,0,13.7-0.9,13.7-0.9z"/>
	</g>
</svg>
