<?xml version="1.0" encoding="iso-8859-1"?>
<!-- Generator: Adobe Illustrator 9.0, SVG Export Plug-In  -->
<!DOCTYPE svg PUBLIC "-//W3C//DTD SVG 20000303 Stylable//EN"   "http://www.w3.org/TR/2000/03/WD-SVG-20000303/DTD/svg-20000303-stylable.dtd" [
	<!ENTITY st0 "fill:url(#aigrd1);stroke:none;">
	<!ENTITY st1 "fill:#000000;stroke:none;">
	<!ENTITY st2 "fill:#F91215;stroke:none;">
	<!ENTITY st3 "opacity:0.2;stroke:none;">
	<!ENTITY st4 "fill:url(#aigrd3);stroke:none;">
	<!ENTITY st5 "fill-rule:nonzero;clip-rule:nonzero;fill:#FFFFFF;stroke:#000000;stroke-miterlimit:4;">
	<!ENTITY st6 "fill:url(#aigrd2);stroke:none;">
	<!ENTITY st7 "fill:#BEBEBE;stroke:none;">
	<!ENTITY st8 "fill:none;stroke:none;">
	<!ENTITY st9 "fill-rule:nonzero;clip-rule:nonzero;stroke:#000000;stroke-miterlimit:4;">
	<!ENTITY st10 "stroke:none;">
	<!ENTITY st11 "fill:#C7C61C;stroke:none;">
	<!ENTITY st12 "fill:#1D0E82;stroke:none;">
	<!ENTITY st13 "fill:url(#aigrd4);stroke:none;">
]>
<svg  width="51.902pt" height="48pt" viewBox="0 0 51.902 48" xml:space="preserve">
	<g id="Layer_x0020_1" style="&st5;">
		<path style="&st1;" d="M12.124,3.56c-2.877,0-5.217,2.34-5.217,5.217v30.779c0,2.877,2.34,5.218,5.217,5.218h27.461c2.877,0,5.217-2.341,5.217-5.218V8.776c0-2.876-2.34-5.217-5.217-5.217H12.124z"/>
		<linearGradient id="aigrd1" gradientUnits="userSpaceOnUse" x1="16.1748" y1="7.7627" x2="35.49" y2="41.3164">
			<stop  offset="0" style="stop-color:#F0F0F0"/>
			<stop  offset="1" style="stop-color:#D6D6D6"/>
		</linearGradient>
		<path style="&st0;" d="M42.195,39.556c0,1.572-1.275,2.846-2.846,2.846H11.887c-1.572,0-2.846-1.273-2.846-2.846V8.776c0-1.571,1.274-2.846,2.846-2.846h27.462c1.57,0,2.846,1.274,2.846,2.846v30.779z"/>
		<g>
			<radialGradient id="aigrd2" cx="11.8608" cy="30.7285" r="1.247" fx="11.8608" fy="30.7285" gradientUnits="userSpaceOnUse">
				<stop  offset="0" style="stop-color:#F0F0F0"/>
				<stop  offset="1" style="stop-color:#474747"/>
			</radialGradient>
			<path style="&st6;" d="M12.462,30.373c0,0.468-0.379,0.848-0.847,0.848s-0.847-0.38-0.847-0.848s0.379-0.847,0.847-0.847s0.847,0.379,0.847,0.847z"/>
			<radialGradient id="aigrd3" cx="11.8608" cy="18.8711" r="1.247" fx="11.8608" fy="18.8711" gradientUnits="userSpaceOnUse">
				<stop  offset="0" style="stop-color:#F0F0F0"/>
				<stop  offset="1" style="stop-color:#474747"/>
			</radialGradient>
			<path style="&st4;" d="M12.462,18.516c0,0.468-0.379,0.847-0.847,0.847s-0.847-0.379-0.847-0.847c0-0.468,0.379-0.847,0.847-0.847s0.847,0.379,0.847,0.847z"/>
		</g>
		<path style="&st10;" d="M14.419,42.383h-0.383V6.557h0.383v35.826z"/>
		<linearGradient id="aigrd4" gradientUnits="userSpaceOnUse" x1="14.0557" y1="7.5537" x2="13.6326" y2="41.0821">
			<stop  offset="0" style="stop-color:#EDEDED"/>
			<stop  offset="1" style="stop-color:#CACACA"/>
		</linearGradient>
		<path style="&st13;" d="M14.034,42.383h-0.383V6.557h0.383v35.826z"/>
		<path style="&st10;" d="M10.32,9.762L9.699,41.375c-0.451-0.451-0.631-1.432-0.631-1.432L9.03,8.66c0,0-0.038-0.807,0.703-1.739c0.749-0.944,1.997-1.001,1.997-1.001l28.022,0.04L12.809,7.273c-1.088,0-1.671,0.539-1.909,0.822
			c-0.192,0.229-0.567,0.973-0.58,1.666z"/>
		<path style="&st7;" d="M41.042,38.577l0.621-31.613c0.451,0.451,0.631,1.431,0.631,1.431l0.039,31.284c0,0,0.037,0.807-0.703,1.739c-0.75,0.944-1.998,1.001-1.998,1.001l-28.021-0.04l26.943-1.313c1.088,0,1.67-0.539,1.908-0.822
			c0.193-0.229,0.568-0.974,0.58-1.666z"/>
	</g>
	<g id="Layer_x0020_5" style="&st9;">
		<path style="&st3;" d="M38.978,16.508h-9.717V10.17h9.717v6.338z"/>
		<path style="&st3;" d="M27.064,16.508h-9.716V10.17h9.716v6.338z"/>
		<path style="&st3;" d="M38.978,38.465h-9.717v-9.233h9.717v9.233z"/>
		<path style="&st3;" d="M27.064,38.465h-9.716v-9.233h9.716v9.233z"/>
		<g>
			<path style="&st12;" d="M17.634,20.627l2.208-0.877l1.876,4.722l3.457-1.375l0.618,1.554l-5.666,2.252l-2.494-6.275z"/>
			<path style="&st11;" d="M24.3,18.197l2.539,0.731l0.864,2.613l2.119-1.756l2.526,0.728l-3.969,2.942l-0.781,2.718l-2.283-0.658l0.782-2.717L24.3,18.197z"/>
			<path style="&st2;" d="M30.517,18.952l2.618,0.187l1.197,2.168l1.467-1.978l2.583,0.185l-2.619,3.094l2.367,3.657l-2.666-0.189l-1.356-2.271l-1.668,2.054l-2.647-0.189l2.897-3.317l-2.173-3.401z"/>
		</g>
	</g>
	<g id="Layer_x0020_4" style="&st9;">
		<path style="&st8;" d="M51.902,48H0V0h51.902v48z"/>
	</g>
</svg>
