<?xml version="1.0" encoding="iso-8859-1"?>
<!-- Generator: Adobe Illustrator 9.0, SVG Export Plug-In  -->
<!DOCTYPE svg PUBLIC "-//W3C//DTD SVG 20000303 Stylable//EN"   "http://www.w3.org/TR/2000/03/WD-SVG-20000303/DTD/svg-20000303-stylable.dtd" [
	<!ENTITY st0 "fill:url(#aigrd1);stroke:none;">
	<!ENTITY st1 "fill:#000000;stroke:none;">
	<!ENTITY st2 "opacity:0.35;fill:#000000;stroke:none;">
	<!ENTITY st3 "opacity:0.1667;fill:url(#aigrd7);stroke:none;">
	<!ENTITY st4 "opacity:0.72;stroke:none;">
	<!ENTITY st5 "opacity:0;fill:url(#aigrd6);stroke:none;">
	<!ENTITY st6 "fill:url(#aigrd3);stroke:none;">
	<!ENTITY st7 "fill-rule:nonzero;clip-rule:nonzero;fill:#FFFFFF;stroke:#000000;stroke-miterlimit:4;">
	<!ENTITY st8 "fill:url(#aigrd5);stroke:none;">
	<!ENTITY st9 "opacity:0.6667;fill:url(#aigrd10);stroke:none;">
	<!ENTITY st10 "fill:url(#aigrd2);stroke:none;">
	<!ENTITY st11 "opacity:0.8333;fill:url(#aigrd11);stroke:none;">
	<!ENTITY st12 "fill:#BEBEBE;stroke:none;">
	<!ENTITY st13 "fill:none;stroke:none;">
	<!ENTITY st14 "fill:url(#aigrd12);stroke:none;">
	<!ENTITY st15 "opacity:0.5;fill:url(#aigrd9);stroke:none;">
	<!ENTITY st16 "opacity:0.3333;fill:url(#aigrd8);stroke:none;">
	<!ENTITY st17 "fill-rule:nonzero;clip-rule:nonzero;stroke:#000000;stroke-miterlimit:4;">
	<!ENTITY st18 "opacity:0.5;stroke:none;">
	<!ENTITY st19 "stroke:none;">
	<!ENTITY st20 "fill:url(#aigrd4);stroke:none;">
]>
<svg  width="44.572pt" height="48pt" viewBox="0 0 44.572 48" xml:space="preserve">
	<g id="Layer_x0020_1" style="&st7;">
		<path style="&st1;" d="M9.324,2.56c-2.877,0-5.217,2.34-5.217,5.217v30.779c0,2.877,2.34,5.218,5.217,5.218h27.461c2.877,0,5.217-2.341,5.217-5.218V7.776c0-2.876-2.34-5.217-5.217-5.217H9.324z"/>
		<linearGradient id="aigrd1" gradientUnits="userSpaceOnUse" x1="13.375" y1="6.7632" x2="32.6902" y2="40.3169">
			<stop  offset="0" style="stop-color:#F0F0F0"/>
			<stop  offset="1" style="stop-color:#D6D6D6"/>
		</linearGradient>
		<path style="&st0;" d="M39.395,38.556c0,1.572-1.275,2.846-2.846,2.846H9.086c-1.572,0-2.846-1.273-2.846-2.846V7.776c0-1.571,1.274-2.846,2.846-2.846h27.462c1.57,0,2.846,1.274,2.846,2.846v30.779z"/>
		<g>
			<radialGradient id="aigrd2" cx="9.0605" cy="29.7285" r="1.247" fx="9.0605" fy="29.7285" gradientUnits="userSpaceOnUse">
				<stop  offset="0" style="stop-color:#F0F0F0"/>
				<stop  offset="1" style="stop-color:#474747"/>
			</radialGradient>
			<path style="&st10;" d="M9.662,29.373c0,0.468-0.379,0.848-0.847,0.848s-0.847-0.38-0.847-0.848s0.379-0.847,0.847-0.847s0.847,0.379,0.847,0.847z"/>
			<radialGradient id="aigrd3" cx="9.0605" cy="17.8711" r="1.247" fx="9.0605" fy="17.8711" gradientUnits="userSpaceOnUse">
				<stop  offset="0" style="stop-color:#F0F0F0"/>
				<stop  offset="1" style="stop-color:#474747"/>
			</radialGradient>
			<path style="&st6;" d="M9.662,17.516c0,0.468-0.379,0.847-0.847,0.847s-0.847-0.379-0.847-0.847c0-0.468,0.379-0.847,0.847-0.847s0.847,0.379,0.847,0.847z"/>
		</g>
		<path style="&st19;" d="M11.619,41.383h-0.383V5.557h0.383v35.826z"/>
		<linearGradient id="aigrd4" gradientUnits="userSpaceOnUse" x1="11.2563" y1="6.5542" x2="10.8333" y2="40.0826">
			<stop  offset="0" style="stop-color:#EDEDED"/>
			<stop  offset="1" style="stop-color:#CACACA"/>
		</linearGradient>
		<path style="&st20;" d="M11.234,41.383h-0.383V5.557h0.383v35.826z"/>
		<path style="&st19;" d="M7.52,8.762L6.899,40.375c-0.451-0.451-0.631-1.432-0.631-1.432L6.229,7.66c0,0-0.038-0.807,0.703-1.739C7.681,4.977,8.929,4.92,8.929,4.92l28.022,0.04L10.008,6.273c-1.088,0-1.671,0.539-1.909,0.822C7.907,7.325,7.532,8.069,7.52,8.762z"
			/>
		<path style="&st12;" d="M38.242,37.577l0.621-31.613c0.451,0.451,0.631,1.431,0.631,1.431l0.039,31.284c0,0,0.037,0.807-0.703,1.739c-0.75,0.944-1.998,1.001-1.998,1.001l-28.021-0.04l26.943-1.313c1.088,0,1.67-0.539,1.908-0.822
			c0.193-0.229,0.568-0.974,0.58-1.666z"/>
	</g>
	<g id="Layer_x0020_4" style="&st17;">
		<path style="&st13;" d="M44.572,48H0V0h44.572v48z"/>
	</g>
	<g id="Layer_x0020_6" style="&st7;">
		<path style="&st1;" d="M43.574,30.691l-12.469-12.47c-0.273-0.273-0.645-0.427-1.031-0.427s-0.758,0.153-1.031,0.427l-12.469,12.47c-0.273,0.273-0.427,0.644-0.427,1.031c0,0.386,0.153,0.757,0.427,1.03l12.469,12.469c0.57,0.569,1.493,0.569,2.063,0
			l12.469-12.469c0.569-0.569,0.569-1.492,0-2.062z"/>
		<linearGradient id="aigrd5" gradientUnits="userSpaceOnUse" x1="27.0381" y1="18.4194" x2="33.727" y2="47.7282">
			<stop  offset="0" style="stop-color:#184375"/>
			<stop  offset="1" style="stop-color:#C8BDDC"/>
		</linearGradient>
		<path style="&st8;" d="M30.074,44.19L17.605,31.723l12.469-12.47l12.469,12.47L30.074,44.19z"/>
		<g>
			<g>
				<linearGradient id="aigrd6" gradientUnits="userSpaceOnUse" x1="27.5801" y1="28.6357" x2="30.512" y2="35.1684">
					<stop  offset="0" style="stop-color:#184375"/>
					<stop  offset="1" style="stop-color:#C8BDDC"/>
				</linearGradient>
				<path style="&st5;" d="M30.574,19.788L18.105,32.257l7.257,7.1c9.322,0,1.596-12.066,12.713-12.066l-7.501-7.502z"/>
				<linearGradient id="aigrd7" gradientUnits="userSpaceOnUse" x1="27.4277" y1="28.5107" x2="30.3328" y2="34.9834">
					<stop  offset="0" style="stop-color:#184375"/>
					<stop  offset="1" style="stop-color:#C8BDDC"/>
				</linearGradient>
				<path style="&st3;" d="M30.488,19.702l-12.47,12.469l7.132,6.994c9.322,0,1.549-12.134,12.666-12.134l-7.328-7.329z"/>
				<linearGradient id="aigrd8" gradientUnits="userSpaceOnUse" x1="27.2773" y1="28.3848" x2="30.1555" y2="34.7974">
					<stop  offset="0" style="stop-color:#184375"/>
					<stop  offset="1" style="stop-color:#C8BDDC"/>
				</linearGradient>
				<path style="&st16;" d="M30.401,19.615L17.933,32.084l7.006,6.89c9.322,0,1.503-12.201,12.62-12.201l-7.157-7.157z"/>
				<linearGradient id="aigrd9" gradientUnits="userSpaceOnUse" x1="27.125" y1="28.2578" x2="29.976" y2="34.6101">
					<stop  offset="0" style="stop-color:#184375"/>
					<stop  offset="1" style="stop-color:#C8BDDC"/>
				</linearGradient>
				<path style="&st15;" d="M30.315,19.529L17.846,31.998l6.88,6.784c9.322,0,1.456-12.268,12.573-12.268l-6.984-6.985z"/>
				<linearGradient id="aigrd10" gradientUnits="userSpaceOnUse" x1="26.9736" y1="28.1318" x2="29.7976" y2="34.4238">
					<stop  offset="0" style="stop-color:#184375"/>
					<stop  offset="1" style="stop-color:#C8BDDC"/>
				</linearGradient>
				<path style="&st9;" d="M30.229,19.443L17.76,31.912l6.755,6.679c9.322,0,1.409-12.335,12.526-12.335l-6.812-6.813z"/>
				<linearGradient id="aigrd11" gradientUnits="userSpaceOnUse" x1="26.8223" y1="28.0059" x2="29.6194" y2="34.2382">
					<stop  offset="0" style="stop-color:#184375"/>
					<stop  offset="1" style="stop-color:#C8BDDC"/>
				</linearGradient>
				<path style="&st11;" d="M30.143,19.356L17.674,31.825l6.629,6.574c9.322,0,1.362-12.402,12.48-12.402l-6.641-6.641z"/>
				<linearGradient id="aigrd12" gradientUnits="userSpaceOnUse" x1="26.6709" y1="27.8799" x2="29.441" y2="34.0518">
					<stop  offset="0" style="stop-color:#184375"/>
					<stop  offset="1" style="stop-color:#C8BDDC"/>
				</linearGradient>
				<path style="&st14;" d="M30.057,19.271L17.587,31.739l6.503,6.469c9.322,0,1.316-12.47,12.434-12.47l-6.468-6.468z"/>
			</g>
		</g>
		<path style="&st4;" d="M42.543,31.723l-12.469-12.47l-12.469,12.47l0.507,0.404l12.073-10.739l12.357,10.335z"/>
		<path style="&st18;" d="M20.109,34.226l0.479-0.664c0.413,0.174,0.844,0.314,1.289,0.418l-0.004,1.022c0.278,0.058,0.56,0.103,0.846,0.133l0.313-0.974c0.223,0.019,0.449,0.028,0.676,0.028c0.229,0,0.454-0.01,0.678-0.028l0.313,0.974
			c0.285-0.03,0.568-0.075,0.846-0.133l-0.004-1.022c0.445-0.104,0.876-0.244,1.288-0.418l0.6,0.83c0.261-0.118,0.516-0.249,0.762-0.39l-0.32-0.973c0.389-0.234,0.754-0.501,1.096-0.797l0.825,0.605c0.212-0.192,0.413-0.395,0.606-0.606l-0.605-0.825
			c0.295-0.341,0.563-0.707,0.797-1.095l0.973,0.32c0.142-0.247,0.271-0.501,0.39-0.763l-0.831-0.599c0.175-0.412,0.314-0.844,0.419-1.288l1.022,0.003c0.058-0.277,0.102-0.56,0.133-0.846l-0.975-0.313c0.02-0.223,0.028-0.449,0.028-0.677s-0.01-0.453-0.028-0.677
			l0.975-0.313c-0.031-0.286-0.075-0.569-0.133-0.846l-1.022,0.003c-0.104-0.444-0.244-0.875-0.419-1.288l0.831-0.599c-0.119-0.261-0.248-0.516-0.39-0.762l-0.973,0.318c-0.234-0.387-0.502-0.753-0.797-1.094l0.605-0.825c-0.182-0.198-0.371-0.389-0.568-0.569
			L17.605,31.723l0.654,0.652l0.193-0.143c0.342,0.296,0.708,0.563,1.095,0.797l-0.156,0.478l0.718,0.719z"/>
		<path style="&st18;" d="M32.775,37.499c0-4.207,2.747-7.771,6.544-9.001l-1.444-1.445c-0.011,0.005-0.022,0.009-0.032,0.014l-0.118-0.163l-0.916-0.916c-0.3,0.142-0.595,0.294-0.882,0.459l0.45,1.368c-0.546,0.331-1.062,0.706-1.542,1.121l-1.161-0.851
			c-0.298,0.271-0.582,0.555-0.854,0.853l0.852,1.162c-0.416,0.48-0.791,0.996-1.121,1.542l-1.369-0.45c-0.199,0.348-0.383,0.705-0.549,1.073l1.169,0.842c-0.245,0.582-0.443,1.188-0.589,1.814l-1.44-0.006c-0.08,0.391-0.143,0.789-0.187,1.192l1.372,0.438
			c-0.026,0.315-0.04,0.633-0.04,0.953c0,0.321,0.014,0.639,0.04,0.953l-1.372,0.439c0.044,0.403,0.106,0.801,0.187,1.191l1.44-0.006c0.146,0.627,0.344,1.233,0.589,1.814l-1.169,0.843c0.093,0.204,0.191,0.405,0.294,0.604l2.468-2.467
			c-0.399-1.048-0.619-2.185-0.619-3.372z"/>
		<path style="&st2;" d="M17.696,31.812L30.074,44.19l12.469-12.468l-0.626-0.524L29.929,42.024L17.696,31.812z"/>
	</g>
</svg>
