<?xml version="1.0" encoding="iso-8859-1"?>
<!-- Generator: Adobe Illustrator 9.0, SVG Export Plug-In  -->
<!DOCTYPE svg PUBLIC "-//W3C//DTD SVG 20000303 Stylable//EN"   "http://www.w3.org/TR/2000/03/WD-SVG-20000303/DTD/svg-20000303-stylable.dtd" [
	<!ENTITY st0 "fill:url(#aigrd1);stroke:none;">
	<!ENTITY st1 "fill:#000000;stroke:none;">
	<!ENTITY st2 "fill:url(#aigrd6);stroke:none;">
	<!ENTITY st3 "opacity:0.58;stroke:none;">
	<!ENTITY st4 "fill:url(#aigrd3);stroke:none;">
	<!ENTITY st5 "fill-rule:nonzero;clip-rule:nonzero;fill:#FFFFFF;stroke:#000000;stroke-miterlimit:4;">
	<!ENTITY st6 "fill:url(#aigrd8);stroke:none;">
	<!ENTITY st7 "fill:url(#aigrd5);stroke:none;">
	<!ENTITY st8 "opacity:0.74;stroke:none;">
	<!ENTITY st9 "opacity:0.48;stroke:none;">
	<!ENTITY st10 "fill:url(#aigrd2);stroke:none;">
	<!ENTITY st11 "fill:#BEBEBE;stroke:none;">
	<!ENTITY st12 "fill:none;stroke:none;">
	<!ENTITY st13 "fill:url(#aigrd7);stroke:none;">
	<!ENTITY st14 "stroke:none;">
	<!ENTITY st15 "fill:url(#aigrd4);stroke:none;">
]>
<svg  width="42.5pt" height="48pt" viewBox="0 0 42.5 48" xml:space="preserve">
	<g id="Layer_x0020_1" style="&st5;">
		<path style="&st1;" d="M8.2,3.6C5.3,3.6,3,5.9,3,8.8v30.8c0,2.9,2.3,5.2,5.2,5.2h27.5c2.9,0,5.2-2.3,5.2-5.2V8.8c0-2.9-2.3-5.2-5.2-5.2H8.2z"/>
		<linearGradient id="aigrd1" gradientUnits="userSpaceOnUse" x1="12.2363" y1="7.7627" x2="31.5515" y2="41.3164">
			<stop  offset="0" style="stop-color:#F0F0F0"/>
			<stop  offset="1" style="stop-color:#D6D6D6"/>
		</linearGradient>
		<path style="&st0;" d="M38.3,39.6c0,1.6-1.3,2.8-2.8,2.8H7.9c-1.6,0-2.8-1.3-2.8-2.8V8.8c0-1.6,1.3-2.8,2.8-2.8h27.5c1.6,0,2.8,1.3,2.8,2.8v30.8z"/>
		<g>
			<radialGradient id="aigrd2" cx="7.9224" cy="30.7285" r="1.247" fx="7.9224" fy="30.7285" gradientUnits="userSpaceOnUse">
				<stop  offset="0" style="stop-color:#F0F0F0"/>
				<stop  offset="1" style="stop-color:#474747"/>
			</radialGradient>
			<path style="&st10;" d="M8.5,30.4c0,0.5-0.4,0.8-0.8,0.8s-0.8-0.4-0.8-0.8s0.4-0.8,0.8-0.8s0.8,0.4,0.8,0.8z"/>
			<radialGradient id="aigrd3" cx="7.9224" cy="18.8711" r="1.247" fx="7.9224" fy="18.8711" gradientUnits="userSpaceOnUse">
				<stop  offset="0" style="stop-color:#F0F0F0"/>
				<stop  offset="1" style="stop-color:#474747"/>
			</radialGradient>
			<path style="&st4;" d="M8.5,18.5c0,0.5-0.4,0.8-0.8,0.8S6.8,19,6.8,18.5c0-0.5,0.4-0.8,0.8-0.8s0.8,0.4,0.8,0.8z"/>
		</g>
		<path style="&st14;" d="M10.5,42.4h-0.4V6.6h0.4v35.8z"/>
		<linearGradient id="aigrd4" gradientUnits="userSpaceOnUse" x1="10.1172" y1="7.5537" x2="9.6941" y2="41.0821">
			<stop  offset="0" style="stop-color:#EDEDED"/>
			<stop  offset="1" style="stop-color:#CACACA"/>
		</linearGradient>
		<path style="&st15;" d="M10.1,42.4H9.7V6.6h0.4v35.8z"/>
		<path style="&st14;" d="M6.4,9.8L5.8,41.4c-0.5-0.5-0.6-1.4-0.6-1.4l0-31.3c0,0,0-0.8,0.7-1.7c0.7-0.9,2-1,2-1l28,0L8.9,7.3C7.8,7.3,7.2,7.8,7,8.1c-0.2,0.2-0.6,1-0.6,1.7z"/>
		<path style="&st11;" d="M37.1,38.6L37.7,7c0.5,0.5,0.6,1.4,0.6,1.4l0,31.3c0,0,0,0.8-0.7,1.7c-0.8,0.9-2,1-2,1l-28,0l26.9-1.3c1.1,0,1.7-0.5,1.9-0.8c0.2-0.2,0.6-1,0.6-1.7z"/>
	</g>
	<g id="Layer_x0020_2" style="&st5;">
		<path style="&st12;" d="M42.5,48H0V0h42.5v48z"/>
		<path style="&st1;" d="M12.7,27.2l0,0.2c0,1.7,0,5.4,2.4,7.8c1.6,1.6,3.9,2.4,6.9,2.4c3.2,0,5.7-1,7.2-3c1.4-0.2,6.2-1.3,6.2-4.9c0-0.5-0.1-1-0.3-1.5l-0.1-0.2L35,27.8c-0.6-0.6-2.6-0.9-3.7-1.1c-0.4-2.8-4.3-5-9.3-5c-5.2,0-9.3,2.4-9.3,5.4z M31,30.7
			c0.1,0,0.3,0,0.4,0c-0.1,0.1-0.3,0.1-0.4,0.2c0-0.1,0-0.1,0-0.2z"/>
		<linearGradient id="aigrd5" gradientUnits="userSpaceOnUse" x1="27.5103" y1="32.9805" x2="17.3668" y2="26.4087">
			<stop  offset="0" style="stop-color:#959595"/>
			<stop  offset="1" style="stop-color:#FFFFFF"/>
		</linearGradient>
		<path style="&st7;" d="M30.3,27c0,2.5-0.1,9.5-8.4,9.5c-8.7,0-8.4-7-8.4-9.5c0-2.5,3.8-4.5,8.4-4.5s8.4,2,8.4,4.5z"/>
		<linearGradient id="aigrd6" gradientUnits="userSpaceOnUse" x1="14.7153" y1="27.0117" x2="28.7876" y2="27.0117">
			<stop  offset="0" style="stop-color:#959595"/>
			<stop  offset="1" style="stop-color:#FFFFFF"/>
		</linearGradient>
		<path style="&st2;" d="M28.8,27c0,2.1-3.1,3.8-7,3.8c-3.9,0-7-1.7-7-3.8c0-2.1,3.1-3.8,7-3.8c3.9,0,7,1.7,7,3.8z"/>
		<radialGradient id="aigrd7" cx="19.709" cy="25.1084" r="4.3537" fx="19.709" fy="25.1084" gradientUnits="userSpaceOnUse">
			<stop  offset="0" style="stop-color:#787816"/>
			<stop  offset="1" style="stop-color:#000000"/>
		</radialGradient>
		<path style="&st13;" d="M28.3,27.7c0,1.6-3,2.9-6.6,2.9s-6.6-1.3-6.6-2.9c0-1.6,2.9-2.9,6.6-2.9s6.6,1.3,6.6,2.9z"/>
		<linearGradient id="aigrd8" gradientUnits="userSpaceOnUse" x1="29.0728" y1="32.8047" x2="33.6423" y2="27.3211">
			<stop  offset="0" style="stop-color:#959595"/>
			<stop  offset="1" style="stop-color:#FFFFFF"/>
		</linearGradient>
		<path style="&st6;" d="M30.3,27.3c0,0,3.4,0.4,3.9,0.9c1.5,4.5-5.5,5.3-5.5,5.3l0.8-1.5c0,0,4.3-1,3.2-2.2c-0.1-0.1-2.6-0.2-2.6-0.2c-0.3-0.3-0.1-2.1,0.2-2.3z"/>
		<path style="&st9;" d="M30.3,29c0,0,2.7,0.3,2.9,0.5c0.4,0.4-0.1,1.2-0.1,1.2s1.1-1,0.5-1.7c-0.4-0.4-3.3,0-3.3,0z"/>
		<path style="&st3;" d="M22.3,9.5c0,3.3-5.5,4.7-5.5,7.1c0,2.4,7.5,1.6,7.5,3.1c0,1.5-3.4,2.9-3.4,6.9c0-3.4,7.5-4.3,7.5-6.8c0-2.6-7.8-1.6-7.8-3.7c0-2.1,1.7-3.7,1.7-6.7z"/>
		<path style="&st8;" d="M29.6,33c1.1-0.2,2.7-0.9,3.6-1.6c-0.4,0.9-2.8,1.6-3.6,1.6z"/>
		<path style="&st8;" d="M13.8,28.4c0.4,1.2,1.7,2.3,3.4,3c0.5,0.2,0,4.3,3.1,4.8c-0.8-1.8-0.3-4.1,0.3-4c2.5,0.2,5.3-0.3,7.6-2C23,33,15.5,31.4,13.8,28.4z"/>
	</g>
</svg>
