<?xml version="1.0" encoding="iso-8859-1"?>
<!-- Generator: Adobe Illustrator 9.0, SVG Export Plug-In  -->
<!DOCTYPE svg PUBLIC "-//W3C//DTD SVG 20000303 Stylable//EN"   "http://www.w3.org/TR/2000/03/WD-SVG-20000303/DTD/svg-20000303-stylable.dtd" [
	<!ENTITY st0 "fill:url(#aigrd1);stroke:none;">
	<!ENTITY st1 "fill:#000000;stroke:none;">
	<!ENTITY st2 "fill:url(#aigrd3);stroke:none;">
	<!ENTITY st3 "fill:#203E99;">
	<!ENTITY st4 "fill-rule:nonzero;clip-rule:nonzero;fill:#FFFFFF;stroke:#000000;stroke-miterlimit:4;">
	<!ENTITY st5 "fill:url(#aigrd2);stroke:none;">
	<!ENTITY st6 "fill:#BEBEBE;stroke:none;">
	<!ENTITY st7 "fill:#000000;">
	<!ENTITY st8 "fill-rule:nonzero;clip-rule:nonzero;stroke:#000000;stroke-miterlimit:4;">
	<!ENTITY st9 "stroke:none;">
	<!ENTITY st10 "fill:url(#aigrd4);stroke:none;">
	<!ENTITY st11 "fill-rule:evenodd;clip-rule:evenodd;fill:none;stroke:none;">
]>
<svg  width="52pt" height="48pt" viewBox="0 0 52 48" xml:space="preserve">
	<g id="Layer_x0020_1" style="&st4;">
		<path style="&st1;" d="M12.2,3.6C9.3,3.6,7,5.9,7,8.8v30.8c0,2.9,2.3,5.2,5.2,5.2h27.5c2.9,0,5.2-2.3,5.2-5.2V8.8c0-2.9-2.3-5.2-5.2-5.2H12.2z"/>
		<linearGradient id="aigrd1" gradientUnits="userSpaceOnUse" x1="16.2729" y1="7.7627" x2="35.5882" y2="41.3164">
			<stop  offset="0" style="stop-color:#F0F0F0"/>
			<stop  offset="1" style="stop-color:#D6D6D6"/>
		</linearGradient>
		<path style="&st0;" d="M42.3,39.6c0,1.6-1.3,2.8-2.8,2.8H12c-1.6,0-2.8-1.3-2.8-2.8V8.8c0-1.6,1.3-2.8,2.8-2.8h27.5c1.6,0,2.8,1.3,2.8,2.8v30.8z"/>
		<g>
			<radialGradient id="aigrd2" cx="11.959" cy="30.7285" r="1.247" fx="11.959" fy="30.7285" gradientUnits="userSpaceOnUse">
				<stop  offset="0" style="stop-color:#F0F0F0"/>
				<stop  offset="1" style="stop-color:#474747"/>
			</radialGradient>
			<path style="&st5;" d="M12.6,30.4c0,0.5-0.4,0.8-0.8,0.8s-0.8-0.4-0.8-0.8s0.4-0.8,0.8-0.8s0.8,0.4,0.8,0.8z"/>
			<radialGradient id="aigrd3" cx="11.959" cy="18.8711" r="1.247" fx="11.959" fy="18.8711" gradientUnits="userSpaceOnUse">
				<stop  offset="0" style="stop-color:#F0F0F0"/>
				<stop  offset="1" style="stop-color:#474747"/>
			</radialGradient>
			<path style="&st2;" d="M12.6,18.5c0,0.5-0.4,0.8-0.8,0.8s-0.8-0.4-0.8-0.8c0-0.5,0.4-0.8,0.8-0.8s0.8,0.4,0.8,0.8z"/>
		</g>
		<path style="&st9;" d="M14.5,42.4h-0.4V6.6h0.4v35.8z"/>
		<linearGradient id="aigrd4" gradientUnits="userSpaceOnUse" x1="14.1538" y1="7.5537" x2="13.7308" y2="41.0821">
			<stop  offset="0" style="stop-color:#EDEDED"/>
			<stop  offset="1" style="stop-color:#CACACA"/>
		</linearGradient>
		<path style="&st10;" d="M14.1,42.4h-0.4V6.6h0.4v35.8z"/>
		<path style="&st9;" d="M10.4,9.8L9.8,41.4c-0.5-0.5-0.6-1.4-0.6-1.4l0-31.3c0,0,0-0.8,0.7-1.7c0.7-0.9,2-1,2-1l28,0L12.9,7.3c-1.1,0-1.7,0.5-1.9,0.8c-0.2,0.2-0.6,1-0.6,1.7z"/>
		<path style="&st6;" d="M41.1,38.6L41.8,7c0.5,0.5,0.6,1.4,0.6,1.4l0,31.3c0,0,0,0.8-0.7,1.7c-0.8,0.9-2,1-2,1l-28,0l26.9-1.3c1.1,0,1.7-0.5,1.9-0.8c0.2-0.2,0.6-1,0.6-1.7z"/>
	</g>
	<g id="Layer_x0020_4" style="&st4;">
		<g style="&st9;">
			<path style="&st7;" d="M38.6,33.7c0,0.5-0.4,0.9-0.9,0.9H18c-0.5,0-0.9-0.4-0.9-0.9V14.1c0-0.5,0.4-0.9,0.9-0.9h19.7c0.5,0,0.9,0.4,0.9,0.9v19.7z"/>
			<path style="&st3;" d="M37.8,29.2c0,0.5-0.4,0.9-0.9,0.9H18.8c-0.5,0-0.9-0.4-0.9-0.9V14.8c0-0.5,0.4-0.9,0.9-0.9h18.1c0.5,0,0.9,0.4,0.9,0.9v14.5z"/>
			<path style="&st7;" d="M29.9,14.9c-5.8,0-10.5,2.4-10.5,5.3c0,2.9,4.7,5.3,10.5,5.3c0.4,0,0.8,0,1.1,0l-0.6,3.2l7.4-5v-7.1c-1.9-1.1-4.7-1.8-7.9-1.8z"/>
			<g>
				<path d="M25.7,20h-0.1c-0.1,0-0.1,0-0.2,0s-0.2,0-0.3,0c-0.2,0-0.3,0-0.5,0c-0.1,0-0.3,0-0.5,0.1l-0.6,2h-1.2l0.9-3.1h1.2l-0.1,0.5c0.2-0.1,0.5-0.2,0.7-0.3c0.2-0.1,0.5-0.1,0.7-0.1c0,0,0.1,0,0.1,0c0.1,0,0.1,0,0.1,0L25.7,20z"/>
				<path d="M27.9,22.2c-0.6,0-1.1-0.1-1.5-0.3s-0.5-0.5-0.5-1c0-0.3,0.1-0.5,0.2-0.8c0.1-0.2,0.3-0.4,0.5-0.6c0.2-0.2,0.5-0.3,0.8-0.4s0.6-0.2,1-0.2c0.6,0,1,0.1,1.3,0.3s0.4,0.5,0.4,0.8c0,0.1,0,0.2,0,0.4s-0.1,0.2-0.1,0.4h-2.8c0,0,0,0,0,0s0,0,0,0
					c0,0.2,0.1,0.4,0.3,0.5c0.2,0.1,0.5,0.2,0.8,0.2c0.3,0,0.5,0,0.7-0.1c0.2-0.1,0.4-0.2,0.6-0.2h0.1L29.4,22c-0.2,0.1-0.5,0.1-0.7,0.2s-0.5,0.1-0.8,0.1z M28.8,20.2c0,0,0-0.1,0-0.1c0,0,0-0.1,0-0.1c0-0.1-0.1-0.3-0.2-0.3c-0.1-0.1-0.3-0.1-0.5-0.1
					c-0.2,0-0.5,0.1-0.6,0.2c-0.2,0.1-0.3,0.3-0.4,0.5h1.6z"/>
				<path d="M32.7,21.8c-0.1,0-0.2,0.1-0.3,0.1c-0.1,0.1-0.2,0.1-0.3,0.1c-0.1,0-0.2,0.1-0.3,0.1s-0.3,0-0.5,0c-0.3,0-0.6-0.1-0.8-0.2c-0.2-0.1-0.3-0.3-0.3-0.6c0-0.2,0.1-0.4,0.2-0.6c0.1-0.2,0.3-0.3,0.6-0.4c0.3-0.1,0.6-0.2,0.9-0.2c0.4,0,0.7-0.1,1.2-0.1
					c0,0,0,0,0-0.1c0,0,0-0.1,0-0.1c0-0.1-0.1-0.2-0.2-0.3s-0.4-0.1-0.7-0.1c-0.2,0-0.4,0-0.7,0.1c-0.2,0.1-0.4,0.1-0.5,0.1H31l0.2-0.7c0.1,0,0.4-0.1,0.6-0.1c0.3,0,0.6-0.1,0.9-0.1c0.6,0,1,0.1,1.3,0.2c0.3,0.1,0.4,0.3,0.4,0.6c0,0,0,0.1,0,0.1c0,0.1,0,0.1,0,0.2
					l-0.6,2.1h-1.2l0.1-0.3z M33,20.7c-0.2,0-0.4,0-0.6,0.1s-0.3,0-0.5,0.1c-0.1,0-0.2,0.1-0.3,0.2c-0.1,0.1-0.1,0.2-0.1,0.3c0,0.1,0,0.2,0.1,0.2s0.2,0.1,0.4,0.1c0.1,0,0.2,0,0.4-0.1c0.1,0,0.3-0.1,0.4-0.2l0.2-0.6z"/>
				<path d="M37.3,17.9l-1.2,4.2h-1.2l1.2-4.2h1.2z"/>
			</g>
		</g>
	</g>
	<g id="Layer_x0020_3" style="&st8;">
		<path style="&st11;" d="M52,48H0V0h52v48z"/>
	</g>
</svg>
