<?xml version="1.0" encoding="iso-8859-1"?>
<!-- Generator: Adobe Illustrator 9.0, SVG Export Plug-In  -->
<!DOCTYPE svg PUBLIC "-//W3C//DTD SVG 20000303 Stylable//EN"   "http://www.w3.org/TR/2000/03/WD-SVG-20000303/DTD/svg-20000303-stylable.dtd" [
	<!ENTITY st0 "fill:url(#aigrd5);stroke-width:0.4342;">
	<!ENTITY st1 "fill:url(#aigrd1);stroke:none;">
	<!ENTITY st2 "fill:#000000;stroke:none;">
	<!ENTITY st3 "fill:url(#aigrd3);stroke:none;">
	<!ENTITY st4 "opacity:0.3;stroke:none;">
	<!ENTITY st5 "fill-rule:nonzero;clip-rule:nonzero;fill:#FFFFFF;stroke:#000000;stroke-miterlimit:4;">
	<!ENTITY st6 "fill:url(#aigrd2);stroke:none;">
	<!ENTITY st7 "fill:#BEBEBE;stroke:none;">
	<!ENTITY st8 "fill:none;stroke:none;">
	<!ENTITY st9 "fill-rule:evenodd;clip-rule:evenodd;stroke:none;">
	<!ENTITY st10 "fill-rule:nonzero;clip-rule:nonzero;stroke:#000000;stroke-miterlimit:4;">
	<!ENTITY st11 "stroke:none;">
	<!ENTITY st12 "fill:url(#aigrd4);stroke:none;">
]>
<svg  width="44.572pt" height="48pt" viewBox="0 0 44.572 48" xml:space="preserve">
	<g id="Layer_x0020_1" style="&st5;">
		<path style="&st2;" d="M9.324,2.56c-2.877,0-5.217,2.34-5.217,5.217v30.779c0,2.877,2.34,5.218,5.217,5.218h27.461c2.877,0,5.217-2.341,5.217-5.218V7.776c0-2.876-2.34-5.217-5.217-5.217H9.324z"/>
		<linearGradient id="aigrd1" gradientUnits="userSpaceOnUse" x1="13.375" y1="6.7632" x2="32.6902" y2="40.3169">
			<stop  offset="0" style="stop-color:#F0F0F0"/>
			<stop  offset="1" style="stop-color:#D6D6D6"/>
		</linearGradient>
		<path style="&st1;" d="M39.395,38.556c0,1.572-1.275,2.846-2.846,2.846H9.086c-1.572,0-2.846-1.273-2.846-2.846V7.776c0-1.571,1.274-2.846,2.846-2.846h27.462c1.57,0,2.846,1.274,2.846,2.846v30.779z"/>
		<g>
			<radialGradient id="aigrd2" cx="9.0605" cy="29.7285" r="1.247" fx="9.0605" fy="29.7285" gradientUnits="userSpaceOnUse">
				<stop  offset="0" style="stop-color:#F0F0F0"/>
				<stop  offset="1" style="stop-color:#474747"/>
			</radialGradient>
			<path style="&st6;" d="M9.662,29.373c0,0.468-0.379,0.848-0.847,0.848s-0.847-0.38-0.847-0.848s0.379-0.847,0.847-0.847s0.847,0.379,0.847,0.847z"/>
			<radialGradient id="aigrd3" cx="9.0605" cy="17.8711" r="1.247" fx="9.0605" fy="17.8711" gradientUnits="userSpaceOnUse">
				<stop  offset="0" style="stop-color:#F0F0F0"/>
				<stop  offset="1" style="stop-color:#474747"/>
			</radialGradient>
			<path style="&st3;" d="M9.662,17.516c0,0.468-0.379,0.847-0.847,0.847s-0.847-0.379-0.847-0.847c0-0.468,0.379-0.847,0.847-0.847s0.847,0.379,0.847,0.847z"/>
		</g>
		<path style="&st11;" d="M11.619,41.383h-0.383V5.557h0.383v35.826z"/>
		<linearGradient id="aigrd4" gradientUnits="userSpaceOnUse" x1="11.2563" y1="6.5542" x2="10.8333" y2="40.0826">
			<stop  offset="0" style="stop-color:#EDEDED"/>
			<stop  offset="1" style="stop-color:#CACACA"/>
		</linearGradient>
		<path style="&st12;" d="M11.234,41.383h-0.383V5.557h0.383v35.826z"/>
		<path style="&st11;" d="M7.52,8.762L6.899,40.375c-0.451-0.451-0.631-1.432-0.631-1.432L6.229,7.66c0,0-0.038-0.807,0.703-1.739C7.681,4.977,8.929,4.92,8.929,4.92l28.022,0.04L10.008,6.273c-1.088,0-1.671,0.539-1.909,0.822C7.907,7.325,7.532,8.069,7.52,8.762z"
			/>
		<path style="&st7;" d="M38.242,37.577l0.621-31.613c0.451,0.451,0.631,1.431,0.631,1.431l0.039,31.284c0,0,0.037,0.807-0.703,1.739c-0.75,0.944-1.998,1.001-1.998,1.001l-28.021-0.04l26.943-1.313c1.088,0,1.67-0.539,1.908-0.822
			c0.193-0.229,0.568-0.974,0.58-1.666z"/>
	</g>
	<g id="Layer_x0020_4" style="&st10;">
		<path style="&st8;" d="M44.572,48H0V0h44.572v48z"/>
	</g>
	<g id="Layer_x0020_6" style="&st10;">
		<path style="&st4;" d="M27.171,14.256c-1.765-1.765-13.144-4.809-8.894,2.473c2.151,3.687-3.678,7.406-0.497,12.228c3.835,5.812,14.588-0.223,8.648-5.667c-4.175-3.828,2.507-7.27,0.742-9.034z"/>
		<radialGradient id="aigrd5" cx="18.5859" cy="12.9375" r="20.5907" fx="18.5859" fy="12.9375" gradientUnits="userSpaceOnUse">
			<stop  offset="0" style="stop-color:#23ACCD"/>
			<stop  offset="1" style="stop-color:#274773"/>
		</radialGradient>
		<path style="&st0;" d="M26.511,13.322c-1.764-1.764-13.362-4.299-9.113,2.983c2.151,3.687-3.678,7.406-0.497,12.227c3.835,5.813,14.588-0.22,8.649-5.665c-4.176-3.828,2.725-7.78,0.96-9.544z"/>
		<path style="&st11;" d="M31.121,16.971h-0.982l-3.346-3.347c0.047-0.071,0.075-0.156,0.075-0.248c0-0.248-0.201-0.449-0.45-0.449c-0.092,0-0.177,0.028-0.247,0.075l-3.439-3.44V8.491h-0.09h-1.109v1.199h1.072l3.439,3.44c-0.047,0.071-0.075,0.155-0.075,0.247
			c0,0.249,0.202,0.45,0.449,0.45c0.092,0,0.177-0.028,0.248-0.075l3.347,3.346v1.072h1.198v-1.199h-0.09z M22.551,9.51c-0.134,0-0.704,0-0.839,0c0-0.135,0-0.704,0-0.839c0.135,0,0.705,0,0.839,0c0,0.135,0,0.705,0,0.839z M31.029,17.989c-0.134,0-0.702,0-0.837,0
			c0-0.134,0-0.704,0-0.839c0.135,0,0.703,0,0.837,0c0,0.135,0,0.705,0,0.839z"/>
		<path style="&st11;" d="M19.273,10.812V9.613h-0.09h-1.109v1.072l-1.11,1.11c-0.071-0.047-0.156-0.075-0.247-0.075c-0.248,0-0.45,0.202-0.45,0.45c0,0.091,0.027,0.176,0.075,0.247l-1.174,1.174h-1.071v1.199h1.199v-1.071l1.174-1.174
			c0.07,0.047,0.155,0.075,0.247,0.075c0.248,0,0.45-0.202,0.45-0.449c0-0.092-0.028-0.176-0.075-0.248l1.11-1.111h1.072z M18.254,9.793c0.135,0,0.704,0,0.839,0c0,0.134,0,0.704,0,0.839c-0.135,0-0.704,0-0.839,0c0-0.135,0-0.705,0-0.839z M14.276,14.61
			c0-0.136,0-0.704,0-0.839c0.13,0,0.663,0,0.82,0l0.02,0.019c0,0.158,0,0.69,0,0.82c-0.135,0-0.704,0-0.839,0z"/>
		<g style="&st9;">
			<path d="M26.577,22.599l2.787-0.202v5.015l3.748-4.964l2.989,0.759l-3.799,4.813l3.748,5.219L33.163,34.1l-3.799-5.422v4.967l-2.786,0.354l-0.001-11.399z"/>
			<path d="M31.618,32.847c-0.792,1.15-2.117,1.904-3.611,1.904c-2.415,0-4.384-1.969-4.384-4.383c0-1.706,0.956-3.179,2.38-3.901l-0.001-1.246c-0.071,0.029-0.142,0.057-0.21,0.088c-0.245,0.108-0.48,0.236-0.705,0.379l-1.791-1.258l-1.201,1.156l1.242,1.85
				c-0.315,0.496-0.553,1.048-0.696,1.639l-2.27,0.419l-0.065,1.681l2.314,0.41c0.134,0.593,0.365,1.15,0.675,1.671l-1.396,1.956l1.201,1.224l2.022-1.372c0.501,0.318,1.062,0.553,1.651,0.687l0.431,2.397h1.723l0.404-2.416c0.585-0.146,1.133-0.387,1.638-0.697
				l1.954,1.379l1.2-1.222l-0.478-0.663l-0.708,0.217l-1.319-1.897z"/>
			<path d="M33.817,29.165l1.898,0.328l0.021,1.681l-0.478,0.082l-1.442-2.091z"/>
		</g>
	</g>
</svg>
