#define close_hover_width 6
#define close_hover_height 6
static unsigned char close_hover_bits[] = {
   0x3f, 0x35, 0x35, 0x3f, 0x15, 0x15 };
