#define max_toggled_width 6
#define max_toggled_height 6
static unsigned char max_toggled_bits[] = {
   0x3f, 0x21, 0x25, 0x29, 0x21, 0x3f };
