#define bullet_width 5
#define bullet_height 7
static unsigned char bullet_bits[] = {
   0x02, 0x07, 0x0e, 0x1e, 0x0e, 0x07, 0x02 };
