#define desk_width 8
#define desk_height 8
static unsigned char desk_bits[] = {
   0xff, 0x99, 0x99, 0xff, 0xff, 0x99, 0x99, 0xff };
