#define iconify_width 8
#define iconify_height 8
static unsigned char iconify_bits[] = {
   0xff, 0x89, 0x89, 0x89, 0xf9, 0x81, 0x81, 0xff };
