#define close_width 11
#define close_height 11
static unsigned char close_bits[] = {
   0xff, 0x07, 0x01, 0x04, 0x89, 0x04, 0xdd, 0x05, 0xf9, 0x04, 0x71, 0x04,
   0xf9, 0x04, 0xdd, 0x05, 0x89, 0x04, 0x01, 0x04, 0xff, 0x07 };
