#define stick_t_width 11
#define stick_t_height 11
static unsigned char stick_t_bits[] = {
   0xff, 0x07, 0x01, 0x04, 0x01, 0x04, 0xd9, 0x04, 0xd9, 0x04, 0x01, 0x04,
   0xd9, 0x04, 0xd9, 0x04, 0x01, 0x04, 0x01, 0x04, 0xff, 0x07 };
