#define max_t_width 11
#define max_t_height 11
static unsigned char max_t_bits[] = {
   0xff, 0x07, 0x01, 0x04, 0xf1, 0x05, 0xf1, 0x05, 0x11, 0x05, 0x3d, 0x05,
   0xe5, 0x05, 0x25, 0x04, 0x3d, 0x04, 0x01, 0x04, 0xff, 0x07 };
