<?xml version="1.0" encoding="iso-8859-1"?>
<!-- Generator: Adobe Illustrator 9.0, SVG Export Plug-In  -->
<!DOCTYPE svg PUBLIC "-//W3C//DTD SVG 20000303 Stylable//EN"   "http://www.w3.org/TR/2000/03/WD-SVG-20000303/DTD/svg-20000303-stylable.dtd" [
	<!ENTITY st0 "fill-rule:evenodd;clip-rule:evenodd;fill:url(#aigrd4);stroke:none;">
	<!ENTITY st1 "fill-rule:evenodd;clip-rule:evenodd;fill:url(#aigrd1);stroke-width:3.6863;">
	<!ENTITY st2 "fill-rule:evenodd;clip-rule:evenodd;fill:url(#aigrd6);stroke:none;">
	<!ENTITY st3 "fill-rule:evenodd;clip-rule:evenodd;fill:url(#aigrd3);stroke:none;">
	<!ENTITY st4 "fill-rule:evenodd;clip-rule:evenodd;fill:url(#aigrd5);stroke:none;">
	<!ENTITY st5 "fill:none;stroke:none;">
	<!ENTITY st6 "fill-rule:evenodd;clip-rule:evenodd;fill:url(#aigrd2);stroke:none;">
	<!ENTITY st7 "fill-rule:nonzero;clip-rule:nonzero;stroke:#000000;stroke-miterlimit:4;">
	<!ENTITY st8 "stroke:none;">
]>
<svg  width="48pt" height="48pt" viewBox="0 0 48 48" xml:space="preserve">
	<g id="Layer_x0020_2" style="&st7;">
		<radialGradient id="aigrd1" cx="24.0151" cy="15.2129" r="25.0255" fx="24.0151" fy="15.2129" gradientUnits="userSpaceOnUse">
			<stop  offset="0" style="stop-color:#2286B7"/>
			<stop  offset="1" style="stop-color:#190F50"/>
		</radialGradient>
		<path style="&st1;" d="M10.5,22.8c0,9.7,7.9,17.6,17.6,17.6c9.7,0,17.6-7.9,17.6-17.6c0-9.7-7.9-17.6-17.6-17.6c-9.7,0-17.6,7.9-17.6,17.6z"/>
		<radialGradient id="aigrd2" cx="22.4312" cy="15.1919" r="26.362" fx="22.4312" fy="15.1919" gradientUnits="userSpaceOnUse">
			<stop  offset="0" style="stop-color:#99BBA8"/>
			<stop  offset="4.643155e-002" style="stop-color:#94B8A8"/>
			<stop  offset="9.936643e-002" style="stop-color:#87B0A8"/>
			<stop  offset="0.1555" style="stop-color:#70A2A7"/>
			<stop  offset="0.2138" style="stop-color:#508FA6"/>
			<stop  offset="0.2733" style="stop-color:#2776A5"/>
			<stop  offset="0.2865" style="stop-color:#1D70A5"/>
			<stop  offset="0.8539" style="stop-color:#190F50"/>
			<stop  offset="1" style="stop-color:#585287"/>
		</radialGradient>
		<path style="&st6;" d="M10.5,22.8c0,9.7,7.9,17.6,17.6,17.6c9.7,0,17.6-7.9,17.6-17.6c0-9.7-7.9-17.6-17.6-17.6c-9.7,0-17.6,7.9-17.6,17.6z"/>
		<radialGradient id="aigrd3" cx="21.7529" cy="15.0503" r="21.6923" fx="21.7529" fy="15.0503" gradientUnits="userSpaceOnUse">
			<stop  offset="0" style="stop-color:#D5D690"/>
			<stop  offset="0.1935" style="stop-color:#D1D28D"/>
			<stop  offset="0.387" style="stop-color:#C5C685"/>
			<stop  offset="0.5806" style="stop-color:#B1B278"/>
			<stop  offset="0.773" style="stop-color:#969665"/>
			<stop  offset="0.927" style="stop-color:#7A7A52"/>
			<stop  offset="1" style="stop-color:#9C9C68"/>
		</radialGradient>
		<path style="&st3;" d="M25.8,12.3l4.2,3.6l2-3.4l2.9,3.1L30,18.3l-0.6,4.3l1,1.7h-1l-1.2-1.7h-4l-1.5,2.7l4,2.3l5.7,3.3l-4.7,3.9v4L24,30.6l1.4-2.4l-4.2-2.8v-3.5l-1.9-7.1l-2.3-1.3l0.3-2.5l3.1-2.2v2.7l5.4,0.8z"/>
		<radialGradient id="aigrd4" cx="24.0151" cy="16.5063" r="18.7633" fx="24.0151" fy="16.5063" gradientUnits="userSpaceOnUse">
			<stop  offset="0" style="stop-color:#D5D690"/>
			<stop  offset="0.1935" style="stop-color:#D1D28D"/>
			<stop  offset="0.387" style="stop-color:#C5C685"/>
			<stop  offset="0.5806" style="stop-color:#B1B278"/>
			<stop  offset="0.773" style="stop-color:#969665"/>
			<stop  offset="0.927" style="stop-color:#7A7A52"/>
			<stop  offset="1" style="stop-color:#9C9C68"/>
		</radialGradient>
		<path style="&st0;" d="M38,10.3v2.2l1.3,2.2v3.5l1.9,1.1l0.3-2.2l-1.2-2H42l-4-4.7z"/>
	</g>
	<g id="Layer_x0020_1" style="&st7;">
		<path style="&st8;" d="M3.3,32.4c0,6.8,5.6,12.4,12.4,12.4c6.8,0,12.4-5.6,12.4-12.4c0-6.8-5.6-12.4-12.4-12.4C8.8,20,3.3,25.6,3.3,32.4z"/>
		<radialGradient id="aigrd5" cx="11.8994" cy="27.8955" r="15.448" fx="11.8994" fy="27.8955" gradientUnits="userSpaceOnUse">
			<stop  offset="0" style="stop-color:#F6A783"/>
			<stop  offset="0.2809" style="stop-color:#F96415"/>
			<stop  offset="1" style="stop-color:#99310C"/>
		</radialGradient>
		<path style="&st4;" d="M26,32.4c0,5.8-4.7,10.6-10.6,10.6c-5.8,0-10.6-4.7-10.6-10.6s4.7-10.6,10.6-10.6c5.8,0,10.6,4.7,10.6,10.6z"/>
	</g>
	<g id="Layer_x0020_4" style="&st7;">
		<radialGradient id="aigrd6" cx="13.3301" cy="29.0371" r="11.5213" fx="13.3301" fy="29.0371" gradientUnits="userSpaceOnUse">
			<stop  offset="0" style="stop-color:#FFFFFF"/>
			<stop  offset="1" style="stop-color:#F0E1BD"/>
		</radialGradient>
		<path style="&st2;" d="M18.5,32.6l2.7-2.7c0.7-0.7,0.7-2,0-2.7s-2-0.7-2.7,0l-2.7,2.7l-2.7-2.7c-0.7-0.7-2-0.7-2.7,0c-0.7,0.7-0.7,2,0,2.7l2.7,2.7l-2.7,2.7c-0.7,0.7-0.7,2,0,2.7s2,0.7,2.7,0l2.7-2.7l2.7,2.7c0.7,0.7,2,0.7,2.7,0s0.7-2,0-2.7l-2.7-2.7z"/>
	</g>
	<g id="Layer_x0020_3" style="&st7;">
		<path style="&st5;" d="M48,48H0V0h48v48z"/>
	</g>
</svg>
