<?xml version="1.0" encoding="iso-8859-1"?>
<!-- Generator: Adobe Illustrator 9.0, SVG Export Plug-In  -->
<!DOCTYPE svg PUBLIC "-//W3C//DTD SVG 20000303 Stylable//EN"   "http://www.w3.org/TR/2000/03/WD-SVG-20000303/DTD/svg-20000303-stylable.dtd" [
	<!ENTITY st0 "fill:url(#aigrd1);stroke:none;">
	<!ENTITY st1 "fill:#B3E2E1;stroke:none;">
	<!ENTITY st2 "fill:#000000;stroke:none;">
	<!ENTITY st3 "fill:#1A7B49;stroke:none;">
	<!ENTITY st4 "fill:#145E38;stroke:none;">
	<!ENTITY st5 "fill:url(#aigrd6);stroke:none;">
	<!ENTITY st6 "fill:#166C40;stroke:none;">
	<!ENTITY st7 "fill:url(#aigrd3);stroke:none;">
	<!ENTITY st8 "fill:#15653C;stroke:none;">
	<!ENTITY st9 "fill-rule:nonzero;clip-rule:nonzero;fill:#FFFFFF;stroke:#000000;stroke-miterlimit:4;">
	<!ENTITY st10 "fill-rule:nonzero;clip-rule:nonzero;fill:#0E4529;stroke:#000000;stroke-miterlimit:4;">
	<!ENTITY st11 "opacity:0.6;fill:#FFFFFF;stroke:none;">
	<!ENTITY st12 "fill:#1D834E;stroke:none;">
	<!ENTITY st13 "fill:#1F8B53;stroke:none;">
	<!ENTITY st14 "fill:url(#aigrd5);stroke:none;">
	<!ENTITY st15 "fill:#0F4B2D;stroke:none;">
	<!ENTITY st16 "fill:#105130;stroke:none;">
	<!ENTITY st17 "fill:#125734;stroke:none;">
	<!ENTITY st18 "fill:url(#aigrd2);stroke:none;">
	<!ENTITY st19 "fill:#BEBEBE;stroke:none;">
	<!ENTITY st20 "fill:#229458;stroke:none;">
	<!ENTITY st21 "fill:none;stroke:none;">
	<!ENTITY st22 "fill-rule:nonzero;clip-rule:nonzero;stroke:#000000;stroke-miterlimit:4;">
	<!ENTITY st23 "fill:#187344;stroke:none;">
	<!ENTITY st24 "stroke:none;">
	<!ENTITY st25 "fill:url(#aigrd4);stroke:none;">
]>
<svg  width="44.6pt" height="48pt" viewBox="0 0 44.6 48" xml:space="preserve">
	<g id="Layer_x0020_1" style="&st9;">
		<path style="&st2;" d="M9.3,2.6c-2.9,0-5.2,2.3-5.2,5.2v30.8c0,2.9,2.3,5.2,5.2,5.2h27.5c2.9,0,5.2-2.3,5.2-5.2V7.8c0-2.9-2.3-5.2-5.2-5.2H9.3z"/>
		<linearGradient id="aigrd1" gradientUnits="userSpaceOnUse" x1="13.375" y1="6.7632" x2="32.6902" y2="40.3169">
			<stop  offset="0" style="stop-color:#F0F0F0"/>
			<stop  offset="1" style="stop-color:#D6D6D6"/>
		</linearGradient>
		<path style="&st0;" d="M39.4,38.6c0,1.6-1.3,2.8-2.8,2.8H9.1c-1.6,0-2.8-1.3-2.8-2.8V7.8c0-1.6,1.3-2.8,2.8-2.8h27.5c1.6,0,2.8,1.3,2.8,2.8v30.8z"/>
		<g>
			<radialGradient id="aigrd2" cx="9.0605" cy="29.7285" r="1.247" fx="9.0605" fy="29.7285" gradientUnits="userSpaceOnUse">
				<stop  offset="0" style="stop-color:#F0F0F0"/>
				<stop  offset="1" style="stop-color:#474747"/>
			</radialGradient>
			<path style="&st18;" d="M9.7,29.4c0,0.5-0.4,0.8-0.8,0.8S8,29.8,8,29.4s0.4-0.8,0.8-0.8s0.8,0.4,0.8,0.8z"/>
			<radialGradient id="aigrd3" cx="9.0605" cy="17.8711" r="1.247" fx="9.0605" fy="17.8711" gradientUnits="userSpaceOnUse">
				<stop  offset="0" style="stop-color:#F0F0F0"/>
				<stop  offset="1" style="stop-color:#474747"/>
			</radialGradient>
			<path style="&st7;" d="M9.7,17.5c0,0.5-0.4,0.8-0.8,0.8S8,18,8,17.5c0-0.5,0.4-0.8,0.8-0.8s0.8,0.4,0.8,0.8z"/>
		</g>
		<path style="&st24;" d="M11.6,41.4h-0.4V5.6h0.4v35.8z"/>
		<linearGradient id="aigrd4" gradientUnits="userSpaceOnUse" x1="11.2563" y1="6.5542" x2="10.8333" y2="40.0826">
			<stop  offset="0" style="stop-color:#EDEDED"/>
			<stop  offset="1" style="stop-color:#CACACA"/>
		</linearGradient>
		<path style="&st25;" d="M11.2,41.4h-0.4V5.6h0.4v35.8z"/>
		<path style="&st24;" d="M7.5,8.8L6.9,40.4c-0.5-0.5-0.6-1.4-0.6-1.4l0-31.3c0,0,0-0.8,0.7-1.7c0.7-0.9,2-1,2-1l28,0L10,6.3c-1.1,0-1.7,0.5-1.9,0.8c-0.2,0.2-0.6,1-0.6,1.7z"/>
		<path style="&st19;" d="M38.2,37.6L38.9,6c0.5,0.5,0.6,1.4,0.6,1.4l0,31.3c0,0,0,0.8-0.7,1.7c-0.8,0.9-2,1-2,1l-28,0l26.9-1.3c1.1,0,1.7-0.5,1.9-0.8c0.2-0.2,0.6-1,0.6-1.7z"/>
	</g>
	<g id="Layer_x0020_5" style="&st10;">
		<path style="&st2;" d="M28.4,20.5c1.5-1.2,3.5-2.9,4-5.6c0.4-0.1,0.7-0.3,0.9-0.7l0.7-1.7c0.1-0.4,0.1-0.8-0.1-1.1c-0.2-0.3-0.6-0.5-1-0.5l-15.9,0c-0.4,0-0.7,0.2-0.9,0.4s-0.3,0.6-0.2,1l0.4,1.7c0.1,0.5,0.6,0.9,1.1,0.9c0.4,3.8,2.7,5.3,4.3,6.3
			c1.2,0.8,1.7,1.1,1.7,1.8c0,0.5-0.3,0.7-1.4,1.4c-1.6,1-4.1,2.4-4.4,6.8c-0.3,0.1-0.6,0.4-0.7,0.7L16,33.6c-0.1,0.4-0.1,0.8,0.1,1.1c0.2,0.3,0.6,0.5,1,0.5l15.7,0c0.4,0,0.7-0.2,0.9-0.5c0.2-0.3,0.3-0.7,0.2-1L33.4,32c-0.1-0.4-0.5-0.8-0.9-0.8
			c-0.4-4.2-2.9-5.8-4.6-6.8c-1-0.6-1.5-0.9-1.5-1.3c0-0.8,1-1.6,2.1-2.5z M26.6,26.3c1.6,0.9,3.2,1.9,3.5,4.8H19.7c0.3-2.9,1.8-3.8,3.3-4.7c0.7-0.4,1.4-0.8,1.9-1.5c0.5,0.6,1.2,1,1.8,1.4z M24.8,20.8c-0.5-0.7-1.3-1.2-2-1.6c-1.5-0.9-2.8-1.8-3.2-4.3H30
			c-0.4,1.6-1.7,2.7-3.1,3.8c-0.8,0.7-1.6,1.3-2.2,2.1z"/>
		<path style="&st1;" d="M18.4,13.7c0,7,6,5.9,6,9.3c0,3.1-5.9,1.8-5.9,9.3h12.9c0-7.3-6.2-6.5-6.2-9.3c0-3.1,6.1-4.1,6.1-9.3h-13z"/>
		<radialGradient id="aigrd5" cx="21.6055" cy="16.1494" r="5.7355" fx="21.6055" fy="16.1494" gradientTransform="matrix(1 0 0 0.8443 0 3.4936)" gradientUnits="userSpaceOnUse">
			<stop  offset="0" style="stop-color:#F8EAC9"/>
			<stop  offset="1" style="stop-color:#B5AB93"/>
		</radialGradient>
		<path style="&st14;" d="M19.9,17.2h9.5c-0.9,1.9-3.9,2.5-4.6,4.8c-0.6-2.3-4.4-2.5-4.9-4.8z"/>
		<radialGradient id="aigrd6" cx="24.7197" cy="27.2285" r="4.4937" fx="24.7197" fy="27.2285" gradientTransform="matrix(1 0 0 0.8443 0 3.4936)" gradientUnits="userSpaceOnUse">
			<stop  offset="0" style="stop-color:#F8EAC9"/>
			<stop  offset="1" style="stop-color:#B5AB93"/>
		</radialGradient>
		<path style="&st5;" d="M19.4,29.8c-0.5,1.2-0.3,2-0.3,2h11.5c0,0,0-1.1-0.4-1.9l-5.5-3.7l-5.4,3.6z"/>
		<path style="&st11;" d="M19.7,31.8h2.7c-0.7-5,2.1-4.8,2.3-8.2c-0.9,3.3-5.4,2.3-5,8.2z"/>
		<path style="&st11;" d="M19.7,14.2h2.7c0,4.9,2.1,5,2.3,7.8c-0.9-3.3-4.7-3.3-5-7.8z"/>
		<g>
			<g>
				<path style="&st24;" d="M16.9,12l0.4,1.7h14.9l0.7-1.7l-15.9,0z"/>
				<path style="&st15;" d="M17.2,12.1l0.4,1.7h13.6l0.6-1.7l-14.6,0z"/>
				<path style="&st16;" d="M17.5,12.1l0.3,1.6h12.4l0.6-1.7l-13.3,0z"/>
				<path style="&st17;" d="M17.8,12.1l0.3,1.6h11.1l0.5-1.6l-12,0z"/>
				<path style="&st4;" d="M18,12.1l0.3,1.6h9.8l0.5-1.6l-10.6,0z"/>
				<path style="&st8;" d="M18.3,12.1l0.3,1.6h8.6l0.4-1.6l-9.3,0z"/>
				<path style="&st6;" d="M18.6,12.1l0.3,1.6h7.3l0.4-1.6l-8,0z"/>
				<path style="&st23;" d="M18.9,12.2l0.3,1.5h6.1l0.3-1.6l-6.7,0z"/>
				<path style="&st3;" d="M19.1,12.2l0.2,1.5h4.8l0.3-1.5l-5.4,0z"/>
				<path style="&st12;" d="M19.4,12.2l0.2,1.5h3.6l0.3-1.5l-4,0z"/>
				<path style="&st13;" d="M19.7,12.2l0.2,1.5h2.3l0.2-1.5l-2.7,0z"/>
				<path style="&st20;" d="M20,12.2l0.2,1.5h1l0.2-1.5l-1.4,0z"/>
			</g>
		</g>
		<g>
			<g>
				<path style="&st24;" d="M32.7,34l-0.5-1.7H17.7L17.1,34l15.7,0z"/>
				<path style="&st15;" d="M31.6,34l-0.4-1.7H17.8L17.3,34l14.4,0z"/>
				<path style="&st16;" d="M30.5,34l-0.4-1.6H18L17.5,34l13.1,0z"/>
				<path style="&st17;" d="M29.4,33.9l-0.4-1.6H18.2L17.7,34l11.8,0z"/>
				<path style="&st4;" d="M28.4,33.9L28,32.3h-9.7L17.9,34l10.5,0z"/>
				<path style="&st8;" d="M27.3,33.9l-0.3-1.6h-8.4L18.1,34l9.2,0z"/>
				<path style="&st6;" d="M26.2,33.9l-0.3-1.6h-7.2L18.3,34l7.9,0z"/>
				<path style="&st23;" d="M25.1,33.9l-0.3-1.5h-6l-0.3,1.6l6.6,0z"/>
				<path style="&st3;" d="M24,33.9l-0.3-1.5H19l-0.3,1.5l5.3,0z"/>
				<path style="&st12;" d="M22.9,33.9l-0.2-1.5h-3.5l-0.2,1.5l4,0z"/>
				<path style="&st13;" d="M21.8,33.9l-0.2-1.5h-2.3l-0.2,1.5l2.7,0z"/>
				<path style="&st20;" d="M20.7,33.9l-0.2-1.5h-1l-0.2,1.5l1.4,0z"/>
			</g>
		</g>
	</g>
	<g id="Layer_x0020_4" style="&st22;">
		<path style="&st21;" d="M44.6,48H0V0h44.6v48z"/>
	</g>
</svg>
