<?xml version="1.0" encoding="iso-8859-1"?>
<!-- Generator: Adobe Illustrator 9.0, SVG Export Plug-In  -->
<!DOCTYPE svg PUBLIC "-//W3C//DTD SVG 20000303 Stylable//EN"   "http://www.w3.org/TR/2000/03/WD-SVG-20000303/DTD/svg-20000303-stylable.dtd" [
	<!ENTITY st0 "fill:url(#aigrd14);stroke:none;">
	<!ENTITY st1 "fill:url(#aigrd37);stroke:none;">
	<!ENTITY st2 "fill:url(#aigrd1);stroke:none;">
	<!ENTITY st3 "fill:url(#aigrd24);stroke:none;">
	<!ENTITY st4 "fill:url(#aigrd47);stroke:none;">
	<!ENTITY st5 "fill:url(#aigrd9);stroke:#A7A7A7;stroke-width:0.5834;">
	<!ENTITY st6 "fill:url(#aigrd11);stroke:none;">
	<!ENTITY st7 "fill:url(#aigrd34);stroke:none;">
	<!ENTITY st8 "fill:url(#aigrd7);stroke:#A7A7A7;stroke-width:1.1668;">
	<!ENTITY st9 "fill:url(#aigrd21);stroke:none;">
	<!ENTITY st10 "fill:#474747;stroke:none;">
	<!ENTITY st11 "fill:url(#aigrd44);stroke:none;">
	<!ENTITY st12 "fill:url(#aigrd31);stroke:none;">
	<!ENTITY st13 "fill:url(#aigrd19);stroke:none;">
	<!ENTITY st14 "fill:url(#aigrd6);stroke:none;">
	<!ENTITY st15 "fill:url(#aigrd41);stroke:none;">
	<!ENTITY st16 "fill:url(#aigrd29);stroke:none;">
	<!ENTITY st17 "fill:url(#aigrd16);stroke:none;">
	<!ENTITY st18 "fill:#BCBCBC;stroke:none;">
	<!ENTITY st19 "fill:url(#aigrd39);stroke:none;">
	<!ENTITY st20 "fill:url(#aigrd3);stroke:none;">
	<!ENTITY st21 "opacity:0.35;stroke:none;">
	<!ENTITY st22 "fill:url(#aigrd26);stroke:none;">
	<!ENTITY st23 "fill:url(#aigrd13);stroke:none;">
	<!ENTITY st24 "fill:url(#aigrd36);stroke:none;">
	<!ENTITY st25 "opacity:0.3;stroke:none;">
	<!ENTITY st26 "fill:#CDCDCD;stroke:none;">
	<!ENTITY st27 "fill:url(#aigrd23);stroke:none;">
	<!ENTITY st28 "fill-rule:nonzero;clip-rule:nonzero;fill:#FFFFFF;stroke:#000000;stroke-miterlimit:4;">
	<!ENTITY st29 "fill:url(#aigrd46);stroke:none;">
	<!ENTITY st30 "fill:url(#aigrd10);stroke:none;">
	<!ENTITY st31 "fill:url(#aigrd33);stroke:none;">
	<!ENTITY st32 "fill:url(#aigrd20);stroke:none;">
	<!ENTITY st33 "fill:url(#aigrd43);stroke:none;">
	<!ENTITY st34 "fill:#FFFFFF;stroke:none;">
	<!ENTITY st35 "fill:url(#aigrd30);stroke:none;">
	<!ENTITY st36 "fill:url(#aigrd18);stroke:none;">
	<!ENTITY st37 "fill:url(#aigrd5);stroke:none;">
	<!ENTITY st38 "fill:url(#aigrd40);stroke:none;">
	<!ENTITY st39 "fill:url(#aigrd28);stroke:none;">
	<!ENTITY st40 "fill:url(#aigrd15);stroke:none;">
	<!ENTITY st41 "fill:url(#aigrd38);stroke:none;">
	<!ENTITY st42 "fill:url(#aigrd2);stroke:none;">
	<!ENTITY st43 "fill:url(#aigrd25);stroke:none;">
	<!ENTITY st44 "fill:url(#aigrd48);stroke:none;">
	<!ENTITY st45 "fill:#828282;stroke:none;">
	<!ENTITY st46 "fill:none;stroke:none;">
	<!ENTITY st47 "fill:url(#aigrd12);stroke:none;">
	<!ENTITY st48 "fill:url(#aigrd35);stroke:none;">
	<!ENTITY st49 "fill:url(#aigrd22);stroke:none;">
	<!ENTITY st50 "fill:url(#aigrd45);stroke:none;">
	<!ENTITY st51 "fill:url(#aigrd32);stroke:none;">
	<!ENTITY st52 "fill-rule:nonzero;clip-rule:nonzero;stroke:#000000;stroke-miterlimit:4;">
	<!ENTITY st53 "fill:url(#aigrd7);stroke:none;">
	<!ENTITY st54 "fill:url(#aigrd42);stroke:none;">
	<!ENTITY st55 "fill:#6E6E6E;stroke:none;">
	<!ENTITY st56 "stroke:none;">
	<!ENTITY st57 "fill:url(#aigrd17);stroke:none;">
	<!ENTITY st58 "fill:url(#aigrd4);stroke:#1F1F1F;stroke-width:3.1749;">
	<!ENTITY st59 "fill:url(#aigrd27);stroke:none;">
]>
<svg  width="40pt" height="48pt" viewBox="0 0 40 48" xml:space="preserve">
	<g id="Layer_x0020_1" style="&st52;">
		<path style="&st21;" d="M13.3,47.3l6.2-2.5c7.9,1.2,21.6-4.9,16.6-11.7c-3.6-4.9-17.6-2-17.6-2l-5.2,16.2"/>
		<path style="&st56;" d="M3.7,13.3v4.9c0,0.8,0.3,2,1.5,3.3c0,1.1,0,16.6,0,16.6c0,2,1.5,3.7,4.4,5c2.4,1.1,5.7,1.6,9.1,1.6c3.4,0,6.6-0.6,9.1-1.6c2.8-1.2,4.3-3,4.3-5c0,0,0-15.6,0-16.7c1.1-1.2,1.4-2.4,1.4-3.2v-4.9c0-4.1-6.4-7.2-14.8-7.2S3.7,9.2,3.7,13.3z"/>
		<linearGradient id="aigrd1" gradientUnits="userSpaceOnUse" x1="14.4336" y1="25.8027" x2="29.808" y2="25.7209">
			<stop  offset="0" style="stop-color:#BBBBBB"/>
			<stop  offset="1" style="stop-color:#707070"/>
		</linearGradient>
		<path style="&st2;" d="M18.5,8.4c-6.6,0-12,2.3-12,5.2v24.2c0,2.9,5.4,5.2,12,5.2c6.6,0,12-2.3,12-5.2V13.7c0-2.9-5.4-5.2-12-5.2z"/>
		<linearGradient id="aigrd2" gradientUnits="userSpaceOnUse" x1="9.6543" y1="37.0703" x2="12.6096" y2="22.2943">
			<stop  offset="0" style="stop-color:#BBBBBB"/>
			<stop  offset="1" style="stop-color:#F3F3F3"/>
		</linearGradient>
		<path style="&st42;" d="M8.1,20.4v16.7l6.4,0.7V21.3l-6.4-1z"/>
		<path style="&st56;" d="M8.5,38.4l-3,6.1l7.3,3.4l3.7-3.2L16,40.3L8.6,38l-0.2,0.4z"/>
		<path style="&st25;" d="M30.6,25.2c-0.5-2.9-8.4-0.4-11.4-1.7l11.4-3.6c0,0,0.5,8.3,0,5.4z"/>
		<linearGradient id="aigrd3" gradientUnits="userSpaceOnUse" x1="7.9878" y1="15.5264" x2="22.3003" y2="15.5264">
			<stop  offset="0" style="stop-color:#BBBBBB"/>
			<stop  offset="1" style="stop-color:#707070"/>
		</linearGradient>
		<path style="&st20;" d="M18.5,7.2C11,7.2,5,9.8,5,13.1V18c0,3.2,6,5.9,13.5,5.9c7.4,0,13.5-2.6,13.5-5.9v-4.9c0-3.2-6-5.9-13.5-5.9z"/>
		<path style="&st34;" d="M5.8,12.6c0.3,2.5,3.3,6.2,15.6,6.5C12,19.9,4.6,17.2,5.8,12.6z"/>
		<path style="&st45;" d="M28.2,16.8c5.1-3.6,1.2-8.6-11.1-8.9c9.4-0.9,19.5,4.7,11.1,8.9z"/>
		<path style="&st55;" d="M8.8,38.4l-2.7,5.6l6.5,3l2.7-6.3l-6.6-2.2z"/>
		<path style="&st10;" d="M15.7,44.3l-0.3-3.7l-2.7,6.3l3.1-2.6z"/>
		<path style="&st26;" d="M5.1,18.1c0.2,1.8,3.2,5.4,12.8,5.7c-4.7,0.2-13-1.7-12.8-5.7z"/>
	</g>
	<g id="Layer_x0020_2" style="&st28;">
		<linearGradient id="aigrd4" gradientUnits="userSpaceOnUse" x1="11.0527" y1="9.0029" x2="25.4554" y2="9.0029" gradientTransform="matrix(0.9953 9.660000e-002 -9.660000e-002 0.9953 -1.6586 -1.8236)">
			<stop  offset="0" style="stop-color:#BBBBBB"/>
			<stop  offset="1" style="stop-color:#707070"/>
		</linearGradient>
		<path style="&st58;" d="M18.5,3.1c-7.1-0.7-12.7,1.4-13,4.5L5.4,8.4c-0.3,3.1,4.8,6,11.9,6.7c7.1,0.7,14.7-0.4,15-3.5l0.1-0.9c0.3-3.1-6.8-7.1-13.9-7.7z"/>
		<linearGradient id="aigrd5" gradientUnits="userSpaceOnUse" x1="8.0093" y1="15.5283" x2="22.3795" y2="15.5283">
			<stop  offset="0" style="stop-color:#BBBBBB"/>
			<stop  offset="1" style="stop-color:#707070"/>
		</linearGradient>
		<path style="&st37;" d="M17.5,7.5C10.4,7.5,5,10.2,5,13.3V18c0,3.1,5.4,5.5,12.5,5.5S32,21.8,32,18.7v-4.7c0-3.1-7.3-6.4-14.5-6.4z"/>
		<linearGradient id="aigrd6" gradientUnits="userSpaceOnUse" x1="10.1934" y1="13.0259" x2="24.8853" y2="12.8617">
			<stop  offset="0" style="stop-color:#4E4E4E"/>
			<stop  offset="1" style="stop-color:#707070"/>
		</linearGradient>
		<path style="&st14;" d="M29.3,13.7c0,2.4-5.4,3.6-11.5,3.6c-6.1,0-10.7-1.8-10.7-4.2c0-2.4,4.5-4.5,10.7-4.5c6.1,0,11.5,2.7,11.5,5.1z"/>
		<linearGradient id="aigrd7" gradientUnits="userSpaceOnUse" x1="22.5054" y1="14.8423" x2="22.5054" y2="7.1673" gradientTransform="matrix(0.4424 0.8968 -0.8968 0.4424 0.5372 -10.0372)">
			<stop  offset="0" style="stop-color:#C5C5C5"/>
			<stop  offset="0.2838" style="stop-color:#D1D1D1"/>
			<stop  offset="0.7942" style="stop-color:#F0F0F0"/>
			<stop  offset="1" style="stop-color:#FFFFFF"/>
		</linearGradient>
		<path style="&st8;" d="M9.3,14.2c0,0-5.5-2.7-6.1-1.1c-0.5,1.6,5.1-8.1,6.1-4.8c0.9,3.3,0,5.9,0,5.9z"/>
		<path style="&st56;" d="M5.5,13.7c0.5,2.4,4.3,5.5,16.1,4.8c-8.9,1.5-16.9-0.2-16.1-4.8z"/>
		<path style="&st53;" d="M9.3,14.2c0,0-5.5-2.7-6.1-1.1c-0.5,1.6,5.1-8.1,6.1-4.8c0.9,3.3,0,5.9,0,5.9z"/>
		<path style="&st18;" d="M26.7,15.7c0.9-0.7,2.4-9.3-14.5-6.5c10.7-2.9,23,2.3,14.5,6.5z"/>
		<linearGradient id="aigrd9" gradientUnits="userSpaceOnUse" x1="9.0869" y1="26.5781" x2="9.0869" y2="18.9031">
			<stop  offset="0" style="stop-color:#C5C5C5"/>
			<stop  offset="0.2838" style="stop-color:#D1D1D1"/>
			<stop  offset="0.7942" style="stop-color:#F0F0F0"/>
			<stop  offset="1" style="stop-color:#FFFFFF"/>
		</linearGradient>
		<path style="&st5;" d="M12.2,14.2c0,0-4.7,4.2-3.5,5.4c1.2,1.2-5-8.2-1.6-7.6c3.4,0.6,5.2,2.1,5.2,2.1z"/>
		<g>
			<linearGradient id="aigrd10" gradientUnits="userSpaceOnUse" x1="14.2749" y1="22.0127" x2="14.2749" y2="16.7621">
				<stop  offset="0" style="stop-color:#C5C5C5"/>
				<stop  offset="0.2838" style="stop-color:#D1D1D1"/>
				<stop  offset="0.7942" style="stop-color:#F0F0F0"/>
				<stop  offset="1" style="stop-color:#FFFFFF"/>
			</linearGradient>
			<path style="&st30;" d="M15.1,16.2l0.9-0.3c-1.1-1.5-1.9-2.9-1.9-3.9c-0.8,0.4-1.4,0.9-2,1.5h1.7V17c0.8,0.1,1.7,0.2,2.5,0.2l-0.1,0l-1.2-1z"/>
			<linearGradient id="aigrd11" gradientUnits="userSpaceOnUse" x1="11.8027" y1="22.0117" x2="11.8027" y2="16.7614">
				<stop  offset="0" style="stop-color:#C5C5C5"/>
				<stop  offset="0.2838" style="stop-color:#D1D1D1"/>
				<stop  offset="0.7942" style="stop-color:#F0F0F0"/>
				<stop  offset="1" style="stop-color:#FFFFFF"/>
			</linearGradient>
			<path style="&st6;" d="M10.2,16.1c1,0.3,2.1,0.6,3.3,0.8l-2.5-2c-0.3,0.4-0.5,0.8-0.7,1.1z"/>
			<linearGradient id="aigrd12" gradientUnits="userSpaceOnUse" x1="11.3369" y1="11.9209" x2="10.1875" y2="17.5911">
				<stop  offset="0" style="stop-color:#C5C5C5"/>
				<stop  offset="1" style="stop-color:#FFFFFF"/>
			</linearGradient>
			<path style="&st47;" d="M10.7,13.5l2.4-1.2l-1-0.7l0.6-1.4l-3.6,3.2l1.8,1.6c0.4-0.5,0.8-1,1.2-1.4h-1.4z"/>
			<linearGradient id="aigrd13" gradientUnits="userSpaceOnUse" x1="12.3901" y1="22.0117" x2="12.3901" y2="16.761">
				<stop  offset="0" style="stop-color:#C5C5C5"/>
				<stop  offset="0.2838" style="stop-color:#D1D1D1"/>
				<stop  offset="0.7942" style="stop-color:#F0F0F0"/>
				<stop  offset="1" style="stop-color:#FFFFFF"/>
			</linearGradient>
			<path style="&st23;" d="M12.1,13.5c-0.5,0.5-0.9,0.9-1.2,1.4l2.5,2c0.1,0,0.3,0,0.4,0.1v-3.5h-1.7z"/>
			<linearGradient id="aigrd14" gradientUnits="userSpaceOnUse" x1="13.1411" y1="12.2866" x2="11.9916" y2="17.9571">
				<stop  offset="0" style="stop-color:#C5C5C5"/>
				<stop  offset="1" style="stop-color:#FFFFFF"/>
			</linearGradient>
			<path style="&st0;" d="M12.1,13.5c-0.5,0.5-0.9,0.9-1.2,1.4l2.5,2c0.1,0,0.3,0,0.4,0.1v-3.5h-1.7z"/>
			<linearGradient id="aigrd15" gradientUnits="userSpaceOnUse" x1="17.627" y1="13.9966" x2="16.0789" y2="21.6333">
				<stop  offset="0" style="stop-color:#C5C5C5"/>
				<stop  offset="1" style="stop-color:#FFFFFF"/>
			</linearGradient>
			<path style="&st40;" d="M18.7,12.7c-0.7,0.2-1.5,0.4-2.3,0.7c0.9,0.9,1.5,1.7,2.1,2.4c0.5-0.8,0.7-1.8,0.2-3.1z"/>
			<linearGradient id="aigrd16" gradientUnits="userSpaceOnUse" x1="23.521" y1="15.3926" x2="22.134" y2="22.2346">
				<stop  offset="0" style="stop-color:#C5C5C5"/>
				<stop  offset="1" style="stop-color:#FFFFFF"/>
			</linearGradient>
			<path style="&st17;" d="M19.3,12.6c1.1,1.5,2.4,3.4,3.1,4.3c2.3-0.4,4.7-0.3,5.8-1.2c-0.6-0.9-3.5-4.1-8.9-3.1z"/>
			<linearGradient id="aigrd17" gradientUnits="userSpaceOnUse" x1="15.3687" y1="10.8574" x2="14.8969" y2="13.1846" gradientTransform="matrix(0.7871 0.6168 -0.6168 0.7871 11.9887 -2.1454)">
				<stop  offset="0" style="stop-color:#C5C5C5"/>
				<stop  offset="1" style="stop-color:#FFFFFF"/>
			</linearGradient>
			<path style="&st57;" d="M17.9,16.6l-0.1-0.2l0.1-1.2L16,15.9c0.3,0.4,0.7,0.9,1,1.3c0.3-0.2,0.6-0.4,0.9-0.7z"/>
			<linearGradient id="aigrd18" gradientUnits="userSpaceOnUse" x1="16.0796" y1="22.0137" x2="16.0796" y2="16.7615">
				<stop  offset="0" style="stop-color:#C5C5C5"/>
				<stop  offset="0.2838" style="stop-color:#D1D1D1"/>
				<stop  offset="0.7942" style="stop-color:#F0F0F0"/>
				<stop  offset="1" style="stop-color:#FFFFFF"/>
			</linearGradient>
			<path style="&st36;" d="M16,15.9l-0.9,0.3l1.2,1l0.1,0c0.2,0,0.4,0,0.6,0c0,0,0,0,0,0c-0.4-0.4-0.7-0.9-1-1.3z"/>
			<linearGradient id="aigrd19" gradientUnits="userSpaceOnUse" x1="15.1846" y1="10.8213" x2="14.7132" y2="13.1466" gradientTransform="matrix(0.7871 0.6168 -0.6168 0.7871 11.9887 -2.1454)">
				<stop  offset="0" style="stop-color:#C5C5C5"/>
				<stop  offset="1" style="stop-color:#FFFFFF"/>
			</linearGradient>
			<path style="&st13;" d="M16,15.9l-0.9,0.3l1.2,1l0.1,0c0.2,0,0.4,0,0.6,0c0,0,0,0,0,0c-0.4-0.4-0.7-0.9-1-1.3z"/>
			<linearGradient id="aigrd20" gradientUnits="userSpaceOnUse" x1="18.5547" y1="17.522" x2="18.5547" y2="13.8838">
				<stop  offset="0" style="stop-color:#C5C5C5"/>
				<stop  offset="0.2838" style="stop-color:#D1D1D1"/>
				<stop  offset="0.7942" style="stop-color:#F0F0F0"/>
				<stop  offset="1" style="stop-color:#FFFFFF"/>
			</linearGradient>
			<path style="&st32;" d="M18.3,11.7c0.2,0.4,0.4,0.7,0.5,1c0.2,0,0.4-0.1,0.6-0.1c-1.4-1.9-2.4-3.1-1.1-0.9z"/>
			<linearGradient id="aigrd21" gradientUnits="userSpaceOnUse" x1="18.6431" y1="17.5229" x2="18.6431" y2="13.8834">
				<stop  offset="0" style="stop-color:#C5C5C5"/>
				<stop  offset="0.2838" style="stop-color:#D1D1D1"/>
				<stop  offset="0.7942" style="stop-color:#F0F0F0"/>
				<stop  offset="1" style="stop-color:#FFFFFF"/>
			</linearGradient>
			<path style="&st9;" d="M17.9,16.6l0.5,0.7c0.4,0,0.7,0,1.1,0c-0.2-0.4-0.5-0.9-0.9-1.4c-0.2,0.3-0.4,0.6-0.7,0.8z"/>
			<linearGradient id="aigrd22" gradientUnits="userSpaceOnUse" x1="20.6133" y1="14.6021" x2="19.0651" y2="22.2396">
				<stop  offset="0" style="stop-color:#C5C5C5"/>
				<stop  offset="1" style="stop-color:#FFFFFF"/>
			</linearGradient>
			<path style="&st49;" d="M18.7,12.7c0.5,1.3,0.3,2.3-0.2,3.1c0.4,0.5,0.6,1,0.9,1.4c1.1-0.1,2.1-0.2,3-0.3c-0.7-0.9-2-2.8-3.1-4.3c-0.2,0-0.4,0.1-0.6,0.1z"/>
			<linearGradient id="aigrd23" gradientUnits="userSpaceOnUse" x1="20.4678" y1="17.5225" x2="20.4678" y2="13.8846">
				<stop  offset="0" style="stop-color:#C5C5C5"/>
				<stop  offset="0.2838" style="stop-color:#D1D1D1"/>
				<stop  offset="0.7942" style="stop-color:#F0F0F0"/>
				<stop  offset="1" style="stop-color:#FFFFFF"/>
			</linearGradient>
			<path style="&st27;" d="M18.7,12.7c0.5,1.3,0.3,2.3-0.2,3.1c0.4,0.5,0.6,1,0.9,1.4c1.1-0.1,2.1-0.2,3-0.3c-0.7-0.9-2-2.8-3.1-4.3c-0.2,0-0.4,0.1-0.6,0.1z"/>
			<linearGradient id="aigrd24" gradientUnits="userSpaceOnUse" x1="16.584" y1="11.104" x2="16.1118" y2="13.4332" gradientTransform="matrix(0.7871 0.6168 -0.6168 0.7871 11.9887 -2.1454)">
				<stop  offset="0" style="stop-color:#C5C5C5"/>
				<stop  offset="1" style="stop-color:#FFFFFF"/>
			</linearGradient>
			<path style="&st3;" d="M17,17.3c0,0,0,0,0,0c0.2,0,0.5,0,0.7,0c0.2,0,0.4,0,0.6,0l-0.5-0.7c-0.3,0.3-0.6,0.5-0.9,0.7z"/>
			<linearGradient id="aigrd25" gradientUnits="userSpaceOnUse" x1="17.6797" y1="17.5239" x2="17.6797" y2="13.8754">
				<stop  offset="0" style="stop-color:#C5C5C5"/>
				<stop  offset="0.2838" style="stop-color:#D1D1D1"/>
				<stop  offset="0.7942" style="stop-color:#F0F0F0"/>
				<stop  offset="1" style="stop-color:#FFFFFF"/>
			</linearGradient>
			<path style="&st43;" d="M17,17.3c0,0,0,0,0,0c0.2,0,0.5,0,0.7,0c0.2,0,0.4,0,0.6,0l-0.5-0.7c-0.3,0.3-0.6,0.5-0.9,0.7z"/>
			<linearGradient id="aigrd26" gradientUnits="userSpaceOnUse" x1="17.0078" y1="22.126" x2="17.0078" y2="16.7508">
				<stop  offset="0" style="stop-color:#C5C5C5"/>
				<stop  offset="0.2838" style="stop-color:#D1D1D1"/>
				<stop  offset="0.7942" style="stop-color:#F0F0F0"/>
				<stop  offset="1" style="stop-color:#FFFFFF"/>
			</linearGradient>
			<path style="&st22;" d="M17,17.3c0,0,0,0,0,0c0,0,0,0,0,0c0,0,0,0,0,0z"/>
			<linearGradient id="aigrd27" gradientUnits="userSpaceOnUse" x1="16.1533" y1="11.0562" x2="15.6972" y2="13.3062" gradientTransform="matrix(0.7871 0.6168 -0.6168 0.7871 11.9887 -2.1454)">
				<stop  offset="0" style="stop-color:#C5C5C5"/>
				<stop  offset="1" style="stop-color:#FFFFFF"/>
			</linearGradient>
			<path style="&st59;" d="M17,17.3c0,0,0,0,0,0c0,0,0,0,0,0c0,0,0,0,0,0z"/>
			<linearGradient id="aigrd28" gradientUnits="userSpaceOnUse" x1="17.0078" y1="17.5298" x2="17.0078" y2="13.8052">
				<stop  offset="0" style="stop-color:#C5C5C5"/>
				<stop  offset="0.2838" style="stop-color:#D1D1D1"/>
				<stop  offset="0.7942" style="stop-color:#F0F0F0"/>
				<stop  offset="1" style="stop-color:#FFFFFF"/>
			</linearGradient>
			<path style="&st39;" d="M17,17.3c0,0,0,0,0,0c0,0,0,0,0,0c0,0,0,0,0,0z"/>
		</g>
		<linearGradient id="aigrd29" gradientUnits="userSpaceOnUse" x1="10.4038" y1="9.123" x2="30.8715" y2="9.123">
			<stop  offset="0" style="stop-color:#BBBBBB"/>
			<stop  offset="1" style="stop-color:#707070"/>
		</linearGradient>
		<path style="&st16;" d="M18.5,3.1c-7.1-0.7-12.7,1.4-13,4.5L5.4,8.4c-0.3,3.1,4.8,6,11.9,6.7c7.1,0.7,14.7-0.4,15-3.5l0.1-0.9c0.3-3.1-6.8-7.1-13.9-7.7z"/>
		<path style="&st56;" d="M5.9,6.7c0.1,2.5,3.3,6.2,15,7.6c-9.1,0-16.6-3.2-15-7.6z"/>
		<path style="&st45;" d="M29.1,13.6c5.2-3,0.4-9-11.4-10.4c9.1,0,19.7,7.2,11.4,10.4z"/>
		<g>
			<linearGradient id="aigrd30" gradientUnits="userSpaceOnUse" x1="13.8359" y1="22.5845" x2="13.8359" y2="17.7976">
				<stop  offset="0" style="stop-color:#C5C5C5"/>
				<stop  offset="0.2838" style="stop-color:#D1D1D1"/>
				<stop  offset="0.7942" style="stop-color:#F0F0F0"/>
				<stop  offset="1" style="stop-color:#FFFFFF"/>
			</linearGradient>
			<path style="&st35;" d="M14.6,17.3l0.8-0.3c-1-1.4-1.7-2.7-1.7-3.5c-0.7,0.4-1.3,0.8-1.8,1.3h1.6V18c0.7,0.1,1.5,0.2,2.3,0.2l-0.1,0l-1.1-0.9z"/>
			<linearGradient id="aigrd31" gradientUnits="userSpaceOnUse" x1="11.5811" y1="22.584" x2="11.5811" y2="17.7983">
				<stop  offset="0" style="stop-color:#C5C5C5"/>
				<stop  offset="0.2838" style="stop-color:#D1D1D1"/>
				<stop  offset="0.7942" style="stop-color:#F0F0F0"/>
				<stop  offset="1" style="stop-color:#FFFFFF"/>
			</linearGradient>
			<path style="&st12;" d="M10.1,17.2c0.9,0.3,1.9,0.6,3,0.7l-2.3-1.8c-0.3,0.3-0.5,0.7-0.7,1z"/>
			<linearGradient id="aigrd32" gradientUnits="userSpaceOnUse" x1="11.1768" y1="13.3887" x2="10.1287" y2="18.5589">
				<stop  offset="0" style="stop-color:#C5C5C5"/>
				<stop  offset="1" style="stop-color:#FFFFFF"/>
			</linearGradient>
			<path style="&st51;" d="M10.6,14.9l2.2-1.1l-0.9-0.6l0.6-1.3l-3.3,2.9l1.6,1.4c0.3-0.5,0.7-0.9,1.1-1.3h-1.3z"/>
			<linearGradient id="aigrd33" gradientUnits="userSpaceOnUse" x1="12.1177" y1="22.5845" x2="12.1177" y2="17.7978">
				<stop  offset="0" style="stop-color:#C5C5C5"/>
				<stop  offset="0.2838" style="stop-color:#D1D1D1"/>
				<stop  offset="0.7942" style="stop-color:#F0F0F0"/>
				<stop  offset="1" style="stop-color:#FFFFFF"/>
			</linearGradient>
			<path style="&st31;" d="M11.9,14.9c-0.4,0.4-0.8,0.9-1.1,1.3l2.3,1.8c0.1,0,0.3,0,0.4,0.1v-3.2h-1.6z"/>
			<linearGradient id="aigrd34" gradientUnits="userSpaceOnUse" x1="12.8018" y1="13.7188" x2="11.7538" y2="18.8882">
				<stop  offset="0" style="stop-color:#C5C5C5"/>
				<stop  offset="1" style="stop-color:#FFFFFF"/>
			</linearGradient>
			<path style="&st7;" d="M11.9,14.9c-0.4,0.4-0.8,0.9-1.1,1.3l2.3,1.8c0.1,0,0.3,0,0.4,0.1v-3.2h-1.6z"/>
			<linearGradient id="aigrd35" gradientUnits="userSpaceOnUse" x1="16.8901" y1="15.2769" x2="15.4792" y2="22.2373">
				<stop  offset="0" style="stop-color:#C5C5C5"/>
				<stop  offset="1" style="stop-color:#FFFFFF"/>
			</linearGradient>
			<path style="&st48;" d="M17.9,14.1c-0.6,0.2-1.3,0.4-2.1,0.6c0.8,0.8,1.4,1.5,1.9,2.2c0.4-0.7,0.6-1.6,0.2-2.8z"/>
			<linearGradient id="aigrd36" gradientUnits="userSpaceOnUse" x1="22.022" y1="16.3706" x2="20.6525" y2="23.1264">
				<stop  offset="0" style="stop-color:#C5C5C5"/>
				<stop  offset="1" style="stop-color:#FFFFFF"/>
			</linearGradient>
			<path style="&st24;" d="M18.4,14c1,1.3,2.2,3.1,2.8,3.9c2.1-0.4,3.8-1,4.9-1.8c-0.6-0.8-2.8-3.1-7.7-2.1z"/>
			<linearGradient id="aigrd37" gradientUnits="userSpaceOnUse" x1="15.4941" y1="12.1753" x2="15.0643" y2="14.2955" gradientTransform="matrix(0.7871 0.6168 -0.6168 0.7871 11.9887 -2.1454)">
				<stop  offset="0" style="stop-color:#C5C5C5"/>
				<stop  offset="1" style="stop-color:#FFFFFF"/>
			</linearGradient>
			<path style="&st1;" d="M17.1,17.6L17,17.5l0.1-1.1L15.4,17c0.3,0.4,0.6,0.8,0.9,1.2c0.3-0.2,0.5-0.4,0.8-0.6z"/>
			<linearGradient id="aigrd38" gradientUnits="userSpaceOnUse" x1="15.4805" y1="22.5811" x2="15.4805" y2="17.7969">
				<stop  offset="0" style="stop-color:#C5C5C5"/>
				<stop  offset="0.2838" style="stop-color:#D1D1D1"/>
				<stop  offset="0.7942" style="stop-color:#F0F0F0"/>
				<stop  offset="1" style="stop-color:#FFFFFF"/>
			</linearGradient>
			<path style="&st41;" d="M15.4,17l-0.8,0.3l1.1,0.9l0.1,0c0.2,0,0.3,0,0.5,0c0,0,0,0,0,0c-0.3-0.4-0.6-0.8-0.9-1.2z"/>
			<linearGradient id="aigrd39" gradientUnits="userSpaceOnUse" x1="15.3257" y1="12.1411" x2="14.8956" y2="14.2629" gradientTransform="matrix(0.7871 0.6168 -0.6168 0.7871 11.9887 -2.1454)">
				<stop  offset="0" style="stop-color:#C5C5C5"/>
				<stop  offset="1" style="stop-color:#FFFFFF"/>
			</linearGradient>
			<path style="&st19;" d="M15.4,17l-0.8,0.3l1.1,0.9l0.1,0c0.2,0,0.3,0,0.5,0c0,0,0,0,0,0c-0.3-0.4-0.6-0.8-0.9-1.2z"/>
			<linearGradient id="aigrd40" gradientUnits="userSpaceOnUse" x1="17.7373" y1="18.4946" x2="17.7373" y2="15.1759">
				<stop  offset="0" style="stop-color:#C5C5C5"/>
				<stop  offset="0.2838" style="stop-color:#D1D1D1"/>
				<stop  offset="0.7942" style="stop-color:#F0F0F0"/>
				<stop  offset="1" style="stop-color:#FFFFFF"/>
			</linearGradient>
			<path style="&st38;" d="M17.5,13.2c0.2,0.3,0.3,0.6,0.4,0.9c0.2,0,0.4-0.1,0.5-0.1c-1.3-1.7-2.2-2.8-1-0.8z"/>
			<linearGradient id="aigrd41" gradientUnits="userSpaceOnUse" x1="17.8179" y1="18.4917" x2="17.8179" y2="15.1729">
				<stop  offset="0" style="stop-color:#C5C5C5"/>
				<stop  offset="0.2838" style="stop-color:#D1D1D1"/>
				<stop  offset="0.7942" style="stop-color:#F0F0F0"/>
				<stop  offset="1" style="stop-color:#FFFFFF"/>
			</linearGradient>
			<path style="&st15;" d="M17.1,17.6l0.4,0.6c0.3,0,0.7,0,1,0c-0.2-0.4-0.5-0.8-0.8-1.3c-0.2,0.3-0.4,0.5-0.6,0.7z"/>
			<linearGradient id="aigrd42" gradientUnits="userSpaceOnUse" x1="19.6133" y1="15.8286" x2="18.2017" y2="22.7921">
				<stop  offset="0" style="stop-color:#C5C5C5"/>
				<stop  offset="1" style="stop-color:#FFFFFF"/>
			</linearGradient>
			<path style="&st54;" d="M17.9,14.1c0.4,1.2,0.3,2.1-0.2,2.8c0.3,0.5,0.6,0.9,0.8,1.3c1-0.1,1.9-0.2,2.7-0.3c-0.6-0.9-1.8-2.6-2.8-3.9c-0.2,0-0.3,0.1-0.5,0.1z"/>
			<linearGradient id="aigrd43" gradientUnits="userSpaceOnUse" x1="19.4795" y1="18.4917" x2="19.4795" y2="15.1746">
				<stop  offset="0" style="stop-color:#C5C5C5"/>
				<stop  offset="0.2838" style="stop-color:#D1D1D1"/>
				<stop  offset="0.7942" style="stop-color:#F0F0F0"/>
				<stop  offset="1" style="stop-color:#FFFFFF"/>
			</linearGradient>
			<path style="&st33;" d="M17.9,14.1c0.4,1.2,0.3,2.1-0.2,2.8c0.3,0.5,0.6,0.9,0.8,1.3c1-0.1,1.9-0.2,2.7-0.3c-0.6-0.9-1.8-2.6-2.8-3.9c-0.2,0-0.3,0.1-0.5,0.1z"/>
			<linearGradient id="aigrd44" gradientUnits="userSpaceOnUse" x1="16.6006" y1="12.3989" x2="16.1703" y2="14.5214" gradientTransform="matrix(0.7871 0.6168 -0.6168 0.7871 11.9887 -2.1454)">
				<stop  offset="0" style="stop-color:#C5C5C5"/>
				<stop  offset="1" style="stop-color:#FFFFFF"/>
			</linearGradient>
			<path style="&st11;" d="M16.3,18.2c0,0,0,0,0,0c0.2,0,0.4,0,0.7,0c0.2,0,0.3,0,0.5,0l-0.4-0.6c-0.3,0.2-0.5,0.4-0.8,0.6z"/>
			<linearGradient id="aigrd45" gradientUnits="userSpaceOnUse" x1="16.9385" y1="18.4912" x2="16.9385" y2="15.1697">
				<stop  offset="0" style="stop-color:#C5C5C5"/>
				<stop  offset="0.2838" style="stop-color:#D1D1D1"/>
				<stop  offset="0.7942" style="stop-color:#F0F0F0"/>
				<stop  offset="1" style="stop-color:#FFFFFF"/>
			</linearGradient>
			<path style="&st50;" d="M16.3,18.2c0,0,0,0,0,0c0.2,0,0.4,0,0.7,0c0.2,0,0.3,0,0.5,0l-0.4-0.6c-0.3,0.2-0.5,0.4-0.8,0.6z"/>
			<linearGradient id="aigrd46" gradientUnits="userSpaceOnUse" x1="16.3267" y1="22.8672" x2="16.3267" y2="17.7677">
				<stop  offset="0" style="stop-color:#C5C5C5"/>
				<stop  offset="0.2838" style="stop-color:#D1D1D1"/>
				<stop  offset="0.7942" style="stop-color:#F0F0F0"/>
				<stop  offset="1" style="stop-color:#FFFFFF"/>
			</linearGradient>
			<path style="&st29;" d="M16.3,18.3c0,0,0,0,0,0c0,0,0,0,0,0c0,0,0,0,0,0z"/>
			<linearGradient id="aigrd47" gradientUnits="userSpaceOnUse" x1="16.2183" y1="12.3096" x2="15.7835" y2="14.4541" gradientTransform="matrix(0.7871 0.6168 -0.6168 0.7871 11.9887 -2.1454)">
				<stop  offset="0" style="stop-color:#C5C5C5"/>
				<stop  offset="1" style="stop-color:#FFFFFF"/>
			</linearGradient>
			<path style="&st4;" d="M16.3,18.3c0,0,0,0,0,0c0,0,0,0,0,0c0,0,0,0,0,0z"/>
			<linearGradient id="aigrd48" gradientUnits="userSpaceOnUse" x1="16.3267" y1="18.5068" x2="16.3267" y2="14.9732">
				<stop  offset="0" style="stop-color:#C5C5C5"/>
				<stop  offset="0.2838" style="stop-color:#D1D1D1"/>
				<stop  offset="0.7942" style="stop-color:#F0F0F0"/>
				<stop  offset="1" style="stop-color:#FFFFFF"/>
			</linearGradient>
			<path style="&st44;" d="M16.3,18.3c0,0,0,0,0,0c0,0,0,0,0,0c0,0,0,0,0,0z"/>
		</g>
	</g>
	<g id="bbox" style="&st52;">
		<path style="&st46;" d="M40,48H0V0h40v48z"/>
	</g>
</svg>
