<?xml version="1.0" encoding="iso-8859-1"?>
<!-- Generator: Adobe Illustrator 9.0, SVG Export Plug-In  -->
<!DOCTYPE svg PUBLIC "-//W3C//DTD SVG 20000303 Stylable//EN"   "http://www.w3.org/TR/2000/03/WD-SVG-20000303/DTD/svg-20000303-stylable.dtd" [
	<!ENTITY st0 "fill:url(#aigrd1);stroke:none;">
	<!ENTITY st1 "fill:url(#aigrd3);stroke:none;">
	<!ENTITY st2 "opacity:0.35;stroke:none;">
	<!ENTITY st3 "fill:#808078;stroke:none;">
	<!ENTITY st4 "fill:#C1C2B4;stroke:none;">
	<!ENTITY st5 "fill:#F1F2E1;stroke:none;">
	<!ENTITY st6 "fill:url(#aigrd2);stroke:none;">
	<!ENTITY st7 "fill:none;stroke:none;">
	<!ENTITY st8 "fill-rule:nonzero;clip-rule:nonzero;stroke:#000000;stroke-miterlimit:4;">
	<!ENTITY st9 "stroke:none;">
]>
<svg  width="66pt" height="48pt" viewBox="0 0 66 48" xml:space="preserve">
	<g id="Layer_x0020_3" style="&st8;">
		<path style="&st9;" d="M39.7,8.6c-1.1,0.3-1.9,0.8-2.7,1.3c-0.6,0.4-1.2,0.7-1.6,0.7c-0.3,0-1.8-0.3-2.7-0.5C29,9.2,23.8,8,20.8,9.2c-1.3,0.5-2.7,2-4.2,4.7c-0.2-0.1-0.5-0.1-0.5-0.1c-3.3-0.8-5.9-1.5-7.7-1.8c-3.4-0.7-4.7-0.8-5.7,0.3c-0.4,0.4-0.8,1-0.8,2
			c0,0.6,0,2.3,4,9.8c1.7,3.3,4.2,7.5,5.5,8.8c0.3,0.3,0.8,0.6,1.5,1c1.5,0.9,4.1,2,8.1,3.4c5.1,1.7,10.7,3.3,15.1,4.1c7.6,1.5,9.8,0.7,10.9-0.3c2.6-2.2,4.7-7.8,5.9-12.1c0.6-2.2,1.9-6.9,1.9-9.7c0-0.7-0.1-1.2-0.2-1.6c-0.9-2.1-2.7-2.5-3.7-2.7
			c-0.1,0-0.3-0.1-0.4-0.1c0-0.1,0-0.2,0-0.3c-0.1-0.9-0.2-2.4-1.5-3.8c-2.2-2.2-7-2.6-9.3-2z"/>
		<path style="&st2;" d="M42.4,44.9C38.5,45.6,14,39.3,12,37.2c-2-2.1,8.5-5.5,13.5-6.1c5.1-0.6,29.9,2.7,32.6,5.4c2.7,2.7-11.9,7.7-15.7,8.5z"/>
		<path style="&st9;" d="M39.5,9.7c-0.9,0.3-1.7,0.7-2.4,1.2c-0.8,0.5-1.4,0.9-2.1,0.9c-0.4,0-1.7-0.3-2.9-0.6c-3.7-0.8-8.7-1.9-11.4-0.9c-2.9,1.1-6.2,9.3-7.1,11.8c-0.8,2.1-1.4,4-1.8,5.6c-0.6,2.6-0.4,3.6-0.1,4.1c0.3,0.5,0.8,1.6,9.1,4.4c5,1.7,10.6,3.2,15,4.1
			c7.2,1.4,9.2,0.7,10.1-0.1c2.5-2.1,4.6-8.2,5.6-11.6c0.3-0.9,2.5-8.8,1.7-10.7c-0.7-1.6-2-1.9-3-2.1c-0.5-0.1-0.8-0.2-1-0.4c-0.1-0.1-0.2-0.3-0.2-0.9c-0.1-0.8-0.1-2-1.2-3.1c-1.8-1.8-6.3-2.3-8.3-1.7z"/>
		<linearGradient id="aigrd1" gradientUnits="userSpaceOnUse" x1="36.7783" y1="12.9629" x2="29.5527" y2="32.3173">
			<stop  offset="0" style="stop-color:#989C80"/>
			<stop  offset="1" style="stop-color:#000000"/>
		</linearGradient>
		<path style="&st0;" d="M20.9,11c-3.1,1.2-9.4,17.5-8.3,19.7c1.1,2.2,28.8,10.9,32.2,8c3.8-3.2,7.6-19.1,6.9-20.8c-0.7-1.7-2.6-1-3.7-2c-1.1-1.1,0-2.6-1.4-4c-1.4-1.4-5.2-1.9-7-1.4c-1.8,0.5-3.1,2.1-4.9,2.1c-1.8,0-10.5-2.9-13.8-1.6z"/>
		<path style="&st4;" d="M12.6,30.6c0.3-5.4,5.2-18.1,8-19.6c2.8-1.5,12.5,1.6,14.1,1.6c1.6,0,2.8-1.5,4.9-2.1c2.1-0.6,5.7,0.1,7,1.4c1.1,1.1,0.7,3.2,1.2,3.8c0.5,0.5,3.1,1.2,3.6,1.8c0,0-3-0.8-3.8-1.6s-0.6-2.5-1.3-3.2c-0.6-0.6-5.7-1.7-7.1-1.2
			c-1.4,0.6-2.5,2.1-4.4,2.4C33,14.2,24.1,11,21.4,12.6c-2.7,1.6-8.7,18-8.7,18z"/>
		<path style="&st9;" d="M3,13.1c-0.2,0.2-0.5,0.6-0.5,1.3c0,1.7,2.1,6,3.9,9.3c1.8,3.5,4.2,7.4,5.3,8.6c1.8,1.8,13.9,5.3,15.3,5.7c5.1,1.5,14.2,3.8,17,3.2c0.5-0.1,1.6-0.6,1.6-2.6c0-2.4-1.6-6.8-3.2-10.1c-0.9-1.9-1.8-3.6-2.6-4.9c-1.4-2.2-2.3-2.6-2.9-2.8
			c-0.5-0.1-2.1-0.6-4.2-1.2c-4.5-1.3-11.3-3.1-17.2-4.6c-3.3-0.8-5.9-1.5-7.7-1.8c-3.4-0.7-4.2-0.6-4.7,0z"/>
		<linearGradient id="aigrd2" gradientUnits="userSpaceOnUse" x1="23.0962" y1="24.3228" x2="27.4094" y2="39.6422">
			<stop  offset="0" style="stop-color:#DEDFCE"/>
			<stop  offset="1" style="stop-color:#C2C4B5"/>
		</linearGradient>
		<path style="&st6;" d="M42.9,39.2c2.7-0.7-4.6-17.1-7.1-17.7c-2.5-0.6-31.6-9-32.6-8c-1,1,6.8,15.3,8.7,17.2c1.9,1.9,26.9,9.5,30.9,8.5z"/>
		<linearGradient id="aigrd3" gradientUnits="userSpaceOnUse" x1="17.0337" y1="20.6353" x2="19.8945" y2="30.7961">
			<stop  offset="0" style="stop-color:#DEDFCE"/>
			<stop  offset="1" style="stop-color:#FFFFFF"/>
		</linearGradient>
		<path style="&st1;" d="M18.9,33.7c-5.6-12.3,13.7-1,9.7-14.3c0,0-24.8-7.5-25.5-5.7c-0.7,1.9,7.5,15.7,8.8,17.1c1.3,1.3,7,3,7,3z"/>
		<path style="&st5;" d="M11.9,30.7c0,0-7.3-13.6-6.4-15c0.9-1.4,30.6,5.9,30.6,5.9C34.9,21,4.4,12.2,3.2,13.5c-1.1,1.2,7.2,15.7,8.7,17.2z"/>
		<path style="&st3;" d="M50.9,17c1.4,1.2-1.5,14.3-5.4,21.1c4.3-6,6.4-17.8,6.4-19.3c0-0.4-0.2-1.4-1-1.7z"/>
		<path style="&st7;" d="M1.8,45h56.6V6.6H1.8V45z"/>
	</g>
	<g id="bbox" style="&st8;">
		<path style="&st7;" d="M66,48H0V0h66v48z"/>
	</g>
</svg>
