<?xml version="1.0" encoding="iso-8859-1"?>
<!-- Generator: Adobe Illustrator 9.0, SVG Export Plug-In  -->
<!DOCTYPE svg PUBLIC "-//W3C//DTD SVG 20000303 Stylable//EN"   "http://www.w3.org/TR/2000/03/WD-SVG-20000303/DTD/svg-20000303-stylable.dtd" [
	<!ENTITY st0 "fill-rule:evenodd;clip-rule:evenodd;fill:url(#aigrd7);stroke:none;">
	<!ENTITY st1 "fill:url(#aigrd1);stroke:none;">
	<!ENTITY st2 "fill:#535445;stroke:none;">
	<!ENTITY st3 "fill:#848484;stroke:none;">
	<!ENTITY st4 "fill:#C9CF71;stroke:none;">
	<!ENTITY st5 "fill:url(#aigrd3);stroke:none;">
	<!ENTITY st6 "fill-rule:evenodd;clip-rule:evenodd;fill:url(#aigrd6);stroke:none;">
	<!ENTITY st7 "fill:#545454;stroke:none;">
	<!ENTITY st8 "fill:#A3A76A;stroke:none;">
	<!ENTITY st9 "fill:#FFFFFF;stroke:none;">
	<!ENTITY st10 "fill-rule:evenodd;clip-rule:evenodd;fill:url(#aigrd4);stroke-width:3.3747;">
	<!ENTITY st11 "fill:url(#aigrd2);stroke:none;">
	<!ENTITY st12 "opacity:0.25;stroke:none;">
	<!ENTITY st13 "fill-rule:evenodd;clip-rule:evenodd;fill:url(#aigrd5);stroke:none;">
	<!ENTITY st14 "fill:none;stroke:none;">
	<!ENTITY st15 "fill:#F0F970;stroke:none;">
	<!ENTITY st16 "fill-rule:nonzero;clip-rule:nonzero;stroke:#000000;stroke-miterlimit:4;">
	<!ENTITY st17 "stroke:none;">
	<!ENTITY st18 "fill:#2A2A26;stroke:none;">
	<!ENTITY st19 "fill:#7B7D5B;stroke:none;">
]>
<svg  width="70pt" height="60pt" viewBox="0 0 70 60" xml:space="preserve">
	<g id="Layer_x0020_3" style="&st16;">
		<path style="&st14;" d="M70,60H0V0h70v60z"/>
	</g>
	<g id="Layer_x0020_4" style="&st16;">
		<path style="&st12;" d="M65.2,34.6c2,0.5,3.8,3.5,1,5.4L37.7,57L26.8,24.5l38.5,10.1z"/>
		<path style="&st17;" d="M27,21.1c0,0,0,0-0.1,0C26.8,21.1,6.6,32.8,6.6,32.8l0,0c-1.4,0.9-2.6,2.2-2.8,4.1c0,0.2,0,0.5,0,0.8l0,0l0.3,5.6c0.1,1.9,1.3,2.8,2,3.1c0,0,0,0,0.1,0c0,0,27.8,10.7,27.8,10.7c1.8,0.7,3.8,0.3,5.1-0.9L58.8,41c1.2-1.1,1.3-2.2,1.4-2.6
			l0-0.2l0.3-4.5c0-0.6,0.1-1.7-0.2-2.8c-0.4-1.4-1.4-2.3-2.8-2.7l-26.3-7.4c-1.1-0.3-2.3-0.6-4.3,0.2z"/>
		<linearGradient id="aigrd1" gradientUnits="userSpaceOnUse" x1="7.6943" y1="35.4502" x2="57.9844" y2="35.4502" gradientTransform="matrix(0.997 7.730000e-002 -7.730000e-002 0.997 1.7002 -3.8359)">
			<stop  offset="0" style="stop-color:#CFCFCF"/>
			<stop  offset="1" style="stop-color:#EAEAEA"/>
		</linearGradient>
		<path style="&st1;" d="M30.9,22.9c-1.1-0.4-2.5-0.4-3.2-0.2C27.2,22.9,8.2,33.7,7.2,34.4c-1,0.6-1.2,1.8,0.1,2.2c1.3,0.5,25.9,8.4,27,8.7c1.1,0.3,2.7,0.3,3.3-0.2c0.6-0.5,18.9-13.3,19.5-13.8c0.6-0.5-0.5-1.4-1.4-1.6c-0.9-0.3-23.7-6.5-24.8-6.9z"/>
		<linearGradient id="aigrd2" gradientUnits="userSpaceOnUse" x1="9.7153" y1="46.8701" x2="35.9329" y2="48.7584" gradientTransform="matrix(0.997 7.730000e-002 -7.730000e-002 0.997 1.7002 -3.8359)">
			<stop  offset="0" style="stop-color:#F8F8F8"/>
			<stop  offset="1" style="stop-color:#B5B5B5"/>
		</linearGradient>
		<path style="&st11;" d="M5.5,37.7c-0.1-0.9,0.6-1.4,1.3-1.2c0.6,0.2,27.1,8.9,28.1,9.5c1,0.6,1.6,0.9,1.5,1.7s-0.4,5.2-0.5,5.8c-0.1,0.7-0.6,1.4-1.6,1.2C31.3,54,6.9,44.2,6.9,44.2c-0.8-0.3-1-0.8-1-1.7l-0.3-4.9z"/>
		<linearGradient id="aigrd3" gradientUnits="userSpaceOnUse" x1="40.8428" y1="51.79" x2="57.2307" y2="32.4971" gradientTransform="matrix(0.997 7.730000e-002 -7.730000e-002 0.997 1.7002 -3.8359)">
			<stop  offset="0" style="stop-color:#9F9F9F"/>
			<stop  offset="1" style="stop-color:#828282"/>
		</linearGradient>
		<path style="&st5;" d="M37,54.3c-0.5,0.4-1.4-0.1-1.3-1c0.1-0.9,0.4-5,0.5-5.8c0.1-0.8,0.4-1.5,1-2c0.6-0.5,19-13.3,19.7-13.9c0.7-0.6,1.1,0.5,1,1.1s-0.3,4.5-0.4,5c0,0.6-0.1,0.9-0.7,1.4C56.3,39.6,37.5,53.9,37,54.3z"/>
		<g style="&st9;">
			<path d="M35.5,45.2C33.8,45.1,6.8,36,6.6,35.9c-0.2-0.1,0-1,0.6-1.6c-1.7,1.1-1.7,3.1-1.7,3.1s0.2-0.9,1-1c3.3,1.2,26.7,9.3,27.6,9.6c1,0.3,1.3,1.5,1.3,2.4l0.3,5.4l0.6-5.4c0.1-0.9,0.5-2.5,1.5-3.2c0.5-0.3,12.5-9,17-12.2c-4.6,3.3-17.3,12.3-19.4,12.1z"/>
			<path d="M54.9,33.1c1-0.7,1.6-1.2,1.6-1.2s-0.6,0.4-1.6,1.2z"/>
		</g>
		<path style="&st3;" d="M36.9,54.4c-0.6,0.5-1,0.6-2.3,0.4c0.9-0.3,1.2-0.9,1.2-0.9s0.2,0.5,1,0.5z"/>
		<g>
			<g>
				<path style="&st17;" d="M11.9,40L11.8,42l-4.7-1.9l0-1.8l4.8,1.7z"/>
				<path style="&st18;" d="M11.8,40l-0.1,1.7l-4.3-1.7l0-1.6l4.3,1.5z"/>
				<path style="&st2;" d="M11.7,40l-0.1,1.5L7.9,40l0-1.4l3.8,1.3z"/>
				<path style="&st19;" d="M11.6,39.9l-0.1,1.3L8.3,40l0-1.2l3.3,1.2z"/>
				<path style="&st8;" d="M11.5,39.9L11.5,41l-2.8-1.1l0-1l2.9,1z"/>
				<path style="&st4;" d="M11.4,39.9l0,0.9L9,39.9l0-0.8l2.4,0.8z"/>
				<path style="&st15;" d="M11.3,39.8l0,0.7l-1.9-0.7l0-0.7l1.9,0.6z"/>
			</g>
		</g>
		<path style="&st7;" d="M55.9,29.8c1.1,0.5,1.5,1.2,1,1.7c0.6-0.4,1,1,1,1c0.1-0.8,0.1-2.2-2-2.7z"/>
	</g>
	<g id="Layer_x0020_5" style="&st16;">
		<radialGradient id="aigrd4" cx="27.5771" cy="13.3384" r="22.9105" fx="27.5771" fy="13.3384" gradientUnits="userSpaceOnUse">
			<stop  offset="0" style="stop-color:#2286B7"/>
			<stop  offset="1" style="stop-color:#190F50"/>
		</radialGradient>
		<path style="&st10;" d="M15.2,20.3c0,8.9,7.2,16.1,16.1,16.1c8.9,0,16.1-7.2,16.1-16.1c0-8.9-7.2-16.1-16.1-16.1c-8.9,0-16.1,7.2-16.1,16.1z"/>
		<radialGradient id="aigrd5" cx="26.127" cy="13.3188" r="24.1342" fx="26.127" fy="13.3188" gradientUnits="userSpaceOnUse">
			<stop  offset="0" style="stop-color:#99BBA8"/>
			<stop  offset="4.483049e-002" style="stop-color:#94B8A9"/>
			<stop  offset="9.596115e-002" style="stop-color:#87B0A9"/>
			<stop  offset="0.1502" style="stop-color:#72A1A9"/>
			<stop  offset="0.2065" style="stop-color:#538FA8"/>
			<stop  offset="0.264" style="stop-color:#2E79A7"/>
			<stop  offset="0.2865" style="stop-color:#1D70A5"/>
			<stop  offset="0.8539" style="stop-color:#190F50"/>
			<stop  offset="1" style="stop-color:#585287"/>
		</radialGradient>
		<path style="&st13;" d="M15.2,20.3c0,8.9,7.2,16.1,16.1,16.1c8.9,0,16.1-7.2,16.1-16.1c0-8.9-7.2-16.1-16.1-16.1c-8.9,0-16.1,7.2-16.1,16.1z"/>
		<radialGradient id="aigrd6" cx="25.5063" cy="13.1895" r="19.8584" fx="25.5063" fy="13.1895" gradientUnits="userSpaceOnUse">
			<stop  offset="0" style="stop-color:#D5D690"/>
			<stop  offset="0.2202" style="stop-color:#CFD08C"/>
			<stop  offset="0.4404" style="stop-color:#BFBF80"/>
			<stop  offset="0.6607" style="stop-color:#A4A46D"/>
			<stop  offset="0.8798" style="stop-color:#828257"/>
			<stop  offset="0.927" style="stop-color:#7A7A52"/>
			<stop  offset="1" style="stop-color:#9C9C68"/>
		</radialGradient>
		<path style="&st6;" d="M29.2,10.7l3.8,3.3l1.8-3.1l2.6,2.9L33,16.2l-0.6,3.9l0.9,1.6h-0.9l-1.1-1.6h-3.6l-1.4,2.4l3.6,2.1l5.2,3l-4.3,3.6v3.6l-3.3-7.5l1.3-2.2l-3.8-2.6v-3.2l-1.8-6.5l-2.1-1.2l0.2-2.3l2.8-2v2.5l5,0.7z"/>
		<radialGradient id="aigrd7" cx="27.5752" cy="14.5229" r="17.1791" fx="27.5752" fy="14.5229" gradientUnits="userSpaceOnUse">
			<stop  offset="0" style="stop-color:#D5D690"/>
			<stop  offset="0.2202" style="stop-color:#CFD08C"/>
			<stop  offset="0.4404" style="stop-color:#BFBF80"/>
			<stop  offset="0.6607" style="stop-color:#A4A46D"/>
			<stop  offset="0.8798" style="stop-color:#828257"/>
			<stop  offset="0.927" style="stop-color:#7A7A52"/>
			<stop  offset="1" style="stop-color:#9C9C68"/>
		</radialGradient>
		<path style="&st0;" d="M40.4,8.8v2l1.2,2V16l1.8,1l0.2-2.1l-1.1-1.8h1.6l-3.7-4.3z"/>
	</g>
</svg>
