<?xml version="1.0" encoding="iso-8859-1"?>
<!-- Generator: Adobe Illustrator 9.0, SVG Export Plug-In  -->
<!DOCTYPE svg PUBLIC "-//W3C//DTD SVG 20000303 Stylable//EN"   "http://www.w3.org/TR/2000/03/WD-SVG-20000303/DTD/svg-20000303-stylable.dtd" [
	<!ENTITY st0 "opacity:0.13;fill:url(#aigrd16);stroke:none;">
	<!ENTITY st1 "opacity:0.13;fill:url(#aigrd51);stroke:none;">
	<!ENTITY st2 "fill:url(#aigrd3);">
	<!ENTITY st3 "opacity:0.13;fill:url(#aigrd39);stroke:none;">
	<!ENTITY st4 "opacity:0.13;fill:url(#aigrd26);stroke:none;">
	<!ENTITY st5 "opacity:0.13;fill:url(#aigrd49);stroke:none;">
	<!ENTITY st6 "opacity:0.13;fill:url(#aigrd13);stroke:none;">
	<!ENTITY st7 "opacity:0.13;fill:url(#aigrd36);stroke:none;">
	<!ENTITY st8 "fill:url(#aigrd11);stroke:none;">
	<!ENTITY st9 "opacity:0.13;fill:url(#aigrd23);stroke:none;">
	<!ENTITY st10 "opacity:0.13;fill:url(#aigrd46);stroke:none;">
	<!ENTITY st11 "fill:#848484;stroke:none;">
	<!ENTITY st12 "fill:url(#aigrd9);stroke:none;">
	<!ENTITY st13 "opacity:0.13;fill:url(#aigrd33);stroke:none;">
	<!ENTITY st14 "opacity:0.72;stroke:none;">
	<!ENTITY st15 "opacity:0.13;fill:url(#aigrd20);stroke:none;">
	<!ENTITY st16 "fill:url(#aigrd1);stroke-linecap:round;stroke-linejoin:round;">
	<!ENTITY st17 "opacity:0.13;fill:url(#aigrd43);stroke:none;">
	<!ENTITY st18 "fill:url(#aigrd6);stroke:none;">
	<!ENTITY st19 "opacity:0.13;fill:url(#aigrd30);stroke:none;">
	<!ENTITY st20 "opacity:0.13;fill:url(#aigrd18);stroke:none;">
	<!ENTITY st21 "opacity:0.13;fill:url(#aigrd53);stroke:none;">
	<!ENTITY st22 "opacity:0.13;fill:url(#aigrd40);stroke:none;">
	<!ENTITY st23 "opacity:0.13;fill:url(#aigrd28);stroke:none;">
	<!ENTITY st24 "fill:url(#aigrd3);stroke:none;">
	<!ENTITY st25 "opacity:0.13;fill:url(#aigrd15);stroke:none;">
	<!ENTITY st26 "opacity:0.13;fill:url(#aigrd50);stroke:none;">
	<!ENTITY st27 "opacity:0.54;fill:#B5B5B5;stroke:none;">
	<!ENTITY st28 "opacity:0.13;fill:url(#aigrd38);stroke:none;">
	<!ENTITY st29 "opacity:0.22;fill:#000000;stroke:none;">
	<!ENTITY st30 "opacity:0.13;fill:url(#aigrd25);stroke:none;">
	<!ENTITY st31 "opacity:0.13;fill:url(#aigrd48);stroke:none;">
	<!ENTITY st32 "fill:#545454;stroke:none;">
	<!ENTITY st33 "fill-rule:nonzero;clip-rule:nonzero;fill:#FFFFFF;stroke:#000000;stroke-miterlimit:4;">
	<!ENTITY st34 "opacity:0.13;fill:url(#aigrd12);stroke:none;">
	<!ENTITY st35 "opacity:0.13;fill:url(#aigrd35);stroke:none;">
	<!ENTITY st36 "fill:url(#aigrd10);stroke:none;">
	<!ENTITY st37 "opacity:0.13;fill:url(#aigrd22);stroke:none;">
	<!ENTITY st38 "opacity:0.13;fill:url(#aigrd45);stroke:none;">
	<!ENTITY st39 "fill:url(#aigrd8);stroke:none;">
	<!ENTITY st40 "opacity:0.13;fill:url(#aigrd32);stroke:none;">
	<!ENTITY st41 "opacity:0.13;fill:url(#aigrd55);stroke:none;">
	<!ENTITY st42 "fill:#000000;stroke-width:2.9565;stroke-linecap:round;stroke-linejoin:round;">
	<!ENTITY st43 "opacity:0.13;fill:url(#aigrd42);stroke:none;">
	<!ENTITY st44 "fill:url(#aigrd5);stroke:none;">
	<!ENTITY st45 "opacity:0.13;fill:url(#aigrd17);stroke:none;">
	<!ENTITY st46 "opacity:0.13;fill:url(#aigrd52);stroke:none;">
	<!ENTITY st47 "opacity:0.13;fill:url(#aigrd27);stroke:none;">
	<!ENTITY st48 "fill:url(#aigrd2);stroke:none;">
	<!ENTITY st49 "opacity:0.13;fill:url(#aigrd14);stroke:none;">
	<!ENTITY st50 "opacity:0.13;fill:url(#aigrd37);stroke:none;">
	<!ENTITY st51 "opacity:0.13;fill:url(#aigrd24);stroke:none;">
	<!ENTITY st52 "opacity:0.13;fill:url(#aigrd47);stroke:none;">
	<!ENTITY st53 "opacity:0.13;fill:url(#aigrd34);stroke:none;">
	<!ENTITY st54 "fill-rule:nonzero;clip-rule:nonzero;stroke:#000000;stroke-miterlimit:4;">
	<!ENTITY st55 "opacity:0.13;fill:url(#aigrd21);stroke:none;">
	<!ENTITY st56 "opacity:0.13;fill:url(#aigrd44);stroke:none;">
	<!ENTITY st57 "fill:url(#aigrd7);stroke:none;">
	<!ENTITY st58 "stroke:none;">
	<!ENTITY st59 "fill:#DBDBDB;stroke:none;">
	<!ENTITY st60 "opacity:0.13;fill:url(#aigrd31);stroke:none;">
	<!ENTITY st61 "opacity:0.13;fill:url(#aigrd19);stroke:none;">
	<!ENTITY st62 "opacity:0.13;fill:url(#aigrd54);stroke:none;">
	<!ENTITY st63 "opacity:0.13;fill:url(#aigrd41);stroke:none;">
	<!ENTITY st64 "opacity:0.13;fill:url(#aigrd29);stroke:none;">
]>
<svg  width="40.6pt" height="42.9pt" viewBox="0 0 40.6 42.9" xml:space="preserve">
	<g id="Layer_x0020_2" style="&st54;">
		<linearGradient id="aigrd1" gradientUnits="userSpaceOnUse" x1="19.9966" y1="20.3887" x2="19.7046" y2="21.3775">
			<stop  offset="0" style="stop-color:#DBDBDB"/>
			<stop  offset="1" style="stop-color:#969696"/>
		</linearGradient>
		<path style="&st16;" d="M38.9,26l0,0l0,0c0,0,0,0,0,0c0,0,0,0,0,0L0.8,14.9c-0.4-0.1-0.7,0.8-0.3,1l38.2,11.1l0,0c0,0,0,0,0,0c0.1,0,0.3-0.2,0.3-0.4c0.1-0.2,0-0.5-0.1-0.5z"/>
		<linearGradient id="aigrd2" gradientUnits="userSpaceOnUse" x1="19.8872" y1="20.3589" x2="19.5958" y2="21.3456">
			<stop  offset="0" style="stop-color:#DBDBDB"/>
			<stop  offset="1" style="stop-color:#969696"/>
		</linearGradient>
		<path style="&st48;" d="M0.5,15.9l38.2,11.1l0.3-1L0.8,14.9c-0.4-0.1-0.7,0.8-0.3,1z"/>
		<path style="&st27;" d="M40.6,32.7L5.4,22.4l-0.3,1L24.3,29C22,30.7,11.2,39.6,10.7,39.9c-0.5,0.3-0.7,1,0,1.2c0.7,0.2,10.5,1.6,11.1,1.8c0.6,0.2,1.5,0.2,1.8-0.1c0.3-0.2,11.3-8.9,13-10.2l3.7,1.1l0.3-1z"/>
	</g>
	<g id="Layer_x0020_3" style="&st54;">
		<radialGradient id="aigrd3" cx="24.353" cy="22.2319" r="1.9563" fx="24.353" fy="22.2319" gradientUnits="userSpaceOnUse">
			<stop  offset="0" style="stop-color:#8B8B8B"/>
			<stop  offset="1" style="stop-color:#3B3B3B"/>
		</radialGradient>
		<path style="&st2;" d="M26.3,22.7c0,0.8-0.6,1.4-1.4,1.4c-0.8,0-1.4-0.6-1.4-1.4s0.6-1.4,1.4-1.4c0.8,0,1.4,0.6,1.4,1.4z"/>
		<path style="&st24;" d="M26.3,22.7c0,0.8-0.6,1.4-1.4,1.4c-0.8,0-1.4-0.6-1.4-1.4s0.6-1.4,1.4-1.4c0.8,0,1.4,0.6,1.4,1.4z"/>
		<linearGradient id="aigrd5" gradientUnits="userSpaceOnUse" x1="32.5981" y1="24.1123" x2="32.3378" y2="24.9937">
			<stop  offset="0" style="stop-color:#DBDBDB"/>
			<stop  offset="1" style="stop-color:#969696"/>
		</linearGradient>
		<path style="&st44;" d="M26,23.3l12.7,3.7l0.3-1l-12.7-3.7c-0.4-0.1-0.8,0.8-0.3,1z"/>
		<path style="&st59;" d="M39,26.5c-0.1,0.3-0.2,0.5-0.3,0.4c-0.1,0-0.2-0.3-0.1-0.5c0.1-0.3,0.2-0.5,0.3-0.4c0.1,0,0.2,0.3,0.1,0.5z"/>
	</g>
	<g id="Layer_x0020_1" style="&st33;">
		<path style="&st42;" d="M23.1,3c0,0,0,0,0,0c0,0-0.1,0-0.1,0c-0.5-0.1-5.6-1.1-6.2-1.3c-0.6-0.2-1.4-0.2-1.7-0.1c-0.3,0.1-10.5,5.9-11,6.3C4,7.8,3.9,7.9,3.9,7.9C3.2,8.5,3.2,9.4,3.2,9.4s0,0,0-0.1c0,0,0,0.1,0,0.1l0.2,26.3c0,0.5,0.1,0.7,0.6,0.9
			c0,0,6,2.9,7.6,3.2c0.1,0,0.1,0,0.2,0c0,0,0,0,0,0c0.7,0.1,0.9,0.1,1.2-0.2c0,0,0.1,0,0.1-0.1c0.3-0.2,10.3-7.9,10.6-8.1c0.3-0.3,0.3-0.5,0.4-0.8s0.2-26,0.2-26.3c0,0,0-0.1,0-0.1c0,0,0,0,0,0c0-0.4,0-1.2-1.1-1.4z M12.3,39.5c0,0,0,0,0,0l0,0v0c0,0,0,0,0,0.1
			c0,0,0-0.1,0-0.1l0,0z M22.8,4.5c0.4-0.3,0.6-0.5,0.6-0.5s-0.3,0.2-0.7,0.5c-0.7,0.5-1.6,1.1-2.7,1.9c1.7-1.2,3.2-2.3,3.6-2.6c-0.1,0.1-0.4,0.3-0.9,0.6z"/>
		<linearGradient id="aigrd6" gradientUnits="userSpaceOnUse" x1="3.7856" y1="7.9902" x2="23.1001" y2="7.9902" gradientTransform="matrix(0.997 7.730000e-002 -7.730000e-002 0.997 1.0941 -2.5219)">
			<stop  offset="0" style="stop-color:#EBEBEB"/>
			<stop  offset="1" style="stop-color:#EAEAEA"/>
		</linearGradient>
		<path style="&st18;" d="M16.8,1.7c-0.6-0.2-1.4-0.2-1.7-0.1c-0.3,0.1-10.5,5.9-11,6.3c-0.5,0.3-0.7,1,0,1.2c0.7,0.2,6.8,2.1,7.4,2.3c0.6,0.2,1.5,0.2,1.8-0.1c0.3-0.3,10.1-7.1,10.4-7.4C24.1,3.6,23.5,3.1,23,3c-0.5-0.1-5.6-1.1-6.2-1.3z"/>
		<linearGradient id="aigrd7" gradientUnits="userSpaceOnUse" x1="3.3145" y1="26.0049" x2="14.2534" y2="26.7928" gradientTransform="matrix(0.997 7.730000e-002 -7.730000e-002 0.997 1.0941 -2.5219)">
			<stop  offset="0" style="stop-color:#F8F8F8"/>
			<stop  offset="1" style="stop-color:#C9C9C9"/>
		</linearGradient>
		<path style="&st57;" d="M3.2,9.6c0-0.5,0.3-0.8,0.7-0.7c0.3,0.1,7.4,2.4,8,2.7c0.5,0.3,0.8,0.5,0.8,0.9c0,0.4-0.2,26.4-0.2,26.8c0,0.4-0.3,0.8-0.9,0.6c-1.6-0.4-7.6-3.2-7.6-3.2c-0.4-0.2-0.5-0.4-0.6-0.9L3.2,9.6z"/>
		<linearGradient id="aigrd8" gradientUnits="userSpaceOnUse" x1="10.9028" y1="32.2402" x2="28.5096" y2="11.5124" gradientTransform="matrix(0.997 7.730000e-002 -7.730000e-002 0.997 1.0941 -2.5219)">
			<stop  offset="0" style="stop-color:#9F9F9F"/>
			<stop  offset="1" style="stop-color:#828282"/>
		</linearGradient>
		<path style="&st39;" d="M13,39.8c-0.3,0.2-0.7,0-0.7-0.6c0-0.5,0.2-26.3,0.2-26.8c0-0.4,0.2-0.8,0.5-1.1c0.3-0.2,10.2-7.1,10.6-7.4c0.4-0.3,0.6,0.3,0.5,0.6c0,0.3-0.2,26-0.2,26.3c0,0.3-0.1,0.5-0.4,0.8S13.3,39.5,13,39.8z"/>
		<g style="&st58;">
			<path d="M12.2,11.3c-0.9-0.1-8.3-2.6-8.4-2.6c-0.1,0,0-0.5,0.3-0.8C3.2,8.4,3.2,9.5,3.2,9.5S3.3,9,3.8,9c1.8,0.6,7.2,2.6,7.7,2.8c0.5,0.2,0.7,0.8,0.7,1.3l0.2,26.5L12.7,13c0-0.5,0.2-1.4,0.8-1.7c0.3-0.2,6.7-4.8,9.1-6.6c-2.5,1.8-9.3,6.6-10.4,6.5z"/>
			<path d="M22.5,4.8c0.5-0.4,0.9-0.6,0.9-0.6s-0.3,0.2-0.9,0.6z"/>
		</g>
		<path style="&st11;" d="M12.9,39.8c-0.3,0.3-0.5,0.3-1.2,0.2c0.5-0.1,0.7-0.5,0.7-0.5s0.1,0.3,0.5,0.3z"/>
		<path style="&st32;" d="M23.1,3c0.6,0.2,0.8,0.6,0.5,0.9c0.3-0.2,0.5,0.5,0.5,0.5c0-0.4,0-1.2-1.1-1.4z"/>
		<g>
			<linearGradient id="aigrd9" gradientUnits="userSpaceOnUse" x1="4.3774" y1="17.0488" x2="10.6968" y2="17.0488">
				<stop  offset="0" style="stop-color:#2A2A2A"/>
				<stop  offset="0.4743" style="stop-color:#585858"/>
				<stop  offset="1" style="stop-color:#878787"/>
			</linearGradient>
			<path style="&st12;" d="M4.4,15.7v0.6l6.3,2.2v-0.5l-6.3-2.3z"/>
			<path style="&st29;" d="M4.4,16.3l-0.3,0.2v-1.2l6.8,2.4l-0.2,0.3l-6.3-2.3v0.6z"/>
			<path style="&st14;" d="M10.9,18.8v-1.2l-0.2,0.3v0.5l-6.3-2.2l-0.3,0.2l6.8,2.4z"/>
		</g>
		<g>
			<linearGradient id="aigrd10" gradientUnits="userSpaceOnUse" x1="4.3774" y1="13.5039" x2="10.6968" y2="13.5039">
				<stop  offset="0" style="stop-color:#2A2A2A"/>
				<stop  offset="0.4743" style="stop-color:#585858"/>
				<stop  offset="1" style="stop-color:#878787"/>
			</linearGradient>
			<path style="&st36;" d="M4.4,12.1v0.6l6.3,2.2v-0.5l-6.3-2.3z"/>
			<path style="&st29;" d="M4.4,12.7l-0.3,0.2v-1.2l6.8,2.4l-0.2,0.3l-6.3-2.3v0.6z"/>
			<path style="&st14;" d="M10.9,15.3v-1.2l-0.2,0.3v0.5l-6.3-2.2l-0.3,0.2l6.8,2.4z"/>
		</g>
		<g>
			<linearGradient id="aigrd11" gradientUnits="userSpaceOnUse" x1="5.7563" y1="20.8193" x2="10.6968" y2="20.8193">
				<stop  offset="0" style="stop-color:#2A2A2A"/>
				<stop  offset="0.4743" style="stop-color:#585858"/>
				<stop  offset="1" style="stop-color:#878787"/>
			</linearGradient>
			<path style="&st8;" d="M5.8,19.6v0.6l4.9,1.7v-0.5l-4.9-1.8z"/>
			<path style="&st29;" d="M5.8,20.3l-0.3,0.2v-1.2l5.4,2l-0.2,0.3l-4.9-1.8v0.6z"/>
			<path style="&st14;" d="M10.9,22.4v-1.2l-0.2,0.3V22l-4.9-1.7l-0.3,0.2l5.4,1.9z"/>
		</g>
		<g>
			<g>
				<g>
					<linearGradient id="aigrd12" gradientUnits="userSpaceOnUse" x1="21.2378" y1="29.4912" x2="17.7185" y2="36.0773">
						<stop  offset="0" style="stop-color:#FFFFFF"/>
						<stop  offset="1" style="stop-color:#FFFFFF"/>
					</linearGradient>
					<path style="&st34;" d="M24.2,30.1l-11,8v0.4l10.9-8.1l0-0.3z"/>
					<linearGradient id="aigrd13" gradientUnits="userSpaceOnUse" x1="21.2388" y1="29.1797" x2="17.7194" y2="35.7659">
						<stop  offset="0" style="stop-color:#000000"/>
						<stop  offset="1" style="stop-color:#6A6A6A"/>
					</linearGradient>
					<path style="&st6;" d="M24.2,29.8l-11,8v0.4l10.9-8.1l0-0.3z"/>
				</g>
				<g>
					<linearGradient id="aigrd14" gradientUnits="userSpaceOnUse" x1="21.2378" y1="28.3096" x2="17.7184" y2="34.8958">
						<stop  offset="0" style="stop-color:#FFFFFF"/>
						<stop  offset="1" style="stop-color:#FFFFFF"/>
					</linearGradient>
					<path style="&st49;" d="M24.2,29l-11,8v0.4l10.9-8.1l0-0.3z"/>
					<linearGradient id="aigrd15" gradientUnits="userSpaceOnUse" x1="21.2397" y1="27.998" x2="17.7204" y2="34.5843">
						<stop  offset="0" style="stop-color:#000000"/>
						<stop  offset="1" style="stop-color:#6A6A6A"/>
					</linearGradient>
					<path style="&st25;" d="M24.2,28.7l-11,8V37L24.1,29l0-0.3z"/>
				</g>
				<g>
					<linearGradient id="aigrd16" gradientUnits="userSpaceOnUse" x1="21.2378" y1="27.1279" x2="17.7184" y2="33.7142">
						<stop  offset="0" style="stop-color:#FFFFFF"/>
						<stop  offset="1" style="stop-color:#FFFFFF"/>
					</linearGradient>
					<path style="&st0;" d="M24.2,27.8l-11,8v0.4l10.9-8.1l0-0.3z"/>
					<linearGradient id="aigrd17" gradientUnits="userSpaceOnUse" x1="21.2397" y1="26.8164" x2="17.7204" y2="33.4027">
						<stop  offset="0" style="stop-color:#000000"/>
						<stop  offset="1" style="stop-color:#6A6A6A"/>
					</linearGradient>
					<path style="&st45;" d="M24.2,27.5l-11,8v0.4l10.9-8.1l0-0.3z"/>
				</g>
				<g>
					<linearGradient id="aigrd18" gradientUnits="userSpaceOnUse" x1="21.2378" y1="25.9463" x2="17.7184" y2="32.5326">
						<stop  offset="0" style="stop-color:#FFFFFF"/>
						<stop  offset="1" style="stop-color:#FFFFFF"/>
					</linearGradient>
					<path style="&st20;" d="M24.2,26.6l-11,8V35l10.9-8.1l0-0.3z"/>
					<linearGradient id="aigrd19" gradientUnits="userSpaceOnUse" x1="21.2388" y1="25.6348" x2="17.7194" y2="32.221">
						<stop  offset="0" style="stop-color:#000000"/>
						<stop  offset="1" style="stop-color:#6A6A6A"/>
					</linearGradient>
					<path style="&st61;" d="M24.2,26.3l-11,8v0.4l10.9-8.1l0-0.3z"/>
				</g>
				<g>
					<linearGradient id="aigrd20" gradientUnits="userSpaceOnUse" x1="21.2378" y1="24.7646" x2="17.7184" y2="31.3509">
						<stop  offset="0" style="stop-color:#FFFFFF"/>
						<stop  offset="1" style="stop-color:#FFFFFF"/>
					</linearGradient>
					<path style="&st15;" d="M24.2,25.4l-11,8v0.4l10.9-8.1l0-0.3z"/>
					<linearGradient id="aigrd21" gradientUnits="userSpaceOnUse" x1="21.2378" y1="24.4531" x2="17.7185" y2="31.0393">
						<stop  offset="0" style="stop-color:#000000"/>
						<stop  offset="1" style="stop-color:#6A6A6A"/>
					</linearGradient>
					<path style="&st55;" d="M24.2,25.1l-11,8v0.4l10.9-8.1l0-0.3z"/>
				</g>
				<g>
					<linearGradient id="aigrd22" gradientUnits="userSpaceOnUse" x1="21.2378" y1="23.5825" x2="17.7181" y2="30.1693">
						<stop  offset="0" style="stop-color:#FFFFFF"/>
						<stop  offset="1" style="stop-color:#FFFFFF"/>
					</linearGradient>
					<path style="&st37;" d="M24.2,24.2l-11,8v0.4l10.9-8.1l0-0.3z"/>
					<linearGradient id="aigrd23" gradientUnits="userSpaceOnUse" x1="21.2388" y1="23.2715" x2="17.7194" y2="29.8577">
						<stop  offset="0" style="stop-color:#000000"/>
						<stop  offset="1" style="stop-color:#6A6A6A"/>
					</linearGradient>
					<path style="&st9;" d="M24.2,23.9l-11,8v0.4l10.9-8.1l0-0.3z"/>
				</g>
				<g>
					<linearGradient id="aigrd24" gradientUnits="userSpaceOnUse" x1="21.2378" y1="22.4014" x2="17.7183" y2="28.9879">
						<stop  offset="0" style="stop-color:#FFFFFF"/>
						<stop  offset="1" style="stop-color:#FFFFFF"/>
					</linearGradient>
					<path style="&st51;" d="M24.2,23.1l-11,8v0.4l10.9-8.1l0-0.3z"/>
					<linearGradient id="aigrd25" gradientUnits="userSpaceOnUse" x1="21.2388" y1="22.0894" x2="17.7193" y2="28.6759">
						<stop  offset="0" style="stop-color:#000000"/>
						<stop  offset="1" style="stop-color:#6A6A6A"/>
					</linearGradient>
					<path style="&st30;" d="M24.2,22.7l-11,8v0.4L24.1,23l0-0.3z"/>
				</g>
				<g>
					<linearGradient id="aigrd26" gradientUnits="userSpaceOnUse" x1="21.2388" y1="21.2197" x2="17.7195" y2="27.8059">
						<stop  offset="0" style="stop-color:#FFFFFF"/>
						<stop  offset="1" style="stop-color:#FFFFFF"/>
					</linearGradient>
					<path style="&st4;" d="M24.2,21.9l-11,8v0.4l10.9-8.1l0-0.3z"/>
					<linearGradient id="aigrd27" gradientUnits="userSpaceOnUse" x1="21.2388" y1="20.9082" x2="17.7194" y2="27.4945">
						<stop  offset="0" style="stop-color:#000000"/>
						<stop  offset="1" style="stop-color:#6A6A6A"/>
					</linearGradient>
					<path style="&st47;" d="M24.2,21.6l-11,8V30l10.9-8.1l0-0.3z"/>
				</g>
				<g>
					<linearGradient id="aigrd28" gradientUnits="userSpaceOnUse" x1="21.2378" y1="20.0376" x2="17.7184" y2="26.6239">
						<stop  offset="0" style="stop-color:#FFFFFF"/>
						<stop  offset="1" style="stop-color:#FFFFFF"/>
					</linearGradient>
					<path style="&st23;" d="M24.2,20.7l-11,8v0.4L24.1,21l0-0.3z"/>
					<linearGradient id="aigrd29" gradientUnits="userSpaceOnUse" x1="21.2397" y1="19.7266" x2="17.7203" y2="26.313">
						<stop  offset="0" style="stop-color:#000000"/>
						<stop  offset="1" style="stop-color:#6A6A6A"/>
					</linearGradient>
					<path style="&st64;" d="M24.2,20.4l-11,8v0.4l10.9-8.1l0-0.3z"/>
				</g>
				<g>
					<linearGradient id="aigrd30" gradientUnits="userSpaceOnUse" x1="21.2378" y1="18.856" x2="17.7184" y2="25.4422">
						<stop  offset="0" style="stop-color:#FFFFFF"/>
						<stop  offset="1" style="stop-color:#FFFFFF"/>
					</linearGradient>
					<path style="&st19;" d="M24.2,19.5l-11,8v0.4l10.9-8.1l0-0.3z"/>
					<linearGradient id="aigrd31" gradientUnits="userSpaceOnUse" x1="21.2388" y1="18.5444" x2="17.7193" y2="25.1309">
						<stop  offset="0" style="stop-color:#000000"/>
						<stop  offset="1" style="stop-color:#6A6A6A"/>
					</linearGradient>
					<path style="&st60;" d="M24.2,19.2l-11,8v0.4l10.9-8.1l0-0.3z"/>
				</g>
				<g>
					<linearGradient id="aigrd32" gradientUnits="userSpaceOnUse" x1="21.2378" y1="17.6738" x2="17.7184" y2="24.2601">
						<stop  offset="0" style="stop-color:#FFFFFF"/>
						<stop  offset="1" style="stop-color:#FFFFFF"/>
					</linearGradient>
					<path style="&st40;" d="M24.2,18.3l-11,8v0.4l10.9-8.1l0-0.3z"/>
					<linearGradient id="aigrd33" gradientUnits="userSpaceOnUse" x1="21.2378" y1="17.3623" x2="17.7183" y2="23.9488">
						<stop  offset="0" style="stop-color:#000000"/>
						<stop  offset="1" style="stop-color:#6A6A6A"/>
					</linearGradient>
					<path style="&st13;" d="M24.2,18l-11,8v0.4l10.9-8.1l0-0.3z"/>
				</g>
				<g>
					<linearGradient id="aigrd34" gradientUnits="userSpaceOnUse" x1="21.2378" y1="16.4922" x2="17.7183" y2="23.0786">
						<stop  offset="0" style="stop-color:#FFFFFF"/>
						<stop  offset="1" style="stop-color:#FFFFFF"/>
					</linearGradient>
					<path style="&st53;" d="M24.2,17.1l-11,8v0.4l10.9-8.1l0-0.3z"/>
					<linearGradient id="aigrd35" gradientUnits="userSpaceOnUse" x1="21.2388" y1="16.1807" x2="17.7192" y2="22.7673">
						<stop  offset="0" style="stop-color:#000000"/>
						<stop  offset="1" style="stop-color:#6A6A6A"/>
					</linearGradient>
					<path style="&st35;" d="M24.2,16.8l-11,8v0.4l10.9-8.1l0-0.3z"/>
				</g>
				<g>
					<linearGradient id="aigrd36" gradientUnits="userSpaceOnUse" x1="21.2378" y1="15.3105" x2="17.7183" y2="21.8971">
						<stop  offset="0" style="stop-color:#FFFFFF"/>
						<stop  offset="1" style="stop-color:#FFFFFF"/>
					</linearGradient>
					<path style="&st7;" d="M24.2,16l-11,8v0.4l10.9-8.1l0-0.3z"/>
					<linearGradient id="aigrd37" gradientUnits="userSpaceOnUse" x1="21.2388" y1="14.999" x2="17.7192" y2="21.5857">
						<stop  offset="0" style="stop-color:#000000"/>
						<stop  offset="1" style="stop-color:#6A6A6A"/>
					</linearGradient>
					<path style="&st50;" d="M24.2,15.7l-11,8V24L24.1,16l0-0.3z"/>
				</g>
				<g>
					<linearGradient id="aigrd38" gradientUnits="userSpaceOnUse" x1="21.2388" y1="14.1289" x2="17.7193" y2="20.7154">
						<stop  offset="0" style="stop-color:#FFFFFF"/>
						<stop  offset="1" style="stop-color:#FFFFFF"/>
					</linearGradient>
					<path style="&st28;" d="M24.2,14.8l-11,8v0.4l10.9-8.1l0-0.3z"/>
					<linearGradient id="aigrd39" gradientUnits="userSpaceOnUse" x1="21.2388" y1="13.8174" x2="17.7193" y2="20.4039">
						<stop  offset="0" style="stop-color:#000000"/>
						<stop  offset="1" style="stop-color:#6A6A6A"/>
					</linearGradient>
					<path style="&st3;" d="M24.2,14.5l-11,8v0.4l10.9-8.1l0-0.3z"/>
				</g>
				<g>
					<linearGradient id="aigrd40" gradientUnits="userSpaceOnUse" x1="21.2378" y1="12.9473" x2="17.7183" y2="19.5338">
						<stop  offset="0" style="stop-color:#FFFFFF"/>
						<stop  offset="1" style="stop-color:#FFFFFF"/>
					</linearGradient>
					<path style="&st22;" d="M24.2,13.6l-11,8V22l10.9-8.1l0-0.3z"/>
					<linearGradient id="aigrd41" gradientUnits="userSpaceOnUse" x1="21.2388" y1="12.6357" x2="17.7193" y2="19.2223">
						<stop  offset="0" style="stop-color:#000000"/>
						<stop  offset="1" style="stop-color:#6A6A6A"/>
					</linearGradient>
					<path style="&st63;" d="M24.2,13.3l-11,8v0.4l10.9-8.1l0-0.3z"/>
				</g>
				<g>
					<linearGradient id="aigrd42" gradientUnits="userSpaceOnUse" x1="21.2378" y1="11.7651" x2="17.7182" y2="18.3518">
						<stop  offset="0" style="stop-color:#FFFFFF"/>
						<stop  offset="1" style="stop-color:#FFFFFF"/>
					</linearGradient>
					<path style="&st43;" d="M24.2,12.4l-11,8v0.4l10.9-8.1l0-0.3z"/>
					<linearGradient id="aigrd43" gradientUnits="userSpaceOnUse" x1="21.2388" y1="11.4536" x2="17.7193" y2="18.0401">
						<stop  offset="0" style="stop-color:#000000"/>
						<stop  offset="1" style="stop-color:#6A6A6A"/>
					</linearGradient>
					<path style="&st17;" d="M24.2,12.1l-11,8v0.4l10.9-8.1l0-0.3z"/>
				</g>
				<g>
					<linearGradient id="aigrd44" gradientUnits="userSpaceOnUse" x1="21.2388" y1="10.5835" x2="17.7192" y2="17.1701">
						<stop  offset="0" style="stop-color:#FFFFFF"/>
						<stop  offset="1" style="stop-color:#FFFFFF"/>
					</linearGradient>
					<path style="&st56;" d="M24.2,11.2l-11,8v0.4l10.9-8.1l0-0.3z"/>
					<linearGradient id="aigrd45" gradientUnits="userSpaceOnUse" x1="21.2378" y1="10.272" x2="17.7183" y2="16.8584">
						<stop  offset="0" style="stop-color:#000000"/>
						<stop  offset="1" style="stop-color:#6A6A6A"/>
					</linearGradient>
					<path style="&st38;" d="M24.2,10.9l-11,8v0.4l10.9-8.1l0-0.3z"/>
				</g>
				<g>
					<linearGradient id="aigrd46" gradientUnits="userSpaceOnUse" x1="21.2378" y1="9.4019" x2="17.7181" y2="15.9886">
						<stop  offset="0" style="stop-color:#FFFFFF"/>
						<stop  offset="1" style="stop-color:#FFFFFF"/>
					</linearGradient>
					<path style="&st10;" d="M24.2,10.1l-11,8v0.4l10.9-8.1l0-0.3z"/>
					<linearGradient id="aigrd47" gradientUnits="userSpaceOnUse" x1="21.2378" y1="9.0903" x2="17.7183" y2="15.6768">
						<stop  offset="0" style="stop-color:#000000"/>
						<stop  offset="1" style="stop-color:#6A6A6A"/>
					</linearGradient>
					<path style="&st52;" d="M24.2,9.7l-11,8v0.4L24.1,10l0-0.3z"/>
				</g>
				<g>
					<linearGradient id="aigrd48" gradientUnits="userSpaceOnUse" x1="21.2378" y1="8.2202" x2="17.7183" y2="14.8067">
						<stop  offset="0" style="stop-color:#FFFFFF"/>
						<stop  offset="1" style="stop-color:#FFFFFF"/>
					</linearGradient>
					<path style="&st31;" d="M24.2,8.9l-11,8v0.4l10.9-8.1l0-0.3z"/>
					<linearGradient id="aigrd49" gradientUnits="userSpaceOnUse" x1="21.2388" y1="7.9082" x2="17.7191" y2="14.495">
						<stop  offset="0" style="stop-color:#000000"/>
						<stop  offset="1" style="stop-color:#6A6A6A"/>
					</linearGradient>
					<path style="&st5;" d="M24.2,8.6l-11,8V17l10.9-8.1l0-0.3z"/>
				</g>
				<g>
					<linearGradient id="aigrd50" gradientUnits="userSpaceOnUse" x1="21.2388" y1="7.0381" x2="17.7192" y2="13.6247">
						<stop  offset="0" style="stop-color:#FFFFFF"/>
						<stop  offset="1" style="stop-color:#FFFFFF"/>
					</linearGradient>
					<path style="&st26;" d="M24.2,7.7l-11,8v0.4L24.1,8l0-0.3z"/>
					<linearGradient id="aigrd51" gradientUnits="userSpaceOnUse" x1="21.2388" y1="6.7271" x2="17.7192" y2="13.3137">
						<stop  offset="0" style="stop-color:#000000"/>
						<stop  offset="1" style="stop-color:#6A6A6A"/>
					</linearGradient>
					<path style="&st1;" d="M24.2,7.4l-11,8v0.4l10.9-8.1l0-0.3z"/>
				</g>
				<g>
					<linearGradient id="aigrd52" gradientUnits="userSpaceOnUse" x1="21.2388" y1="5.8569" x2="17.7191" y2="12.4437">
						<stop  offset="0" style="stop-color:#FFFFFF"/>
						<stop  offset="1" style="stop-color:#FFFFFF"/>
					</linearGradient>
					<path style="&st46;" d="M24.2,6.5l-11,8v0.4l10.9-8.1l0-0.3z"/>
					<linearGradient id="aigrd53" gradientUnits="userSpaceOnUse" x1="21.2388" y1="5.5454" x2="17.7192" y2="12.1321">
						<stop  offset="0" style="stop-color:#000000"/>
						<stop  offset="1" style="stop-color:#6A6A6A"/>
					</linearGradient>
					<path style="&st21;" d="M24.2,6.2l-11,8v0.4l10.9-8.1l0-0.3z"/>
				</g>
				<g>
					<linearGradient id="aigrd54" gradientUnits="userSpaceOnUse" x1="21.2378" y1="4.6748" x2="17.7181" y2="11.2616">
						<stop  offset="0" style="stop-color:#FFFFFF"/>
						<stop  offset="1" style="stop-color:#FFFFFF"/>
					</linearGradient>
					<path style="&st62;" d="M24.2,5.3l-11,8v0.4l10.9-8.1l0-0.3z"/>
					<linearGradient id="aigrd55" gradientUnits="userSpaceOnUse" x1="21.2388" y1="4.3638" x2="17.7192" y2="10.9504">
						<stop  offset="0" style="stop-color:#000000"/>
						<stop  offset="1" style="stop-color:#6A6A6A"/>
					</linearGradient>
					<path style="&st41;" d="M24.2,5l-11,8v0.4l10.9-8.1l0-0.3z"/>
				</g>
			</g>
		</g>
	</g>
</svg>
